<svg width="100" height="100" viewBox="0 0 100 100" fill="none" xmlns="http://www.w3.org/2000/svg">
<g id="Group 427318964">
<rect id="Rectangle 29" width="7.23632" height="7.23632" rx="1" transform="matrix(-0.707107 0.707107 0.707107 0.707107 88.4846 38.4883)" fill="white"/>
<rect id="Rectangle 30" width="7.23632" height="7.23632" rx="1" transform="matrix(-0.707107 0.707107 0.707107 0.707107 82.0896 32.0898)" fill="white"/>
<rect id="Rectangle 39" width="7.23632" height="7.23632" rx="1" transform="matrix(-0.707107 0.707107 0.707107 0.707107 75.6914 25.6953)" fill="white"/>
<rect id="Rectangle 45" width="7.23632" height="7.23632" rx="1" transform="matrix(-0.707107 0.707107 0.707107 0.707107 69.2979 19.2988)" fill="white"/>
<rect id="Rectangle 46" width="7.23632" height="7.23632" rx="1" transform="matrix(-0.707107 0.707107 0.707107 0.707107 62.9014 12.9023)" fill="white"/>
<rect id="Rectangle 47" width="7.23632" height="7.23632" rx="1" transform="matrix(-0.707107 0.707107 0.707107 0.707107 56.5046 6.50586)" fill="white"/>
<rect id="Rectangle 48" width="7.23632" height="7.23632" rx="1" transform="matrix(-0.707107 0.707107 0.707107 0.707107 50.1096 0.109375)" fill="white"/>
<rect id="Rectangle 21" width="7.23632" height="7.23632" rx="1" transform="matrix(-0.707107 0.707107 0.707107 0.707107 88.4846 51.2793)" fill="white"/>
<rect id="Rectangle 32" width="7.23632" height="7.23632" rx="1" transform="matrix(-0.707107 0.707107 0.707107 0.707107 94.8811 44.8848)" fill="white"/>
<rect id="Rectangle 22" width="7.23632" height="7.23632" rx="1" transform="matrix(-0.707107 0.707107 0.707107 0.707107 82.0896 57.6719)" fill="white"/>
<rect id="Rectangle 26" width="7.23632" height="7.23632" rx="1" transform="matrix(-0.707107 0.707107 0.707107 0.707107 75.6914 64.0703)" fill="white"/>
<rect id="Rectangle 57" x="44.9907" y="94.7715" width="7.23632" height="7.23632" rx="1" transform="rotate(-45 44.9907 94.7715)" fill="white"/>
<rect id="Rectangle 58" x="51.3875" y="88.377" width="7.23632" height="7.23632" rx="1" transform="rotate(-45 51.3875 88.377)" fill="white"/>
<rect id="Rectangle 59" x="57.7839" y="81.9805" width="7.23632" height="7.23632" rx="1" transform="rotate(-45 57.7839 81.9805)" fill="white"/>
<rect id="Rectangle 60" x="64.1807" y="75.584" width="7.23632" height="7.23632" rx="1" transform="rotate(-45 64.1807 75.584)" fill="white"/>
</g>
</svg>
