<svg width="24" height="24" viewBox="0 0 24 24" fill="none" xmlns="http://www.w3.org/2000/svg">
<g id="Frame 427321262">
<path id="Subtract" fill-rule="evenodd" clip-rule="evenodd" d="M14.009 17.8513C16.5388 13.9333 18 11.6704 18 9C18 5.68629 15.3137 3 12 3C8.68629 3 6 5.68629 6 9C6 11.6704 7.46117 13.9333 9.99101 17.8513C10.6005 18.7952 11.272 19.8352 12 21C12.728 19.8352 13.3995 18.7952 14.009 17.8513ZM12 12C13.6569 12 15 10.6569 15 9C15 7.34315 13.6569 6 12 6C10.3431 6 9 7.34315 9 9C9 10.6569 10.3431 12 12 12Z" fill="#4EDDBB"/>
</g>
</svg>
