<svg width="241" height="220" viewBox="0 0 241 220" fill="none" xmlns="http://www.w3.org/2000/svg">
<g id="random 1">
<g id="Group">
<path id="Vector" fill-rule="evenodd" clip-rule="evenodd" d="M184.491 104.972C188.313 101.763 190.217 98.5813 189.213 96.4033C188.844 95.6044 188.119 95.0018 187.056 94.6104C186.645 94.4643 186.221 94.3535 185.791 94.2791C185.796 94.2404 185.804 94.2041 185.804 94.1641C185.793 93.8335 185.656 93.5194 185.422 93.2862C185.187 93.0531 184.872 92.9186 184.541 92.9103C184.211 92.9019 183.889 93.0205 183.643 93.2415C183.397 93.4626 183.245 93.7694 183.218 94.0991C182.818 94.1053 182.408 94.1241 181.98 94.1566C182.188 92.0361 182.075 90.2244 181.601 88.8979C181.222 87.8314 180.63 87.1 179.836 86.7224C179.042 86.3448 178.099 86.3461 177.033 86.7249C175.231 87.3663 173.152 89.0829 171.081 91.5322C168.988 89.0729 166.893 87.3513 165.079 86.7149C164.011 86.341 163.07 86.3436 162.278 86.7236C161.484 87.1037 160.894 87.8389 160.52 88.9066C160.064 90.2019 159.951 91.9523 160.146 94.0015C159.529 93.9415 158.942 93.914 158.384 93.9115C158.278 93.6584 158.094 93.4454 157.86 93.3034C157.625 93.1614 157.351 93.0976 157.078 93.1214C156.805 93.1452 156.546 93.2553 156.34 93.4358C156.133 93.6163 155.989 93.8577 155.929 94.1253C155.611 94.1889 155.298 94.2733 154.991 94.3779C153.924 94.7542 153.192 95.3469 152.813 96.1395C152.432 96.9322 152.432 97.8749 152.808 98.9414C153.431 100.703 155.077 102.73 157.428 104.759C153.746 107.907 151.927 111.01 152.914 113.15C153.777 115.023 156.606 115.74 160.51 115.379C160.481 115.679 160.461 115.973 160.444 116.26C159.931 116.434 159.558 116.912 159.558 117.484C159.558 118.073 159.953 118.563 160.49 118.722C160.713 120.78 161.428 122.238 162.671 122.827C163.465 123.206 164.407 123.203 165.471 122.824C167.188 122.214 169.151 120.631 171.123 118.371C174.328 122.007 177.464 123.78 179.587 122.759C180.791 122.183 181.494 120.789 181.729 118.826C181.918 118.882 182.118 118.893 182.313 118.86C182.508 118.826 182.693 118.748 182.852 118.632C183.012 118.515 183.143 118.364 183.235 118.189C183.327 118.014 183.378 117.82 183.383 117.623C183.388 117.425 183.348 117.229 183.266 117.049C183.183 116.869 183.06 116.711 182.907 116.587C182.753 116.462 182.573 116.374 182.38 116.33C182.188 116.286 181.987 116.287 181.795 116.333C181.781 116.07 181.762 115.807 181.739 115.544C183.729 115.718 185.433 115.598 186.699 115.151C187.766 114.775 188.498 114.182 188.877 113.388C189.256 112.597 189.258 111.654 188.882 110.588C188.278 108.882 186.72 106.933 184.491 104.972Z" fill="white"/>
<path id="Vector_2" fill-rule="evenodd" clip-rule="evenodd" d="M166.669 110.784C167.766 111.335 168.881 111.851 170.01 112.332C169.339 112.581 168.672 112.813 168.017 113.026C167.548 112.291 167.098 111.543 166.669 110.784ZM168.005 110.699C167.362 110.392 166.725 110.072 166.095 109.74C165.296 108.252 164.566 106.726 163.91 105.169C164.652 103.303 165.497 101.48 166.442 99.7079C167.933 98.9471 169.459 98.2566 171.015 97.6387C172.672 98.3253 174.294 99.0927 175.875 99.9379C176.771 101.629 177.578 103.365 178.293 105.14C177.664 106.649 176.968 108.128 176.208 109.575C174.489 110.477 172.722 111.283 170.914 111.988C169.932 111.587 168.961 111.157 168.005 110.699Z" fill="#121212"/>
<path id="Vector_3" fill-rule="evenodd" clip-rule="evenodd" d="M17.6951 134.311H10.6985V133.976C11.7775 133.91 12.5577 133.856 12.5577 133.031V126.582C12.5577 125.703 11.6187 125.675 10.6985 125.636V125.301H17.6951V125.636C16.7561 125.663 15.7959 125.675 15.7959 126.582V133.031C15.7959 133.883 16.5961 133.925 17.6951 133.976V134.311ZM23.5902 133.976C24.7892 133.883 25.3493 133.791 25.3493 132.911V126.595C24.2291 125.675 23.9103 125.635 23.6502 125.635V125.3H27.8674L34.804 130.99H34.844V126.953C34.844 126.154 34.6039 125.715 32.9848 125.634V125.299H37.2833V125.634C35.8442 125.754 35.7242 126.059 35.7242 126.699V134.547H35.1641L26.2695 127.327H26.2295V132.656C26.2295 133.616 26.6496 133.87 28.1287 133.975V134.31H23.5914L23.5902 133.976ZM56.629 132.618C55.1699 133.725 53.6108 134.562 51.0527 134.562C46.3954 134.562 43.8761 132.379 43.8761 129.886C43.8761 127.183 46.7555 125.103 50.9527 125.103C52.7518 125.103 54.2909 125.756 54.8098 125.756C55.3499 125.756 55.53 125.475 55.7288 125.144H56.2689V128.262H55.77C55.0699 127.102 53.392 125.544 51.1127 125.544C48.1945 125.544 47.4144 127.581 47.4144 129.832C47.4144 130.634 47.5344 131.913 48.2746 132.766C49.1135 133.726 50.6939 133.926 51.3128 133.926C52.8719 133.926 54.371 133.526 56.0301 132.285L56.629 132.618ZM77.3762 129.832C77.3762 132.631 74.398 134.562 70.3008 134.562C66.2037 134.562 63.2242 132.631 63.2242 129.832C63.2242 126.929 66.4425 125.103 70.3008 125.103C74.158 125.103 77.3762 126.929 77.3762 129.832Z" fill="white"/>
<path id="Vector_4" fill-rule="evenodd" clip-rule="evenodd" d="M66.7627 129.832C66.7627 130.993 66.8827 134.123 70.301 134.123C73.718 134.123 73.8381 130.993 73.8381 129.832C73.8381 127.888 73.0991 125.544 70.301 125.544C67.5029 125.544 66.7627 127.888 66.7627 129.832Z" fill="#121212"/>
<path id="Vector_5" fill-rule="evenodd" clip-rule="evenodd" d="M97.5622 134.311H93.465L89.3265 130.14H88.7864V132.751C88.7864 133.818 89.2265 133.857 90.5456 133.976V134.311H83.7903V133.976C85.1493 133.871 85.5482 133.83 85.5482 132.751V126.863C85.5482 125.718 84.928 125.69 83.7903 125.638V125.303H90.2255C91.6246 125.303 95.8618 125.41 95.8618 127.65C95.8618 129.289 93.8038 129.701 92.7236 129.928L96.742 133.725C97.0221 133.963 97.3209 133.976 97.5609 133.976L97.5622 134.311Z" fill="white"/>
<path id="Vector_6" fill-rule="evenodd" clip-rule="evenodd" d="M88.7864 129.712C91.4057 129.699 92.4447 129.407 92.4447 127.675C92.4447 126.327 91.6258 125.756 90.0254 125.756C88.9264 125.756 88.8864 125.902 88.7864 126.315V129.712Z" fill="#121212"/>
<path id="Vector_7" fill-rule="evenodd" clip-rule="evenodd" d="M103.217 133.976C104.196 133.871 104.236 133.856 104.376 133.791C104.616 133.671 104.896 133.498 104.896 132.751V126.863C104.896 125.743 104.277 125.703 103.217 125.638V125.303H109.654C111.253 125.303 114.89 125.503 114.89 127.755C114.89 128.221 114.67 129.169 113.071 129.766C111.792 130.248 110.771 130.26 108.133 130.271V132.749C108.133 133.828 108.513 133.856 109.892 133.975V134.31H103.216L103.217 133.976Z" fill="white"/>
<path id="Vector_8" fill-rule="evenodd" clip-rule="evenodd" d="M108.135 129.807C110.554 129.832 111.453 129.446 111.453 127.795C111.453 126.276 110.734 125.769 109.095 125.769C108.416 125.769 108.156 125.942 108.135 126.235V129.807Z" fill="#121212"/>
<path id="Vector_9" fill-rule="evenodd" clip-rule="evenodd" d="M135.156 129.832C135.156 132.631 132.179 134.562 128.082 134.562C123.984 134.562 121.005 132.631 121.005 129.832C121.005 126.929 124.223 125.103 128.082 125.103C131.936 125.103 135.156 126.929 135.156 129.832Z" fill="white"/>
<path id="Vector_10" fill-rule="evenodd" clip-rule="evenodd" d="M124.542 129.832C124.542 130.993 124.662 134.123 128.08 134.123C131.496 134.123 131.616 130.993 131.616 129.832C131.616 127.888 130.878 125.544 128.08 125.544C125.282 125.544 124.542 127.888 124.542 129.832Z" fill="#121212"/>
<path id="Vector_11" fill-rule="evenodd" clip-rule="evenodd" d="M155.34 134.311H151.243L147.106 130.14H146.566V132.751C146.566 133.818 147.006 133.857 148.324 133.976V134.311H141.57V133.976C142.928 133.871 143.328 133.83 143.328 132.751V126.863C143.328 125.718 142.708 125.69 141.57 125.638V125.303H148.004C149.403 125.303 153.64 125.41 153.64 127.65C153.64 129.289 151.582 129.701 150.502 129.928L154.522 133.725C154.8 133.963 155.1 133.976 155.339 133.976V134.311H155.34Z" fill="white"/>
<path id="Vector_12" fill-rule="evenodd" clip-rule="evenodd" d="M146.567 129.712C149.185 129.699 150.225 129.407 150.225 127.675C150.225 126.327 149.405 125.756 147.805 125.756C146.706 125.756 146.667 125.902 146.567 126.315V129.712Z" fill="#121212"/>
<path id="Vector_13" fill-rule="evenodd" clip-rule="evenodd" d="M174.449 134.311H167.972V133.976C169.212 133.909 169.571 133.898 169.571 133.458C169.571 133.097 168.931 132.11 168.651 131.685H164.155C163.594 132.645 163.276 133.189 163.276 133.404C163.276 133.909 164.234 133.949 164.915 133.976V134.311H160.857V133.976C161.936 133.871 162.217 133.417 162.815 132.418L167.252 125.116H167.813L172.269 132.124C173.168 133.551 173.488 134.002 174.447 133.974L174.449 134.311Z" fill="white"/>
<path id="Vector_14" fill-rule="evenodd" clip-rule="evenodd" d="M168.353 131.165L166.334 127.927L164.454 131.165H168.353Z" fill="#121212"/>
<path id="Vector_15" fill-rule="evenodd" clip-rule="evenodd" d="M189.992 134.31H182.857V133.975C184.317 133.898 184.796 133.87 184.796 132.75V125.73C183.397 125.783 181.338 125.85 180.938 127.981H180.359L180.42 125.302H192.413L192.451 127.981H191.873C191.472 125.85 189.413 125.783 188.034 125.73V132.75C188.034 133.883 188.516 133.91 189.992 133.975V134.31ZM197.921 125.302H209.455V127.981H208.958C208.496 126.088 207.077 125.757 204.379 125.757C203.28 125.757 202.921 125.811 202.921 126.382V129.474C204.84 129.489 205.859 129.142 206.16 127.489H206.68V131.992H206.16C205.918 130.327 204.899 129.929 202.921 129.929V133.153C202.921 133.739 203.3 133.9 204.599 133.9C206.557 133.9 208.596 133.554 209.857 131.541H210.416L209.617 134.313H197.921V133.978C199.062 133.9 199.682 133.858 199.682 133.033V126.584C199.682 125.705 198.842 125.677 197.921 125.638V125.302ZM216.856 133.975C218.116 133.975 218.514 133.589 218.514 133.096V126.527C218.514 125.717 217.635 125.69 216.856 125.636V125.301H222.951C228.548 125.301 230.368 127.62 230.368 129.672C230.368 132.124 228.208 134.202 223.171 134.309H216.856V133.975Z" fill="white"/>
<path id="Vector_16" fill-rule="evenodd" clip-rule="evenodd" d="M221.752 133.07C221.752 133.605 221.933 133.844 222.892 133.844C225.131 133.844 226.889 132.991 226.889 129.807C226.889 128.593 226.43 125.756 222.992 125.756C221.713 125.756 221.732 126.088 221.752 126.381V133.07Z" fill="#121212"/>
<path id="Vector_17" fill-rule="evenodd" clip-rule="evenodd" d="M103.692 89.3164V103.808L97.0283 89.3164H82.8151V120.811H93.9201V103.125L102.97 120.811H114.796V89.3164H103.692ZM67.4891 120.811H79.6494L70.9874 89.3164H52.4982L43.7537 120.811H56.0852L57.208 115.736H66.3163L67.4891 120.811Z" fill="white"/>
<path id="Vector_18" fill-rule="evenodd" clip-rule="evenodd" d="M58.7795 108.325L61.6602 94.749L64.6721 108.325H58.7795Z" fill="#121212"/>
<path id="Vector_19" fill-rule="evenodd" clip-rule="evenodd" d="M42.6696 120.811L33.7576 107.908C43.086 107.326 42.4196 98.4963 42.4196 98.4963C41.7769 88.9254 31.8422 89.3167 31.8422 89.3167H10.6323V120.811H21.7374V109.555L29.3441 120.811H42.6696Z" fill="white"/>
<path id="Vector_20" fill-rule="evenodd" clip-rule="evenodd" d="M27.1786 104.576H21.7361V97.6635H27.1786C30.7456 97.621 30.6756 100.828 30.6756 100.828C30.9269 104.865 27.1786 104.576 27.1786 104.576Z" fill="#121212"/>
<path id="Vector_21" fill-rule="evenodd" clip-rule="evenodd" d="M138.95 89.3166H120.571V120.811H138.2C138.2 120.811 152.327 121.231 151.943 105.409C151.943 105.409 152.637 88.9203 138.95 89.3166Z" fill="white"/>
<path id="Vector_22" fill-rule="evenodd" clip-rule="evenodd" d="M140.201 108.908C140.201 108.908 139.701 112.934 135.451 112.851H131.675V98.8855H135.285C135.285 98.8855 139.783 98.6642 140.201 103.245C140.201 103.244 140.45 106.992 140.201 108.908Z" fill="#121212"/>
<path id="Vector_23" fill-rule="evenodd" clip-rule="evenodd" d="M171.015 101.681C170.409 101.681 169.817 101.86 169.314 102.197C168.81 102.533 168.418 103.011 168.186 103.571C167.954 104.13 167.894 104.746 168.012 105.34C168.13 105.934 168.422 106.48 168.85 106.908C169.278 107.336 169.824 107.628 170.418 107.746C171.012 107.864 171.627 107.803 172.187 107.571C172.746 107.34 173.225 106.947 173.561 106.444C173.897 105.94 174.077 105.348 174.077 104.743C174.077 104.34 173.998 103.942 173.844 103.571C173.69 103.199 173.465 102.861 173.181 102.577C172.896 102.293 172.559 102.067 172.187 101.913C171.815 101.76 171.417 101.681 171.015 101.681Z" fill="white"/>
<path id="Vector_24" fill-rule="evenodd" clip-rule="evenodd" d="M181.904 94.8202C182.409 94.7777 182.895 94.7539 183.357 94.7502C183.572 95.1703 184.004 95.4603 184.507 95.4603C184.945 95.4603 185.327 95.2428 185.565 94.9127C186.023 94.9915 186.449 95.0965 186.827 95.2353C187.716 95.5641 188.317 96.0492 188.608 96.6806C189.472 98.556 187.563 101.507 183.956 104.511C182.778 103.527 181.544 102.612 180.261 101.771C181.084 99.285 181.64 96.9182 181.904 94.8202ZM165.955 99.2049C164.75 99.82 163.569 100.481 162.414 101.185C161.658 98.8761 161.139 96.6869 160.888 94.7464C162.907 95.009 165.193 95.5566 167.601 96.3605C167.038 97.2657 166.488 98.2185 165.955 99.2049ZM168.246 96.5793C168.866 96.7956 169.496 97.0307 170.129 97.2795C169.072 97.716 168.029 98.1847 167 98.6848C167.407 97.9584 167.822 97.257 168.246 96.5793ZM163.546 104.284C163.22 103.48 162.917 102.668 162.637 101.848C163.543 101.286 164.466 100.752 165.406 100.249C164.733 101.569 164.112 102.915 163.546 104.284ZM163.565 106.056C164.021 107.099 164.525 108.157 165.042 109.17C164.321 108.769 163.608 108.352 162.906 107.918C163.108 107.304 163.331 106.683 163.565 106.056ZM163.187 105.168C162.877 105.953 162.586 106.745 162.313 107.544C160.983 106.699 159.703 105.778 158.48 104.785C159.626 103.863 160.822 103.004 162.062 102.213C162.396 103.185 162.773 104.171 163.187 105.168ZM162.698 108.567C163.623 109.138 164.594 109.695 165.599 110.231C166.165 111.284 166.747 112.289 167.343 113.237C165.18 113.901 163.131 114.36 161.302 114.597C161.545 112.772 162.017 110.729 162.698 108.567ZM177.464 101.605C177.287 101.239 177.106 100.874 176.921 100.511C177.786 100.998 178.636 101.509 179.471 102.044C179.219 102.772 178.946 103.508 178.653 104.252C178.28 103.36 177.883 102.477 177.464 101.605ZM179.286 107.831C178.627 108.234 177.945 108.635 177.239 109.023C177.733 108.042 178.205 107.028 178.638 106.028C178.868 106.635 179.086 107.236 179.286 107.831ZM176.368 99.4487C175.807 98.4015 175.212 97.3736 174.582 96.3668C176.973 95.6154 179.237 95.114 181.234 94.8877C180.975 96.8531 180.452 99.0662 179.688 101.399C178.606 100.708 177.498 100.057 176.368 99.4487ZM175.304 98.8874C174.19 98.3183 173.058 97.7866 171.909 97.2933C172.579 97.0403 173.254 96.801 173.933 96.5756C174.4 97.3158 174.857 98.0897 175.304 98.8874ZM174.097 111.355C174.625 111.111 175.142 110.861 175.65 110.609C175.167 111.481 174.66 112.339 174.128 113.182C173.351 112.922 172.58 112.643 171.815 112.347C172.584 112.034 173.344 111.704 174.097 111.355ZM176.695 110.076C177.647 109.578 178.583 109.051 179.503 108.496C180.228 110.766 180.722 112.911 180.961 114.803C179.096 114.571 176.995 114.093 174.778 113.392C175.458 112.31 176.097 111.204 176.695 110.076ZM179.016 105.135C179.389 104.22 179.733 103.312 180.041 102.417C181.284 103.242 182.424 104.087 183.438 104.932C182.298 105.839 181.109 106.682 179.877 107.459C179.616 106.697 179.328 105.921 179.016 105.135ZM177.254 87.3547C179.042 86.7196 180.338 87.3347 180.974 89.1226C181.427 90.3992 181.527 92.1546 181.315 94.2213C179.183 94.4489 176.763 94.9827 174.216 95.7892C173.382 94.4921 172.477 93.242 171.505 92.0445C173.518 89.6465 175.526 87.9699 177.254 87.3547ZM171.081 92.5622C171.919 93.5974 172.754 94.7502 173.564 96.0005C172.727 96.2793 171.877 96.5868 171.023 96.9219C170.226 96.5966 169.421 96.2915 168.61 96.0067C169.373 94.8165 170.198 93.6667 171.081 92.5622ZM161.148 89.1289C161.775 87.3385 163.07 86.7171 164.86 87.346C166.602 87.9574 168.626 89.6378 170.657 92.0471C169.691 93.2418 168.793 94.4899 167.967 95.7854C165.403 94.924 162.963 94.3438 160.811 94.0775C160.608 92.0771 160.71 90.3754 161.148 89.1289ZM153.436 98.7211C152.806 96.9319 153.426 95.6379 155.214 95.0065C155.458 94.9236 155.707 94.8547 155.959 94.8002C156.125 95.3265 156.611 95.7116 157.189 95.7116C157.853 95.7116 158.393 95.2128 158.471 94.5701C159.022 94.5751 159.606 94.6051 160.219 94.6676C160.473 96.7394 161.023 99.0812 161.833 101.545C160.48 102.395 159.179 103.326 157.938 104.334C155.635 102.367 154.034 100.41 153.436 98.7211ZM153.519 112.872C152.668 111.03 154.49 108.157 157.966 105.211C159.281 106.288 160.661 107.283 162.098 108.191C161.343 110.53 160.835 112.726 160.589 114.677C156.928 115.049 154.259 114.48 153.519 112.872ZM165.25 122.198C164.356 122.515 163.585 122.525 162.957 122.226C161.948 121.748 161.365 120.502 161.172 118.737C161.733 118.593 162.151 118.089 162.151 117.484C162.149 117.19 162.049 116.906 161.865 116.676C161.681 116.447 161.426 116.287 161.139 116.221C161.157 115.924 161.18 115.619 161.215 115.304C163.176 115.065 165.379 114.573 167.723 113.833C168.626 115.24 169.617 116.588 170.69 117.87C168.783 120.076 166.893 121.615 165.25 122.198ZM168.398 113.617C169.223 113.343 170.066 113.041 170.919 112.706C171.877 113.092 172.825 113.443 173.761 113.756C172.955 114.995 172.082 116.19 171.145 117.333C170.158 116.148 169.241 114.908 168.398 113.617ZM179.298 122.159C177.474 123.035 174.573 121.262 171.576 117.839C172.597 116.606 173.543 115.314 174.41 113.968C176.785 114.725 179.042 115.239 181.04 115.472C181.066 115.76 181.089 116.041 181.104 116.318C180.826 116.389 180.58 116.551 180.404 116.777C180.229 117.003 180.133 117.281 180.132 117.568C180.132 118.154 180.522 118.642 181.055 118.803C180.854 120.496 180.277 121.69 179.298 122.159ZM186.475 114.521C185.258 114.951 183.608 115.061 181.669 114.88C181.43 112.863 180.905 110.574 180.103 108.127C181.447 107.293 182.741 106.38 183.977 105.393C186.155 107.293 187.674 109.175 188.25 110.808C188.883 112.597 188.263 113.891 186.475 114.521Z" fill="#121212"/>
<path id="Vector_25" fill-rule="evenodd" clip-rule="evenodd" d="M214.575 89.3164L209.912 104.326L205.082 89.3164H190.088V120.811H201.195V103.358C202.701 107.813 206.913 120.811 206.913 120.811H212.745L218.74 103.358V120.811H229.846V89.3164H214.575Z" fill="white"/>
</g>
</g>
</svg>
