<svg width="711" height="451" viewBox="0 0 711 451" fill="none" xmlns="http://www.w3.org/2000/svg">
<g clip-path="url(#clip0_286_15211)">
<g opacity="0.05">
<rect x="692.273" y="419.143" width="23.3012" height="23.3012" transform="rotate(180 692.273 419.143)" fill="#D9D9D9"/>
<rect x="692.271" y="372.541" width="23.3012" height="23.3012" transform="rotate(180 692.271 372.541)" fill="#D9D9D9"/>
<rect x="692.271" y="325.939" width="23.3012" height="23.3012" transform="rotate(180 692.271 325.939)" fill="#D9D9D9"/>
<rect x="692.273" y="279.336" width="23.3012" height="23.3012" transform="rotate(180 692.273 279.336)" fill="#D9D9D9"/>
<rect x="692.271" y="232.732" width="23.3012" height="23.3012" transform="rotate(180 692.271 232.732)" fill="#D9D9D9"/>
<rect x="692.271" y="186.131" width="23.3012" height="23.3012" transform="rotate(180 692.271 186.131)" fill="#D9D9D9"/>
<rect x="692.273" y="139.527" width="23.3012" height="23.3012" transform="rotate(180 692.273 139.527)" fill="#D9D9D9"/>
<rect x="692.273" y="92.9258" width="23.3012" height="23.3012" transform="rotate(180 692.273 92.9258)" fill="#D9D9D9"/>
<rect x="692.273" y="46.3223" width="23.3012" height="23.3012" transform="rotate(180 692.273 46.3223)" fill="#D9D9D9"/>
<rect x="645.664" y="419.143" width="23.3012" height="23.3012" transform="rotate(180 645.664 419.143)" fill="#D9D9D9"/>
<rect x="645.664" y="372.539" width="23.3012" height="23.3012" transform="rotate(180 645.664 372.539)" fill="#D9D9D9"/>
<rect x="645.664" y="325.938" width="23.3012" height="23.3012" transform="rotate(180 645.664 325.938)" fill="#D9D9D9"/>
<rect x="645.664" y="279.336" width="23.3012" height="23.3012" transform="rotate(180 645.664 279.336)" fill="#D9D9D9"/>
<rect x="645.664" y="232.732" width="23.3012" height="23.3012" transform="rotate(180 645.664 232.732)" fill="#D9D9D9"/>
<rect x="645.664" y="186.131" width="23.3012" height="23.3012" transform="rotate(180 645.664 186.131)" fill="#D9D9D9"/>
<rect x="645.664" y="139.527" width="23.3012" height="23.3012" transform="rotate(180 645.664 139.527)" fill="#D9D9D9"/>
<rect x="645.664" y="92.9258" width="23.3012" height="23.3012" transform="rotate(180 645.664 92.9258)" fill="#D9D9D9"/>
<rect x="645.664" y="46.3223" width="23.3012" height="23.3012" transform="rotate(180 645.664 46.3223)" fill="#D9D9D9"/>
<rect x="599.066" y="419.143" width="23.3012" height="23.3012" transform="rotate(180 599.066 419.143)" fill="#D9D9D9"/>
<rect x="599.066" y="372.539" width="23.3012" height="23.3012" transform="rotate(180 599.066 372.539)" fill="#D9D9D9"/>
<rect x="599.066" y="325.938" width="23.3012" height="23.3012" transform="rotate(180 599.066 325.938)" fill="#D9D9D9"/>
<rect x="599.066" y="279.336" width="23.3012" height="23.3012" transform="rotate(180 599.066 279.336)" fill="#D9D9D9"/>
<rect x="599.066" y="232.732" width="23.3012" height="23.3012" transform="rotate(180 599.066 232.732)" fill="#D9D9D9"/>
<rect x="599.066" y="186.129" width="23.3012" height="23.3012" transform="rotate(180 599.066 186.129)" fill="#D9D9D9"/>
<rect x="599.066" y="139.527" width="23.3012" height="23.3012" transform="rotate(180 599.066 139.527)" fill="#D9D9D9"/>
<rect x="599.066" y="92.9258" width="23.3012" height="23.3012" transform="rotate(180 599.066 92.9258)" fill="#D9D9D9"/>
<rect x="599.066" y="46.3223" width="23.3012" height="23.3012" transform="rotate(180 599.066 46.3223)" fill="#D9D9D9"/>
<rect x="552.467" y="419.143" width="23.3012" height="23.3012" transform="rotate(180 552.467 419.143)" fill="#D9D9D9"/>
<rect x="552.467" y="372.541" width="23.3012" height="23.3012" transform="rotate(180 552.467 372.541)" fill="#D9D9D9"/>
<rect x="552.467" y="325.938" width="23.3012" height="23.3012" transform="rotate(180 552.467 325.938)" fill="#D9D9D9"/>
<rect x="552.467" y="279.336" width="23.3012" height="23.3012" transform="rotate(180 552.467 279.336)" fill="#D9D9D9"/>
<rect x="552.467" y="232.732" width="23.3012" height="23.3012" transform="rotate(180 552.467 232.732)" fill="#D9D9D9"/>
<rect x="552.467" y="186.131" width="23.3012" height="23.3012" transform="rotate(180 552.467 186.131)" fill="#D9D9D9"/>
<rect x="552.467" y="139.527" width="23.3012" height="23.3012" transform="rotate(180 552.467 139.527)" fill="#D9D9D9"/>
<rect x="552.467" y="92.9258" width="23.3012" height="23.3012" transform="rotate(180 552.467 92.9258)" fill="#D9D9D9"/>
<rect x="552.467" y="46.3223" width="23.3012" height="23.3012" transform="rotate(180 552.467 46.3223)" fill="#D9D9D9"/>
<rect x="505.859" y="419.143" width="23.3012" height="23.3012" transform="rotate(180 505.859 419.143)" fill="#D9D9D9"/>
<rect x="505.859" y="372.541" width="23.3012" height="23.3012" transform="rotate(180 505.859 372.541)" fill="#D9D9D9"/>
<rect x="505.859" y="325.939" width="23.3012" height="23.3012" transform="rotate(180 505.859 325.939)" fill="#D9D9D9"/>
<rect x="505.859" y="279.336" width="23.3012" height="23.3012" transform="rotate(180 505.859 279.336)" fill="#D9D9D9"/>
<rect x="505.859" y="232.732" width="23.3012" height="23.3012" transform="rotate(180 505.859 232.732)" fill="#D9D9D9"/>
<rect x="505.859" y="186.131" width="23.3012" height="23.3012" transform="rotate(180 505.859 186.131)" fill="#D9D9D9"/>
<rect x="505.859" y="139.527" width="23.3012" height="23.3012" transform="rotate(180 505.859 139.527)" fill="#D9D9D9"/>
<rect x="505.859" y="92.9258" width="23.3012" height="23.3012" transform="rotate(180 505.859 92.9258)" fill="#D9D9D9"/>
<rect x="505.859" y="46.3223" width="23.3012" height="23.3012" transform="rotate(180 505.859 46.3223)" fill="#D9D9D9"/>
<rect x="459.258" y="419.143" width="23.3012" height="23.3012" transform="rotate(180 459.258 419.143)" fill="#D9D9D9"/>
<rect x="459.258" y="372.541" width="23.3012" height="23.3012" transform="rotate(180 459.258 372.541)" fill="#D9D9D9"/>
<rect x="459.258" y="325.938" width="23.3012" height="23.3012" transform="rotate(180 459.258 325.938)" fill="#D9D9D9"/>
<rect x="459.258" y="279.336" width="23.3012" height="23.3012" transform="rotate(180 459.258 279.336)" fill="#D9D9D9"/>
<rect x="459.258" y="232.734" width="23.3012" height="23.3012" transform="rotate(180 459.258 232.734)" fill="#D9D9D9"/>
<rect x="459.258" y="186.131" width="23.3012" height="23.3012" transform="rotate(180 459.258 186.131)" fill="#D9D9D9"/>
<rect x="459.258" y="139.527" width="23.3012" height="23.3012" transform="rotate(180 459.258 139.527)" fill="#D9D9D9"/>
<rect x="459.258" y="92.9258" width="23.3012" height="23.3012" transform="rotate(180 459.258 92.9258)" fill="#D9D9D9"/>
<rect x="459.258" y="46.3223" width="23.3012" height="23.3012" transform="rotate(180 459.258 46.3223)" fill="#D9D9D9"/>
<rect x="412.656" y="419.143" width="23.3012" height="23.3012" transform="rotate(180 412.656 419.143)" fill="#D9D9D9"/>
<rect x="412.656" y="372.541" width="23.3012" height="23.3012" transform="rotate(180 412.656 372.541)" fill="#D9D9D9"/>
<rect x="412.656" y="325.939" width="23.3012" height="23.3012" transform="rotate(180 412.656 325.939)" fill="#D9D9D9"/>
<rect x="412.656" y="279.336" width="23.3012" height="23.3012" transform="rotate(180 412.656 279.336)" fill="#D9D9D9"/>
<rect x="412.656" y="232.734" width="23.3012" height="23.3012" transform="rotate(180 412.656 232.734)" fill="#D9D9D9"/>
<rect x="412.656" y="186.131" width="23.3012" height="23.3012" transform="rotate(180 412.656 186.131)" fill="#D9D9D9"/>
<rect x="412.656" y="139.527" width="23.3012" height="23.3012" transform="rotate(180 412.656 139.527)" fill="#D9D9D9"/>
<rect x="412.656" y="92.9258" width="23.3012" height="23.3012" transform="rotate(180 412.656 92.9258)" fill="#D9D9D9"/>
<rect x="412.658" y="46.3223" width="23.3012" height="23.3012" transform="rotate(180 412.658 46.3223)" fill="#D9D9D9"/>
<rect x="366.055" y="419.143" width="23.3012" height="23.3012" transform="rotate(180 366.055 419.143)" fill="#D9D9D9"/>
<rect x="366.053" y="372.541" width="23.3012" height="23.3012" transform="rotate(180 366.053 372.541)" fill="#D9D9D9"/>
<rect x="366.053" y="325.938" width="23.3012" height="23.3012" transform="rotate(180 366.053 325.938)" fill="#D9D9D9"/>
<rect x="366.053" y="279.336" width="23.3012" height="23.3012" transform="rotate(180 366.053 279.336)" fill="#D9D9D9"/>
<rect x="366.053" y="232.732" width="23.3012" height="23.3012" transform="rotate(180 366.053 232.732)" fill="#D9D9D9"/>
<rect x="366.053" y="186.131" width="23.3012" height="23.3012" transform="rotate(180 366.053 186.131)" fill="#D9D9D9"/>
<rect x="366.053" y="139.527" width="23.3012" height="23.3012" transform="rotate(180 366.053 139.527)" fill="#D9D9D9"/>
<rect x="366.053" y="92.9258" width="23.3012" height="23.3012" transform="rotate(180 366.053 92.9258)" fill="#D9D9D9"/>
<rect x="366.055" y="46.3223" width="23.3012" height="23.3012" transform="rotate(180 366.055 46.3223)" fill="#D9D9D9"/>
<rect x="319.449" y="419.143" width="23.3012" height="23.3012" transform="rotate(180 319.449 419.143)" fill="#D9D9D9"/>
<rect x="319.449" y="372.541" width="23.3012" height="23.3012" transform="rotate(180 319.449 372.541)" fill="#D9D9D9"/>
<rect x="319.449" y="325.939" width="23.3012" height="23.3012" transform="rotate(180 319.449 325.939)" fill="#D9D9D9"/>
<rect x="319.449" y="279.336" width="23.3012" height="23.3012" transform="rotate(180 319.449 279.336)" fill="#D9D9D9"/>
<rect x="319.449" y="232.732" width="23.3012" height="23.3012" transform="rotate(180 319.449 232.732)" fill="#D9D9D9"/>
<rect x="319.449" y="186.131" width="23.3012" height="23.3012" transform="rotate(180 319.449 186.131)" fill="#D9D9D9"/>
<rect x="319.449" y="139.527" width="23.3012" height="23.3012" transform="rotate(180 319.449 139.527)" fill="#D9D9D9"/>
<rect x="319.449" y="92.9258" width="23.3012" height="23.3012" transform="rotate(180 319.449 92.9258)" fill="#D9D9D9"/>
<rect x="319.449" y="46.3223" width="23.3012" height="23.3012" transform="rotate(180 319.449 46.3223)" fill="#D9D9D9"/>
<rect x="272.847" y="419.143" width="23.3012" height="23.3012" transform="rotate(180 272.847 419.143)" fill="#D9D9D9"/>
<rect x="272.848" y="372.541" width="23.3012" height="23.3012" transform="rotate(180 272.848 372.541)" fill="#D9D9D9"/>
<rect x="272.847" y="325.938" width="23.3012" height="23.3012" transform="rotate(180 272.847 325.938)" fill="#D9D9D9"/>
<rect x="272.847" y="279.336" width="23.3012" height="23.3012" transform="rotate(180 272.847 279.336)" fill="#D9D9D9"/>
<rect x="272.848" y="232.732" width="23.3012" height="23.3012" transform="rotate(180 272.848 232.732)" fill="#D9D9D9"/>
<rect x="272.848" y="186.131" width="23.3012" height="23.3012" transform="rotate(180 272.848 186.131)" fill="#D9D9D9"/>
<rect x="272.847" y="139.527" width="23.3012" height="23.3012" transform="rotate(180 272.847 139.527)" fill="#D9D9D9"/>
<rect x="272.847" y="92.9258" width="23.3012" height="23.3012" transform="rotate(180 272.847 92.9258)" fill="#D9D9D9"/>
<rect x="272.848" y="46.3223" width="23.3012" height="23.3012" transform="rotate(180 272.848 46.3223)" fill="#D9D9D9"/>
<rect x="226.246" y="419.143" width="23.3012" height="23.3012" transform="rotate(180 226.246 419.143)" fill="#D9D9D9"/>
<rect x="226.246" y="372.541" width="23.3012" height="23.3012" transform="rotate(180 226.246 372.541)" fill="#D9D9D9"/>
<rect x="226.246" y="325.939" width="23.3012" height="23.3012" transform="rotate(180 226.246 325.939)" fill="#D9D9D9"/>
<rect x="226.246" y="279.336" width="23.3012" height="23.3012" transform="rotate(180 226.246 279.336)" fill="#D9D9D9"/>
<rect x="226.246" y="232.732" width="23.3012" height="23.3012" transform="rotate(180 226.246 232.732)" fill="#D9D9D9"/>
<rect x="226.246" y="186.131" width="23.3012" height="23.3012" transform="rotate(180 226.246 186.131)" fill="#D9D9D9"/>
<rect x="226.246" y="139.527" width="23.3012" height="23.3012" transform="rotate(180 226.246 139.527)" fill="#D9D9D9"/>
<rect x="226.246" y="92.9258" width="23.3012" height="23.3012" transform="rotate(180 226.246 92.9258)" fill="#D9D9D9"/>
<rect x="226.246" y="46.3223" width="23.3012" height="23.3012" transform="rotate(180 226.246 46.3223)" fill="#D9D9D9"/>
<rect x="179.645" y="419.143" width="23.3012" height="23.3012" transform="rotate(180 179.645 419.143)" fill="#D9D9D9"/>
<rect x="179.645" y="372.541" width="23.3012" height="23.3012" transform="rotate(180 179.645 372.541)" fill="#D9D9D9"/>
<rect x="179.645" y="325.938" width="23.3012" height="23.3012" transform="rotate(180 179.645 325.938)" fill="#D9D9D9"/>
<rect x="179.645" y="279.336" width="23.3012" height="23.3012" transform="rotate(180 179.645 279.336)" fill="#D9D9D9"/>
<rect x="179.645" y="232.732" width="23.3012" height="23.3012" transform="rotate(180 179.645 232.732)" fill="#D9D9D9"/>
<rect x="179.645" y="186.131" width="23.3012" height="23.3012" transform="rotate(180 179.645 186.131)" fill="#D9D9D9"/>
<rect x="179.645" y="139.527" width="23.3012" height="23.3012" transform="rotate(180 179.645 139.527)" fill="#D9D9D9"/>
<rect x="179.645" y="92.9258" width="23.3012" height="23.3012" transform="rotate(180 179.645 92.9258)" fill="#D9D9D9"/>
<rect x="179.645" y="46.3223" width="23.3012" height="23.3012" transform="rotate(180 179.645 46.3223)" fill="#D9D9D9"/>
<rect x="133.042" y="419.143" width="23.3012" height="23.3012" transform="rotate(180 133.042 419.143)" fill="#D9D9D9"/>
<rect x="133.041" y="372.541" width="23.3012" height="23.3012" transform="rotate(180 133.041 372.541)" fill="#D9D9D9"/>
<rect x="133.041" y="325.938" width="23.3012" height="23.3012" transform="rotate(180 133.041 325.938)" fill="#D9D9D9"/>
<rect x="133.041" y="279.336" width="23.3012" height="23.3012" transform="rotate(180 133.041 279.336)" fill="#D9D9D9"/>
<rect x="133.041" y="232.732" width="23.3012" height="23.3012" transform="rotate(180 133.041 232.732)" fill="#D9D9D9"/>
<rect x="133.041" y="186.131" width="23.3012" height="23.3012" transform="rotate(180 133.041 186.131)" fill="#D9D9D9"/>
<rect x="133.041" y="139.527" width="23.3012" height="23.3012" transform="rotate(180 133.041 139.527)" fill="#D9D9D9"/>
<rect x="133.041" y="92.9258" width="23.3012" height="23.3012" transform="rotate(180 133.041 92.9258)" fill="#D9D9D9"/>
<rect x="133.041" y="46.3223" width="23.3012" height="23.3012" transform="rotate(180 133.041 46.3223)" fill="#D9D9D9"/>
<rect x="86.4395" y="419.143" width="23.3012" height="23.3012" transform="rotate(180 86.4395 419.143)" fill="#D9D9D9"/>
<rect x="86.4395" y="372.541" width="23.3012" height="23.3012" transform="rotate(180 86.4395 372.541)" fill="#D9D9D9"/>
<rect x="86.4395" y="325.939" width="23.3012" height="23.3012" transform="rotate(180 86.4395 325.939)" fill="#D9D9D9"/>
<rect x="86.4395" y="279.336" width="23.3012" height="23.3012" transform="rotate(180 86.4395 279.336)" fill="#D9D9D9"/>
<rect x="86.4395" y="232.732" width="23.3012" height="23.3012" transform="rotate(180 86.4395 232.732)" fill="#D9D9D9"/>
<rect x="86.4395" y="186.131" width="23.3012" height="23.3012" transform="rotate(180 86.4395 186.131)" fill="#D9D9D9"/>
<rect x="86.4395" y="139.527" width="23.3012" height="23.3012" transform="rotate(180 86.4395 139.527)" fill="#D9D9D9"/>
<rect x="86.4395" y="92.9258" width="23.3012" height="23.3012" transform="rotate(180 86.4395 92.9258)" fill="#D9D9D9"/>
<rect x="86.4395" y="46.3223" width="23.3012" height="23.3012" transform="rotate(180 86.4395 46.3223)" fill="#D9D9D9"/>
<rect x="39.834" y="419.143" width="23.3012" height="23.3012" transform="rotate(180 39.834 419.143)" fill="#D9D9D9"/>
<rect x="39.834" y="372.541" width="23.3012" height="23.3012" transform="rotate(180 39.834 372.541)" fill="#D9D9D9"/>
<rect x="39.834" y="325.939" width="23.3012" height="23.3012" transform="rotate(180 39.834 325.939)" fill="#D9D9D9"/>
<rect x="39.834" y="279.336" width="23.3012" height="23.3012" transform="rotate(180 39.834 279.336)" fill="#D9D9D9"/>
<rect x="39.834" y="232.732" width="23.3012" height="23.3012" transform="rotate(180 39.834 232.732)" fill="#D9D9D9"/>
<rect x="39.834" y="186.131" width="23.3012" height="23.3012" transform="rotate(180 39.834 186.131)" fill="#D9D9D9"/>
<rect x="39.834" y="139.527" width="23.3012" height="23.3012" transform="rotate(180 39.834 139.527)" fill="#D9D9D9"/>
<rect x="39.834" y="92.9258" width="23.3012" height="23.3012" transform="rotate(180 39.834 92.9258)" fill="#D9D9D9"/>
<rect x="39.834" y="46.3223" width="23.3012" height="23.3012" transform="rotate(180 39.834 46.3223)" fill="#D9D9D9"/>
</g>
</g>
<defs>
<clipPath id="clip0_286_15211">
<rect width="1252" height="451" fill="white" transform="translate(1252 451) rotate(180)"/>
</clipPath>
</defs>
</svg>
