<svg width="315" height="63" viewBox="0 0 315 63" fill="none" xmlns="http://www.w3.org/2000/svg">
<g opacity="0.1">
<g clip-path="url(#clip0_286_20357)">
<rect width="4.19853" height="4.19853" rx="0.524817" transform="matrix(-1 0 0 1 156.395 0.0683594)" fill="#4EDDBB"/>
<rect width="4.19853" height="4.19853" rx="0.524817" transform="matrix(-1 0 0 1 151.146 0.0683594)" fill="#4EDDBB"/>
<rect width="4.19853" height="4.19853" rx="0.524817" transform="matrix(-1 0 0 1 145.898 0.0683594)" fill="#4EDDBB"/>
<rect width="4.19853" height="4.19853" rx="0.524817" transform="matrix(-1 0 0 1 140.652 0.0683594)" fill="#4EDDBB"/>
<rect width="4.19853" height="4.19853" rx="0.524817" transform="matrix(-1 0 0 1 135.402 0.0683594)" fill="#4EDDBB"/>
<rect width="4.19853" height="4.19853" rx="0.524817" transform="matrix(-1 0 0 1 130.154 0.0683594)" fill="#4EDDBB"/>
<rect width="4.19853" height="4.19853" rx="0.524817" transform="matrix(-1 0 0 1 124.906 0.0683594)" fill="#4EDDBB"/>
<rect width="4.19853" height="4.19853" rx="0.524817" transform="matrix(-1 0 0 1 119.658 0.0683594)" fill="#4EDDBB"/>
<rect width="4.19853" height="4.19853" rx="0.524817" transform="matrix(-1 0 0 1 114.41 0.0683594)" fill="#4EDDBB"/>
<rect width="4.19853" height="4.19853" rx="0.524817" transform="matrix(-1 0 0 1 109.162 0.0683594)" fill="#4EDDBB"/>
<rect width="4.19853" height="4.19853" rx="0.524817" transform="matrix(-1 0 0 1 103.914 0.0683594)" fill="#4EDDBB"/>
<rect width="4.19853" height="4.19853" rx="0.524817" transform="matrix(-1 0 0 1 98.666 0.0683594)" fill="#4EDDBB"/>
<rect width="4.19853" height="4.19853" rx="0.524817" transform="matrix(-1 0 0 1 93.416 0.0683594)" fill="#4EDDBB"/>
<rect width="4.19853" height="4.19853" rx="0.524817" transform="matrix(-1 0 0 1 88.1699 0.0683594)" fill="#4EDDBB"/>
<rect width="4.19853" height="4.19853" rx="0.524817" transform="matrix(-1 0 0 1 156.395 5.31445)" fill="#4EDDBB"/>
<rect width="4.19853" height="4.19853" rx="0.524817" transform="matrix(-1 0 0 1 151.146 5.31445)" fill="#4EDDBB"/>
<rect width="4.19853" height="4.19853" rx="0.524817" transform="matrix(-1 0 0 1 145.898 5.31445)" fill="#4EDDBB"/>
<rect width="4.19853" height="4.19853" rx="0.524817" transform="matrix(-1 0 0 1 140.652 5.31445)" fill="#4EDDBB"/>
<rect width="4.19853" height="4.19853" rx="0.524817" transform="matrix(-1 0 0 1 135.402 5.31445)" fill="#4EDDBB"/>
<rect width="4.19853" height="4.19853" rx="0.524817" transform="matrix(-1 0 0 1 130.154 5.31445)" fill="#4EDDBB"/>
<rect width="4.19853" height="4.19853" rx="0.524817" transform="matrix(-1 0 0 1 124.906 5.31445)" fill="#4EDDBB"/>
<rect width="4.19853" height="4.19853" rx="0.524817" transform="matrix(-1 0 0 1 119.658 5.31445)" fill="#4EDDBB"/>
<rect width="4.19853" height="4.19853" rx="0.524817" transform="matrix(-1 0 0 1 114.41 5.31445)" fill="#4EDDBB"/>
<rect width="4.19853" height="4.19853" rx="0.524817" transform="matrix(-1 0 0 1 109.162 5.31445)" fill="#4EDDBB"/>
<rect width="4.19853" height="4.19853" rx="0.524817" transform="matrix(-1 0 0 1 103.914 5.31445)" fill="#4EDDBB"/>
<rect width="4.19853" height="4.19853" rx="0.524817" transform="matrix(-1 0 0 1 98.666 5.31445)" fill="#4EDDBB"/>
<rect width="4.19853" height="4.19853" rx="0.524817" transform="matrix(-1 0 0 1 93.416 5.31445)" fill="#4EDDBB"/>
<rect width="4.19853" height="4.19853" rx="0.524817" transform="matrix(-1 0 0 1 88.1699 5.31445)" fill="#4EDDBB"/>
<rect width="4.19853" height="4.19853" rx="0.524817" transform="matrix(-1 0 0 1 156.395 10.5566)" fill="#4EDDBB"/>
<rect width="4.19853" height="4.19853" rx="0.524817" transform="matrix(-1 0 0 1 151.146 10.5566)" fill="#4EDDBB"/>
<rect width="4.19853" height="4.19853" rx="0.524817" transform="matrix(-1 0 0 1 145.898 10.5566)" fill="#4EDDBB"/>
<rect width="4.19853" height="4.19853" rx="0.524817" transform="matrix(-1 0 0 1 140.652 10.5566)" fill="#4EDDBB"/>
<rect width="4.19853" height="4.19853" rx="0.524817" transform="matrix(-1 0 0 1 135.402 10.5566)" fill="#4EDDBB"/>
<rect width="4.19853" height="4.19853" rx="0.524817" transform="matrix(-1 0 0 1 130.154 10.5566)" fill="#4EDDBB"/>
<rect width="4.19853" height="4.19853" rx="0.524817" transform="matrix(-1 0 0 1 124.906 10.5566)" fill="#4EDDBB"/>
<rect width="4.19853" height="4.19853" rx="0.524817" transform="matrix(-1 0 0 1 119.658 10.5566)" fill="#4EDDBB"/>
<rect width="4.19853" height="4.19853" rx="0.524817" transform="matrix(-1 0 0 1 114.41 10.5566)" fill="#4EDDBB"/>
<rect width="4.19853" height="4.19853" rx="0.524817" transform="matrix(-1 0 0 1 109.162 10.5566)" fill="#4EDDBB"/>
<rect width="4.19853" height="4.19853" rx="0.524817" transform="matrix(-1 0 0 1 103.914 10.5566)" fill="#4EDDBB"/>
<rect width="4.19853" height="4.19853" rx="0.524817" transform="matrix(-1 0 0 1 98.666 10.5566)" fill="#4EDDBB"/>
<rect width="4.19853" height="4.19853" rx="0.524817" transform="matrix(-1 0 0 1 93.416 10.5566)" fill="#4EDDBB"/>
<rect width="4.19853" height="4.19853" rx="0.524817" transform="matrix(-1 0 0 1 88.1699 10.5566)" fill="#4EDDBB"/>
<rect width="4.19853" height="4.19853" rx="0.524817" transform="matrix(-1 0 0 1 82.9219 10.5566)" fill="#4EDDBB"/>
<rect width="4.19853" height="4.19853" rx="0.524817" transform="matrix(-1 0 0 1 77.6738 10.5566)" fill="#4EDDBB"/>
<rect width="4.19853" height="4.19853" rx="0.524817" transform="matrix(-1 0 0 1 72.4258 10.5566)" fill="#4EDDBB"/>
<rect width="4.19853" height="4.19853" rx="0.524817" transform="matrix(-1 0 0 1 67.1758 10.5566)" fill="#4EDDBB"/>
<rect width="4.19853" height="4.19853" rx="0.524817" transform="matrix(-1 0 0 1 61.9277 10.5566)" fill="#4EDDBB"/>
<rect width="4.19853" height="4.19853" rx="0.524817" transform="matrix(-1 0 0 1 56.6797 10.5566)" fill="#4EDDBB"/>
<rect width="4.19853" height="4.19853" rx="0.524817" transform="matrix(-1 0 0 1 51.4316 10.5566)" fill="#4EDDBB"/>
<rect width="4.19853" height="4.19853" rx="0.524817" transform="matrix(-1 0 0 1 46.1836 10.5566)" fill="#4EDDBB"/>
<rect width="4.19853" height="4.19853" rx="0.524817" transform="matrix(-1 0 0 1 40.9355 10.5566)" fill="#4EDDBB"/>
<rect width="4.19853" height="4.19853" rx="0.524817" transform="matrix(-1 0 0 1 35.6855 10.5566)" fill="#4EDDBB"/>
<rect width="4.19853" height="4.19853" rx="0.524817" transform="matrix(-1 0 0 1 30.4397 10.5566)" fill="#4EDDBB"/>
<rect width="4.19853" height="4.19853" rx="0.524817" transform="matrix(-1 0 0 1 156.395 15.8105)" fill="#4EDDBB"/>
<rect width="4.19853" height="4.19853" rx="0.524817" transform="matrix(-1 0 0 1 151.146 15.8105)" fill="#4EDDBB"/>
<rect width="4.19853" height="4.19853" rx="0.524817" transform="matrix(-1 0 0 1 145.898 15.8105)" fill="#4EDDBB"/>
<rect width="4.19853" height="4.19853" rx="0.524817" transform="matrix(-1 0 0 1 140.652 15.8105)" fill="#4EDDBB"/>
<rect width="4.19853" height="4.19853" rx="0.524817" transform="matrix(-1 0 0 1 135.402 15.8105)" fill="#4EDDBB"/>
<rect width="4.19853" height="4.19853" rx="0.524817" transform="matrix(-1 0 0 1 130.154 15.8105)" fill="#4EDDBB"/>
<rect width="4.19853" height="4.19853" rx="0.524817" transform="matrix(-1 0 0 1 124.906 15.8105)" fill="#4EDDBB"/>
<rect width="4.19853" height="4.19853" rx="0.524817" transform="matrix(-1 0 0 1 119.658 15.8105)" fill="#4EDDBB"/>
<rect width="4.19853" height="4.19853" rx="0.524817" transform="matrix(-1 0 0 1 114.41 15.8105)" fill="#4EDDBB"/>
<rect width="4.19853" height="4.19853" rx="0.524817" transform="matrix(-1 0 0 1 109.162 15.8105)" fill="#4EDDBB"/>
<rect width="4.19853" height="4.19853" rx="0.524817" transform="matrix(-1 0 0 1 103.914 15.8105)" fill="#4EDDBB"/>
<rect width="4.19853" height="4.19853" rx="0.524817" transform="matrix(-1 0 0 1 98.666 15.8105)" fill="#4EDDBB"/>
<rect width="4.19853" height="4.19853" rx="0.524817" transform="matrix(-1 0 0 1 93.416 15.8105)" fill="#4EDDBB"/>
<rect width="4.19853" height="4.19853" rx="0.524817" transform="matrix(-1 0 0 1 88.1699 15.8105)" fill="#4EDDBB"/>
<rect width="4.19853" height="4.19853" rx="0.524817" transform="matrix(-1 0 0 1 82.9219 15.8105)" fill="#4EDDBB"/>
<rect width="4.19853" height="4.19853" rx="0.524817" transform="matrix(-1 0 0 1 77.6738 15.8105)" fill="#4EDDBB"/>
<rect width="4.19853" height="4.19853" rx="0.524817" transform="matrix(-1 0 0 1 72.4258 15.8105)" fill="#4EDDBB"/>
<rect width="4.19853" height="4.19853" rx="0.524817" transform="matrix(-1 0 0 1 67.1758 15.8105)" fill="#4EDDBB"/>
<rect width="4.19853" height="4.19853" rx="0.524817" transform="matrix(-1 0 0 1 61.9277 15.8105)" fill="#4EDDBB"/>
<rect width="4.19853" height="4.19853" rx="0.524817" transform="matrix(-1 0 0 1 56.6797 15.8105)" fill="#4EDDBB"/>
<rect width="4.19853" height="4.19853" rx="0.524817" transform="matrix(-1 0 0 1 51.4316 15.8105)" fill="#4EDDBB"/>
<rect width="4.19853" height="4.19853" rx="0.524817" transform="matrix(-1 0 0 1 46.1836 15.8105)" fill="#4EDDBB"/>
<rect width="4.19853" height="4.19853" rx="0.524817" transform="matrix(-1 0 0 1 40.9355 15.8105)" fill="#4EDDBB"/>
<rect width="4.19853" height="4.19853" rx="0.524817" transform="matrix(-1 0 0 1 35.6855 15.8105)" fill="#4EDDBB"/>
<rect width="4.19853" height="4.19853" rx="0.524817" transform="matrix(-1 0 0 1 30.4397 15.8105)" fill="#4EDDBB"/>
<rect width="4.19853" height="4.19853" rx="0.524817" transform="matrix(-1 0 0 1 25.1914 15.8105)" fill="#4EDDBB"/>
<rect width="4.19853" height="4.19853" rx="0.524817" transform="matrix(-1 0 0 1 19.9434 15.8105)" fill="#4EDDBB"/>
<rect width="4.19853" height="4.19853" rx="0.524817" transform="matrix(-1 0 0 1 14.6951 15.8105)" fill="#4EDDBB"/>
<rect width="4.19853" height="4.19853" rx="0.524817" transform="matrix(-1 0 0 1 156.395 21.0566)" fill="#4EDDBB"/>
<rect width="4.19853" height="4.19853" rx="0.524817" transform="matrix(-1 0 0 1 151.146 21.0566)" fill="#4EDDBB"/>
<rect width="4.19853" height="4.19853" rx="0.524817" transform="matrix(-1 0 0 1 145.898 21.0566)" fill="#4EDDBB"/>
<rect width="4.19853" height="4.19853" rx="0.524817" transform="matrix(-1 0 0 1 140.652 21.0566)" fill="#4EDDBB"/>
<rect width="4.19853" height="4.19853" rx="0.524817" transform="matrix(-1 0 0 1 135.402 21.0566)" fill="#4EDDBB"/>
<rect width="4.19853" height="4.19853" rx="0.524817" transform="matrix(-1 0 0 1 130.154 21.0566)" fill="#4EDDBB"/>
<rect width="4.19853" height="4.19853" rx="0.524817" transform="matrix(-1 0 0 1 124.906 21.0566)" fill="#4EDDBB"/>
<rect width="4.19853" height="4.19853" rx="0.524817" transform="matrix(-1 0 0 1 119.658 21.0566)" fill="#4EDDBB"/>
<rect width="4.19853" height="4.19853" rx="0.524817" transform="matrix(-1 0 0 1 114.41 21.0566)" fill="#4EDDBB"/>
<rect width="4.19853" height="4.19853" rx="0.524817" transform="matrix(-1 0 0 1 109.162 21.0566)" fill="#4EDDBB"/>
<rect width="4.19853" height="4.19853" rx="0.524817" transform="matrix(-1 0 0 1 103.914 21.0566)" fill="#4EDDBB"/>
<rect width="4.19853" height="4.19853" rx="0.524817" transform="matrix(-1 0 0 1 98.666 21.0566)" fill="#4EDDBB"/>
<rect width="4.19853" height="4.19853" rx="0.524817" transform="matrix(-1 0 0 1 93.416 21.0566)" fill="#4EDDBB"/>
<rect width="4.19853" height="4.19853" rx="0.524817" transform="matrix(-1 0 0 1 88.1699 21.0566)" fill="#4EDDBB"/>
<rect width="4.19853" height="4.19853" rx="0.524817" transform="matrix(-1 0 0 1 82.9219 21.0566)" fill="#4EDDBB"/>
<rect width="4.19853" height="4.19853" rx="0.524817" transform="matrix(-1 0 0 1 77.6738 21.0566)" fill="#4EDDBB"/>
<rect width="4.19853" height="4.19853" rx="0.524817" transform="matrix(-1 0 0 1 72.4258 21.0566)" fill="#4EDDBB"/>
<rect width="4.19853" height="4.19853" rx="0.524817" transform="matrix(-1 0 0 1 67.1758 21.0566)" fill="#4EDDBB"/>
<rect width="4.19853" height="4.19853" rx="0.524817" transform="matrix(-1 0 0 1 61.9277 21.0566)" fill="#4EDDBB"/>
<rect width="4.19853" height="4.19853" rx="0.524817" transform="matrix(-1 0 0 1 56.6797 21.0566)" fill="#4EDDBB"/>
<rect width="4.19853" height="4.19853" rx="0.524817" transform="matrix(-1 0 0 1 51.4316 21.0566)" fill="#4EDDBB"/>
<rect width="4.19853" height="4.19853" rx="0.524817" transform="matrix(-1 0 0 1 46.1836 21.0566)" fill="#4EDDBB"/>
<rect width="4.19853" height="4.19853" rx="0.524817" transform="matrix(-1 0 0 1 40.9355 21.0566)" fill="#4EDDBB"/>
<rect width="4.19853" height="4.19853" rx="0.524817" transform="matrix(-1 0 0 1 35.6855 21.0566)" fill="#4EDDBB"/>
<rect width="4.19853" height="4.19853" rx="0.524817" transform="matrix(-1 0 0 1 30.4397 21.0566)" fill="#4EDDBB"/>
<rect width="4.19853" height="4.19853" rx="0.524817" transform="matrix(-1 0 0 1 25.1914 21.0566)" fill="#4EDDBB"/>
<rect width="4.19853" height="4.19853" rx="0.524817" transform="matrix(-1 0 0 1 19.9434 21.0566)" fill="#4EDDBB"/>
<rect width="4.19853" height="4.19853" rx="0.524817" transform="matrix(-1 0 0 1 14.6951 21.0566)" fill="#4EDDBB"/>
<rect width="4.19853" height="4.19853" rx="0.524817" transform="matrix(-1 0 0 1 9.44727 21.0566)" fill="#4EDDBB"/>
<rect width="4.19853" height="4.19853" rx="0.524817" transform="matrix(-1 0 0 1 4.19727 21.0566)" fill="#4EDDBB"/>
<rect width="4.19853" height="4.19853" rx="0.524817" transform="matrix(-1 0 0 1 156.395 26.3066)" fill="#4EDDBB"/>
<rect width="4.19853" height="4.19853" rx="0.524817" transform="matrix(-1 0 0 1 151.146 26.3066)" fill="#4EDDBB"/>
<rect width="4.19853" height="4.19853" rx="0.524817" transform="matrix(-1 0 0 1 145.898 26.3066)" fill="#4EDDBB"/>
<rect width="4.19853" height="4.19853" rx="0.524817" transform="matrix(-1 0 0 1 140.652 26.3066)" fill="#4EDDBB"/>
<rect width="4.19853" height="4.19853" rx="0.524817" transform="matrix(-1 0 0 1 135.402 26.3066)" fill="#4EDDBB"/>
<rect width="4.19853" height="4.19853" rx="0.524817" transform="matrix(-1 0 0 1 130.154 26.3066)" fill="#4EDDBB"/>
<rect width="4.19853" height="4.19853" rx="0.524817" transform="matrix(-1 0 0 1 124.906 26.3066)" fill="#4EDDBB"/>
<rect width="4.19853" height="4.19853" rx="0.524817" transform="matrix(-1 0 0 1 119.658 26.3066)" fill="#4EDDBB"/>
<rect width="4.19853" height="4.19853" rx="0.524817" transform="matrix(-1 0 0 1 114.41 26.3066)" fill="#4EDDBB"/>
<rect width="4.19853" height="4.19853" rx="0.524817" transform="matrix(-1 0 0 1 109.162 26.3066)" fill="#4EDDBB"/>
<rect width="4.19853" height="4.19853" rx="0.524817" transform="matrix(-1 0 0 1 103.914 26.3066)" fill="#4EDDBB"/>
<rect width="4.19853" height="4.19853" rx="0.524817" transform="matrix(-1 0 0 1 98.666 26.3066)" fill="#4EDDBB"/>
<rect width="4.19853" height="4.19853" rx="0.524817" transform="matrix(-1 0 0 1 93.416 26.3066)" fill="#4EDDBB"/>
<rect width="4.19853" height="4.19853" rx="0.524817" transform="matrix(-1 0 0 1 88.1699 26.3066)" fill="#4EDDBB"/>
<rect width="4.19853" height="4.19853" rx="0.524817" transform="matrix(-1 0 0 1 82.9219 26.3066)" fill="#4EDDBB"/>
<rect width="4.19853" height="4.19853" rx="0.524817" transform="matrix(-1 0 0 1 77.6738 26.3066)" fill="#4EDDBB"/>
<rect width="4.19853" height="4.19853" rx="0.524817" transform="matrix(-1 0 0 1 72.4258 26.3066)" fill="#4EDDBB"/>
<rect width="4.19853" height="4.19853" rx="0.524817" transform="matrix(-1 0 0 1 67.1758 26.3066)" fill="#4EDDBB"/>
<rect width="4.19853" height="4.19853" rx="0.524817" transform="matrix(-1 0 0 1 61.9277 26.3066)" fill="#4EDDBB"/>
<rect width="4.19853" height="4.19853" rx="0.524817" transform="matrix(-1 0 0 1 56.6797 26.3066)" fill="#4EDDBB"/>
<rect width="4.19853" height="4.19853" rx="0.524817" transform="matrix(-1 0 0 1 51.4316 26.3066)" fill="#4EDDBB"/>
<rect width="4.19853" height="4.19853" rx="0.524817" transform="matrix(-1 0 0 1 46.1836 26.3066)" fill="#4EDDBB"/>
<rect width="4.19853" height="4.19853" rx="0.524817" transform="matrix(-1 0 0 1 40.9355 26.3066)" fill="#4EDDBB"/>
<rect width="4.19853" height="4.19853" rx="0.524817" transform="matrix(-1 0 0 1 35.6855 26.3066)" fill="#4EDDBB"/>
<rect width="4.19853" height="4.19853" rx="0.524817" transform="matrix(-1 0 0 1 30.4397 26.3066)" fill="#4EDDBB"/>
<rect width="4.19853" height="4.19853" rx="0.524817" transform="matrix(-1 0 0 1 25.1914 26.3066)" fill="#4EDDBB"/>
<rect width="4.19853" height="4.19853" rx="0.524817" transform="matrix(-1 0 0 1 19.9434 26.3066)" fill="#4EDDBB"/>
<rect width="4.19853" height="4.19853" rx="0.524817" transform="matrix(-1 0 0 1 14.6951 26.3066)" fill="#4EDDBB"/>
<rect width="4.19853" height="4.19853" rx="0.524817" transform="matrix(-1 0 0 1 9.44727 26.3066)" fill="#4EDDBB"/>
<rect width="4.19853" height="4.19853" rx="0.524817" transform="matrix(-1 0 0 1 4.19727 26.3066)" fill="#4EDDBB"/>
<rect width="4.19853" height="4.19853" rx="0.524817" transform="matrix(-1 0 0 1 156.395 31.5527)" fill="#4EDDBB"/>
<rect width="4.19853" height="4.19853" rx="0.524817" transform="matrix(-1 0 0 1 151.146 31.5527)" fill="#4EDDBB"/>
<rect width="4.19853" height="4.19853" rx="0.524817" transform="matrix(-1 0 0 1 145.898 31.5527)" fill="#4EDDBB"/>
<rect width="4.19853" height="4.19853" rx="0.524817" transform="matrix(-1 0 0 1 140.652 31.5527)" fill="#4EDDBB"/>
<rect width="4.19853" height="4.19853" rx="0.524817" transform="matrix(-1 0 0 1 135.402 31.5527)" fill="#4EDDBB"/>
<rect width="4.19853" height="4.19853" rx="0.524817" transform="matrix(-1 0 0 1 130.154 31.5527)" fill="#4EDDBB"/>
<rect width="4.19853" height="4.19853" rx="0.524817" transform="matrix(-1 0 0 1 124.906 31.5527)" fill="#4EDDBB"/>
<rect width="4.19853" height="4.19853" rx="0.524817" transform="matrix(-1 0 0 1 119.658 31.5527)" fill="#4EDDBB"/>
<rect width="4.19853" height="4.19853" rx="0.524817" transform="matrix(-1 0 0 1 114.41 31.5527)" fill="#4EDDBB"/>
<rect width="4.19853" height="4.19853" rx="0.524817" transform="matrix(-1 0 0 1 109.162 31.5527)" fill="#4EDDBB"/>
<rect width="4.19853" height="4.19853" rx="0.524817" transform="matrix(-1 0 0 1 103.914 31.5527)" fill="#4EDDBB"/>
<rect width="4.19853" height="4.19853" rx="0.524817" transform="matrix(-1 0 0 1 98.666 31.5527)" fill="#4EDDBB"/>
<rect width="4.19853" height="4.19853" rx="0.524817" transform="matrix(-1 0 0 1 93.416 31.5527)" fill="#4EDDBB"/>
<rect width="4.19853" height="4.19853" rx="0.524817" transform="matrix(-1 0 0 1 88.1699 31.5527)" fill="#4EDDBB"/>
<rect width="4.19853" height="4.19853" rx="0.524817" transform="matrix(-1 0 0 1 82.9219 31.5527)" fill="#4EDDBB"/>
<rect width="4.19853" height="4.19853" rx="0.524817" transform="matrix(-1 0 0 1 77.6738 31.5527)" fill="#4EDDBB"/>
<rect width="4.19853" height="4.19853" rx="0.524817" transform="matrix(-1 0 0 1 72.4258 31.5527)" fill="#4EDDBB"/>
<rect width="4.19853" height="4.19853" rx="0.524817" transform="matrix(-1 0 0 1 67.1758 31.5527)" fill="#4EDDBB"/>
<rect width="4.19853" height="4.19853" rx="0.524817" transform="matrix(-1 0 0 1 61.9277 31.5527)" fill="#4EDDBB"/>
<rect width="4.19853" height="4.19853" rx="0.524817" transform="matrix(-1 0 0 1 56.6797 31.5527)" fill="#4EDDBB"/>
<rect width="4.19853" height="4.19853" rx="0.524817" transform="matrix(-1 0 0 1 51.4316 31.5527)" fill="#4EDDBB"/>
<rect width="4.19853" height="4.19853" rx="0.524817" transform="matrix(-1 0 0 1 46.1836 31.5527)" fill="#4EDDBB"/>
<rect width="4.19853" height="4.19853" rx="0.524817" transform="matrix(-1 0 0 1 40.9355 31.5527)" fill="#4EDDBB"/>
<rect width="4.19853" height="4.19853" rx="0.524817" transform="matrix(-1 0 0 1 35.6855 31.5527)" fill="#4EDDBB"/>
<rect width="4.19853" height="4.19853" rx="0.524817" transform="matrix(-1 0 0 1 30.4397 31.5527)" fill="#4EDDBB"/>
<rect width="4.19853" height="4.19853" rx="0.524817" transform="matrix(-1 0 0 1 25.1914 31.5527)" fill="#4EDDBB"/>
<rect width="4.19853" height="4.19853" rx="0.524817" transform="matrix(-1 0 0 1 19.9434 31.5527)" fill="#4EDDBB"/>
<rect width="4.19853" height="4.19853" rx="0.524817" transform="matrix(-1 0 0 1 14.6951 31.5527)" fill="#4EDDBB"/>
<rect width="4.19853" height="4.19853" rx="0.524817" transform="matrix(-1 0 0 1 9.44727 31.5527)" fill="#4EDDBB"/>
<rect width="4.19853" height="4.19853" rx="0.524817" transform="matrix(-1 0 0 1 4.19727 31.5527)" fill="#4EDDBB"/>
<rect width="4.19853" height="4.19853" rx="0.524817" transform="matrix(-1 0 0 1 156.395 36.8027)" fill="#4EDDBB"/>
<rect width="4.19853" height="4.19853" rx="0.524817" transform="matrix(-1 0 0 1 151.146 36.8027)" fill="#4EDDBB"/>
<rect width="4.19853" height="4.19853" rx="0.524817" transform="matrix(-1 0 0 1 145.898 36.8027)" fill="#4EDDBB"/>
<rect width="4.19853" height="4.19853" rx="0.524817" transform="matrix(-1 0 0 1 140.652 36.8027)" fill="#4EDDBB"/>
<rect width="4.19853" height="4.19853" rx="0.524817" transform="matrix(-1 0 0 1 135.402 36.8027)" fill="#4EDDBB"/>
<rect width="4.19853" height="4.19853" rx="0.524817" transform="matrix(-1 0 0 1 130.154 36.8027)" fill="#4EDDBB"/>
<rect width="4.19853" height="4.19853" rx="0.524817" transform="matrix(-1 0 0 1 124.906 36.8027)" fill="#4EDDBB"/>
<rect width="4.19853" height="4.19853" rx="0.524817" transform="matrix(-1 0 0 1 119.658 36.8027)" fill="#4EDDBB"/>
<rect width="4.19853" height="4.19853" rx="0.524817" transform="matrix(-1 0 0 1 114.41 36.8027)" fill="#4EDDBB"/>
<rect width="4.19853" height="4.19853" rx="0.524817" transform="matrix(-1 0 0 1 109.162 36.8027)" fill="#4EDDBB"/>
<rect width="4.19853" height="4.19853" rx="0.524817" transform="matrix(-1 0 0 1 103.914 36.8027)" fill="#4EDDBB"/>
<rect width="4.19853" height="4.19853" rx="0.524817" transform="matrix(-1 0 0 1 98.666 36.8027)" fill="#4EDDBB"/>
<rect width="4.19853" height="4.19853" rx="0.524817" transform="matrix(-1 0 0 1 93.416 36.8027)" fill="#4EDDBB"/>
<rect width="4.19853" height="4.19853" rx="0.524817" transform="matrix(-1 0 0 1 88.1699 36.8027)" fill="#4EDDBB"/>
<rect width="4.19853" height="4.19853" rx="0.524817" transform="matrix(-1 0 0 1 82.9219 36.8027)" fill="#4EDDBB"/>
<rect width="4.19853" height="4.19853" rx="0.524817" transform="matrix(-1 0 0 1 77.6738 36.8027)" fill="#4EDDBB"/>
<rect width="4.19853" height="4.19853" rx="0.524817" transform="matrix(-1 0 0 1 72.4258 36.8027)" fill="#4EDDBB"/>
<rect width="4.19853" height="4.19853" rx="0.524817" transform="matrix(-1 0 0 1 67.1758 36.8027)" fill="#4EDDBB"/>
<rect width="4.19853" height="4.19853" rx="0.524817" transform="matrix(-1 0 0 1 61.9277 36.8027)" fill="#4EDDBB"/>
<rect width="4.19853" height="4.19853" rx="0.524817" transform="matrix(-1 0 0 1 56.6797 36.8027)" fill="#4EDDBB"/>
<rect width="4.19853" height="4.19853" rx="0.524817" transform="matrix(-1 0 0 1 51.4316 36.8027)" fill="#4EDDBB"/>
<rect width="4.19853" height="4.19853" rx="0.524817" transform="matrix(-1 0 0 1 46.1836 36.8027)" fill="#4EDDBB"/>
<rect width="4.19853" height="4.19853" rx="0.524817" transform="matrix(-1 0 0 1 40.9355 36.8027)" fill="#4EDDBB"/>
<rect width="4.19853" height="4.19853" rx="0.524817" transform="matrix(-1 0 0 1 35.6855 36.8027)" fill="#4EDDBB"/>
<rect width="4.19853" height="4.19853" rx="0.524817" transform="matrix(-1 0 0 1 30.4397 36.8027)" fill="#4EDDBB"/>
<rect width="4.19853" height="4.19853" rx="0.524817" transform="matrix(-1 0 0 1 156.395 42.0488)" fill="#4EDDBB"/>
<rect width="4.19853" height="4.19853" rx="0.524817" transform="matrix(-1 0 0 1 151.146 42.0488)" fill="#4EDDBB"/>
<rect width="4.19853" height="4.19853" rx="0.524817" transform="matrix(-1 0 0 1 145.898 42.0488)" fill="#4EDDBB"/>
<rect width="4.19853" height="4.19853" rx="0.524817" transform="matrix(-1 0 0 1 140.652 42.0488)" fill="#4EDDBB"/>
<rect width="4.19853" height="4.19853" rx="0.524817" transform="matrix(-1 0 0 1 135.402 42.0488)" fill="#4EDDBB"/>
<rect width="4.19853" height="4.19853" rx="0.524817" transform="matrix(-1 0 0 1 130.154 42.0488)" fill="#4EDDBB"/>
<rect width="4.19853" height="4.19853" rx="0.524817" transform="matrix(-1 0 0 1 124.906 42.0488)" fill="#4EDDBB"/>
<rect width="4.19853" height="4.19853" rx="0.524817" transform="matrix(-1 0 0 1 119.658 42.0488)" fill="#4EDDBB"/>
<rect width="4.19853" height="4.19853" rx="0.524817" transform="matrix(-1 0 0 1 114.41 42.0488)" fill="#4EDDBB"/>
<rect width="4.19853" height="4.19853" rx="0.524817" transform="matrix(-1 0 0 1 109.162 42.0488)" fill="#4EDDBB"/>
<rect width="4.19853" height="4.19853" rx="0.524817" transform="matrix(-1 0 0 1 103.914 42.0488)" fill="#4EDDBB"/>
<rect width="4.19853" height="4.19853" rx="0.524817" transform="matrix(-1 0 0 1 98.666 42.0488)" fill="#4EDDBB"/>
<rect width="4.19853" height="4.19853" rx="0.524817" transform="matrix(-1 0 0 1 93.416 42.0488)" fill="#4EDDBB"/>
<rect width="4.19853" height="4.19853" rx="0.524817" transform="matrix(-1 0 0 1 88.1699 42.0488)" fill="#4EDDBB"/>
<rect width="4.19853" height="4.19853" rx="0.524817" transform="matrix(-1 0 0 1 82.9219 42.0488)" fill="#4EDDBB"/>
<rect width="4.19853" height="4.19853" rx="0.524817" transform="matrix(-1 0 0 1 77.6738 42.0488)" fill="#4EDDBB"/>
<rect width="4.19853" height="4.19853" rx="0.524817" transform="matrix(-1 0 0 1 72.4258 42.0488)" fill="#4EDDBB"/>
<rect width="4.19853" height="4.19853" rx="0.524817" transform="matrix(-1 0 0 1 67.1758 42.0488)" fill="#4EDDBB"/>
<rect width="4.19853" height="4.19853" rx="0.524817" transform="matrix(-1 0 0 1 61.9277 42.0488)" fill="#4EDDBB"/>
<rect width="4.19853" height="4.19853" rx="0.524817" transform="matrix(-1 0 0 1 56.6797 42.0488)" fill="#4EDDBB"/>
<rect width="4.19853" height="4.19853" rx="0.524817" transform="matrix(-1 0 0 1 51.4316 42.0488)" fill="#4EDDBB"/>
<rect width="4.19853" height="4.19853" rx="0.524817" transform="matrix(-1 0 0 1 46.1836 42.0488)" fill="#4EDDBB"/>
<rect width="4.19853" height="4.19853" rx="0.524817" transform="matrix(-1 0 0 1 40.9355 42.0488)" fill="#4EDDBB"/>
<rect width="4.19853" height="4.19853" rx="0.524817" transform="matrix(-1 0 0 1 35.6855 42.0488)" fill="#4EDDBB"/>
<rect width="4.19853" height="4.19853" rx="0.524817" transform="matrix(-1 0 0 1 30.4397 42.0488)" fill="#4EDDBB"/>
<rect width="4.19853" height="4.19853" rx="0.524817" transform="matrix(-1 0 0 1 25.1914 42.0488)" fill="#4EDDBB"/>
<rect width="4.19853" height="4.19853" rx="0.524817" transform="matrix(-1 0 0 1 156.395 47.2949)" fill="#4EDDBB"/>
<rect width="4.19853" height="4.19853" rx="0.524817" transform="matrix(-1 0 0 1 151.146 47.2949)" fill="#4EDDBB"/>
<rect width="4.19853" height="4.19853" rx="0.524817" transform="matrix(-1 0 0 1 145.898 47.2949)" fill="#4EDDBB"/>
<rect width="4.19853" height="4.19853" rx="0.524817" transform="matrix(-1 0 0 1 140.652 47.2949)" fill="#4EDDBB"/>
<rect width="4.19853" height="4.19853" rx="0.524817" transform="matrix(-1 0 0 1 135.402 47.2949)" fill="#4EDDBB"/>
<rect width="4.19853" height="4.19853" rx="0.524817" transform="matrix(-1 0 0 1 130.154 47.2949)" fill="#4EDDBB"/>
<rect width="4.19853" height="4.19853" rx="0.524817" transform="matrix(-1 0 0 1 124.906 47.2949)" fill="#4EDDBB"/>
<rect width="4.19853" height="4.19853" rx="0.524817" transform="matrix(-1 0 0 1 119.658 47.2949)" fill="#4EDDBB"/>
<rect width="4.19853" height="4.19853" rx="0.524817" transform="matrix(-1 0 0 1 114.41 47.2949)" fill="#4EDDBB"/>
<rect width="4.19853" height="4.19853" rx="0.524817" transform="matrix(-1 0 0 1 109.162 47.2949)" fill="#4EDDBB"/>
<rect width="4.19853" height="4.19853" rx="0.524817" transform="matrix(-1 0 0 1 103.914 47.2949)" fill="#4EDDBB"/>
<rect width="4.19853" height="4.19853" rx="0.524817" transform="matrix(-1 0 0 1 98.666 47.2949)" fill="#4EDDBB"/>
<rect width="4.19853" height="4.19853" rx="0.524817" transform="matrix(-1 0 0 1 93.416 47.2949)" fill="#4EDDBB"/>
<rect width="4.19853" height="4.19853" rx="0.524817" transform="matrix(-1 0 0 1 88.1699 47.2949)" fill="#4EDDBB"/>
<rect width="4.19853" height="4.19853" rx="0.524817" transform="matrix(-1 0 0 1 82.9219 47.2949)" fill="#4EDDBB"/>
<rect width="4.19853" height="4.19853" rx="0.524817" transform="matrix(-1 0 0 1 77.6738 47.2949)" fill="#4EDDBB"/>
<rect width="4.19853" height="4.19853" rx="0.524817" transform="matrix(-1 0 0 1 72.4258 47.2949)" fill="#4EDDBB"/>
<rect width="4.19853" height="4.19853" rx="0.524817" transform="matrix(-1 0 0 1 67.1758 47.2949)" fill="#4EDDBB"/>
<rect width="4.19853" height="4.19853" rx="0.524817" transform="matrix(-1 0 0 1 61.9277 47.2949)" fill="#4EDDBB"/>
<rect width="4.19853" height="4.19853" rx="0.524817" transform="matrix(-1 0 0 1 56.6797 47.2949)" fill="#4EDDBB"/>
<rect width="4.19853" height="4.19853" rx="0.524817" transform="matrix(-1 0 0 1 51.4316 47.2949)" fill="#4EDDBB"/>
<rect width="4.19853" height="4.19853" rx="0.524817" transform="matrix(-1 0 0 1 46.1836 47.2949)" fill="#4EDDBB"/>
<rect width="4.19853" height="4.19853" rx="0.524817" transform="matrix(-1 0 0 1 40.9355 47.2949)" fill="#4EDDBB"/>
<rect width="4.19853" height="4.19853" rx="0.524817" transform="matrix(-1 0 0 1 156.395 52.5449)" fill="#4EDDBB"/>
<rect width="4.19853" height="4.19853" rx="0.524817" transform="matrix(-1 0 0 1 151.146 52.5449)" fill="#4EDDBB"/>
<rect width="4.19853" height="4.19853" rx="0.524817" transform="matrix(-1 0 0 1 145.898 52.5449)" fill="#4EDDBB"/>
<rect width="4.19853" height="4.19853" rx="0.524817" transform="matrix(-1 0 0 1 140.652 52.5449)" fill="#4EDDBB"/>
<rect width="4.19853" height="4.19853" rx="0.524817" transform="matrix(-1 0 0 1 135.402 52.5449)" fill="#4EDDBB"/>
<rect width="4.19853" height="4.19853" rx="0.524817" transform="matrix(-1 0 0 1 130.154 52.5449)" fill="#4EDDBB"/>
<rect width="4.19853" height="4.19853" rx="0.524817" transform="matrix(-1 0 0 1 124.906 52.5449)" fill="#4EDDBB"/>
<rect width="4.19853" height="4.19853" rx="0.524817" transform="matrix(-1 0 0 1 119.658 52.5449)" fill="#4EDDBB"/>
<rect width="4.19853" height="4.19853" rx="0.524817" transform="matrix(-1 0 0 1 114.41 52.5449)" fill="#4EDDBB"/>
<rect width="4.19853" height="4.19853" rx="0.524817" transform="matrix(-1 0 0 1 109.162 52.5449)" fill="#4EDDBB"/>
<rect width="4.19853" height="4.19853" rx="0.524817" transform="matrix(-1 0 0 1 103.914 52.5449)" fill="#4EDDBB"/>
<rect width="4.19853" height="4.19853" rx="0.524817" transform="matrix(-1 0 0 1 98.666 52.5449)" fill="#4EDDBB"/>
<rect width="4.19853" height="4.19853" rx="0.524817" transform="matrix(-1 0 0 1 93.416 52.5449)" fill="#4EDDBB"/>
<rect width="4.19853" height="4.19853" rx="0.524817" transform="matrix(-1 0 0 1 88.1699 52.5449)" fill="#4EDDBB"/>
<rect width="4.19853" height="4.19853" rx="0.524817" transform="matrix(-1 0 0 1 82.9219 52.5449)" fill="#4EDDBB"/>
<rect width="4.19853" height="4.19853" rx="0.524817" transform="matrix(-1 0 0 1 77.6738 52.5449)" fill="#4EDDBB"/>
<rect width="4.19853" height="4.19853" rx="0.524817" transform="matrix(-1 0 0 1 72.4258 52.5449)" fill="#4EDDBB"/>
<rect width="4.19853" height="4.19853" rx="0.524817" transform="matrix(-1 0 0 1 67.1758 52.5449)" fill="#4EDDBB"/>
<rect width="4.19853" height="4.19853" rx="0.524817" transform="matrix(-1 0 0 1 61.9277 52.5449)" fill="#4EDDBB"/>
<rect width="4.19853" height="4.19853" rx="0.524817" transform="matrix(-1 0 0 1 56.6797 52.5449)" fill="#4EDDBB"/>
<rect width="4.19853" height="4.19853" rx="0.524817" transform="matrix(-1 0 0 1 51.4316 52.5449)" fill="#4EDDBB"/>
<rect width="4.19853" height="4.19853" rx="0.524817" transform="matrix(-1 0 0 1 46.1836 52.5449)" fill="#4EDDBB"/>
<rect width="4.19853" height="4.19853" rx="0.524817" transform="matrix(-1 0 0 1 40.9355 52.5449)" fill="#4EDDBB"/>
<rect width="4.19853" height="4.19853" rx="0.524817" transform="matrix(-1 0 0 1 35.6855 52.5449)" fill="#4EDDBB"/>
<rect width="4.19853" height="4.19853" rx="0.524817" transform="matrix(-1 0 0 1 30.4397 52.5449)" fill="#4EDDBB"/>
<rect width="4.19853" height="4.19853" rx="0.524817" transform="matrix(-1 0 0 1 25.1914 52.5449)" fill="#4EDDBB"/>
<rect width="4.19853" height="4.19853" rx="0.524817" transform="matrix(-1 0 0 1 19.9434 52.5449)" fill="#4EDDBB"/>
<rect width="4.19853" height="4.19853" rx="0.524817" transform="matrix(-1 0 0 1 14.6951 52.5449)" fill="#4EDDBB"/>
<rect width="4.19853" height="4.19853" rx="0.524817" transform="matrix(-1 0 0 1 9.44727 52.5449)" fill="#4EDDBB"/>
<rect width="4.19853" height="4.19853" rx="0.524817" transform="matrix(-1 0 0 1 4.19727 52.5449)" fill="#4EDDBB"/>
</g>
<rect width="4.19853" height="4.26633" rx="0.524817" transform="matrix(-1 0 0 1 156.531 53.3281)" fill="#4EDDBB"/>
<rect width="4.19853" height="4.26633" rx="0.524817" transform="matrix(-1 0 0 1 151.283 53.3281)" fill="#4EDDBB"/>
<rect width="4.19853" height="4.26633" rx="0.524817" transform="matrix(-1 0 0 1 146.035 53.3281)" fill="#4EDDBB"/>
<rect width="4.19853" height="4.26633" rx="0.524817" transform="matrix(-1 0 0 1 140.789 53.3281)" fill="#4EDDBB"/>
<rect width="4.19853" height="4.26633" rx="0.524817" transform="matrix(-1 0 0 1 135.539 53.3281)" fill="#4EDDBB"/>
<rect width="4.19853" height="4.26633" rx="0.524817" transform="matrix(-1 0 0 1 130.291 53.3281)" fill="#4EDDBB"/>
<rect width="4.19853" height="4.26633" rx="0.524817" transform="matrix(-1 0 0 1 125.043 53.3281)" fill="#4EDDBB"/>
<rect width="4.19853" height="4.26633" rx="0.524817" transform="matrix(-1 0 0 1 119.795 53.3281)" fill="#4EDDBB"/>
<rect width="4.19853" height="4.26633" rx="0.524817" transform="matrix(-1 0 0 1 114.547 53.3281)" fill="#4EDDBB"/>
<rect width="4.19853" height="4.26633" rx="0.524817" transform="matrix(-1 0 0 1 109.299 53.3281)" fill="#4EDDBB"/>
<rect width="4.19853" height="4.26633" rx="0.524817" transform="matrix(-1 0 0 1 104.051 53.3281)" fill="#4EDDBB"/>
<rect width="4.19853" height="4.26633" rx="0.524817" transform="matrix(-1 0 0 1 98.8008 53.3281)" fill="#4EDDBB"/>
<rect width="4.19853" height="4.26633" rx="0.524817" transform="matrix(-1 0 0 1 93.5527 53.3281)" fill="#4EDDBB"/>
<rect width="4.19853" height="4.26633" rx="0.524817" transform="matrix(-1 0 0 1 88.3066 53.3281)" fill="#4EDDBB"/>
<rect width="4.19853" height="4.26633" rx="0.524817" transform="matrix(-1 0 0 1 156.531 58.6641)" fill="#4EDDBB"/>
<rect width="4.19853" height="4.26633" rx="0.524817" transform="matrix(-1 0 0 1 151.283 58.6641)" fill="#4EDDBB"/>
<rect width="4.19853" height="4.26633" rx="0.524817" transform="matrix(-1 0 0 1 146.035 58.6641)" fill="#4EDDBB"/>
<rect width="4.19853" height="4.26633" rx="0.524817" transform="matrix(-1 0 0 1 140.789 58.6641)" fill="#4EDDBB"/>
<rect width="4.19853" height="4.26633" rx="0.524817" transform="matrix(-1 0 0 1 135.539 58.6641)" fill="#4EDDBB"/>
<rect width="4.19853" height="4.26633" rx="0.524817" transform="matrix(-1 0 0 1 130.291 58.6641)" fill="#4EDDBB"/>
<rect width="4.19853" height="4.26633" rx="0.524817" transform="matrix(-1 0 0 1 125.043 58.6641)" fill="#4EDDBB"/>
<rect width="4.19853" height="4.26633" rx="0.524817" transform="matrix(-1 0 0 1 119.795 58.6641)" fill="#4EDDBB"/>
<rect width="4.19853" height="4.26633" rx="0.524817" transform="matrix(-1 0 0 1 114.547 58.6641)" fill="#4EDDBB"/>
<rect width="4.19853" height="4.26633" rx="0.524817" transform="matrix(-1 0 0 1 109.299 58.6641)" fill="#4EDDBB"/>
<rect width="4.19853" height="4.26633" rx="0.524817" transform="matrix(-1 0 0 1 156.531 0)" fill="#4EDDBB"/>
<rect width="4.19853" height="4.26633" rx="0.524817" transform="matrix(-1 0 0 1 151.283 0)" fill="#4EDDBB"/>
<rect width="4.19853" height="4.26633" rx="0.524817" transform="matrix(-1 0 0 1 146.035 0)" fill="#4EDDBB"/>
<rect width="4.19853" height="4.26633" rx="0.524817" transform="matrix(-1 0 0 1 140.789 0)" fill="#4EDDBB"/>
<rect width="4.19853" height="4.26633" rx="0.524817" transform="matrix(-1 0 0 1 135.539 0)" fill="#4EDDBB"/>
<rect width="4.19853" height="4.26633" rx="0.524817" transform="matrix(-1 0 0 1 130.291 0)" fill="#4EDDBB"/>
<rect width="4.19853" height="4.26633" rx="0.524817" transform="matrix(-1 0 0 1 125.043 0)" fill="#4EDDBB"/>
<rect width="4.19853" height="4.26633" rx="0.524817" transform="matrix(-1 0 0 1 119.795 0)" fill="#4EDDBB"/>
<rect width="4.19853" height="4.26633" rx="0.524817" transform="matrix(-1 0 0 1 114.547 0)" fill="#4EDDBB"/>
</g>
<g opacity="0.1">
<g clip-path="url(#clip1_286_20357)">
<rect x="158.234" y="0.0683594" width="4.19853" height="4.19853" rx="0.524817" fill="#4EDDBB"/>
<rect x="163.482" y="0.0683594" width="4.19853" height="4.19853" rx="0.524817" fill="#4EDDBB"/>
<rect x="168.73" y="0.0683594" width="4.19853" height="4.19853" rx="0.524817" fill="#4EDDBB"/>
<rect x="173.977" y="0.0683594" width="4.19853" height="4.19853" rx="0.524817" fill="#4EDDBB"/>
<rect x="179.227" y="0.0683594" width="4.19853" height="4.19853" rx="0.524817" fill="#4EDDBB"/>
<rect x="184.475" y="0.0683594" width="4.19853" height="4.19853" rx="0.524817" fill="#4EDDBB"/>
<rect x="189.723" y="0.0683594" width="4.19853" height="4.19853" rx="0.524817" fill="#4EDDBB"/>
<rect x="194.971" y="0.0683594" width="4.19853" height="4.19853" rx="0.524817" fill="#4EDDBB"/>
<rect x="200.219" y="0.0683594" width="4.19853" height="4.19853" rx="0.524817" fill="#4EDDBB"/>
<rect x="205.467" y="0.0683594" width="4.19853" height="4.19853" rx="0.524817" fill="#4EDDBB"/>
<rect x="210.715" y="0.0683594" width="4.19853" height="4.19853" rx="0.524817" fill="#4EDDBB"/>
<rect x="215.963" y="0.0683594" width="4.19853" height="4.19853" rx="0.524817" fill="#4EDDBB"/>
<rect x="221.213" y="0.0683594" width="4.19853" height="4.19853" rx="0.524817" fill="#4EDDBB"/>
<rect x="226.459" y="0.0683594" width="4.19853" height="4.19853" rx="0.524817" fill="#4EDDBB"/>
<rect x="158.234" y="5.31445" width="4.19853" height="4.19853" rx="0.524817" fill="#4EDDBB"/>
<rect x="163.482" y="5.31445" width="4.19853" height="4.19853" rx="0.524817" fill="#4EDDBB"/>
<rect x="168.73" y="5.31445" width="4.19853" height="4.19853" rx="0.524817" fill="#4EDDBB"/>
<rect x="173.977" y="5.31445" width="4.19853" height="4.19853" rx="0.524817" fill="#4EDDBB"/>
<rect x="179.227" y="5.31445" width="4.19853" height="4.19853" rx="0.524817" fill="#4EDDBB"/>
<rect x="184.475" y="5.31445" width="4.19853" height="4.19853" rx="0.524817" fill="#4EDDBB"/>
<rect x="189.723" y="5.31445" width="4.19853" height="4.19853" rx="0.524817" fill="#4EDDBB"/>
<rect x="194.971" y="5.31445" width="4.19853" height="4.19853" rx="0.524817" fill="#4EDDBB"/>
<rect x="200.219" y="5.31445" width="4.19853" height="4.19853" rx="0.524817" fill="#4EDDBB"/>
<rect x="205.467" y="5.31445" width="4.19853" height="4.19853" rx="0.524817" fill="#4EDDBB"/>
<rect x="210.715" y="5.31445" width="4.19853" height="4.19853" rx="0.524817" fill="#4EDDBB"/>
<rect x="215.963" y="5.31445" width="4.19853" height="4.19853" rx="0.524817" fill="#4EDDBB"/>
<rect x="221.213" y="5.31445" width="4.19853" height="4.19853" rx="0.524817" fill="#4EDDBB"/>
<rect x="226.459" y="5.31445" width="4.19853" height="4.19853" rx="0.524817" fill="#4EDDBB"/>
<rect x="158.234" y="10.5566" width="4.19853" height="4.19853" rx="0.524817" fill="#4EDDBB"/>
<rect x="163.482" y="10.5566" width="4.19853" height="4.19853" rx="0.524817" fill="#4EDDBB"/>
<rect x="168.73" y="10.5566" width="4.19853" height="4.19853" rx="0.524817" fill="#4EDDBB"/>
<rect x="173.977" y="10.5566" width="4.19853" height="4.19853" rx="0.524817" fill="#4EDDBB"/>
<rect x="179.227" y="10.5566" width="4.19853" height="4.19853" rx="0.524817" fill="#4EDDBB"/>
<rect x="184.475" y="10.5566" width="4.19853" height="4.19853" rx="0.524817" fill="#4EDDBB"/>
<rect x="189.723" y="10.5566" width="4.19853" height="4.19853" rx="0.524817" fill="#4EDDBB"/>
<rect x="194.971" y="10.5566" width="4.19853" height="4.19853" rx="0.524817" fill="#4EDDBB"/>
<rect x="200.219" y="10.5566" width="4.19853" height="4.19853" rx="0.524817" fill="#4EDDBB"/>
<rect x="205.467" y="10.5566" width="4.19853" height="4.19853" rx="0.524817" fill="#4EDDBB"/>
<rect x="210.715" y="10.5566" width="4.19853" height="4.19853" rx="0.524817" fill="#4EDDBB"/>
<rect x="215.963" y="10.5566" width="4.19853" height="4.19853" rx="0.524817" fill="#4EDDBB"/>
<rect x="221.213" y="10.5566" width="4.19853" height="4.19853" rx="0.524817" fill="#4EDDBB"/>
<rect x="226.459" y="10.5566" width="4.19853" height="4.19853" rx="0.524817" fill="#4EDDBB"/>
<rect x="231.707" y="10.5566" width="4.19853" height="4.19853" rx="0.524817" fill="#4EDDBB"/>
<rect x="236.955" y="10.5566" width="4.19853" height="4.19853" rx="0.524817" fill="#4EDDBB"/>
<rect x="242.203" y="10.5566" width="4.19853" height="4.19853" rx="0.524817" fill="#4EDDBB"/>
<rect x="247.453" y="10.5566" width="4.19853" height="4.19853" rx="0.524817" fill="#4EDDBB"/>
<rect x="252.701" y="10.5566" width="4.19853" height="4.19853" rx="0.524817" fill="#4EDDBB"/>
<rect x="257.949" y="10.5566" width="4.19853" height="4.19853" rx="0.524817" fill="#4EDDBB"/>
<rect x="263.197" y="10.5566" width="4.19853" height="4.19853" rx="0.524817" fill="#4EDDBB"/>
<rect x="268.445" y="10.5566" width="4.19853" height="4.19853" rx="0.524817" fill="#4EDDBB"/>
<rect x="273.693" y="10.5566" width="4.19853" height="4.19853" rx="0.524817" fill="#4EDDBB"/>
<rect x="278.943" y="10.5566" width="4.19853" height="4.19853" rx="0.524817" fill="#4EDDBB"/>
<rect x="284.189" y="10.5566" width="4.19853" height="4.19853" rx="0.524817" fill="#4EDDBB"/>
<rect x="158.234" y="15.8105" width="4.19853" height="4.19853" rx="0.524817" fill="#4EDDBB"/>
<rect x="163.482" y="15.8105" width="4.19853" height="4.19853" rx="0.524817" fill="#4EDDBB"/>
<rect x="168.73" y="15.8105" width="4.19853" height="4.19853" rx="0.524817" fill="#4EDDBB"/>
<rect x="173.977" y="15.8105" width="4.19853" height="4.19853" rx="0.524817" fill="#4EDDBB"/>
<rect x="179.227" y="15.8105" width="4.19853" height="4.19853" rx="0.524817" fill="#4EDDBB"/>
<rect x="184.475" y="15.8105" width="4.19853" height="4.19853" rx="0.524817" fill="#4EDDBB"/>
<rect x="189.723" y="15.8105" width="4.19853" height="4.19853" rx="0.524817" fill="#4EDDBB"/>
<rect x="194.971" y="15.8105" width="4.19853" height="4.19853" rx="0.524817" fill="#4EDDBB"/>
<rect x="200.219" y="15.8105" width="4.19853" height="4.19853" rx="0.524817" fill="#4EDDBB"/>
<rect x="205.467" y="15.8105" width="4.19853" height="4.19853" rx="0.524817" fill="#4EDDBB"/>
<rect x="210.715" y="15.8105" width="4.19853" height="4.19853" rx="0.524817" fill="#4EDDBB"/>
<rect x="215.963" y="15.8105" width="4.19853" height="4.19853" rx="0.524817" fill="#4EDDBB"/>
<rect x="221.213" y="15.8105" width="4.19853" height="4.19853" rx="0.524817" fill="#4EDDBB"/>
<rect x="226.459" y="15.8105" width="4.19853" height="4.19853" rx="0.524817" fill="#4EDDBB"/>
<rect x="231.707" y="15.8105" width="4.19853" height="4.19853" rx="0.524817" fill="#4EDDBB"/>
<rect x="236.955" y="15.8105" width="4.19853" height="4.19853" rx="0.524817" fill="#4EDDBB"/>
<rect x="242.203" y="15.8105" width="4.19853" height="4.19853" rx="0.524817" fill="#4EDDBB"/>
<rect x="247.453" y="15.8105" width="4.19853" height="4.19853" rx="0.524817" fill="#4EDDBB"/>
<rect x="252.701" y="15.8105" width="4.19853" height="4.19853" rx="0.524817" fill="#4EDDBB"/>
<rect x="257.949" y="15.8105" width="4.19853" height="4.19853" rx="0.524817" fill="#4EDDBB"/>
<rect x="263.197" y="15.8105" width="4.19853" height="4.19853" rx="0.524817" fill="#4EDDBB"/>
<rect x="268.445" y="15.8105" width="4.19853" height="4.19853" rx="0.524817" fill="#4EDDBB"/>
<rect x="273.693" y="15.8105" width="4.19853" height="4.19853" rx="0.524817" fill="#4EDDBB"/>
<rect x="278.943" y="15.8105" width="4.19853" height="4.19853" rx="0.524817" fill="#4EDDBB"/>
<rect x="284.189" y="15.8105" width="4.19853" height="4.19853" rx="0.524817" fill="#4EDDBB"/>
<rect x="289.438" y="15.8105" width="4.19853" height="4.19853" rx="0.524817" fill="#4EDDBB"/>
<rect x="294.686" y="15.8105" width="4.19853" height="4.19853" rx="0.524817" fill="#4EDDBB"/>
<rect x="299.934" y="15.8105" width="4.19853" height="4.19853" rx="0.524817" fill="#4EDDBB"/>
<rect x="158.234" y="21.0566" width="4.19853" height="4.19853" rx="0.524817" fill="#4EDDBB"/>
<rect x="163.482" y="21.0566" width="4.19853" height="4.19853" rx="0.524817" fill="#4EDDBB"/>
<rect x="168.73" y="21.0566" width="4.19853" height="4.19853" rx="0.524817" fill="#4EDDBB"/>
<rect x="173.977" y="21.0566" width="4.19853" height="4.19853" rx="0.524817" fill="#4EDDBB"/>
<rect x="179.227" y="21.0566" width="4.19853" height="4.19853" rx="0.524817" fill="#4EDDBB"/>
<rect x="184.475" y="21.0566" width="4.19853" height="4.19853" rx="0.524817" fill="#4EDDBB"/>
<rect x="189.723" y="21.0566" width="4.19853" height="4.19853" rx="0.524817" fill="#4EDDBB"/>
<rect x="194.971" y="21.0566" width="4.19853" height="4.19853" rx="0.524817" fill="#4EDDBB"/>
<rect x="200.219" y="21.0566" width="4.19853" height="4.19853" rx="0.524817" fill="#4EDDBB"/>
<rect x="205.467" y="21.0566" width="4.19853" height="4.19853" rx="0.524817" fill="#4EDDBB"/>
<rect x="210.715" y="21.0566" width="4.19853" height="4.19853" rx="0.524817" fill="#4EDDBB"/>
<rect x="215.963" y="21.0566" width="4.19853" height="4.19853" rx="0.524817" fill="#4EDDBB"/>
<rect x="221.213" y="21.0566" width="4.19853" height="4.19853" rx="0.524817" fill="#4EDDBB"/>
<rect x="226.459" y="21.0566" width="4.19853" height="4.19853" rx="0.524817" fill="#4EDDBB"/>
<rect x="231.707" y="21.0566" width="4.19853" height="4.19853" rx="0.524817" fill="#4EDDBB"/>
<rect x="236.955" y="21.0566" width="4.19853" height="4.19853" rx="0.524817" fill="#4EDDBB"/>
<rect x="242.203" y="21.0566" width="4.19853" height="4.19853" rx="0.524817" fill="#4EDDBB"/>
<rect x="247.453" y="21.0566" width="4.19853" height="4.19853" rx="0.524817" fill="#4EDDBB"/>
<rect x="252.701" y="21.0566" width="4.19853" height="4.19853" rx="0.524817" fill="#4EDDBB"/>
<rect x="257.949" y="21.0566" width="4.19853" height="4.19853" rx="0.524817" fill="#4EDDBB"/>
<rect x="263.197" y="21.0566" width="4.19853" height="4.19853" rx="0.524817" fill="#4EDDBB"/>
<rect x="268.445" y="21.0566" width="4.19853" height="4.19853" rx="0.524817" fill="#4EDDBB"/>
<rect x="273.693" y="21.0566" width="4.19853" height="4.19853" rx="0.524817" fill="#4EDDBB"/>
<rect x="278.943" y="21.0566" width="4.19853" height="4.19853" rx="0.524817" fill="#4EDDBB"/>
<rect x="284.189" y="21.0566" width="4.19853" height="4.19853" rx="0.524817" fill="#4EDDBB"/>
<rect x="289.438" y="21.0566" width="4.19853" height="4.19853" rx="0.524817" fill="#4EDDBB"/>
<rect x="294.686" y="21.0566" width="4.19853" height="4.19853" rx="0.524817" fill="#4EDDBB"/>
<rect x="299.934" y="21.0566" width="4.19853" height="4.19853" rx="0.524817" fill="#4EDDBB"/>
<rect x="305.182" y="21.0566" width="4.19853" height="4.19853" rx="0.524817" fill="#4EDDBB"/>
<rect x="310.432" y="21.0566" width="4.19853" height="4.19853" rx="0.524817" fill="#4EDDBB"/>
<rect x="158.234" y="26.3066" width="4.19853" height="4.19853" rx="0.524817" fill="#4EDDBB"/>
<rect x="163.482" y="26.3066" width="4.19853" height="4.19853" rx="0.524817" fill="#4EDDBB"/>
<rect x="168.73" y="26.3066" width="4.19853" height="4.19853" rx="0.524817" fill="#4EDDBB"/>
<rect x="173.977" y="26.3066" width="4.19853" height="4.19853" rx="0.524817" fill="#4EDDBB"/>
<rect x="179.227" y="26.3066" width="4.19853" height="4.19853" rx="0.524817" fill="#4EDDBB"/>
<rect x="184.475" y="26.3066" width="4.19853" height="4.19853" rx="0.524817" fill="#4EDDBB"/>
<rect x="189.723" y="26.3066" width="4.19853" height="4.19853" rx="0.524817" fill="#4EDDBB"/>
<rect x="194.971" y="26.3066" width="4.19853" height="4.19853" rx="0.524817" fill="#4EDDBB"/>
<rect x="200.219" y="26.3066" width="4.19853" height="4.19853" rx="0.524817" fill="#4EDDBB"/>
<rect x="205.467" y="26.3066" width="4.19853" height="4.19853" rx="0.524817" fill="#4EDDBB"/>
<rect x="210.715" y="26.3066" width="4.19853" height="4.19853" rx="0.524817" fill="#4EDDBB"/>
<rect x="215.963" y="26.3066" width="4.19853" height="4.19853" rx="0.524817" fill="#4EDDBB"/>
<rect x="221.213" y="26.3066" width="4.19853" height="4.19853" rx="0.524817" fill="#4EDDBB"/>
<rect x="226.459" y="26.3066" width="4.19853" height="4.19853" rx="0.524817" fill="#4EDDBB"/>
<rect x="231.707" y="26.3066" width="4.19853" height="4.19853" rx="0.524817" fill="#4EDDBB"/>
<rect x="236.955" y="26.3066" width="4.19853" height="4.19853" rx="0.524817" fill="#4EDDBB"/>
<rect x="242.203" y="26.3066" width="4.19853" height="4.19853" rx="0.524817" fill="#4EDDBB"/>
<rect x="247.453" y="26.3066" width="4.19853" height="4.19853" rx="0.524817" fill="#4EDDBB"/>
<rect x="252.701" y="26.3066" width="4.19853" height="4.19853" rx="0.524817" fill="#4EDDBB"/>
<rect x="257.949" y="26.3066" width="4.19853" height="4.19853" rx="0.524817" fill="#4EDDBB"/>
<rect x="263.197" y="26.3066" width="4.19853" height="4.19853" rx="0.524817" fill="#4EDDBB"/>
<rect x="268.445" y="26.3066" width="4.19853" height="4.19853" rx="0.524817" fill="#4EDDBB"/>
<rect x="273.693" y="26.3066" width="4.19853" height="4.19853" rx="0.524817" fill="#4EDDBB"/>
<rect x="278.943" y="26.3066" width="4.19853" height="4.19853" rx="0.524817" fill="#4EDDBB"/>
<rect x="284.189" y="26.3066" width="4.19853" height="4.19853" rx="0.524817" fill="#4EDDBB"/>
<rect x="289.438" y="26.3066" width="4.19853" height="4.19853" rx="0.524817" fill="#4EDDBB"/>
<rect x="294.686" y="26.3066" width="4.19853" height="4.19853" rx="0.524817" fill="#4EDDBB"/>
<rect x="299.934" y="26.3066" width="4.19853" height="4.19853" rx="0.524817" fill="#4EDDBB"/>
<rect x="305.182" y="26.3066" width="4.19853" height="4.19853" rx="0.524817" fill="#4EDDBB"/>
<rect x="310.432" y="26.3066" width="4.19853" height="4.19853" rx="0.524817" fill="#4EDDBB"/>
<rect x="158.234" y="31.5527" width="4.19853" height="4.19853" rx="0.524817" fill="#4EDDBB"/>
<rect x="163.482" y="31.5527" width="4.19853" height="4.19853" rx="0.524817" fill="#4EDDBB"/>
<rect x="168.73" y="31.5527" width="4.19853" height="4.19853" rx="0.524817" fill="#4EDDBB"/>
<rect x="173.977" y="31.5527" width="4.19853" height="4.19853" rx="0.524817" fill="#4EDDBB"/>
<rect x="179.227" y="31.5527" width="4.19853" height="4.19853" rx="0.524817" fill="#4EDDBB"/>
<rect x="184.475" y="31.5527" width="4.19853" height="4.19853" rx="0.524817" fill="#4EDDBB"/>
<rect x="189.723" y="31.5527" width="4.19853" height="4.19853" rx="0.524817" fill="#4EDDBB"/>
<rect x="194.971" y="31.5527" width="4.19853" height="4.19853" rx="0.524817" fill="#4EDDBB"/>
<rect x="200.219" y="31.5527" width="4.19853" height="4.19853" rx="0.524817" fill="#4EDDBB"/>
<rect x="205.467" y="31.5527" width="4.19853" height="4.19853" rx="0.524817" fill="#4EDDBB"/>
<rect x="210.715" y="31.5527" width="4.19853" height="4.19853" rx="0.524817" fill="#4EDDBB"/>
<rect x="215.963" y="31.5527" width="4.19853" height="4.19853" rx="0.524817" fill="#4EDDBB"/>
<rect x="221.213" y="31.5527" width="4.19853" height="4.19853" rx="0.524817" fill="#4EDDBB"/>
<rect x="226.459" y="31.5527" width="4.19853" height="4.19853" rx="0.524817" fill="#4EDDBB"/>
<rect x="231.707" y="31.5527" width="4.19853" height="4.19853" rx="0.524817" fill="#4EDDBB"/>
<rect x="236.955" y="31.5527" width="4.19853" height="4.19853" rx="0.524817" fill="#4EDDBB"/>
<rect x="242.203" y="31.5527" width="4.19853" height="4.19853" rx="0.524817" fill="#4EDDBB"/>
<rect x="247.453" y="31.5527" width="4.19853" height="4.19853" rx="0.524817" fill="#4EDDBB"/>
<rect x="252.701" y="31.5527" width="4.19853" height="4.19853" rx="0.524817" fill="#4EDDBB"/>
<rect x="257.949" y="31.5527" width="4.19853" height="4.19853" rx="0.524817" fill="#4EDDBB"/>
<rect x="263.197" y="31.5527" width="4.19853" height="4.19853" rx="0.524817" fill="#4EDDBB"/>
<rect x="268.445" y="31.5527" width="4.19853" height="4.19853" rx="0.524817" fill="#4EDDBB"/>
<rect x="273.693" y="31.5527" width="4.19853" height="4.19853" rx="0.524817" fill="#4EDDBB"/>
<rect x="278.943" y="31.5527" width="4.19853" height="4.19853" rx="0.524817" fill="#4EDDBB"/>
<rect x="284.189" y="31.5527" width="4.19853" height="4.19853" rx="0.524817" fill="#4EDDBB"/>
<rect x="289.438" y="31.5527" width="4.19853" height="4.19853" rx="0.524817" fill="#4EDDBB"/>
<rect x="294.686" y="31.5527" width="4.19853" height="4.19853" rx="0.524817" fill="#4EDDBB"/>
<rect x="299.934" y="31.5527" width="4.19853" height="4.19853" rx="0.524817" fill="#4EDDBB"/>
<rect x="305.182" y="31.5527" width="4.19853" height="4.19853" rx="0.524817" fill="#4EDDBB"/>
<rect x="310.432" y="31.5527" width="4.19853" height="4.19853" rx="0.524817" fill="#4EDDBB"/>
<rect x="158.234" y="36.8027" width="4.19853" height="4.19853" rx="0.524817" fill="#4EDDBB"/>
<rect x="163.482" y="36.8027" width="4.19853" height="4.19853" rx="0.524817" fill="#4EDDBB"/>
<rect x="168.73" y="36.8027" width="4.19853" height="4.19853" rx="0.524817" fill="#4EDDBB"/>
<rect x="173.977" y="36.8027" width="4.19853" height="4.19853" rx="0.524817" fill="#4EDDBB"/>
<rect x="179.227" y="36.8027" width="4.19853" height="4.19853" rx="0.524817" fill="#4EDDBB"/>
<rect x="184.475" y="36.8027" width="4.19853" height="4.19853" rx="0.524817" fill="#4EDDBB"/>
<rect x="189.723" y="36.8027" width="4.19853" height="4.19853" rx="0.524817" fill="#4EDDBB"/>
<rect x="194.971" y="36.8027" width="4.19853" height="4.19853" rx="0.524817" fill="#4EDDBB"/>
<rect x="200.219" y="36.8027" width="4.19853" height="4.19853" rx="0.524817" fill="#4EDDBB"/>
<rect x="205.467" y="36.8027" width="4.19853" height="4.19853" rx="0.524817" fill="#4EDDBB"/>
<rect x="210.715" y="36.8027" width="4.19853" height="4.19853" rx="0.524817" fill="#4EDDBB"/>
<rect x="215.963" y="36.8027" width="4.19853" height="4.19853" rx="0.524817" fill="#4EDDBB"/>
<rect x="221.213" y="36.8027" width="4.19853" height="4.19853" rx="0.524817" fill="#4EDDBB"/>
<rect x="226.459" y="36.8027" width="4.19853" height="4.19853" rx="0.524817" fill="#4EDDBB"/>
<rect x="231.707" y="36.8027" width="4.19853" height="4.19853" rx="0.524817" fill="#4EDDBB"/>
<rect x="236.955" y="36.8027" width="4.19853" height="4.19853" rx="0.524817" fill="#4EDDBB"/>
<rect x="242.203" y="36.8027" width="4.19853" height="4.19853" rx="0.524817" fill="#4EDDBB"/>
<rect x="247.453" y="36.8027" width="4.19853" height="4.19853" rx="0.524817" fill="#4EDDBB"/>
<rect x="252.701" y="36.8027" width="4.19853" height="4.19853" rx="0.524817" fill="#4EDDBB"/>
<rect x="257.949" y="36.8027" width="4.19853" height="4.19853" rx="0.524817" fill="#4EDDBB"/>
<rect x="263.197" y="36.8027" width="4.19853" height="4.19853" rx="0.524817" fill="#4EDDBB"/>
<rect x="268.445" y="36.8027" width="4.19853" height="4.19853" rx="0.524817" fill="#4EDDBB"/>
<rect x="273.693" y="36.8027" width="4.19853" height="4.19853" rx="0.524817" fill="#4EDDBB"/>
<rect x="278.943" y="36.8027" width="4.19853" height="4.19853" rx="0.524817" fill="#4EDDBB"/>
<rect x="284.189" y="36.8027" width="4.19853" height="4.19853" rx="0.524817" fill="#4EDDBB"/>
<rect x="158.234" y="42.0488" width="4.19853" height="4.19853" rx="0.524817" fill="#4EDDBB"/>
<rect x="163.482" y="42.0488" width="4.19853" height="4.19853" rx="0.524817" fill="#4EDDBB"/>
<rect x="168.73" y="42.0488" width="4.19853" height="4.19853" rx="0.524817" fill="#4EDDBB"/>
<rect x="173.977" y="42.0488" width="4.19853" height="4.19853" rx="0.524817" fill="#4EDDBB"/>
<rect x="179.227" y="42.0488" width="4.19853" height="4.19853" rx="0.524817" fill="#4EDDBB"/>
<rect x="184.475" y="42.0488" width="4.19853" height="4.19853" rx="0.524817" fill="#4EDDBB"/>
<rect x="189.723" y="42.0488" width="4.19853" height="4.19853" rx="0.524817" fill="#4EDDBB"/>
<rect x="194.971" y="42.0488" width="4.19853" height="4.19853" rx="0.524817" fill="#4EDDBB"/>
<rect x="200.219" y="42.0488" width="4.19853" height="4.19853" rx="0.524817" fill="#4EDDBB"/>
<rect x="205.467" y="42.0488" width="4.19853" height="4.19853" rx="0.524817" fill="#4EDDBB"/>
<rect x="210.715" y="42.0488" width="4.19853" height="4.19853" rx="0.524817" fill="#4EDDBB"/>
<rect x="215.963" y="42.0488" width="4.19853" height="4.19853" rx="0.524817" fill="#4EDDBB"/>
<rect x="221.213" y="42.0488" width="4.19853" height="4.19853" rx="0.524817" fill="#4EDDBB"/>
<rect x="226.459" y="42.0488" width="4.19853" height="4.19853" rx="0.524817" fill="#4EDDBB"/>
<rect x="231.707" y="42.0488" width="4.19853" height="4.19853" rx="0.524817" fill="#4EDDBB"/>
<rect x="236.955" y="42.0488" width="4.19853" height="4.19853" rx="0.524817" fill="#4EDDBB"/>
<rect x="242.203" y="42.0488" width="4.19853" height="4.19853" rx="0.524817" fill="#4EDDBB"/>
<rect x="247.453" y="42.0488" width="4.19853" height="4.19853" rx="0.524817" fill="#4EDDBB"/>
<rect x="252.701" y="42.0488" width="4.19853" height="4.19853" rx="0.524817" fill="#4EDDBB"/>
<rect x="257.949" y="42.0488" width="4.19853" height="4.19853" rx="0.524817" fill="#4EDDBB"/>
<rect x="263.197" y="42.0488" width="4.19853" height="4.19853" rx="0.524817" fill="#4EDDBB"/>
<rect x="268.445" y="42.0488" width="4.19853" height="4.19853" rx="0.524817" fill="#4EDDBB"/>
<rect x="273.693" y="42.0488" width="4.19853" height="4.19853" rx="0.524817" fill="#4EDDBB"/>
<rect x="278.943" y="42.0488" width="4.19853" height="4.19853" rx="0.524817" fill="#4EDDBB"/>
<rect x="284.189" y="42.0488" width="4.19853" height="4.19853" rx="0.524817" fill="#4EDDBB"/>
<rect x="289.438" y="42.0488" width="4.19853" height="4.19853" rx="0.524817" fill="#4EDDBB"/>
<rect x="158.234" y="47.2949" width="4.19853" height="4.19853" rx="0.524817" fill="#4EDDBB"/>
<rect x="163.482" y="47.2949" width="4.19853" height="4.19853" rx="0.524817" fill="#4EDDBB"/>
<rect x="168.73" y="47.2949" width="4.19853" height="4.19853" rx="0.524817" fill="#4EDDBB"/>
<rect x="173.977" y="47.2949" width="4.19853" height="4.19853" rx="0.524817" fill="#4EDDBB"/>
<rect x="179.227" y="47.2949" width="4.19853" height="4.19853" rx="0.524817" fill="#4EDDBB"/>
<rect x="184.475" y="47.2949" width="4.19853" height="4.19853" rx="0.524817" fill="#4EDDBB"/>
<rect x="189.723" y="47.2949" width="4.19853" height="4.19853" rx="0.524817" fill="#4EDDBB"/>
<rect x="194.971" y="47.2949" width="4.19853" height="4.19853" rx="0.524817" fill="#4EDDBB"/>
<rect x="200.219" y="47.2949" width="4.19853" height="4.19853" rx="0.524817" fill="#4EDDBB"/>
<rect x="205.467" y="47.2949" width="4.19853" height="4.19853" rx="0.524817" fill="#4EDDBB"/>
<rect x="210.715" y="47.2949" width="4.19853" height="4.19853" rx="0.524817" fill="#4EDDBB"/>
<rect x="215.963" y="47.2949" width="4.19853" height="4.19853" rx="0.524817" fill="#4EDDBB"/>
<rect x="221.213" y="47.2949" width="4.19853" height="4.19853" rx="0.524817" fill="#4EDDBB"/>
<rect x="226.459" y="47.2949" width="4.19853" height="4.19853" rx="0.524817" fill="#4EDDBB"/>
<rect x="231.707" y="47.2949" width="4.19853" height="4.19853" rx="0.524817" fill="#4EDDBB"/>
<rect x="236.955" y="47.2949" width="4.19853" height="4.19853" rx="0.524817" fill="#4EDDBB"/>
<rect x="242.203" y="47.2949" width="4.19853" height="4.19853" rx="0.524817" fill="#4EDDBB"/>
<rect x="247.453" y="47.2949" width="4.19853" height="4.19853" rx="0.524817" fill="#4EDDBB"/>
<rect x="252.701" y="47.2949" width="4.19853" height="4.19853" rx="0.524817" fill="#4EDDBB"/>
<rect x="257.949" y="47.2949" width="4.19853" height="4.19853" rx="0.524817" fill="#4EDDBB"/>
<rect x="263.197" y="47.2949" width="4.19853" height="4.19853" rx="0.524817" fill="#4EDDBB"/>
<rect x="268.445" y="47.2949" width="4.19853" height="4.19853" rx="0.524817" fill="#4EDDBB"/>
<rect x="273.693" y="47.2949" width="4.19853" height="4.19853" rx="0.524817" fill="#4EDDBB"/>
<rect x="158.234" y="52.5449" width="4.19853" height="4.19853" rx="0.524817" fill="#4EDDBB"/>
<rect x="163.482" y="52.5449" width="4.19853" height="4.19853" rx="0.524817" fill="#4EDDBB"/>
<rect x="168.73" y="52.5449" width="4.19853" height="4.19853" rx="0.524817" fill="#4EDDBB"/>
<rect x="173.977" y="52.5449" width="4.19853" height="4.19853" rx="0.524817" fill="#4EDDBB"/>
<rect x="179.227" y="52.5449" width="4.19853" height="4.19853" rx="0.524817" fill="#4EDDBB"/>
<rect x="184.475" y="52.5449" width="4.19853" height="4.19853" rx="0.524817" fill="#4EDDBB"/>
<rect x="189.723" y="52.5449" width="4.19853" height="4.19853" rx="0.524817" fill="#4EDDBB"/>
<rect x="194.971" y="52.5449" width="4.19853" height="4.19853" rx="0.524817" fill="#4EDDBB"/>
<rect x="200.219" y="52.5449" width="4.19853" height="4.19853" rx="0.524817" fill="#4EDDBB"/>
<rect x="205.467" y="52.5449" width="4.19853" height="4.19853" rx="0.524817" fill="#4EDDBB"/>
<rect x="210.715" y="52.5449" width="4.19853" height="4.19853" rx="0.524817" fill="#4EDDBB"/>
<rect x="215.963" y="52.5449" width="4.19853" height="4.19853" rx="0.524817" fill="#4EDDBB"/>
<rect x="221.213" y="52.5449" width="4.19853" height="4.19853" rx="0.524817" fill="#4EDDBB"/>
<rect x="226.459" y="52.5449" width="4.19853" height="4.19853" rx="0.524817" fill="#4EDDBB"/>
<rect x="231.707" y="52.5449" width="4.19853" height="4.19853" rx="0.524817" fill="#4EDDBB"/>
<rect x="236.955" y="52.5449" width="4.19853" height="4.19853" rx="0.524817" fill="#4EDDBB"/>
<rect x="242.203" y="52.5449" width="4.19853" height="4.19853" rx="0.524817" fill="#4EDDBB"/>
<rect x="247.453" y="52.5449" width="4.19853" height="4.19853" rx="0.524817" fill="#4EDDBB"/>
<rect x="252.701" y="52.5449" width="4.19853" height="4.19853" rx="0.524817" fill="#4EDDBB"/>
<rect x="257.949" y="52.5449" width="4.19853" height="4.19853" rx="0.524817" fill="#4EDDBB"/>
<rect x="263.197" y="52.5449" width="4.19853" height="4.19853" rx="0.524817" fill="#4EDDBB"/>
<rect x="268.445" y="52.5449" width="4.19853" height="4.19853" rx="0.524817" fill="#4EDDBB"/>
<rect x="273.693" y="52.5449" width="4.19853" height="4.19853" rx="0.524817" fill="#4EDDBB"/>
<rect x="278.943" y="52.5449" width="4.19853" height="4.19853" rx="0.524817" fill="#4EDDBB"/>
<rect x="284.189" y="52.5449" width="4.19853" height="4.19853" rx="0.524817" fill="#4EDDBB"/>
<rect x="289.438" y="52.5449" width="4.19853" height="4.19853" rx="0.524817" fill="#4EDDBB"/>
<rect x="294.686" y="52.5449" width="4.19853" height="4.19853" rx="0.524817" fill="#4EDDBB"/>
<rect x="299.934" y="52.5449" width="4.19853" height="4.19853" rx="0.524817" fill="#4EDDBB"/>
<rect x="305.182" y="52.5449" width="4.19853" height="4.19853" rx="0.524817" fill="#4EDDBB"/>
<rect x="310.432" y="52.5449" width="4.19853" height="4.19853" rx="0.524817" fill="#4EDDBB"/>
</g>
<rect x="158.098" y="53.3281" width="4.19853" height="4.26633" rx="0.524817" fill="#4EDDBB"/>
<rect x="163.346" y="53.3281" width="4.19853" height="4.26633" rx="0.524817" fill="#4EDDBB"/>
<rect x="168.594" y="53.3281" width="4.19853" height="4.26633" rx="0.524817" fill="#4EDDBB"/>
<rect x="173.84" y="53.3281" width="4.19853" height="4.26633" rx="0.524817" fill="#4EDDBB"/>
<rect x="179.09" y="53.3281" width="4.19853" height="4.26633" rx="0.524817" fill="#4EDDBB"/>
<rect x="184.338" y="53.3281" width="4.19853" height="4.26633" rx="0.524817" fill="#4EDDBB"/>
<rect x="189.586" y="53.3281" width="4.19853" height="4.26633" rx="0.524817" fill="#4EDDBB"/>
<rect x="194.834" y="53.3281" width="4.19853" height="4.26633" rx="0.524817" fill="#4EDDBB"/>
<rect x="200.082" y="53.3281" width="4.19853" height="4.26633" rx="0.524817" fill="#4EDDBB"/>
<rect x="205.33" y="53.3281" width="4.19853" height="4.26633" rx="0.524817" fill="#4EDDBB"/>
<rect x="210.578" y="53.3281" width="4.19853" height="4.26633" rx="0.524817" fill="#4EDDBB"/>
<rect x="215.828" y="53.3281" width="4.19853" height="4.26633" rx="0.524817" fill="#4EDDBB"/>
<rect x="221.076" y="53.3281" width="4.19853" height="4.26633" rx="0.524817" fill="#4EDDBB"/>
<rect x="226.322" y="53.3281" width="4.19853" height="4.26633" rx="0.524817" fill="#4EDDBB"/>
<rect x="158.098" y="58.6641" width="4.19853" height="4.26633" rx="0.524817" fill="#4EDDBB"/>
<rect x="163.346" y="58.6641" width="4.19853" height="4.26633" rx="0.524817" fill="#4EDDBB"/>
<rect x="168.594" y="58.6641" width="4.19853" height="4.26633" rx="0.524817" fill="#4EDDBB"/>
<rect x="173.84" y="58.6641" width="4.19853" height="4.26633" rx="0.524817" fill="#4EDDBB"/>
<rect x="179.09" y="58.6641" width="4.19853" height="4.26633" rx="0.524817" fill="#4EDDBB"/>
<rect x="184.338" y="58.6641" width="4.19853" height="4.26633" rx="0.524817" fill="#4EDDBB"/>
<rect x="189.586" y="58.6641" width="4.19853" height="4.26633" rx="0.524817" fill="#4EDDBB"/>
<rect x="194.834" y="58.6641" width="4.19853" height="4.26633" rx="0.524817" fill="#4EDDBB"/>
<rect x="200.082" y="58.6641" width="4.19853" height="4.26633" rx="0.524817" fill="#4EDDBB"/>
<rect x="205.33" y="58.6641" width="4.19853" height="4.26633" rx="0.524817" fill="#4EDDBB"/>
<rect x="158.098" width="4.19853" height="4.26633" rx="0.524817" fill="#4EDDBB"/>
<rect x="163.346" width="4.19853" height="4.26633" rx="0.524817" fill="#4EDDBB"/>
<rect x="168.594" width="4.19853" height="4.26633" rx="0.524817" fill="#4EDDBB"/>
<rect x="173.84" width="4.19853" height="4.26633" rx="0.524817" fill="#4EDDBB"/>
<rect x="179.09" width="4.19853" height="4.26633" rx="0.524817" fill="#4EDDBB"/>
<rect x="184.338" width="4.19853" height="4.26633" rx="0.524817" fill="#4EDDBB"/>
<rect x="189.586" width="4.19853" height="4.26633" rx="0.524817" fill="#4EDDBB"/>
<rect x="194.834" width="4.19853" height="4.26633" rx="0.524817" fill="#4EDDBB"/>
<rect x="200.082" width="4.19853" height="4.26633" rx="0.524817" fill="#4EDDBB"/>
</g>
<defs>
<clipPath id="clip0_286_20357">
<rect width="203.629" height="49.0628" fill="white" transform="matrix(-1 0 0 1 203.629 4.26367)"/>
</clipPath>
<clipPath id="clip1_286_20357">
<rect width="203.629" height="49.0628" fill="white" transform="translate(111 4.26367)"/>
</clipPath>
</defs>
</svg>
