<svg width="375" height="77" viewBox="0 0 375 77" fill="none" xmlns="http://www.w3.org/2000/svg">
<g opacity="0.05">
<rect x="365.926" width="15.4691" height="15.4691" rx="2" transform="rotate(90 365.926 0)" fill="white"/>
<rect x="334.988" width="15.4691" height="15.4691" rx="2" transform="rotate(90 334.988 0)" fill="white"/>
<rect x="304.049" width="15.4691" height="15.4691" rx="2" transform="rotate(90 304.049 0)" fill="white"/>
<rect x="273.111" width="15.4691" height="15.4691" rx="2" transform="rotate(90 273.111 0)" fill="white"/>
<rect x="242.174" width="15.4691" height="15.4691" rx="2" transform="rotate(90 242.174 0)" fill="white"/>
<rect x="211.234" width="15.4691" height="15.4691" rx="2" transform="rotate(90 211.234 0)" fill="white"/>
<rect x="180.297" width="15.4691" height="15.4691" rx="2" transform="rotate(90 180.297 0)" fill="white"/>
<rect x="149.357" width="15.4691" height="15.4691" rx="2" transform="rotate(90 149.357 0)" fill="white"/>
<rect x="118.42" width="15.4691" height="15.4691" rx="2" transform="rotate(90 118.42 0)" fill="white"/>
<rect x="87.4824" width="15.4691" height="15.4691" rx="2" transform="rotate(90 87.4824 0)" fill="white"/>
<rect x="56.543" width="15.4691" height="15.4691" rx="2" transform="rotate(90 56.543 0)" fill="white"/>
<rect x="25.6055" width="15.4691" height="15.4691" rx="2" transform="rotate(90 25.6055 0)" fill="white"/>
<rect x="365.926" y="30.9375" width="15.4691" height="15.4691" rx="2" transform="rotate(90 365.926 30.9375)" fill="white"/>
<rect x="334.988" y="30.9375" width="15.4691" height="15.4691" rx="2" transform="rotate(90 334.988 30.9375)" fill="white"/>
<rect x="304.049" y="30.9375" width="15.4691" height="15.4691" rx="2" transform="rotate(90 304.049 30.9375)" fill="white"/>
<rect x="273.111" y="30.9375" width="15.4691" height="15.4691" rx="2" transform="rotate(90 273.111 30.9375)" fill="white"/>
<rect x="242.174" y="30.9375" width="15.4691" height="15.4691" rx="2" transform="rotate(90 242.174 30.9375)" fill="white"/>
<rect x="211.234" y="30.9375" width="15.4691" height="15.4691" rx="2" transform="rotate(90 211.234 30.9375)" fill="white"/>
<rect x="180.297" y="30.9375" width="15.4691" height="15.4691" rx="2" transform="rotate(90 180.297 30.9375)" fill="white"/>
<rect x="149.357" y="30.9375" width="15.4691" height="15.4691" rx="2" transform="rotate(90 149.357 30.9375)" fill="white"/>
<rect x="118.42" y="30.9375" width="15.4691" height="15.4691" rx="2" transform="rotate(90 118.42 30.9375)" fill="white"/>
<rect x="87.4824" y="30.9375" width="15.4691" height="15.4691" rx="2" transform="rotate(90 87.4824 30.9375)" fill="white"/>
<rect x="56.543" y="30.9375" width="15.4691" height="15.4691" rx="2" transform="rotate(90 56.543 30.9375)" fill="white"/>
<rect x="25.6055" y="30.9375" width="15.4691" height="15.4691" rx="2" transform="rotate(90 25.6055 30.9375)" fill="white"/>
<rect x="365.926" y="61.8789" width="15.4691" height="15.4691" rx="2" transform="rotate(90 365.926 61.8789)" fill="white"/>
<rect x="334.988" y="61.875" width="15.4691" height="15.4691" rx="2" transform="rotate(90 334.988 61.875)" fill="white"/>
<rect x="304.049" y="61.875" width="15.4691" height="15.4691" rx="2" transform="rotate(90 304.049 61.875)" fill="white"/>
<rect x="273.111" y="61.875" width="15.4691" height="15.4691" rx="2" transform="rotate(90 273.111 61.875)" fill="white"/>
<rect x="242.174" y="61.875" width="15.4691" height="15.4691" rx="2" transform="rotate(90 242.174 61.875)" fill="white"/>
<rect x="211.234" y="61.875" width="15.4691" height="15.4691" rx="2" transform="rotate(90 211.234 61.875)" fill="white"/>
<rect x="180.297" y="61.8789" width="15.4691" height="15.4691" rx="2" transform="rotate(90 180.297 61.8789)" fill="white"/>
<rect x="149.357" y="61.8789" width="15.4691" height="15.4691" rx="2" transform="rotate(90 149.357 61.8789)" fill="white"/>
<rect x="118.42" y="61.8789" width="15.4691" height="15.4691" rx="2" transform="rotate(90 118.42 61.8789)" fill="white"/>
<rect x="87.4824" y="61.8789" width="15.4691" height="15.4691" rx="2" transform="rotate(90 87.4824 61.8789)" fill="white"/>
<rect x="56.543" y="61.8789" width="15.4691" height="15.4691" rx="2" transform="rotate(90 56.543 61.8789)" fill="white"/>
<rect x="25.6055" y="61.875" width="15.4691" height="15.4691" rx="2" transform="rotate(90 25.6055 61.875)" fill="white"/>
</g>
</svg>
