<svg width="583" height="277" viewBox="0 0 583 277" fill="none" xmlns="http://www.w3.org/2000/svg">
<g clip-path="url(#clip0_1_2)">
<mask id="mask0_1_2" style="mask-type:luminance" maskUnits="userSpaceOnUse" x="-173" y="0" width="756" height="199">
<path d="M583 0H-173V199H583V0Z" fill="white"/>
</mask>
<g mask="url(#mask0_1_2)">
<path d="M16.0679 -15.5078H4.37298C3.29649 -15.5078 2.42383 -14.6351 2.42383 -13.5586V-1.86375C2.42383 -0.787261 3.29649 0.0854025 4.37298 0.0854025H16.0679C17.1444 0.0854025 18.017 -0.787261 18.017 -1.86375V-13.5586C18.017 -14.6351 17.1444 -15.5078 16.0679 -15.5078Z" fill="#4EDDBB"/>
<path d="M35.56 -15.5078H23.8651C22.7886 -15.5078 21.916 -14.6351 21.916 -13.5586V-1.86375C21.916 -0.787261 22.7886 0.0854025 23.8651 0.0854025H35.56C36.6365 0.0854025 37.5092 -0.787261 37.5092 -1.86375V-13.5586C37.5092 -14.6351 36.6365 -15.5078 35.56 -15.5078Z" fill="#4EDDBB"/>
<path d="M55.0505 -15.5078H43.3556C42.2792 -15.5078 41.4065 -14.6351 41.4065 -13.5586V-1.86375C41.4065 -0.787261 42.2792 0.0854025 43.3556 0.0854025H55.0505C56.127 0.0854025 56.9997 -0.787261 56.9997 -1.86375V-13.5586C56.9997 -14.6351 56.127 -15.5078 55.0505 -15.5078Z" fill="#4EDDBB"/>
<path d="M74.5427 -15.5078H62.8478C61.7713 -15.5078 60.8987 -14.6351 60.8987 -13.5586V-1.86375C60.8987 -0.787261 61.7713 0.0854025 62.8478 0.0854025H74.5427C75.6192 0.0854025 76.4919 -0.787261 76.4919 -1.86375V-13.5586C76.4919 -14.6351 75.6192 -15.5078 74.5427 -15.5078Z" fill="#4EDDBB"/>
<path d="M94.0346 -15.5078H82.3397C81.2633 -15.5078 80.3906 -14.6351 80.3906 -13.5586V-1.86375C80.3906 -0.787261 81.2633 0.0854025 82.3397 0.0854025H94.0346C95.1111 0.0854025 95.9838 -0.787261 95.9838 -1.86375V-13.5586C95.9838 -14.6351 95.1111 -15.5078 94.0346 -15.5078Z" fill="#4EDDBB"/>
<path d="M113.525 -15.5078H101.83C100.754 -15.5078 99.8809 -14.6351 99.8809 -13.5586V-1.86375C99.8809 -0.787261 100.754 0.0854025 101.83 0.0854025H113.525C114.601 0.0854025 115.474 -0.787261 115.474 -1.86375V-13.5586C115.474 -14.6351 114.601 -15.5078 113.525 -15.5078Z" fill="#4EDDBB"/>
<path d="M133.017 -15.5078H121.322C120.246 -15.5078 119.373 -14.6351 119.373 -13.5586V-1.86375C119.373 -0.787261 120.246 0.0854025 121.322 0.0854025H133.017C134.094 0.0854025 134.966 -0.787261 134.966 -1.86375V-13.5586C134.966 -14.6351 134.094 -15.5078 133.017 -15.5078Z" fill="#4EDDBB"/>
<path d="M152.507 -15.5078H140.812C139.736 -15.5078 138.863 -14.6351 138.863 -13.5586V-1.86375C138.863 -0.787261 139.736 0.0854025 140.812 0.0854025H152.507C153.584 0.0854025 154.456 -0.787261 154.456 -1.86375V-13.5586C154.456 -14.6351 153.584 -15.5078 152.507 -15.5078Z" fill="#4EDDBB"/>
<path d="M171.999 -15.5078H160.304C159.228 -15.5078 158.355 -14.6351 158.355 -13.5586V-1.86375C158.355 -0.787261 159.228 0.0854025 160.304 0.0854025H171.999C173.076 0.0854025 173.948 -0.787261 173.948 -1.86375V-13.5586C173.948 -14.6351 173.076 -15.5078 171.999 -15.5078Z" fill="#4EDDBB"/>
<path d="M191.492 -15.5078H179.797C178.721 -15.5078 177.848 -14.6351 177.848 -13.5586V-1.86375C177.848 -0.787261 178.721 0.0854025 179.797 0.0854025H191.492C192.569 0.0854025 193.441 -0.787261 193.441 -1.86375V-13.5586C193.441 -14.6351 192.569 -15.5078 191.492 -15.5078Z" fill="#4EDDBB"/>
<path d="M210.982 -15.5078H199.287C198.211 -15.5078 197.338 -14.6351 197.338 -13.5586V-1.86375C197.338 -0.787261 198.211 0.0854025 199.287 0.0854025H210.982C212.059 0.0854025 212.931 -0.787261 212.931 -1.86375V-13.5586C212.931 -14.6351 212.059 -15.5078 210.982 -15.5078Z" fill="#4EDDBB"/>
<path d="M230.474 -15.5078H218.779C217.703 -15.5078 216.83 -14.6351 216.83 -13.5586V-1.86375C216.83 -0.787261 217.703 0.0854025 218.779 0.0854025H230.474C231.551 0.0854025 232.423 -0.787261 232.423 -1.86375V-13.5586C232.423 -14.6351 231.551 -15.5078 230.474 -15.5078Z" fill="#4EDDBB"/>
<path d="M249.966 -15.5078H238.271C237.195 -15.5078 236.322 -14.6351 236.322 -13.5586V-1.86375C236.322 -0.787261 237.195 0.0854025 238.271 0.0854025H249.966C251.043 0.0854025 251.915 -0.787261 251.915 -1.86375V-13.5586C251.915 -14.6351 251.043 -15.5078 249.966 -15.5078Z" fill="#4EDDBB"/>
<path d="M269.458 -15.5078H257.763C256.687 -15.5078 255.814 -14.6351 255.814 -13.5586V-1.86375C255.814 -0.787261 256.687 0.0854025 257.763 0.0854025H269.458C270.535 0.0854025 271.407 -0.787261 271.407 -1.86375V-13.5586C271.407 -14.6351 270.535 -15.5078 269.458 -15.5078Z" fill="#4EDDBB"/>
<path d="M16.0679 3.98438H4.37298C3.29649 3.98438 2.42383 4.85704 2.42383 5.93352V17.6284C2.42383 18.7049 3.29649 19.5776 4.37298 19.5776H16.0679C17.1444 19.5776 18.017 18.7049 18.017 17.6284V5.93352C18.017 4.85704 17.1444 3.98438 16.0679 3.98438Z" fill="#4EDDBB"/>
<path d="M35.56 3.98438H23.8651C22.7886 3.98438 21.916 4.85704 21.916 5.93352V17.6284C21.916 18.7049 22.7886 19.5776 23.8651 19.5776H35.56C36.6365 19.5776 37.5092 18.7049 37.5092 17.6284V5.93352C37.5092 4.85704 36.6365 3.98438 35.56 3.98438Z" fill="#4EDDBB"/>
<path d="M55.0505 3.98438H43.3556C42.2792 3.98438 41.4065 4.85704 41.4065 5.93352V17.6284C41.4065 18.7049 42.2792 19.5776 43.3556 19.5776H55.0505C56.127 19.5776 56.9997 18.7049 56.9997 17.6284V5.93352C56.9997 4.85704 56.127 3.98438 55.0505 3.98438Z" fill="#4EDDBB"/>
<path d="M74.5427 3.98438H62.8478C61.7713 3.98438 60.8987 4.85704 60.8987 5.93352V17.6284C60.8987 18.7049 61.7713 19.5776 62.8478 19.5776H74.5427C75.6192 19.5776 76.4919 18.7049 76.4919 17.6284V5.93352C76.4919 4.85704 75.6192 3.98438 74.5427 3.98438Z" fill="#4EDDBB"/>
<path d="M94.0346 3.98438H82.3397C81.2633 3.98438 80.3906 4.85704 80.3906 5.93352V17.6284C80.3906 18.7049 81.2633 19.5776 82.3397 19.5776H94.0346C95.1111 19.5776 95.9838 18.7049 95.9838 17.6284V5.93352C95.9838 4.85704 95.1111 3.98438 94.0346 3.98438Z" fill="#4EDDBB"/>
<path d="M113.525 3.98438H101.83C100.754 3.98438 99.8809 4.85704 99.8809 5.93352V17.6284C99.8809 18.7049 100.754 19.5776 101.83 19.5776H113.525C114.601 19.5776 115.474 18.7049 115.474 17.6284V5.93352C115.474 4.85704 114.601 3.98438 113.525 3.98438Z" fill="#4EDDBB"/>
<path d="M133.017 3.98438H121.322C120.246 3.98438 119.373 4.85704 119.373 5.93352V17.6284C119.373 18.7049 120.246 19.5776 121.322 19.5776H133.017C134.094 19.5776 134.966 18.7049 134.966 17.6284V5.93352C134.966 4.85704 134.094 3.98438 133.017 3.98438Z" fill="#4EDDBB"/>
<path d="M152.507 3.98438H140.812C139.736 3.98438 138.863 4.85704 138.863 5.93352V17.6284C138.863 18.7049 139.736 19.5776 140.812 19.5776H152.507C153.584 19.5776 154.456 18.7049 154.456 17.6284V5.93352C154.456 4.85704 153.584 3.98438 152.507 3.98438Z" fill="#4EDDBB"/>
<path d="M171.999 3.98438H160.304C159.228 3.98438 158.355 4.85704 158.355 5.93352V17.6284C158.355 18.7049 159.228 19.5776 160.304 19.5776H171.999C173.076 19.5776 173.948 18.7049 173.948 17.6284V5.93352C173.948 4.85704 173.076 3.98438 171.999 3.98438Z" fill="#4EDDBB"/>
<path d="M191.492 3.98438H179.797C178.721 3.98438 177.848 4.85704 177.848 5.93352V17.6284C177.848 18.7049 178.721 19.5776 179.797 19.5776H191.492C192.569 19.5776 193.441 18.7049 193.441 17.6284V5.93352C193.441 4.85704 192.569 3.98438 191.492 3.98438Z" fill="#4EDDBB"/>
<path d="M210.982 3.98438H199.287C198.211 3.98438 197.338 4.85704 197.338 5.93352V17.6284C197.338 18.7049 198.211 19.5776 199.287 19.5776H210.982C212.059 19.5776 212.931 18.7049 212.931 17.6284V5.93352C212.931 4.85704 212.059 3.98438 210.982 3.98438Z" fill="#4EDDBB"/>
<path d="M230.474 3.98438H218.779C217.703 3.98438 216.83 4.85704 216.83 5.93352V17.6284C216.83 18.7049 217.703 19.5776 218.779 19.5776H230.474C231.551 19.5776 232.423 18.7049 232.423 17.6284V5.93352C232.423 4.85704 231.551 3.98438 230.474 3.98438Z" fill="#4EDDBB"/>
<path d="M249.966 3.98438H238.271C237.195 3.98438 236.322 4.85704 236.322 5.93352V17.6284C236.322 18.7049 237.195 19.5776 238.271 19.5776H249.966C251.043 19.5776 251.915 18.7049 251.915 17.6284V5.93352C251.915 4.85704 251.043 3.98438 249.966 3.98438Z" fill="#4EDDBB"/>
<path d="M269.458 3.98438H257.763C256.687 3.98438 255.814 4.85704 255.814 5.93352V17.6284C255.814 18.7049 256.687 19.5776 257.763 19.5776H269.458C270.535 19.5776 271.407 18.7049 271.407 17.6284V5.93352C271.407 4.85704 270.535 3.98438 269.458 3.98438Z" fill="#4EDDBB"/>
<path d="M288.949 3.98438H277.254C276.178 3.98438 275.305 4.85704 275.305 5.93352V17.6284C275.305 18.7049 276.178 19.5776 277.254 19.5776H288.949C290.026 19.5776 290.898 18.7049 290.898 17.6284V5.93352C290.898 4.85704 290.026 3.98438 288.949 3.98438Z" fill="#4EDDBB"/>
<path d="M308.439 3.98438H296.744C295.668 3.98438 294.795 4.85704 294.795 5.93352V17.6284C294.795 18.7049 295.668 19.5776 296.744 19.5776H308.439C309.516 19.5776 310.388 18.7049 310.388 17.6284V5.93352C310.388 4.85704 309.516 3.98438 308.439 3.98438Z" fill="#4EDDBB"/>
<path d="M16.0679 23.4766H4.37298C3.29649 23.4766 2.42383 24.3493 2.42383 25.4258V37.1207C2.42383 38.1971 3.29649 39.0698 4.37298 39.0698H16.0679C17.1444 39.0698 18.017 38.1971 18.017 37.1207V25.4258C18.017 24.3493 17.1444 23.4766 16.0679 23.4766Z" fill="#4EDDBB"/>
<path d="M35.56 23.4766H23.8651C22.7886 23.4766 21.916 24.3493 21.916 25.4258V37.1207C21.916 38.1971 22.7886 39.0698 23.8651 39.0698H35.56C36.6365 39.0698 37.5092 38.1971 37.5092 37.1207V25.4258C37.5092 24.3493 36.6365 23.4766 35.56 23.4766Z" fill="#4EDDBB"/>
<path d="M55.0505 23.4766H43.3556C42.2792 23.4766 41.4065 24.3493 41.4065 25.4258V37.1207C41.4065 38.1971 42.2792 39.0698 43.3556 39.0698H55.0505C56.127 39.0698 56.9997 38.1971 56.9997 37.1207V25.4258C56.9997 24.3493 56.127 23.4766 55.0505 23.4766Z" fill="#4EDDBB"/>
<path d="M74.5427 23.4766H62.8478C61.7713 23.4766 60.8987 24.3493 60.8987 25.4258V37.1207C60.8987 38.1971 61.7713 39.0698 62.8478 39.0698H74.5427C75.6192 39.0698 76.4919 38.1971 76.4919 37.1207V25.4258C76.4919 24.3493 75.6192 23.4766 74.5427 23.4766Z" fill="#4EDDBB"/>
<path d="M94.0346 23.4766H82.3397C81.2633 23.4766 80.3906 24.3493 80.3906 25.4258V37.1207C80.3906 38.1971 81.2633 39.0698 82.3397 39.0698H94.0346C95.1111 39.0698 95.9838 38.1971 95.9838 37.1207V25.4258C95.9838 24.3493 95.1111 23.4766 94.0346 23.4766Z" fill="#4EDDBB"/>
<path d="M113.525 23.4766H101.83C100.754 23.4766 99.8809 24.3493 99.8809 25.4258V37.1207C99.8809 38.1971 100.754 39.0698 101.83 39.0698H113.525C114.601 39.0698 115.474 38.1971 115.474 37.1207V25.4258C115.474 24.3493 114.601 23.4766 113.525 23.4766Z" fill="#4EDDBB"/>
<path d="M133.017 23.4766H121.322C120.246 23.4766 119.373 24.3493 119.373 25.4258V37.1207C119.373 38.1971 120.246 39.0698 121.322 39.0698H133.017C134.094 39.0698 134.966 38.1971 134.966 37.1207V25.4258C134.966 24.3493 134.094 23.4766 133.017 23.4766Z" fill="#4EDDBB"/>
<path d="M152.507 23.4766H140.812C139.736 23.4766 138.863 24.3493 138.863 25.4258V37.1207C138.863 38.1971 139.736 39.0698 140.812 39.0698H152.507C153.584 39.0698 154.456 38.1971 154.456 37.1207V25.4258C154.456 24.3493 153.584 23.4766 152.507 23.4766Z" fill="#4EDDBB"/>
<path d="M171.999 23.4766H160.304C159.228 23.4766 158.355 24.3493 158.355 25.4258V37.1207C158.355 38.1971 159.228 39.0698 160.304 39.0698H171.999C173.076 39.0698 173.948 38.1971 173.948 37.1207V25.4258C173.948 24.3493 173.076 23.4766 171.999 23.4766Z" fill="#4EDDBB"/>
<path d="M191.492 23.4766H179.797C178.721 23.4766 177.848 24.3493 177.848 25.4258V37.1207C177.848 38.1971 178.721 39.0698 179.797 39.0698H191.492C192.569 39.0698 193.441 38.1971 193.441 37.1207V25.4258C193.441 24.3493 192.569 23.4766 191.492 23.4766Z" fill="#4EDDBB"/>
<path d="M210.982 23.4766H199.287C198.211 23.4766 197.338 24.3493 197.338 25.4258V37.1207C197.338 38.1971 198.211 39.0698 199.287 39.0698H210.982C212.059 39.0698 212.931 38.1971 212.931 37.1207V25.4258C212.931 24.3493 212.059 23.4766 210.982 23.4766Z" fill="#4EDDBB"/>
<path d="M230.474 23.4766H218.779C217.703 23.4766 216.83 24.3493 216.83 25.4258V37.1207C216.83 38.1971 217.703 39.0698 218.779 39.0698H230.474C231.551 39.0698 232.423 38.1971 232.423 37.1207V25.4258C232.423 24.3493 231.551 23.4766 230.474 23.4766Z" fill="#4EDDBB"/>
<path d="M249.966 23.4766H238.271C237.195 23.4766 236.322 24.3493 236.322 25.4258V37.1207C236.322 38.1971 237.195 39.0698 238.271 39.0698H249.966C251.043 39.0698 251.915 38.1971 251.915 37.1207V25.4258C251.915 24.3493 251.043 23.4766 249.966 23.4766Z" fill="#4EDDBB"/>
<path d="M269.458 23.4766H257.763C256.687 23.4766 255.814 24.3493 255.814 25.4258V37.1207C255.814 38.1971 256.687 39.0698 257.763 39.0698H269.458C270.535 39.0698 271.407 38.1971 271.407 37.1207V25.4258C271.407 24.3493 270.535 23.4766 269.458 23.4766Z" fill="#4EDDBB"/>
<path d="M288.949 23.4766H277.254C276.178 23.4766 275.305 24.3493 275.305 25.4258V37.1207C275.305 38.1971 276.178 39.0698 277.254 39.0698H288.949C290.026 39.0698 290.898 38.1971 290.898 37.1207V25.4258C290.898 24.3493 290.026 23.4766 288.949 23.4766Z" fill="#4EDDBB"/>
<path d="M308.439 23.4766H296.744C295.668 23.4766 294.795 24.3493 294.795 25.4258V37.1207C294.795 38.1971 295.668 39.0698 296.744 39.0698H308.439C309.516 39.0698 310.388 38.1971 310.388 37.1207V25.4258C310.388 24.3493 309.516 23.4766 308.439 23.4766Z" fill="#4EDDBB"/>
<path d="M327.931 23.4766H316.236C315.16 23.4766 314.287 24.3493 314.287 25.4258V37.1207C314.287 38.1971 315.16 39.0698 316.236 39.0698H327.931C329.008 39.0698 329.88 38.1971 329.88 37.1207V25.4258C329.88 24.3493 329.008 23.4766 327.931 23.4766Z" fill="#4EDDBB"/>
<path d="M347.424 23.4766H335.729C334.653 23.4766 333.78 24.3493 333.78 25.4258V37.1207C333.78 38.1971 334.653 39.0698 335.729 39.0698H347.424C348.501 39.0698 349.373 38.1971 349.373 37.1207V25.4258C349.373 24.3493 348.501 23.4766 347.424 23.4766Z" fill="#4EDDBB"/>
<path d="M366.916 23.4766H355.221C354.145 23.4766 353.272 24.3493 353.272 25.4258V37.1207C353.272 38.1971 354.145 39.0698 355.221 39.0698H366.916C367.993 39.0698 368.865 38.1971 368.865 37.1207V25.4258C368.865 24.3493 367.993 23.4766 366.916 23.4766Z" fill="#4EDDBB"/>
<path d="M386.408 23.4766H374.713C373.637 23.4766 372.764 24.3493 372.764 25.4258V37.1207C372.764 38.1971 373.637 39.0698 374.713 39.0698H386.408C387.485 39.0698 388.357 38.1971 388.357 37.1207V25.4258C388.357 24.3493 387.485 23.4766 386.408 23.4766Z" fill="#4EDDBB"/>
<path d="M405.898 23.4766H394.203C393.127 23.4766 392.254 24.3493 392.254 25.4258V37.1207C392.254 38.1971 393.127 39.0698 394.203 39.0698H405.898C406.975 39.0698 407.847 38.1971 407.847 37.1207V25.4258C407.847 24.3493 406.975 23.4766 405.898 23.4766Z" fill="#4EDDBB"/>
<path d="M425.39 23.4766H413.695C412.619 23.4766 411.746 24.3493 411.746 25.4258V37.1207C411.746 38.1971 412.619 39.0698 413.695 39.0698H425.39C426.467 39.0698 427.339 38.1971 427.339 37.1207V25.4258C427.339 24.3493 426.467 23.4766 425.39 23.4766Z" fill="#4EDDBB"/>
<path d="M444.88 23.4766H433.185C432.109 23.4766 431.236 24.3493 431.236 25.4258V37.1207C431.236 38.1971 432.109 39.0698 433.185 39.0698H444.88C445.957 39.0698 446.829 38.1971 446.829 37.1207V25.4258C446.829 24.3493 445.957 23.4766 444.88 23.4766Z" fill="#4EDDBB"/>
<path d="M464.373 23.4766H452.678C451.602 23.4766 450.729 24.3493 450.729 25.4258V37.1207C450.729 38.1971 451.602 39.0698 452.678 39.0698H464.373C465.45 39.0698 466.322 38.1971 466.322 37.1207V25.4258C466.322 24.3493 465.45 23.4766 464.373 23.4766Z" fill="#4EDDBB"/>
<path d="M483.865 23.4766H472.17C471.094 23.4766 470.221 24.3493 470.221 25.4258V37.1207C470.221 38.1971 471.094 39.0698 472.17 39.0698H483.865C484.942 39.0698 485.814 38.1971 485.814 37.1207V25.4258C485.814 24.3493 484.942 23.4766 483.865 23.4766Z" fill="#4EDDBB"/>
<path d="M503.357 23.4766H491.662C490.586 23.4766 489.713 24.3493 489.713 25.4258V37.1207C489.713 38.1971 490.586 39.0698 491.662 39.0698H503.357C504.434 39.0698 505.306 38.1971 505.306 37.1207V25.4258C505.306 24.3493 504.434 23.4766 503.357 23.4766Z" fill="#4EDDBB"/>
<path d="M522.849 23.4766H511.154C510.078 23.4766 509.205 24.3493 509.205 25.4258V37.1207C509.205 38.1971 510.078 39.0698 511.154 39.0698H522.849C523.926 39.0698 524.798 38.1971 524.798 37.1207V25.4258C524.798 24.3493 523.926 23.4766 522.849 23.4766Z" fill="#4EDDBB"/>
<path d="M542.339 23.4766H530.644C529.568 23.4766 528.695 24.3493 528.695 25.4258V37.1207C528.695 38.1971 529.568 39.0698 530.644 39.0698H542.339C543.416 39.0698 544.288 38.1971 544.288 37.1207V25.4258C544.288 24.3493 543.416 23.4766 542.339 23.4766Z" fill="#4EDDBB"/>
<path d="M16.0679 42.9668H4.37298C3.29649 42.9668 2.42383 43.8395 2.42383 44.9159V56.6108C2.42383 57.6873 3.29649 58.56 4.37298 58.56H16.0679C17.1444 58.56 18.017 57.6873 18.017 56.6108V44.9159C18.017 43.8395 17.1444 42.9668 16.0679 42.9668Z" fill="#4EDDBB"/>
<path d="M35.56 42.9668H23.8651C22.7886 42.9668 21.916 43.8395 21.916 44.9159V56.6108C21.916 57.6873 22.7886 58.56 23.8651 58.56H35.56C36.6365 58.56 37.5092 57.6873 37.5092 56.6108V44.9159C37.5092 43.8395 36.6365 42.9668 35.56 42.9668Z" fill="#4EDDBB"/>
<path d="M55.0505 42.9668H43.3556C42.2792 42.9668 41.4065 43.8395 41.4065 44.9159V56.6108C41.4065 57.6873 42.2792 58.56 43.3556 58.56H55.0505C56.127 58.56 56.9997 57.6873 56.9997 56.6108V44.9159C56.9997 43.8395 56.127 42.9668 55.0505 42.9668Z" fill="#4EDDBB"/>
<path d="M74.5427 42.9668H62.8478C61.7713 42.9668 60.8987 43.8395 60.8987 44.9159V56.6108C60.8987 57.6873 61.7713 58.56 62.8478 58.56H74.5427C75.6192 58.56 76.4919 57.6873 76.4919 56.6108V44.9159C76.4919 43.8395 75.6192 42.9668 74.5427 42.9668Z" fill="#4EDDBB"/>
<path d="M94.0346 42.9668H82.3397C81.2633 42.9668 80.3906 43.8395 80.3906 44.9159V56.6108C80.3906 57.6873 81.2633 58.56 82.3397 58.56H94.0346C95.1111 58.56 95.9838 57.6873 95.9838 56.6108V44.9159C95.9838 43.8395 95.1111 42.9668 94.0346 42.9668Z" fill="#4EDDBB"/>
<path d="M113.525 42.9668H101.83C100.754 42.9668 99.8809 43.8395 99.8809 44.9159V56.6108C99.8809 57.6873 100.754 58.56 101.83 58.56H113.525C114.601 58.56 115.474 57.6873 115.474 56.6108V44.9159C115.474 43.8395 114.601 42.9668 113.525 42.9668Z" fill="#4EDDBB"/>
<path d="M133.017 42.9668H121.322C120.246 42.9668 119.373 43.8395 119.373 44.9159V56.6108C119.373 57.6873 120.246 58.56 121.322 58.56H133.017C134.094 58.56 134.966 57.6873 134.966 56.6108V44.9159C134.966 43.8395 134.094 42.9668 133.017 42.9668Z" fill="#4EDDBB"/>
<path d="M152.507 42.9668H140.812C139.736 42.9668 138.863 43.8395 138.863 44.9159V56.6108C138.863 57.6873 139.736 58.56 140.812 58.56H152.507C153.584 58.56 154.456 57.6873 154.456 56.6108V44.9159C154.456 43.8395 153.584 42.9668 152.507 42.9668Z" fill="#4EDDBB"/>
<path d="M171.999 42.9668H160.304C159.228 42.9668 158.355 43.8395 158.355 44.9159V56.6108C158.355 57.6873 159.228 58.56 160.304 58.56H171.999C173.076 58.56 173.948 57.6873 173.948 56.6108V44.9159C173.948 43.8395 173.076 42.9668 171.999 42.9668Z" fill="#4EDDBB"/>
<path d="M191.492 42.9668H179.797C178.721 42.9668 177.848 43.8395 177.848 44.9159V56.6108C177.848 57.6873 178.721 58.56 179.797 58.56H191.492C192.569 58.56 193.441 57.6873 193.441 56.6108V44.9159C193.441 43.8395 192.569 42.9668 191.492 42.9668Z" fill="#4EDDBB"/>
<path d="M210.982 42.9668H199.287C198.211 42.9668 197.338 43.8395 197.338 44.9159V56.6108C197.338 57.6873 198.211 58.56 199.287 58.56H210.982C212.059 58.56 212.931 57.6873 212.931 56.6108V44.9159C212.931 43.8395 212.059 42.9668 210.982 42.9668Z" fill="#4EDDBB"/>
<path d="M230.474 42.9668H218.779C217.703 42.9668 216.83 43.8395 216.83 44.9159V56.6108C216.83 57.6873 217.703 58.56 218.779 58.56H230.474C231.551 58.56 232.423 57.6873 232.423 56.6108V44.9159C232.423 43.8395 231.551 42.9668 230.474 42.9668Z" fill="#4EDDBB"/>
<path d="M249.966 42.9668H238.271C237.195 42.9668 236.322 43.8395 236.322 44.9159V56.6108C236.322 57.6873 237.195 58.56 238.271 58.56H249.966C251.043 58.56 251.915 57.6873 251.915 56.6108V44.9159C251.915 43.8395 251.043 42.9668 249.966 42.9668Z" fill="#4EDDBB"/>
<path d="M269.458 42.9668H257.763C256.687 42.9668 255.814 43.8395 255.814 44.9159V56.6108C255.814 57.6873 256.687 58.56 257.763 58.56H269.458C270.535 58.56 271.407 57.6873 271.407 56.6108V44.9159C271.407 43.8395 270.535 42.9668 269.458 42.9668Z" fill="#4EDDBB"/>
<path d="M288.949 42.9668H277.254C276.178 42.9668 275.305 43.8395 275.305 44.9159V56.6108C275.305 57.6873 276.178 58.56 277.254 58.56H288.949C290.026 58.56 290.898 57.6873 290.898 56.6108V44.9159C290.898 43.8395 290.026 42.9668 288.949 42.9668Z" fill="#4EDDBB"/>
<path d="M308.439 42.9668H296.744C295.668 42.9668 294.795 43.8395 294.795 44.9159V56.6108C294.795 57.6873 295.668 58.56 296.744 58.56H308.439C309.516 58.56 310.388 57.6873 310.388 56.6108V44.9159C310.388 43.8395 309.516 42.9668 308.439 42.9668Z" fill="#4EDDBB"/>
<path d="M327.931 42.9668H316.236C315.16 42.9668 314.287 43.8395 314.287 44.9159V56.6108C314.287 57.6873 315.16 58.56 316.236 58.56H327.931C329.008 58.56 329.88 57.6873 329.88 56.6108V44.9159C329.88 43.8395 329.008 42.9668 327.931 42.9668Z" fill="#4EDDBB"/>
<path d="M347.424 42.9668H335.729C334.653 42.9668 333.78 43.8395 333.78 44.9159V56.6108C333.78 57.6873 334.653 58.56 335.729 58.56H347.424C348.501 58.56 349.373 57.6873 349.373 56.6108V44.9159C349.373 43.8395 348.501 42.9668 347.424 42.9668Z" fill="#4EDDBB"/>
<path d="M366.916 42.9668H355.221C354.145 42.9668 353.272 43.8395 353.272 44.9159V56.6108C353.272 57.6873 354.145 58.56 355.221 58.56H366.916C367.993 58.56 368.865 57.6873 368.865 56.6108V44.9159C368.865 43.8395 367.993 42.9668 366.916 42.9668Z" fill="#4EDDBB"/>
<path d="M386.408 42.9668H374.713C373.637 42.9668 372.764 43.8395 372.764 44.9159V56.6108C372.764 57.6873 373.637 58.56 374.713 58.56H386.408C387.485 58.56 388.357 57.6873 388.357 56.6108V44.9159C388.357 43.8395 387.485 42.9668 386.408 42.9668Z" fill="#4EDDBB"/>
<path d="M405.898 42.9668H394.203C393.127 42.9668 392.254 43.8395 392.254 44.9159V56.6108C392.254 57.6873 393.127 58.56 394.203 58.56H405.898C406.975 58.56 407.847 57.6873 407.847 56.6108V44.9159C407.847 43.8395 406.975 42.9668 405.898 42.9668Z" fill="#4EDDBB"/>
<path d="M425.39 42.9668H413.695C412.619 42.9668 411.746 43.8395 411.746 44.9159V56.6108C411.746 57.6873 412.619 58.56 413.695 58.56H425.39C426.467 58.56 427.339 57.6873 427.339 56.6108V44.9159C427.339 43.8395 426.467 42.9668 425.39 42.9668Z" fill="#4EDDBB"/>
<path d="M444.88 42.9668H433.185C432.109 42.9668 431.236 43.8395 431.236 44.9159V56.6108C431.236 57.6873 432.109 58.56 433.185 58.56H444.88C445.957 58.56 446.829 57.6873 446.829 56.6108V44.9159C446.829 43.8395 445.957 42.9668 444.88 42.9668Z" fill="#4EDDBB"/>
<path d="M464.373 42.9668H452.678C451.602 42.9668 450.729 43.8395 450.729 44.9159V56.6108C450.729 57.6873 451.602 58.56 452.678 58.56H464.373C465.45 58.56 466.322 57.6873 466.322 56.6108V44.9159C466.322 43.8395 465.45 42.9668 464.373 42.9668Z" fill="#4EDDBB"/>
<path d="M483.865 42.9668H472.17C471.094 42.9668 470.221 43.8395 470.221 44.9159V56.6108C470.221 57.6873 471.094 58.56 472.17 58.56H483.865C484.942 58.56 485.814 57.6873 485.814 56.6108V44.9159C485.814 43.8395 484.942 42.9668 483.865 42.9668Z" fill="#4EDDBB"/>
<path d="M503.357 42.9668H491.662C490.586 42.9668 489.713 43.8395 489.713 44.9159V56.6108C489.713 57.6873 490.586 58.56 491.662 58.56H503.357C504.434 58.56 505.306 57.6873 505.306 56.6108V44.9159C505.306 43.8395 504.434 42.9668 503.357 42.9668Z" fill="#4EDDBB"/>
<path d="M522.849 42.9668H511.154C510.078 42.9668 509.205 43.8395 509.205 44.9159V56.6108C509.205 57.6873 510.078 58.56 511.154 58.56H522.849C523.926 58.56 524.798 57.6873 524.798 56.6108V44.9159C524.798 43.8395 523.926 42.9668 522.849 42.9668Z" fill="#4EDDBB"/>
<path d="M542.339 42.9668H530.644C529.568 42.9668 528.695 43.8395 528.695 44.9159V56.6108C528.695 57.6873 529.568 58.56 530.644 58.56H542.339C543.416 58.56 544.288 57.6873 544.288 56.6108V44.9159C544.288 43.8395 543.416 42.9668 542.339 42.9668Z" fill="#4EDDBB"/>
<path d="M561.83 42.9668H550.135C549.059 42.9668 548.186 43.8395 548.186 44.9159V56.6108C548.186 57.6873 549.059 58.56 550.135 58.56H561.83C562.907 58.56 563.779 57.6873 563.779 56.6108V44.9159C563.779 43.8395 562.907 42.9668 561.83 42.9668Z" fill="#4EDDBB"/>
<path d="M581.322 42.9668H569.627C568.551 42.9668 567.678 43.8395 567.678 44.9159V56.6108C567.678 57.6873 568.551 58.56 569.627 58.56H581.322C582.399 58.56 583.271 57.6873 583.271 56.6108V44.9159C583.271 43.8395 582.399 42.9668 581.322 42.9668Z" fill="#4EDDBB"/>
<path d="M16.0679 62.459H4.37298C3.29649 62.459 2.42383 63.3317 2.42383 64.4081V76.1031C2.42383 77.1795 3.29649 78.0522 4.37298 78.0522H16.0679C17.1444 78.0522 18.017 77.1795 18.017 76.1031V64.4081C18.017 63.3317 17.1444 62.459 16.0679 62.459Z" fill="#4EDDBB"/>
<path d="M35.56 62.459H23.8651C22.7886 62.459 21.916 63.3317 21.916 64.4081V76.1031C21.916 77.1795 22.7886 78.0522 23.8651 78.0522H35.56C36.6365 78.0522 37.5092 77.1795 37.5092 76.1031V64.4081C37.5092 63.3317 36.6365 62.459 35.56 62.459Z" fill="#4EDDBB"/>
<path d="M55.0505 62.459H43.3556C42.2792 62.459 41.4065 63.3317 41.4065 64.4081V76.1031C41.4065 77.1795 42.2792 78.0522 43.3556 78.0522H55.0505C56.127 78.0522 56.9997 77.1795 56.9997 76.1031V64.4081C56.9997 63.3317 56.127 62.459 55.0505 62.459Z" fill="#4EDDBB"/>
<path d="M74.5427 62.459H62.8478C61.7713 62.459 60.8987 63.3317 60.8987 64.4081V76.1031C60.8987 77.1795 61.7713 78.0522 62.8478 78.0522H74.5427C75.6192 78.0522 76.4919 77.1795 76.4919 76.1031V64.4081C76.4919 63.3317 75.6192 62.459 74.5427 62.459Z" fill="#4EDDBB"/>
<path d="M94.0346 62.459H82.3397C81.2633 62.459 80.3906 63.3317 80.3906 64.4081V76.1031C80.3906 77.1795 81.2633 78.0522 82.3397 78.0522H94.0346C95.1111 78.0522 95.9838 77.1795 95.9838 76.1031V64.4081C95.9838 63.3317 95.1111 62.459 94.0346 62.459Z" fill="#4EDDBB"/>
<path d="M113.525 62.459H101.83C100.754 62.459 99.8809 63.3317 99.8809 64.4081V76.1031C99.8809 77.1795 100.754 78.0522 101.83 78.0522H113.525C114.601 78.0522 115.474 77.1795 115.474 76.1031V64.4081C115.474 63.3317 114.601 62.459 113.525 62.459Z" fill="#4EDDBB"/>
<path d="M133.017 62.459H121.322C120.246 62.459 119.373 63.3317 119.373 64.4081V76.1031C119.373 77.1795 120.246 78.0522 121.322 78.0522H133.017C134.094 78.0522 134.966 77.1795 134.966 76.1031V64.4081C134.966 63.3317 134.094 62.459 133.017 62.459Z" fill="#4EDDBB"/>
<path d="M152.507 62.459H140.812C139.736 62.459 138.863 63.3317 138.863 64.4081V76.1031C138.863 77.1795 139.736 78.0522 140.812 78.0522H152.507C153.584 78.0522 154.456 77.1795 154.456 76.1031V64.4081C154.456 63.3317 153.584 62.459 152.507 62.459Z" fill="#4EDDBB"/>
<path d="M171.999 62.459H160.304C159.228 62.459 158.355 63.3317 158.355 64.4081V76.1031C158.355 77.1795 159.228 78.0522 160.304 78.0522H171.999C173.076 78.0522 173.948 77.1795 173.948 76.1031V64.4081C173.948 63.3317 173.076 62.459 171.999 62.459Z" fill="#4EDDBB"/>
<path d="M191.492 62.459H179.797C178.721 62.459 177.848 63.3317 177.848 64.4081V76.1031C177.848 77.1795 178.721 78.0522 179.797 78.0522H191.492C192.569 78.0522 193.441 77.1795 193.441 76.1031V64.4081C193.441 63.3317 192.569 62.459 191.492 62.459Z" fill="#4EDDBB"/>
<path d="M210.982 62.459H199.287C198.211 62.459 197.338 63.3317 197.338 64.4081V76.1031C197.338 77.1795 198.211 78.0522 199.287 78.0522H210.982C212.059 78.0522 212.931 77.1795 212.931 76.1031V64.4081C212.931 63.3317 212.059 62.459 210.982 62.459Z" fill="#4EDDBB"/>
<path d="M230.474 62.459H218.779C217.703 62.459 216.83 63.3317 216.83 64.4081V76.1031C216.83 77.1795 217.703 78.0522 218.779 78.0522H230.474C231.551 78.0522 232.423 77.1795 232.423 76.1031V64.4081C232.423 63.3317 231.551 62.459 230.474 62.459Z" fill="#4EDDBB"/>
<path d="M249.966 62.459H238.271C237.195 62.459 236.322 63.3317 236.322 64.4081V76.1031C236.322 77.1795 237.195 78.0522 238.271 78.0522H249.966C251.043 78.0522 251.915 77.1795 251.915 76.1031V64.4081C251.915 63.3317 251.043 62.459 249.966 62.459Z" fill="#4EDDBB"/>
<path d="M269.458 62.459H257.763C256.687 62.459 255.814 63.3317 255.814 64.4081V76.1031C255.814 77.1795 256.687 78.0522 257.763 78.0522H269.458C270.535 78.0522 271.407 77.1795 271.407 76.1031V64.4081C271.407 63.3317 270.535 62.459 269.458 62.459Z" fill="#4EDDBB"/>
<path d="M288.949 62.459H277.254C276.178 62.459 275.305 63.3317 275.305 64.4081V76.1031C275.305 77.1795 276.178 78.0522 277.254 78.0522H288.949C290.026 78.0522 290.898 77.1795 290.898 76.1031V64.4081C290.898 63.3317 290.026 62.459 288.949 62.459Z" fill="#4EDDBB"/>
<path d="M308.439 62.459H296.744C295.668 62.459 294.795 63.3317 294.795 64.4081V76.1031C294.795 77.1795 295.668 78.0522 296.744 78.0522H308.439C309.516 78.0522 310.388 77.1795 310.388 76.1031V64.4081C310.388 63.3317 309.516 62.459 308.439 62.459Z" fill="#4EDDBB"/>
<path d="M327.931 62.459H316.236C315.16 62.459 314.287 63.3317 314.287 64.4081V76.1031C314.287 77.1795 315.16 78.0522 316.236 78.0522H327.931C329.008 78.0522 329.88 77.1795 329.88 76.1031V64.4081C329.88 63.3317 329.008 62.459 327.931 62.459Z" fill="#4EDDBB"/>
<path d="M347.424 62.459H335.729C334.653 62.459 333.78 63.3317 333.78 64.4081V76.1031C333.78 77.1795 334.653 78.0522 335.729 78.0522H347.424C348.501 78.0522 349.373 77.1795 349.373 76.1031V64.4081C349.373 63.3317 348.501 62.459 347.424 62.459Z" fill="#4EDDBB"/>
<path d="M366.916 62.459H355.221C354.145 62.459 353.272 63.3317 353.272 64.4081V76.1031C353.272 77.1795 354.145 78.0522 355.221 78.0522H366.916C367.993 78.0522 368.865 77.1795 368.865 76.1031V64.4081C368.865 63.3317 367.993 62.459 366.916 62.459Z" fill="#4EDDBB"/>
<path d="M386.408 62.459H374.713C373.637 62.459 372.764 63.3317 372.764 64.4081V76.1031C372.764 77.1795 373.637 78.0522 374.713 78.0522H386.408C387.485 78.0522 388.357 77.1795 388.357 76.1031V64.4081C388.357 63.3317 387.485 62.459 386.408 62.459Z" fill="#4EDDBB"/>
<path d="M405.898 62.459H394.203C393.127 62.459 392.254 63.3317 392.254 64.4081V76.1031C392.254 77.1795 393.127 78.0522 394.203 78.0522H405.898C406.975 78.0522 407.847 77.1795 407.847 76.1031V64.4081C407.847 63.3317 406.975 62.459 405.898 62.459Z" fill="#4EDDBB"/>
<path d="M425.39 62.459H413.695C412.619 62.459 411.746 63.3317 411.746 64.4081V76.1031C411.746 77.1795 412.619 78.0522 413.695 78.0522H425.39C426.467 78.0522 427.339 77.1795 427.339 76.1031V64.4081C427.339 63.3317 426.467 62.459 425.39 62.459Z" fill="#4EDDBB"/>
<path d="M444.88 62.459H433.185C432.109 62.459 431.236 63.3317 431.236 64.4081V76.1031C431.236 77.1795 432.109 78.0522 433.185 78.0522H444.88C445.957 78.0522 446.829 77.1795 446.829 76.1031V64.4081C446.829 63.3317 445.957 62.459 444.88 62.459Z" fill="#4EDDBB"/>
<path d="M464.373 62.459H452.678C451.602 62.459 450.729 63.3317 450.729 64.4081V76.1031C450.729 77.1795 451.602 78.0522 452.678 78.0522H464.373C465.45 78.0522 466.322 77.1795 466.322 76.1031V64.4081C466.322 63.3317 465.45 62.459 464.373 62.459Z" fill="#4EDDBB"/>
<path d="M483.865 62.459H472.17C471.094 62.459 470.221 63.3317 470.221 64.4081V76.1031C470.221 77.1795 471.094 78.0522 472.17 78.0522H483.865C484.942 78.0522 485.814 77.1795 485.814 76.1031V64.4081C485.814 63.3317 484.942 62.459 483.865 62.459Z" fill="#4EDDBB"/>
<path d="M503.357 62.459H491.662C490.586 62.459 489.713 63.3317 489.713 64.4081V76.1031C489.713 77.1795 490.586 78.0522 491.662 78.0522H503.357C504.434 78.0522 505.306 77.1795 505.306 76.1031V64.4081C505.306 63.3317 504.434 62.459 503.357 62.459Z" fill="#4EDDBB"/>
<path d="M522.849 62.459H511.154C510.078 62.459 509.205 63.3317 509.205 64.4081V76.1031C509.205 77.1795 510.078 78.0522 511.154 78.0522H522.849C523.926 78.0522 524.798 77.1795 524.798 76.1031V64.4081C524.798 63.3317 523.926 62.459 522.849 62.459Z" fill="#4EDDBB"/>
<path d="M542.339 62.459H530.644C529.568 62.459 528.695 63.3317 528.695 64.4081V76.1031C528.695 77.1795 529.568 78.0522 530.644 78.0522H542.339C543.416 78.0522 544.288 77.1795 544.288 76.1031V64.4081C544.288 63.3317 543.416 62.459 542.339 62.459Z" fill="#4EDDBB"/>
<path d="M561.83 62.459H550.135C549.059 62.459 548.186 63.3317 548.186 64.4081V76.1031C548.186 77.1795 549.059 78.0522 550.135 78.0522H561.83C562.907 78.0522 563.779 77.1795 563.779 76.1031V64.4081C563.779 63.3317 562.907 62.459 561.83 62.459Z" fill="#4EDDBB"/>
<path d="M581.322 62.459H569.627C568.551 62.459 567.678 63.3317 567.678 64.4081V76.1031C567.678 77.1795 568.551 78.0522 569.627 78.0522H581.322C582.399 78.0522 583.271 77.1795 583.271 76.1031V64.4081C583.271 63.3317 582.399 62.459 581.322 62.459Z" fill="#4EDDBB"/>
<path d="M16.0679 81.9492H4.37298C3.29649 81.9492 2.42383 82.8219 2.42383 83.8984V95.5932C2.42383 96.6697 3.29649 97.5424 4.37298 97.5424H16.0679C17.1444 97.5424 18.017 96.6697 18.017 95.5932V83.8984C18.017 82.8219 17.1444 81.9492 16.0679 81.9492Z" fill="#4EDDBB"/>
<path d="M35.56 81.9492H23.8651C22.7886 81.9492 21.916 82.8219 21.916 83.8984V95.5932C21.916 96.6697 22.7886 97.5424 23.8651 97.5424H35.56C36.6365 97.5424 37.5092 96.6697 37.5092 95.5932V83.8984C37.5092 82.8219 36.6365 81.9492 35.56 81.9492Z" fill="#4EDDBB"/>
<path d="M55.0505 81.9492H43.3556C42.2792 81.9492 41.4065 82.8219 41.4065 83.8984V95.5932C41.4065 96.6697 42.2792 97.5424 43.3556 97.5424H55.0505C56.127 97.5424 56.9997 96.6697 56.9997 95.5932V83.8984C56.9997 82.8219 56.127 81.9492 55.0505 81.9492Z" fill="#4EDDBB"/>
<path d="M74.5427 81.9492H62.8478C61.7713 81.9492 60.8987 82.8219 60.8987 83.8984V95.5932C60.8987 96.6697 61.7713 97.5424 62.8478 97.5424H74.5427C75.6192 97.5424 76.4919 96.6697 76.4919 95.5932V83.8984C76.4919 82.8219 75.6192 81.9492 74.5427 81.9492Z" fill="#4EDDBB"/>
<path d="M94.0346 81.9492H82.3397C81.2633 81.9492 80.3906 82.8219 80.3906 83.8984V95.5932C80.3906 96.6697 81.2633 97.5424 82.3397 97.5424H94.0346C95.1111 97.5424 95.9838 96.6697 95.9838 95.5932V83.8984C95.9838 82.8219 95.1111 81.9492 94.0346 81.9492Z" fill="#4EDDBB"/>
<path d="M113.525 81.9492H101.83C100.754 81.9492 99.8809 82.8219 99.8809 83.8984V95.5932C99.8809 96.6697 100.754 97.5424 101.83 97.5424H113.525C114.601 97.5424 115.474 96.6697 115.474 95.5932V83.8984C115.474 82.8219 114.601 81.9492 113.525 81.9492Z" fill="#4EDDBB"/>
<path d="M133.017 81.9492H121.322C120.246 81.9492 119.373 82.8219 119.373 83.8984V95.5932C119.373 96.6697 120.246 97.5424 121.322 97.5424H133.017C134.094 97.5424 134.966 96.6697 134.966 95.5932V83.8984C134.966 82.8219 134.094 81.9492 133.017 81.9492Z" fill="#4EDDBB"/>
<path d="M152.507 81.9492H140.812C139.736 81.9492 138.863 82.8219 138.863 83.8984V95.5932C138.863 96.6697 139.736 97.5424 140.812 97.5424H152.507C153.584 97.5424 154.456 96.6697 154.456 95.5932V83.8984C154.456 82.8219 153.584 81.9492 152.507 81.9492Z" fill="#4EDDBB"/>
<path d="M171.999 81.9492H160.304C159.228 81.9492 158.355 82.8219 158.355 83.8984V95.5932C158.355 96.6697 159.228 97.5424 160.304 97.5424H171.999C173.076 97.5424 173.948 96.6697 173.948 95.5932V83.8984C173.948 82.8219 173.076 81.9492 171.999 81.9492Z" fill="#4EDDBB"/>
<path d="M191.492 81.9492H179.797C178.721 81.9492 177.848 82.8219 177.848 83.8984V95.5932C177.848 96.6697 178.721 97.5424 179.797 97.5424H191.492C192.569 97.5424 193.441 96.6697 193.441 95.5932V83.8984C193.441 82.8219 192.569 81.9492 191.492 81.9492Z" fill="#4EDDBB"/>
<path d="M210.982 81.9492H199.287C198.211 81.9492 197.338 82.8219 197.338 83.8984V95.5932C197.338 96.6697 198.211 97.5424 199.287 97.5424H210.982C212.059 97.5424 212.931 96.6697 212.931 95.5932V83.8984C212.931 82.8219 212.059 81.9492 210.982 81.9492Z" fill="#4EDDBB"/>
<path d="M230.474 81.9492H218.779C217.703 81.9492 216.83 82.8219 216.83 83.8984V95.5932C216.83 96.6697 217.703 97.5424 218.779 97.5424H230.474C231.551 97.5424 232.423 96.6697 232.423 95.5932V83.8984C232.423 82.8219 231.551 81.9492 230.474 81.9492Z" fill="#4EDDBB"/>
<path d="M249.966 81.9492H238.271C237.195 81.9492 236.322 82.8219 236.322 83.8984V95.5932C236.322 96.6697 237.195 97.5424 238.271 97.5424H249.966C251.043 97.5424 251.915 96.6697 251.915 95.5932V83.8984C251.915 82.8219 251.043 81.9492 249.966 81.9492Z" fill="#4EDDBB"/>
<path d="M269.458 81.9492H257.763C256.687 81.9492 255.814 82.8219 255.814 83.8984V95.5932C255.814 96.6697 256.687 97.5424 257.763 97.5424H269.458C270.535 97.5424 271.407 96.6697 271.407 95.5932V83.8984C271.407 82.8219 270.535 81.9492 269.458 81.9492Z" fill="#4EDDBB"/>
<path d="M288.949 81.9492H277.254C276.178 81.9492 275.305 82.8219 275.305 83.8984V95.5932C275.305 96.6697 276.178 97.5424 277.254 97.5424H288.949C290.026 97.5424 290.898 96.6697 290.898 95.5932V83.8984C290.898 82.8219 290.026 81.9492 288.949 81.9492Z" fill="#4EDDBB"/>
<path d="M308.439 81.9492H296.744C295.668 81.9492 294.795 82.8219 294.795 83.8984V95.5932C294.795 96.6697 295.668 97.5424 296.744 97.5424H308.439C309.516 97.5424 310.388 96.6697 310.388 95.5932V83.8984C310.388 82.8219 309.516 81.9492 308.439 81.9492Z" fill="#4EDDBB"/>
<path d="M327.931 81.9492H316.236C315.16 81.9492 314.287 82.8219 314.287 83.8984V95.5932C314.287 96.6697 315.16 97.5424 316.236 97.5424H327.931C329.008 97.5424 329.88 96.6697 329.88 95.5932V83.8984C329.88 82.8219 329.008 81.9492 327.931 81.9492Z" fill="#4EDDBB"/>
<path d="M347.424 81.9492H335.729C334.653 81.9492 333.78 82.8219 333.78 83.8984V95.5932C333.78 96.6697 334.653 97.5424 335.729 97.5424H347.424C348.501 97.5424 349.373 96.6697 349.373 95.5932V83.8984C349.373 82.8219 348.501 81.9492 347.424 81.9492Z" fill="#4EDDBB"/>
<path d="M366.916 81.9492H355.221C354.145 81.9492 353.272 82.8219 353.272 83.8984V95.5932C353.272 96.6697 354.145 97.5424 355.221 97.5424H366.916C367.993 97.5424 368.865 96.6697 368.865 95.5932V83.8984C368.865 82.8219 367.993 81.9492 366.916 81.9492Z" fill="#4EDDBB"/>
<path d="M386.408 81.9492H374.713C373.637 81.9492 372.764 82.8219 372.764 83.8984V95.5932C372.764 96.6697 373.637 97.5424 374.713 97.5424H386.408C387.485 97.5424 388.357 96.6697 388.357 95.5932V83.8984C388.357 82.8219 387.485 81.9492 386.408 81.9492Z" fill="#4EDDBB"/>
<path d="M405.898 81.9492H394.203C393.127 81.9492 392.254 82.8219 392.254 83.8984V95.5932C392.254 96.6697 393.127 97.5424 394.203 97.5424H405.898C406.975 97.5424 407.847 96.6697 407.847 95.5932V83.8984C407.847 82.8219 406.975 81.9492 405.898 81.9492Z" fill="#4EDDBB"/>
<path d="M425.39 81.9492H413.695C412.619 81.9492 411.746 82.8219 411.746 83.8984V95.5932C411.746 96.6697 412.619 97.5424 413.695 97.5424H425.39C426.467 97.5424 427.339 96.6697 427.339 95.5932V83.8984C427.339 82.8219 426.467 81.9492 425.39 81.9492Z" fill="#4EDDBB"/>
<path d="M444.88 81.9492H433.185C432.109 81.9492 431.236 82.8219 431.236 83.8984V95.5932C431.236 96.6697 432.109 97.5424 433.185 97.5424H444.88C445.957 97.5424 446.829 96.6697 446.829 95.5932V83.8984C446.829 82.8219 445.957 81.9492 444.88 81.9492Z" fill="#4EDDBB"/>
<path d="M464.373 81.9492H452.678C451.602 81.9492 450.729 82.8219 450.729 83.8984V95.5932C450.729 96.6697 451.602 97.5424 452.678 97.5424H464.373C465.45 97.5424 466.322 96.6697 466.322 95.5932V83.8984C466.322 82.8219 465.45 81.9492 464.373 81.9492Z" fill="#4EDDBB"/>
<path d="M483.865 81.9492H472.17C471.094 81.9492 470.221 82.8219 470.221 83.8984V95.5932C470.221 96.6697 471.094 97.5424 472.17 97.5424H483.865C484.942 97.5424 485.814 96.6697 485.814 95.5932V83.8984C485.814 82.8219 484.942 81.9492 483.865 81.9492Z" fill="#4EDDBB"/>
<path d="M503.357 81.9492H491.662C490.586 81.9492 489.713 82.8219 489.713 83.8984V95.5932C489.713 96.6697 490.586 97.5424 491.662 97.5424H503.357C504.434 97.5424 505.306 96.6697 505.306 95.5932V83.8984C505.306 82.8219 504.434 81.9492 503.357 81.9492Z" fill="#4EDDBB"/>
<path d="M522.849 81.9492H511.154C510.078 81.9492 509.205 82.8219 509.205 83.8984V95.5932C509.205 96.6697 510.078 97.5424 511.154 97.5424H522.849C523.926 97.5424 524.798 96.6697 524.798 95.5932V83.8984C524.798 82.8219 523.926 81.9492 522.849 81.9492Z" fill="#4EDDBB"/>
<path d="M542.339 81.9492H530.644C529.568 81.9492 528.695 82.8219 528.695 83.8984V95.5932C528.695 96.6697 529.568 97.5424 530.644 97.5424H542.339C543.416 97.5424 544.288 96.6697 544.288 95.5932V83.8984C544.288 82.8219 543.416 81.9492 542.339 81.9492Z" fill="#4EDDBB"/>
<path d="M561.83 81.9492H550.135C549.059 81.9492 548.186 82.8219 548.186 83.8984V95.5932C548.186 96.6697 549.059 97.5424 550.135 97.5424H561.83C562.907 97.5424 563.779 96.6697 563.779 95.5932V83.8984C563.779 82.8219 562.907 81.9492 561.83 81.9492Z" fill="#4EDDBB"/>
<path d="M581.322 81.9492H569.627C568.551 81.9492 567.678 82.8219 567.678 83.8984V95.5932C567.678 96.6697 568.551 97.5424 569.627 97.5424H581.322C582.399 97.5424 583.271 96.6697 583.271 95.5932V83.8984C583.271 82.8219 582.399 81.9492 581.322 81.9492Z" fill="#4EDDBB"/>
<path d="M16.0679 101.441H4.37298C3.29649 101.441 2.42383 102.314 2.42383 103.39V115.085C2.42383 116.162 3.29649 117.034 4.37298 117.034H16.0679C17.1444 117.034 18.017 116.162 18.017 115.085V103.39C18.017 102.314 17.1444 101.441 16.0679 101.441Z" fill="#4EDDBB"/>
<path d="M35.56 101.441H23.8651C22.7886 101.441 21.916 102.314 21.916 103.39V115.085C21.916 116.162 22.7886 117.034 23.8651 117.034H35.56C36.6365 117.034 37.5092 116.162 37.5092 115.085V103.39C37.5092 102.314 36.6365 101.441 35.56 101.441Z" fill="#4EDDBB"/>
<path d="M55.0505 101.441H43.3556C42.2792 101.441 41.4065 102.314 41.4065 103.39V115.085C41.4065 116.162 42.2792 117.034 43.3556 117.034H55.0505C56.127 117.034 56.9997 116.162 56.9997 115.085V103.39C56.9997 102.314 56.127 101.441 55.0505 101.441Z" fill="#4EDDBB"/>
<path d="M74.5427 101.441H62.8478C61.7713 101.441 60.8987 102.314 60.8987 103.39V115.085C60.8987 116.162 61.7713 117.034 62.8478 117.034H74.5427C75.6192 117.034 76.4919 116.162 76.4919 115.085V103.39C76.4919 102.314 75.6192 101.441 74.5427 101.441Z" fill="#4EDDBB"/>
<path d="M94.0346 101.441H82.3397C81.2633 101.441 80.3906 102.314 80.3906 103.39V115.085C80.3906 116.162 81.2633 117.034 82.3397 117.034H94.0346C95.1111 117.034 95.9838 116.162 95.9838 115.085V103.39C95.9838 102.314 95.1111 101.441 94.0346 101.441Z" fill="#4EDDBB"/>
<path d="M113.525 101.441H101.83C100.754 101.441 99.8809 102.314 99.8809 103.39V115.085C99.8809 116.162 100.754 117.034 101.83 117.034H113.525C114.601 117.034 115.474 116.162 115.474 115.085V103.39C115.474 102.314 114.601 101.441 113.525 101.441Z" fill="#4EDDBB"/>
<path d="M133.017 101.441H121.322C120.246 101.441 119.373 102.314 119.373 103.39V115.085C119.373 116.162 120.246 117.034 121.322 117.034H133.017C134.094 117.034 134.966 116.162 134.966 115.085V103.39C134.966 102.314 134.094 101.441 133.017 101.441Z" fill="#4EDDBB"/>
<path d="M152.507 101.441H140.812C139.736 101.441 138.863 102.314 138.863 103.39V115.085C138.863 116.162 139.736 117.034 140.812 117.034H152.507C153.584 117.034 154.456 116.162 154.456 115.085V103.39C154.456 102.314 153.584 101.441 152.507 101.441Z" fill="#4EDDBB"/>
<path d="M171.999 101.441H160.304C159.228 101.441 158.355 102.314 158.355 103.39V115.085C158.355 116.162 159.228 117.034 160.304 117.034H171.999C173.076 117.034 173.948 116.162 173.948 115.085V103.39C173.948 102.314 173.076 101.441 171.999 101.441Z" fill="#4EDDBB"/>
<path d="M191.492 101.441H179.797C178.721 101.441 177.848 102.314 177.848 103.39V115.085C177.848 116.162 178.721 117.034 179.797 117.034H191.492C192.569 117.034 193.441 116.162 193.441 115.085V103.39C193.441 102.314 192.569 101.441 191.492 101.441Z" fill="#4EDDBB"/>
<path d="M210.982 101.441H199.287C198.211 101.441 197.338 102.314 197.338 103.39V115.085C197.338 116.162 198.211 117.034 199.287 117.034H210.982C212.059 117.034 212.931 116.162 212.931 115.085V103.39C212.931 102.314 212.059 101.441 210.982 101.441Z" fill="#4EDDBB"/>
<path d="M230.474 101.441H218.779C217.703 101.441 216.83 102.314 216.83 103.39V115.085C216.83 116.162 217.703 117.034 218.779 117.034H230.474C231.551 117.034 232.423 116.162 232.423 115.085V103.39C232.423 102.314 231.551 101.441 230.474 101.441Z" fill="#4EDDBB"/>
<path d="M249.966 101.441H238.271C237.195 101.441 236.322 102.314 236.322 103.39V115.085C236.322 116.162 237.195 117.034 238.271 117.034H249.966C251.043 117.034 251.915 116.162 251.915 115.085V103.39C251.915 102.314 251.043 101.441 249.966 101.441Z" fill="#4EDDBB"/>
<path d="M269.458 101.441H257.763C256.687 101.441 255.814 102.314 255.814 103.39V115.085C255.814 116.162 256.687 117.034 257.763 117.034H269.458C270.535 117.034 271.407 116.162 271.407 115.085V103.39C271.407 102.314 270.535 101.441 269.458 101.441Z" fill="#4EDDBB"/>
<path d="M288.949 101.441H277.254C276.178 101.441 275.305 102.314 275.305 103.39V115.085C275.305 116.162 276.178 117.034 277.254 117.034H288.949C290.026 117.034 290.898 116.162 290.898 115.085V103.39C290.898 102.314 290.026 101.441 288.949 101.441Z" fill="#4EDDBB"/>
<path d="M308.439 101.441H296.744C295.668 101.441 294.795 102.314 294.795 103.39V115.085C294.795 116.162 295.668 117.034 296.744 117.034H308.439C309.516 117.034 310.388 116.162 310.388 115.085V103.39C310.388 102.314 309.516 101.441 308.439 101.441Z" fill="#4EDDBB"/>
<path d="M327.931 101.441H316.236C315.16 101.441 314.287 102.314 314.287 103.39V115.085C314.287 116.162 315.16 117.034 316.236 117.034H327.931C329.008 117.034 329.88 116.162 329.88 115.085V103.39C329.88 102.314 329.008 101.441 327.931 101.441Z" fill="#4EDDBB"/>
<path d="M347.424 101.441H335.729C334.653 101.441 333.78 102.314 333.78 103.39V115.085C333.78 116.162 334.653 117.034 335.729 117.034H347.424C348.501 117.034 349.373 116.162 349.373 115.085V103.39C349.373 102.314 348.501 101.441 347.424 101.441Z" fill="#4EDDBB"/>
<path d="M366.916 101.441H355.221C354.145 101.441 353.272 102.314 353.272 103.39V115.085C353.272 116.162 354.145 117.034 355.221 117.034H366.916C367.993 117.034 368.865 116.162 368.865 115.085V103.39C368.865 102.314 367.993 101.441 366.916 101.441Z" fill="#4EDDBB"/>
<path d="M386.408 101.441H374.713C373.637 101.441 372.764 102.314 372.764 103.39V115.085C372.764 116.162 373.637 117.034 374.713 117.034H386.408C387.485 117.034 388.357 116.162 388.357 115.085V103.39C388.357 102.314 387.485 101.441 386.408 101.441Z" fill="#4EDDBB"/>
<path d="M405.898 101.441H394.203C393.127 101.441 392.254 102.314 392.254 103.39V115.085C392.254 116.162 393.127 117.034 394.203 117.034H405.898C406.975 117.034 407.847 116.162 407.847 115.085V103.39C407.847 102.314 406.975 101.441 405.898 101.441Z" fill="#4EDDBB"/>
<path d="M425.39 101.441H413.695C412.619 101.441 411.746 102.314 411.746 103.39V115.085C411.746 116.162 412.619 117.034 413.695 117.034H425.39C426.467 117.034 427.339 116.162 427.339 115.085V103.39C427.339 102.314 426.467 101.441 425.39 101.441Z" fill="#4EDDBB"/>
<path d="M444.88 101.441H433.185C432.109 101.441 431.236 102.314 431.236 103.39V115.085C431.236 116.162 432.109 117.034 433.185 117.034H444.88C445.957 117.034 446.829 116.162 446.829 115.085V103.39C446.829 102.314 445.957 101.441 444.88 101.441Z" fill="#4EDDBB"/>
<path d="M464.373 101.441H452.678C451.602 101.441 450.729 102.314 450.729 103.39V115.085C450.729 116.162 451.602 117.034 452.678 117.034H464.373C465.45 117.034 466.322 116.162 466.322 115.085V103.39C466.322 102.314 465.45 101.441 464.373 101.441Z" fill="#4EDDBB"/>
<path d="M483.865 101.441H472.17C471.094 101.441 470.221 102.314 470.221 103.39V115.085C470.221 116.162 471.094 117.034 472.17 117.034H483.865C484.942 117.034 485.814 116.162 485.814 115.085V103.39C485.814 102.314 484.942 101.441 483.865 101.441Z" fill="#4EDDBB"/>
<path d="M16.0679 120.934H4.37298C3.29649 120.934 2.42383 121.807 2.42383 122.883V134.578C2.42383 135.655 3.29649 136.527 4.37298 136.527H16.0679C17.1444 136.527 18.017 135.655 18.017 134.578V122.883C18.017 121.807 17.1444 120.934 16.0679 120.934Z" fill="#4EDDBB"/>
<path d="M35.56 120.934H23.8651C22.7886 120.934 21.916 121.807 21.916 122.883V134.578C21.916 135.655 22.7886 136.527 23.8651 136.527H35.56C36.6365 136.527 37.5092 135.655 37.5092 134.578V122.883C37.5092 121.807 36.6365 120.934 35.56 120.934Z" fill="#4EDDBB"/>
<path d="M55.0505 120.934H43.3556C42.2792 120.934 41.4065 121.807 41.4065 122.883V134.578C41.4065 135.655 42.2792 136.527 43.3556 136.527H55.0505C56.127 136.527 56.9997 135.655 56.9997 134.578V122.883C56.9997 121.807 56.127 120.934 55.0505 120.934Z" fill="#4EDDBB"/>
<path d="M74.5427 120.934H62.8478C61.7713 120.934 60.8987 121.807 60.8987 122.883V134.578C60.8987 135.655 61.7713 136.527 62.8478 136.527H74.5427C75.6192 136.527 76.4919 135.655 76.4919 134.578V122.883C76.4919 121.807 75.6192 120.934 74.5427 120.934Z" fill="#4EDDBB"/>
<path d="M94.0346 120.934H82.3397C81.2633 120.934 80.3906 121.807 80.3906 122.883V134.578C80.3906 135.655 81.2633 136.527 82.3397 136.527H94.0346C95.1111 136.527 95.9838 135.655 95.9838 134.578V122.883C95.9838 121.807 95.1111 120.934 94.0346 120.934Z" fill="#4EDDBB"/>
<path d="M113.525 120.934H101.83C100.754 120.934 99.8809 121.807 99.8809 122.883V134.578C99.8809 135.655 100.754 136.527 101.83 136.527H113.525C114.601 136.527 115.474 135.655 115.474 134.578V122.883C115.474 121.807 114.601 120.934 113.525 120.934Z" fill="#4EDDBB"/>
<path d="M133.017 120.934H121.322C120.246 120.934 119.373 121.807 119.373 122.883V134.578C119.373 135.655 120.246 136.527 121.322 136.527H133.017C134.094 136.527 134.966 135.655 134.966 134.578V122.883C134.966 121.807 134.094 120.934 133.017 120.934Z" fill="#4EDDBB"/>
<path d="M152.507 120.934H140.812C139.736 120.934 138.863 121.807 138.863 122.883V134.578C138.863 135.655 139.736 136.527 140.812 136.527H152.507C153.584 136.527 154.456 135.655 154.456 134.578V122.883C154.456 121.807 153.584 120.934 152.507 120.934Z" fill="#4EDDBB"/>
<path d="M171.999 120.934H160.304C159.228 120.934 158.355 121.807 158.355 122.883V134.578C158.355 135.655 159.228 136.527 160.304 136.527H171.999C173.076 136.527 173.948 135.655 173.948 134.578V122.883C173.948 121.807 173.076 120.934 171.999 120.934Z" fill="#4EDDBB"/>
<path d="M191.492 120.934H179.797C178.721 120.934 177.848 121.807 177.848 122.883V134.578C177.848 135.655 178.721 136.527 179.797 136.527H191.492C192.569 136.527 193.441 135.655 193.441 134.578V122.883C193.441 121.807 192.569 120.934 191.492 120.934Z" fill="#4EDDBB"/>
<path d="M210.982 120.934H199.287C198.211 120.934 197.338 121.807 197.338 122.883V134.578C197.338 135.655 198.211 136.527 199.287 136.527H210.982C212.059 136.527 212.931 135.655 212.931 134.578V122.883C212.931 121.807 212.059 120.934 210.982 120.934Z" fill="#4EDDBB"/>
<path d="M230.474 120.934H218.779C217.703 120.934 216.83 121.807 216.83 122.883V134.578C216.83 135.655 217.703 136.527 218.779 136.527H230.474C231.551 136.527 232.423 135.655 232.423 134.578V122.883C232.423 121.807 231.551 120.934 230.474 120.934Z" fill="#4EDDBB"/>
<path d="M249.966 120.934H238.271C237.195 120.934 236.322 121.807 236.322 122.883V134.578C236.322 135.655 237.195 136.527 238.271 136.527H249.966C251.043 136.527 251.915 135.655 251.915 134.578V122.883C251.915 121.807 251.043 120.934 249.966 120.934Z" fill="#4EDDBB"/>
<path d="M269.458 120.934H257.763C256.687 120.934 255.814 121.807 255.814 122.883V134.578C255.814 135.655 256.687 136.527 257.763 136.527H269.458C270.535 136.527 271.407 135.655 271.407 134.578V122.883C271.407 121.807 270.535 120.934 269.458 120.934Z" fill="#4EDDBB"/>
<path d="M288.949 120.934H277.254C276.178 120.934 275.305 121.807 275.305 122.883V134.578C275.305 135.655 276.178 136.527 277.254 136.527H288.949C290.026 136.527 290.898 135.655 290.898 134.578V122.883C290.898 121.807 290.026 120.934 288.949 120.934Z" fill="#4EDDBB"/>
<path d="M308.439 120.934H296.744C295.668 120.934 294.795 121.807 294.795 122.883V134.578C294.795 135.655 295.668 136.527 296.744 136.527H308.439C309.516 136.527 310.388 135.655 310.388 134.578V122.883C310.388 121.807 309.516 120.934 308.439 120.934Z" fill="#4EDDBB"/>
<path d="M327.931 120.934H316.236C315.16 120.934 314.287 121.807 314.287 122.883V134.578C314.287 135.655 315.16 136.527 316.236 136.527H327.931C329.008 136.527 329.88 135.655 329.88 134.578V122.883C329.88 121.807 329.008 120.934 327.931 120.934Z" fill="#4EDDBB"/>
<path d="M347.424 120.934H335.729C334.653 120.934 333.78 121.807 333.78 122.883V134.578C333.78 135.655 334.653 136.527 335.729 136.527H347.424C348.501 136.527 349.373 135.655 349.373 134.578V122.883C349.373 121.807 348.501 120.934 347.424 120.934Z" fill="#4EDDBB"/>
<path d="M366.916 120.934H355.221C354.145 120.934 353.272 121.807 353.272 122.883V134.578C353.272 135.655 354.145 136.527 355.221 136.527H366.916C367.993 136.527 368.865 135.655 368.865 134.578V122.883C368.865 121.807 367.993 120.934 366.916 120.934Z" fill="#4EDDBB"/>
<path d="M386.408 120.934H374.713C373.637 120.934 372.764 121.807 372.764 122.883V134.578C372.764 135.655 373.637 136.527 374.713 136.527H386.408C387.485 136.527 388.357 135.655 388.357 134.578V122.883C388.357 121.807 387.485 120.934 386.408 120.934Z" fill="#4EDDBB"/>
<path d="M405.898 120.934H394.203C393.127 120.934 392.254 121.807 392.254 122.883V134.578C392.254 135.655 393.127 136.527 394.203 136.527H405.898C406.975 136.527 407.847 135.655 407.847 134.578V122.883C407.847 121.807 406.975 120.934 405.898 120.934Z" fill="#4EDDBB"/>
<path d="M425.39 120.934H413.695C412.619 120.934 411.746 121.807 411.746 122.883V134.578C411.746 135.655 412.619 136.527 413.695 136.527H425.39C426.467 136.527 427.339 135.655 427.339 134.578V122.883C427.339 121.807 426.467 120.934 425.39 120.934Z" fill="#4EDDBB"/>
<path d="M444.88 120.934H433.185C432.109 120.934 431.236 121.807 431.236 122.883V134.578C431.236 135.655 432.109 136.527 433.185 136.527H444.88C445.957 136.527 446.829 135.655 446.829 134.578V122.883C446.829 121.807 445.957 120.934 444.88 120.934Z" fill="#4EDDBB"/>
<path d="M464.373 120.934H452.678C451.602 120.934 450.729 121.807 450.729 122.883V134.578C450.729 135.655 451.602 136.527 452.678 136.527H464.373C465.45 136.527 466.322 135.655 466.322 134.578V122.883C466.322 121.807 465.45 120.934 464.373 120.934Z" fill="#4EDDBB"/>
<path d="M483.865 120.934H472.17C471.094 120.934 470.221 121.807 470.221 122.883V134.578C470.221 135.655 471.094 136.527 472.17 136.527H483.865C484.942 136.527 485.814 135.655 485.814 134.578V122.883C485.814 121.807 484.942 120.934 483.865 120.934Z" fill="#4EDDBB"/>
<path d="M503.357 120.934H491.662C490.586 120.934 489.713 121.807 489.713 122.883V134.578C489.713 135.655 490.586 136.527 491.662 136.527H503.357C504.434 136.527 505.306 135.655 505.306 134.578V122.883C505.306 121.807 504.434 120.934 503.357 120.934Z" fill="#4EDDBB"/>
<path d="M16.0679 140.424H4.37298C3.29649 140.424 2.42383 141.297 2.42383 142.373V154.068C2.42383 155.145 3.29649 156.017 4.37298 156.017H16.0679C17.1444 156.017 18.017 155.145 18.017 154.068V142.373C18.017 141.297 17.1444 140.424 16.0679 140.424Z" fill="#4EDDBB"/>
<path d="M35.56 140.424H23.8651C22.7886 140.424 21.916 141.297 21.916 142.373V154.068C21.916 155.145 22.7886 156.017 23.8651 156.017H35.56C36.6365 156.017 37.5092 155.145 37.5092 154.068V142.373C37.5092 141.297 36.6365 140.424 35.56 140.424Z" fill="#4EDDBB"/>
<path d="M55.0505 140.424H43.3556C42.2792 140.424 41.4065 141.297 41.4065 142.373V154.068C41.4065 155.145 42.2792 156.017 43.3556 156.017H55.0505C56.127 156.017 56.9997 155.145 56.9997 154.068V142.373C56.9997 141.297 56.127 140.424 55.0505 140.424Z" fill="#4EDDBB"/>
<path d="M74.5427 140.424H62.8478C61.7713 140.424 60.8987 141.297 60.8987 142.373V154.068C60.8987 155.145 61.7713 156.017 62.8478 156.017H74.5427C75.6192 156.017 76.4919 155.145 76.4919 154.068V142.373C76.4919 141.297 75.6192 140.424 74.5427 140.424Z" fill="#4EDDBB"/>
<path d="M94.0346 140.424H82.3397C81.2633 140.424 80.3906 141.297 80.3906 142.373V154.068C80.3906 155.145 81.2633 156.017 82.3397 156.017H94.0346C95.1111 156.017 95.9838 155.145 95.9838 154.068V142.373C95.9838 141.297 95.1111 140.424 94.0346 140.424Z" fill="#4EDDBB"/>
<path d="M113.525 140.424H101.83C100.754 140.424 99.8809 141.297 99.8809 142.373V154.068C99.8809 155.145 100.754 156.017 101.83 156.017H113.525C114.601 156.017 115.474 155.145 115.474 154.068V142.373C115.474 141.297 114.601 140.424 113.525 140.424Z" fill="#4EDDBB"/>
<path d="M133.017 140.424H121.322C120.246 140.424 119.373 141.297 119.373 142.373V154.068C119.373 155.145 120.246 156.017 121.322 156.017H133.017C134.094 156.017 134.966 155.145 134.966 154.068V142.373C134.966 141.297 134.094 140.424 133.017 140.424Z" fill="#4EDDBB"/>
<path d="M152.507 140.424H140.812C139.736 140.424 138.863 141.297 138.863 142.373V154.068C138.863 155.145 139.736 156.017 140.812 156.017H152.507C153.584 156.017 154.456 155.145 154.456 154.068V142.373C154.456 141.297 153.584 140.424 152.507 140.424Z" fill="#4EDDBB"/>
<path d="M171.999 140.424H160.304C159.228 140.424 158.355 141.297 158.355 142.373V154.068C158.355 155.145 159.228 156.017 160.304 156.017H171.999C173.076 156.017 173.948 155.145 173.948 154.068V142.373C173.948 141.297 173.076 140.424 171.999 140.424Z" fill="#4EDDBB"/>
<path d="M191.492 140.424H179.797C178.721 140.424 177.848 141.297 177.848 142.373V154.068C177.848 155.145 178.721 156.017 179.797 156.017H191.492C192.569 156.017 193.441 155.145 193.441 154.068V142.373C193.441 141.297 192.569 140.424 191.492 140.424Z" fill="#4EDDBB"/>
<path d="M210.982 140.424H199.287C198.211 140.424 197.338 141.297 197.338 142.373V154.068C197.338 155.145 198.211 156.017 199.287 156.017H210.982C212.059 156.017 212.931 155.145 212.931 154.068V142.373C212.931 141.297 212.059 140.424 210.982 140.424Z" fill="#4EDDBB"/>
<path d="M230.474 140.424H218.779C217.703 140.424 216.83 141.297 216.83 142.373V154.068C216.83 155.145 217.703 156.017 218.779 156.017H230.474C231.551 156.017 232.423 155.145 232.423 154.068V142.373C232.423 141.297 231.551 140.424 230.474 140.424Z" fill="#4EDDBB"/>
<path d="M249.966 140.424H238.271C237.195 140.424 236.322 141.297 236.322 142.373V154.068C236.322 155.145 237.195 156.017 238.271 156.017H249.966C251.043 156.017 251.915 155.145 251.915 154.068V142.373C251.915 141.297 251.043 140.424 249.966 140.424Z" fill="#4EDDBB"/>
<path d="M269.458 140.424H257.763C256.687 140.424 255.814 141.297 255.814 142.373V154.068C255.814 155.145 256.687 156.017 257.763 156.017H269.458C270.535 156.017 271.407 155.145 271.407 154.068V142.373C271.407 141.297 270.535 140.424 269.458 140.424Z" fill="#4EDDBB"/>
<path d="M288.949 140.424H277.254C276.178 140.424 275.305 141.297 275.305 142.373V154.068C275.305 155.145 276.178 156.017 277.254 156.017H288.949C290.026 156.017 290.898 155.145 290.898 154.068V142.373C290.898 141.297 290.026 140.424 288.949 140.424Z" fill="#4EDDBB"/>
<path d="M308.439 140.424H296.744C295.668 140.424 294.795 141.297 294.795 142.373V154.068C294.795 155.145 295.668 156.017 296.744 156.017H308.439C309.516 156.017 310.388 155.145 310.388 154.068V142.373C310.388 141.297 309.516 140.424 308.439 140.424Z" fill="#4EDDBB"/>
<path d="M327.931 140.424H316.236C315.16 140.424 314.287 141.297 314.287 142.373V154.068C314.287 155.145 315.16 156.017 316.236 156.017H327.931C329.008 156.017 329.88 155.145 329.88 154.068V142.373C329.88 141.297 329.008 140.424 327.931 140.424Z" fill="#4EDDBB"/>
<path d="M347.424 140.424H335.729C334.653 140.424 333.78 141.297 333.78 142.373V154.068C333.78 155.145 334.653 156.017 335.729 156.017H347.424C348.501 156.017 349.373 155.145 349.373 154.068V142.373C349.373 141.297 348.501 140.424 347.424 140.424Z" fill="#4EDDBB"/>
<path d="M366.916 140.424H355.221C354.145 140.424 353.272 141.297 353.272 142.373V154.068C353.272 155.145 354.145 156.017 355.221 156.017H366.916C367.993 156.017 368.865 155.145 368.865 154.068V142.373C368.865 141.297 367.993 140.424 366.916 140.424Z" fill="#4EDDBB"/>
<path d="M386.408 140.424H374.713C373.637 140.424 372.764 141.297 372.764 142.373V154.068C372.764 155.145 373.637 156.017 374.713 156.017H386.408C387.485 156.017 388.357 155.145 388.357 154.068V142.373C388.357 141.297 387.485 140.424 386.408 140.424Z" fill="#4EDDBB"/>
<path d="M405.898 140.424H394.203C393.127 140.424 392.254 141.297 392.254 142.373V154.068C392.254 155.145 393.127 156.017 394.203 156.017H405.898C406.975 156.017 407.847 155.145 407.847 154.068V142.373C407.847 141.297 406.975 140.424 405.898 140.424Z" fill="#4EDDBB"/>
<path d="M425.39 140.424H413.695C412.619 140.424 411.746 141.297 411.746 142.373V154.068C411.746 155.145 412.619 156.017 413.695 156.017H425.39C426.467 156.017 427.339 155.145 427.339 154.068V142.373C427.339 141.297 426.467 140.424 425.39 140.424Z" fill="#4EDDBB"/>
<path d="M444.88 140.424H433.185C432.109 140.424 431.236 141.297 431.236 142.373V154.068C431.236 155.145 432.109 156.017 433.185 156.017H444.88C445.957 156.017 446.829 155.145 446.829 154.068V142.373C446.829 141.297 445.957 140.424 444.88 140.424Z" fill="#4EDDBB"/>
<path d="M16.0679 159.916H4.37298C3.29649 159.916 2.42383 160.789 2.42383 161.865V173.56C2.42383 174.637 3.29649 175.509 4.37298 175.509H16.0679C17.1444 175.509 18.017 174.637 18.017 173.56V161.865C18.017 160.789 17.1444 159.916 16.0679 159.916Z" fill="#4EDDBB"/>
<path d="M35.56 159.916H23.8651C22.7886 159.916 21.916 160.789 21.916 161.865V173.56C21.916 174.637 22.7886 175.509 23.8651 175.509H35.56C36.6365 175.509 37.5092 174.637 37.5092 173.56V161.865C37.5092 160.789 36.6365 159.916 35.56 159.916Z" fill="#4EDDBB"/>
<path d="M55.0505 159.916H43.3556C42.2792 159.916 41.4065 160.789 41.4065 161.865V173.56C41.4065 174.637 42.2792 175.509 43.3556 175.509H55.0505C56.127 175.509 56.9997 174.637 56.9997 173.56V161.865C56.9997 160.789 56.127 159.916 55.0505 159.916Z" fill="#4EDDBB"/>
<path d="M74.5427 159.916H62.8478C61.7713 159.916 60.8987 160.789 60.8987 161.865V173.56C60.8987 174.637 61.7713 175.509 62.8478 175.509H74.5427C75.6192 175.509 76.4919 174.637 76.4919 173.56V161.865C76.4919 160.789 75.6192 159.916 74.5427 159.916Z" fill="#4EDDBB"/>
<path d="M94.0346 159.916H82.3397C81.2633 159.916 80.3906 160.789 80.3906 161.865V173.56C80.3906 174.637 81.2633 175.509 82.3397 175.509H94.0346C95.1111 175.509 95.9838 174.637 95.9838 173.56V161.865C95.9838 160.789 95.1111 159.916 94.0346 159.916Z" fill="#4EDDBB"/>
<path d="M113.525 159.916H101.83C100.754 159.916 99.8809 160.789 99.8809 161.865V173.56C99.8809 174.637 100.754 175.509 101.83 175.509H113.525C114.601 175.509 115.474 174.637 115.474 173.56V161.865C115.474 160.789 114.601 159.916 113.525 159.916Z" fill="#4EDDBB"/>
<path d="M133.017 159.916H121.322C120.246 159.916 119.373 160.789 119.373 161.865V173.56C119.373 174.637 120.246 175.509 121.322 175.509H133.017C134.094 175.509 134.966 174.637 134.966 173.56V161.865C134.966 160.789 134.094 159.916 133.017 159.916Z" fill="#4EDDBB"/>
<path d="M152.507 159.916H140.812C139.736 159.916 138.863 160.789 138.863 161.865V173.56C138.863 174.637 139.736 175.509 140.812 175.509H152.507C153.584 175.509 154.456 174.637 154.456 173.56V161.865C154.456 160.789 153.584 159.916 152.507 159.916Z" fill="#4EDDBB"/>
<path d="M171.999 159.916H160.304C159.228 159.916 158.355 160.789 158.355 161.865V173.56C158.355 174.637 159.228 175.509 160.304 175.509H171.999C173.076 175.509 173.948 174.637 173.948 173.56V161.865C173.948 160.789 173.076 159.916 171.999 159.916Z" fill="#4EDDBB"/>
<path d="M191.492 159.916H179.797C178.721 159.916 177.848 160.789 177.848 161.865V173.56C177.848 174.637 178.721 175.509 179.797 175.509H191.492C192.569 175.509 193.441 174.637 193.441 173.56V161.865C193.441 160.789 192.569 159.916 191.492 159.916Z" fill="#4EDDBB"/>
<path d="M210.982 159.916H199.287C198.211 159.916 197.338 160.789 197.338 161.865V173.56C197.338 174.637 198.211 175.509 199.287 175.509H210.982C212.059 175.509 212.931 174.637 212.931 173.56V161.865C212.931 160.789 212.059 159.916 210.982 159.916Z" fill="#4EDDBB"/>
<path d="M230.474 159.916H218.779C217.703 159.916 216.83 160.789 216.83 161.865V173.56C216.83 174.637 217.703 175.509 218.779 175.509H230.474C231.551 175.509 232.423 174.637 232.423 173.56V161.865C232.423 160.789 231.551 159.916 230.474 159.916Z" fill="#4EDDBB"/>
<path d="M249.966 159.916H238.271C237.195 159.916 236.322 160.789 236.322 161.865V173.56C236.322 174.637 237.195 175.509 238.271 175.509H249.966C251.043 175.509 251.915 174.637 251.915 173.56V161.865C251.915 160.789 251.043 159.916 249.966 159.916Z" fill="#4EDDBB"/>
<path d="M269.458 159.916H257.763C256.687 159.916 255.814 160.789 255.814 161.865V173.56C255.814 174.637 256.687 175.509 257.763 175.509H269.458C270.535 175.509 271.407 174.637 271.407 173.56V161.865C271.407 160.789 270.535 159.916 269.458 159.916Z" fill="#4EDDBB"/>
<path d="M288.949 159.916H277.254C276.178 159.916 275.305 160.789 275.305 161.865V173.56C275.305 174.637 276.178 175.509 277.254 175.509H288.949C290.026 175.509 290.898 174.637 290.898 173.56V161.865C290.898 160.789 290.026 159.916 288.949 159.916Z" fill="#4EDDBB"/>
<path d="M308.439 159.916H296.744C295.668 159.916 294.795 160.789 294.795 161.865V173.56C294.795 174.637 295.668 175.509 296.744 175.509H308.439C309.516 175.509 310.388 174.637 310.388 173.56V161.865C310.388 160.789 309.516 159.916 308.439 159.916Z" fill="#4EDDBB"/>
<path d="M327.931 159.916H316.236C315.16 159.916 314.287 160.789 314.287 161.865V173.56C314.287 174.637 315.16 175.509 316.236 175.509H327.931C329.008 175.509 329.88 174.637 329.88 173.56V161.865C329.88 160.789 329.008 159.916 327.931 159.916Z" fill="#4EDDBB"/>
<path d="M347.424 159.916H335.729C334.653 159.916 333.78 160.789 333.78 161.865V173.56C333.78 174.637 334.653 175.509 335.729 175.509H347.424C348.501 175.509 349.373 174.637 349.373 173.56V161.865C349.373 160.789 348.501 159.916 347.424 159.916Z" fill="#4EDDBB"/>
<path d="M366.916 159.916H355.221C354.145 159.916 353.272 160.789 353.272 161.865V173.56C353.272 174.637 354.145 175.509 355.221 175.509H366.916C367.993 175.509 368.865 174.637 368.865 173.56V161.865C368.865 160.789 367.993 159.916 366.916 159.916Z" fill="#4EDDBB"/>
<path d="M386.408 159.916H374.713C373.637 159.916 372.764 160.789 372.764 161.865V173.56C372.764 174.637 373.637 175.509 374.713 175.509H386.408C387.485 175.509 388.357 174.637 388.357 173.56V161.865C388.357 160.789 387.485 159.916 386.408 159.916Z" fill="#4EDDBB"/>
<path d="M405.898 159.916H394.203C393.127 159.916 392.254 160.789 392.254 161.865V173.56C392.254 174.637 393.127 175.509 394.203 175.509H405.898C406.975 175.509 407.847 174.637 407.847 173.56V161.865C407.847 160.789 406.975 159.916 405.898 159.916Z" fill="#4EDDBB"/>
<path d="M425.39 159.916H413.695C412.619 159.916 411.746 160.789 411.746 161.865V173.56C411.746 174.637 412.619 175.509 413.695 175.509H425.39C426.467 175.509 427.339 174.637 427.339 173.56V161.865C427.339 160.789 426.467 159.916 425.39 159.916Z" fill="#4EDDBB"/>
<path d="M444.88 159.916H433.185C432.109 159.916 431.236 160.789 431.236 161.865V173.56C431.236 174.637 432.109 175.509 433.185 175.509H444.88C445.957 175.509 446.829 174.637 446.829 173.56V161.865C446.829 160.789 445.957 159.916 444.88 159.916Z" fill="#4EDDBB"/>
<path d="M464.373 159.916H452.678C451.602 159.916 450.729 160.789 450.729 161.865V173.56C450.729 174.637 451.602 175.509 452.678 175.509H464.373C465.45 175.509 466.322 174.637 466.322 173.56V161.865C466.322 160.789 465.45 159.916 464.373 159.916Z" fill="#4EDDBB"/>
<path d="M483.865 159.916H472.17C471.094 159.916 470.221 160.789 470.221 161.865V173.56C470.221 174.637 471.094 175.509 472.17 175.509H483.865C484.942 175.509 485.814 174.637 485.814 173.56V161.865C485.814 160.789 484.942 159.916 483.865 159.916Z" fill="#4EDDBB"/>
<path d="M503.357 159.916H491.662C490.586 159.916 489.713 160.789 489.713 161.865V173.56C489.713 174.637 490.586 175.509 491.662 175.509H503.357C504.434 175.509 505.306 174.637 505.306 173.56V161.865C505.306 160.789 504.434 159.916 503.357 159.916Z" fill="#4EDDBB"/>
<path d="M522.849 159.916H511.154C510.078 159.916 509.205 160.789 509.205 161.865V173.56C509.205 174.637 510.078 175.509 511.154 175.509H522.849C523.926 175.509 524.798 174.637 524.798 173.56V161.865C524.798 160.789 523.926 159.916 522.849 159.916Z" fill="#4EDDBB"/>
<path d="M542.339 159.916H530.644C529.568 159.916 528.695 160.789 528.695 161.865V173.56C528.695 174.637 529.568 175.509 530.644 175.509H542.339C543.416 175.509 544.288 174.637 544.288 173.56V161.865C544.288 160.789 543.416 159.916 542.339 159.916Z" fill="#4EDDBB"/>
<path d="M561.83 159.916H550.135C549.059 159.916 548.186 160.789 548.186 161.865V173.56C548.186 174.637 549.059 175.509 550.135 175.509H561.83C562.907 175.509 563.779 174.637 563.779 173.56V161.865C563.779 160.789 562.907 159.916 561.83 159.916Z" fill="#4EDDBB"/>
<path d="M581.322 159.916H569.627C568.551 159.916 567.678 160.789 567.678 161.865V173.56C567.678 174.637 568.551 175.509 569.627 175.509H581.322C582.399 175.509 583.271 174.637 583.271 173.56V161.865C583.271 160.789 582.399 159.916 581.322 159.916Z" fill="#4EDDBB"/>
<path d="M16.0679 179.408H4.37298C3.29649 179.408 2.42383 180.281 2.42383 181.357V193.052C2.42383 194.129 3.29649 195.001 4.37298 195.001H16.0679C17.1444 195.001 18.017 194.129 18.017 193.052V181.357C18.017 180.281 17.1444 179.408 16.0679 179.408Z" fill="#4EDDBB"/>
<path d="M35.56 179.408H23.8651C22.7886 179.408 21.916 180.281 21.916 181.357V193.052C21.916 194.129 22.7886 195.001 23.8651 195.001H35.56C36.6365 195.001 37.5092 194.129 37.5092 193.052V181.357C37.5092 180.281 36.6365 179.408 35.56 179.408Z" fill="#4EDDBB"/>
<path d="M55.0505 179.408H43.3556C42.2792 179.408 41.4065 180.281 41.4065 181.357V193.052C41.4065 194.129 42.2792 195.001 43.3556 195.001H55.0505C56.127 195.001 56.9997 194.129 56.9997 193.052V181.357C56.9997 180.281 56.127 179.408 55.0505 179.408Z" fill="#4EDDBB"/>
<path d="M74.5427 179.408H62.8478C61.7713 179.408 60.8987 180.281 60.8987 181.357V193.052C60.8987 194.129 61.7713 195.001 62.8478 195.001H74.5427C75.6192 195.001 76.4919 194.129 76.4919 193.052V181.357C76.4919 180.281 75.6192 179.408 74.5427 179.408Z" fill="#4EDDBB"/>
<path d="M94.0346 179.408H82.3397C81.2633 179.408 80.3906 180.281 80.3906 181.357V193.052C80.3906 194.129 81.2633 195.001 82.3397 195.001H94.0346C95.1111 195.001 95.9838 194.129 95.9838 193.052V181.357C95.9838 180.281 95.1111 179.408 94.0346 179.408Z" fill="#4EDDBB"/>
<path d="M113.525 179.408H101.83C100.754 179.408 99.8809 180.281 99.8809 181.357V193.052C99.8809 194.129 100.754 195.001 101.83 195.001H113.525C114.601 195.001 115.474 194.129 115.474 193.052V181.357C115.474 180.281 114.601 179.408 113.525 179.408Z" fill="#4EDDBB"/>
<path d="M133.017 179.408H121.322C120.246 179.408 119.373 180.281 119.373 181.357V193.052C119.373 194.129 120.246 195.001 121.322 195.001H133.017C134.094 195.001 134.966 194.129 134.966 193.052V181.357C134.966 180.281 134.094 179.408 133.017 179.408Z" fill="#4EDDBB"/>
<path d="M152.507 179.408H140.812C139.736 179.408 138.863 180.281 138.863 181.357V193.052C138.863 194.129 139.736 195.001 140.812 195.001H152.507C153.584 195.001 154.456 194.129 154.456 193.052V181.357C154.456 180.281 153.584 179.408 152.507 179.408Z" fill="#4EDDBB"/>
<path d="M171.999 179.408H160.304C159.228 179.408 158.355 180.281 158.355 181.357V193.052C158.355 194.129 159.228 195.001 160.304 195.001H171.999C173.076 195.001 173.948 194.129 173.948 193.052V181.357C173.948 180.281 173.076 179.408 171.999 179.408Z" fill="#4EDDBB"/>
<path d="M191.492 179.408H179.797C178.721 179.408 177.848 180.281 177.848 181.357V193.052C177.848 194.129 178.721 195.001 179.797 195.001H191.492C192.569 195.001 193.441 194.129 193.441 193.052V181.357C193.441 180.281 192.569 179.408 191.492 179.408Z" fill="#4EDDBB"/>
<path d="M210.982 179.408H199.287C198.211 179.408 197.338 180.281 197.338 181.357V193.052C197.338 194.129 198.211 195.001 199.287 195.001H210.982C212.059 195.001 212.931 194.129 212.931 193.052V181.357C212.931 180.281 212.059 179.408 210.982 179.408Z" fill="#4EDDBB"/>
<path d="M230.474 179.408H218.779C217.703 179.408 216.83 180.281 216.83 181.357V193.052C216.83 194.129 217.703 195.001 218.779 195.001H230.474C231.551 195.001 232.423 194.129 232.423 193.052V181.357C232.423 180.281 231.551 179.408 230.474 179.408Z" fill="#4EDDBB"/>
<path d="M249.966 179.408H238.271C237.195 179.408 236.322 180.281 236.322 181.357V193.052C236.322 194.129 237.195 195.001 238.271 195.001H249.966C251.043 195.001 251.915 194.129 251.915 193.052V181.357C251.915 180.281 251.043 179.408 249.966 179.408Z" fill="#4EDDBB"/>
<path d="M269.458 179.408H257.763C256.687 179.408 255.814 180.281 255.814 181.357V193.052C255.814 194.129 256.687 195.001 257.763 195.001H269.458C270.535 195.001 271.407 194.129 271.407 193.052V181.357C271.407 180.281 270.535 179.408 269.458 179.408Z" fill="#4EDDBB"/>
<path d="M288.949 179.408H277.254C276.178 179.408 275.305 180.281 275.305 181.357V193.052C275.305 194.129 276.178 195.001 277.254 195.001H288.949C290.026 195.001 290.898 194.129 290.898 193.052V181.357C290.898 180.281 290.026 179.408 288.949 179.408Z" fill="#4EDDBB"/>
<path d="M308.439 179.408H296.744C295.668 179.408 294.795 180.281 294.795 181.357V193.052C294.795 194.129 295.668 195.001 296.744 195.001H308.439C309.516 195.001 310.388 194.129 310.388 193.052V181.357C310.388 180.281 309.516 179.408 308.439 179.408Z" fill="#4EDDBB"/>
<path d="M327.931 179.408H316.236C315.16 179.408 314.287 180.281 314.287 181.357V193.052C314.287 194.129 315.16 195.001 316.236 195.001H327.931C329.008 195.001 329.88 194.129 329.88 193.052V181.357C329.88 180.281 329.008 179.408 327.931 179.408Z" fill="#4EDDBB"/>
<path d="M347.424 179.408H335.729C334.653 179.408 333.78 180.281 333.78 181.357V193.052C333.78 194.129 334.653 195.001 335.729 195.001H347.424C348.501 195.001 349.373 194.129 349.373 193.052V181.357C349.373 180.281 348.501 179.408 347.424 179.408Z" fill="#4EDDBB"/>
<path d="M366.916 179.408H355.221C354.145 179.408 353.272 180.281 353.272 181.357V193.052C353.272 194.129 354.145 195.001 355.221 195.001H366.916C367.993 195.001 368.865 194.129 368.865 193.052V181.357C368.865 180.281 367.993 179.408 366.916 179.408Z" fill="#4EDDBB"/>
<path d="M386.408 179.408H374.713C373.637 179.408 372.764 180.281 372.764 181.357V193.052C372.764 194.129 373.637 195.001 374.713 195.001H386.408C387.485 195.001 388.357 194.129 388.357 193.052V181.357C388.357 180.281 387.485 179.408 386.408 179.408Z" fill="#4EDDBB"/>
<path d="M405.898 179.408H394.203C393.127 179.408 392.254 180.281 392.254 181.357V193.052C392.254 194.129 393.127 195.001 394.203 195.001H405.898C406.975 195.001 407.847 194.129 407.847 193.052V181.357C407.847 180.281 406.975 179.408 405.898 179.408Z" fill="#4EDDBB"/>
</g>
</g>
<defs>
<clipPath id="clip0_1_2">
<rect width="583" height="277" fill="white"/>
</clipPath>
</defs>
</svg>
