<svg width="702" height="388" viewBox="0 0 702 388" fill="none" xmlns="http://www.w3.org/2000/svg">
<g opacity="0.05">
<rect x="696.111" width="15.4691" height="15.4691" rx="2" transform="rotate(90 696.111 0)" fill="white"/>
<rect x="665.174" width="15.4691" height="15.4691" rx="2" transform="rotate(90 665.174 0)" fill="white"/>
<rect x="634.234" width="15.4691" height="15.4691" rx="2" transform="rotate(90 634.234 0)" fill="white"/>
<rect x="603.297" width="15.4691" height="15.4691" rx="2" transform="rotate(90 603.297 0)" fill="white"/>
<rect x="572.357" width="15.4691" height="15.4691" rx="2" transform="rotate(90 572.357 0)" fill="white"/>
<rect x="541.42" width="15.4691" height="15.4691" rx="2" transform="rotate(90 541.42 0)" fill="white"/>
<rect x="510.482" width="15.4691" height="15.4691" rx="2" transform="rotate(90 510.482 0)" fill="white"/>
<rect x="479.543" width="15.4691" height="15.4691" rx="2" transform="rotate(90 479.543 0)" fill="white"/>
<rect x="448.605" width="15.4691" height="15.4691" rx="2" transform="rotate(90 448.605 0)" fill="white"/>
<rect x="417.666" width="15.4691" height="15.4691" rx="2" transform="rotate(90 417.666 0)" fill="white"/>
<rect x="386.729" width="15.4691" height="15.4691" rx="2" transform="rotate(90 386.729 0)" fill="white"/>
<rect x="355.791" width="15.4691" height="15.4691" rx="2" transform="rotate(90 355.791 0)" fill="white"/>
<rect x="324.852" width="15.4691" height="15.4691" rx="2" transform="rotate(90 324.852 0)" fill="white"/>
<rect x="293.914" width="15.4691" height="15.4691" rx="2" transform="rotate(90 293.914 0)" fill="white"/>
<rect x="262.975" width="15.4691" height="15.4691" rx="2" transform="rotate(90 262.975 0)" fill="white"/>
<rect x="232.037" width="15.4691" height="15.4691" rx="2" transform="rotate(90 232.037 0)" fill="white"/>
<rect x="201.1" width="15.4691" height="15.4691" rx="2" transform="rotate(90 201.1 0)" fill="white"/>
<rect x="170.161" width="15.4691" height="15.4691" rx="2" transform="rotate(90 170.161 0)" fill="white"/>
<rect x="139.223" width="15.4691" height="15.4691" rx="2" transform="rotate(90 139.223 0)" fill="white"/>
<rect x="108.283" width="15.4691" height="15.4691" rx="2" transform="rotate(90 108.283 0)" fill="white"/>
<rect x="77.3457" width="15.4691" height="15.4691" rx="2" transform="rotate(90 77.3457 0)" fill="white"/>
<rect x="46.4082" width="15.4691" height="15.4691" rx="2" transform="rotate(90 46.4082 0)" fill="white"/>
<rect x="15.4692" width="15.4691" height="15.4691" rx="2" transform="rotate(90 15.4692 0)" fill="white"/>
<rect x="696.111" y="30.9375" width="15.4691" height="15.4691" rx="2" transform="rotate(90 696.111 30.9375)" fill="white"/>
<rect x="665.174" y="30.9375" width="15.4691" height="15.4691" rx="2" transform="rotate(90 665.174 30.9375)" fill="white"/>
<rect x="634.234" y="30.9375" width="15.4691" height="15.4691" rx="2" transform="rotate(90 634.234 30.9375)" fill="white"/>
<rect x="603.297" y="30.9375" width="15.4691" height="15.4691" rx="2" transform="rotate(90 603.297 30.9375)" fill="white"/>
<rect x="572.357" y="30.9375" width="15.4691" height="15.4691" rx="2" transform="rotate(90 572.357 30.9375)" fill="white"/>
<rect x="541.42" y="30.9375" width="15.4691" height="15.4691" rx="2" transform="rotate(90 541.42 30.9375)" fill="white"/>
<rect x="510.482" y="30.9375" width="15.4691" height="15.4691" rx="2" transform="rotate(90 510.482 30.9375)" fill="white"/>
<rect x="479.543" y="30.9375" width="15.4691" height="15.4691" rx="2" transform="rotate(90 479.543 30.9375)" fill="white"/>
<rect x="448.605" y="30.9375" width="15.4691" height="15.4691" rx="2" transform="rotate(90 448.605 30.9375)" fill="white"/>
<rect x="417.666" y="30.9375" width="15.4691" height="15.4691" rx="2" transform="rotate(90 417.666 30.9375)" fill="white"/>
<rect x="386.729" y="30.9375" width="15.4691" height="15.4691" rx="2" transform="rotate(90 386.729 30.9375)" fill="white"/>
<rect x="355.791" y="30.9375" width="15.4691" height="15.4691" rx="2" transform="rotate(90 355.791 30.9375)" fill="white"/>
<rect x="324.852" y="30.9375" width="15.4691" height="15.4691" rx="2" transform="rotate(90 324.852 30.9375)" fill="white"/>
<rect x="293.914" y="30.9375" width="15.4691" height="15.4691" rx="2" transform="rotate(90 293.914 30.9375)" fill="white"/>
<rect x="262.975" y="30.9375" width="15.4691" height="15.4691" rx="2" transform="rotate(90 262.975 30.9375)" fill="white"/>
<rect x="232.037" y="30.9375" width="15.4691" height="15.4691" rx="2" transform="rotate(90 232.037 30.9375)" fill="white"/>
<rect x="201.1" y="30.9375" width="15.4691" height="15.4691" rx="2" transform="rotate(90 201.1 30.9375)" fill="white"/>
<rect x="170.162" y="30.9375" width="15.4691" height="15.4691" rx="2" transform="rotate(90 170.162 30.9375)" fill="white"/>
<rect x="139.223" y="30.9375" width="15.4691" height="15.4691" rx="2" transform="rotate(90 139.223 30.9375)" fill="white"/>
<rect x="108.283" y="30.9375" width="15.4691" height="15.4691" rx="2" transform="rotate(90 108.283 30.9375)" fill="white"/>
<rect x="77.3477" y="30.9375" width="15.4691" height="15.4691" rx="2" transform="rotate(90 77.3477 30.9375)" fill="white"/>
<rect x="46.4082" y="30.9375" width="15.4691" height="15.4691" rx="2" transform="rotate(90 46.4082 30.9375)" fill="white"/>
<rect x="15.4688" y="30.9375" width="15.4691" height="15.4691" rx="2" transform="rotate(90 15.4688 30.9375)" fill="white"/>
<rect x="696.111" y="61.875" width="15.4691" height="15.4691" rx="2" transform="rotate(90 696.111 61.875)" fill="white"/>
<rect x="665.174" y="61.875" width="15.4691" height="15.4691" rx="2" transform="rotate(90 665.174 61.875)" fill="white"/>
<rect x="634.234" y="61.877" width="15.4691" height="15.4691" rx="2" transform="rotate(90 634.234 61.877)" fill="white"/>
<rect x="603.297" y="61.877" width="15.4691" height="15.4691" rx="2" transform="rotate(90 603.297 61.877)" fill="white"/>
<rect x="572.357" y="61.877" width="15.4691" height="15.4691" rx="2" transform="rotate(90 572.357 61.877)" fill="white"/>
<rect x="541.42" y="61.877" width="15.4691" height="15.4691" rx="2" transform="rotate(90 541.42 61.877)" fill="white"/>
<rect x="510.482" y="61.877" width="15.4691" height="15.4691" rx="2" transform="rotate(90 510.482 61.877)" fill="white"/>
<rect x="479.543" y="61.877" width="15.4691" height="15.4691" rx="2" transform="rotate(90 479.543 61.877)" fill="white"/>
<rect x="448.605" y="61.875" width="15.4691" height="15.4691" rx="2" transform="rotate(90 448.605 61.875)" fill="white"/>
<rect x="417.666" y="61.875" width="15.4691" height="15.4691" rx="2" transform="rotate(90 417.666 61.875)" fill="white"/>
<rect x="386.729" y="61.877" width="15.4691" height="15.4691" rx="2" transform="rotate(90 386.729 61.877)" fill="white"/>
<rect x="355.791" y="61.875" width="15.4691" height="15.4691" rx="2" transform="rotate(90 355.791 61.875)" fill="white"/>
<rect x="324.852" y="61.875" width="15.4691" height="15.4691" rx="2" transform="rotate(90 324.852 61.875)" fill="white"/>
<rect x="293.914" y="61.875" width="15.4691" height="15.4691" rx="2" transform="rotate(90 293.914 61.875)" fill="white"/>
<rect x="262.975" y="61.877" width="15.4691" height="15.4691" rx="2" transform="rotate(90 262.975 61.877)" fill="white"/>
<rect x="232.037" y="61.877" width="15.4691" height="15.4691" rx="2" transform="rotate(90 232.037 61.877)" fill="white"/>
<rect x="201.1" y="61.877" width="15.4691" height="15.4691" rx="2" transform="rotate(90 201.1 61.877)" fill="white"/>
<rect x="170.162" y="61.877" width="15.4691" height="15.4691" rx="2" transform="rotate(90 170.162 61.877)" fill="white"/>
<rect x="139.223" y="61.877" width="15.4691" height="15.4691" rx="2" transform="rotate(90 139.223 61.877)" fill="white"/>
<rect x="108.283" y="61.875" width="15.4691" height="15.4691" rx="2" transform="rotate(90 108.283 61.875)" fill="white"/>
<rect x="77.3477" y="61.877" width="15.4691" height="15.4691" rx="2" transform="rotate(90 77.3477 61.877)" fill="white"/>
<rect x="46.4082" y="61.875" width="15.4691" height="15.4691" rx="2" transform="rotate(90 46.4082 61.875)" fill="white"/>
<rect x="15.4688" y="61.875" width="15.4691" height="15.4691" rx="2" transform="rotate(90 15.4688 61.875)" fill="white"/>
<rect x="696.111" y="92.8145" width="15.4691" height="15.4691" rx="2" transform="rotate(90 696.111 92.8145)" fill="white"/>
<rect x="665.174" y="92.8145" width="15.4691" height="15.4691" rx="2" transform="rotate(90 665.174 92.8145)" fill="white"/>
<rect x="634.234" y="92.8145" width="15.4691" height="15.4691" rx="2" transform="rotate(90 634.234 92.8145)" fill="white"/>
<rect x="603.297" y="92.8145" width="15.4691" height="15.4691" rx="2" transform="rotate(90 603.297 92.8145)" fill="white"/>
<rect x="572.357" y="92.8145" width="15.4691" height="15.4691" rx="2" transform="rotate(90 572.357 92.8145)" fill="white"/>
<rect x="541.42" y="92.8145" width="15.4691" height="15.4691" rx="2" transform="rotate(90 541.42 92.8145)" fill="white"/>
<rect x="510.482" y="92.8145" width="15.4691" height="15.4691" rx="2" transform="rotate(90 510.482 92.8145)" fill="white"/>
<rect x="479.543" y="92.8145" width="15.4691" height="15.4691" rx="2" transform="rotate(90 479.543 92.8145)" fill="white"/>
<rect x="448.605" y="92.8145" width="15.4691" height="15.4691" rx="2" transform="rotate(90 448.605 92.8145)" fill="white"/>
<rect x="417.666" y="92.8145" width="15.4691" height="15.4691" rx="2" transform="rotate(90 417.666 92.8145)" fill="white"/>
<rect x="386.729" y="92.8145" width="15.4691" height="15.4691" rx="2" transform="rotate(90 386.729 92.8145)" fill="white"/>
<rect x="355.791" y="92.8145" width="15.4691" height="15.4691" rx="2" transform="rotate(90 355.791 92.8145)" fill="white"/>
<rect x="324.852" y="92.8145" width="15.4691" height="15.4691" rx="2" transform="rotate(90 324.852 92.8145)" fill="white"/>
<rect x="293.914" y="92.8145" width="15.4691" height="15.4691" rx="2" transform="rotate(90 293.914 92.8145)" fill="white"/>
<rect x="262.975" y="92.8145" width="15.4691" height="15.4691" rx="2" transform="rotate(90 262.975 92.8145)" fill="white"/>
<rect x="232.037" y="92.8145" width="15.4691" height="15.4691" rx="2" transform="rotate(90 232.037 92.8145)" fill="white"/>
<rect x="201.1" y="92.8145" width="15.4691" height="15.4691" rx="2" transform="rotate(90 201.1 92.8145)" fill="white"/>
<rect x="170.162" y="92.8145" width="15.4691" height="15.4691" rx="2" transform="rotate(90 170.162 92.8145)" fill="white"/>
<rect x="139.223" y="92.8145" width="15.4691" height="15.4691" rx="2" transform="rotate(90 139.223 92.8145)" fill="white"/>
<rect x="108.283" y="92.8145" width="15.4691" height="15.4691" rx="2" transform="rotate(90 108.283 92.8145)" fill="white"/>
<rect x="77.3477" y="92.8145" width="15.4691" height="15.4691" rx="2" transform="rotate(90 77.3477 92.8145)" fill="white"/>
<rect x="46.4082" y="92.8145" width="15.4691" height="15.4691" rx="2" transform="rotate(90 46.4082 92.8145)" fill="white"/>
<rect x="15.4688" y="92.8145" width="15.4691" height="15.4691" rx="2" transform="rotate(90 15.4688 92.8145)" fill="white"/>
<rect x="696.111" y="123.752" width="15.4691" height="15.4691" rx="2" transform="rotate(90 696.111 123.752)" fill="white"/>
<rect x="665.174" y="123.752" width="15.4691" height="15.4691" rx="2" transform="rotate(90 665.174 123.752)" fill="white"/>
<rect x="634.234" y="123.754" width="15.4691" height="15.4691" rx="2" transform="rotate(90 634.234 123.754)" fill="white"/>
<rect x="603.297" y="123.754" width="15.4691" height="15.4691" rx="2" transform="rotate(90 603.297 123.754)" fill="white"/>
<rect x="572.357" y="123.754" width="15.4691" height="15.4691" rx="2" transform="rotate(90 572.357 123.754)" fill="white"/>
<rect x="541.42" y="123.754" width="15.4691" height="15.4691" rx="2" transform="rotate(90 541.42 123.754)" fill="white"/>
<rect x="510.482" y="123.754" width="15.4691" height="15.4691" rx="2" transform="rotate(90 510.482 123.754)" fill="white"/>
<rect x="479.543" y="123.754" width="15.4691" height="15.4691" rx="2" transform="rotate(90 479.543 123.754)" fill="white"/>
<rect x="448.605" y="123.754" width="15.4691" height="15.4691" rx="2" transform="rotate(90 448.605 123.754)" fill="white"/>
<rect x="417.666" y="123.754" width="15.4691" height="15.4691" rx="2" transform="rotate(90 417.666 123.754)" fill="white"/>
<rect x="386.729" y="123.754" width="15.4691" height="15.4691" rx="2" transform="rotate(90 386.729 123.754)" fill="white"/>
<rect x="355.791" y="123.754" width="15.4691" height="15.4691" rx="2" transform="rotate(90 355.791 123.754)" fill="white"/>
<rect x="324.852" y="123.754" width="15.4691" height="15.4691" rx="2" transform="rotate(90 324.852 123.754)" fill="white"/>
<rect x="293.914" y="123.754" width="15.4691" height="15.4691" rx="2" transform="rotate(90 293.914 123.754)" fill="white"/>
<rect x="262.975" y="123.752" width="15.4691" height="15.4691" rx="2" transform="rotate(90 262.975 123.752)" fill="white"/>
<rect x="232.037" y="123.754" width="15.4691" height="15.4691" rx="2" transform="rotate(90 232.037 123.754)" fill="white"/>
<rect x="201.1" y="123.752" width="15.4691" height="15.4691" rx="2" transform="rotate(90 201.1 123.752)" fill="white"/>
<rect x="170.162" y="123.754" width="15.4691" height="15.4691" rx="2" transform="rotate(90 170.162 123.754)" fill="white"/>
<rect x="139.223" y="123.754" width="15.4691" height="15.4691" rx="2" transform="rotate(90 139.223 123.754)" fill="white"/>
<rect x="108.283" y="123.752" width="15.4691" height="15.4691" rx="2" transform="rotate(90 108.283 123.752)" fill="white"/>
<rect x="77.3477" y="123.754" width="15.4691" height="15.4691" rx="2" transform="rotate(90 77.3477 123.754)" fill="white"/>
<rect x="46.4082" y="123.752" width="15.4691" height="15.4691" rx="2" transform="rotate(90 46.4082 123.752)" fill="white"/>
<rect x="15.4688" y="123.752" width="15.4691" height="15.4691" rx="2" transform="rotate(90 15.4688 123.752)" fill="white"/>
<rect x="696.111" y="154.691" width="15.4691" height="15.4691" rx="2" transform="rotate(90 696.111 154.691)" fill="white"/>
<rect x="665.174" y="154.691" width="15.4691" height="15.4691" rx="2" transform="rotate(90 665.174 154.691)" fill="white"/>
<rect x="634.234" y="154.691" width="15.4691" height="15.4691" rx="2" transform="rotate(90 634.234 154.691)" fill="white"/>
<rect opacity="0.6" x="603.297" y="154.691" width="15.4691" height="15.4691" rx="2" transform="rotate(90 603.297 154.691)" fill="white"/>
<rect x="572.357" y="154.691" width="15.4691" height="15.4691" rx="2" transform="rotate(90 572.357 154.691)" fill="white"/>
<rect x="541.42" y="154.691" width="15.4691" height="15.4691" rx="2" transform="rotate(90 541.42 154.691)" fill="white"/>
<rect x="510.482" y="154.691" width="15.4691" height="15.4691" rx="2" transform="rotate(90 510.482 154.691)" fill="white"/>
<rect x="479.543" y="154.691" width="15.4691" height="15.4691" rx="2" transform="rotate(90 479.543 154.691)" fill="white"/>
<rect x="448.605" y="154.691" width="15.4691" height="15.4691" rx="2" transform="rotate(90 448.605 154.691)" fill="white"/>
<rect x="417.666" y="154.691" width="15.4691" height="15.4691" rx="2" transform="rotate(90 417.666 154.691)" fill="white"/>
<rect x="386.729" y="154.691" width="15.4691" height="15.4691" rx="2" transform="rotate(90 386.729 154.691)" fill="white"/>
<rect x="355.791" y="154.691" width="15.4691" height="15.4691" rx="2" transform="rotate(90 355.791 154.691)" fill="white"/>
<rect x="324.852" y="154.691" width="15.4691" height="15.4691" rx="2" transform="rotate(90 324.852 154.691)" fill="white"/>
<rect x="293.914" y="154.691" width="15.4691" height="15.4691" rx="2" transform="rotate(90 293.914 154.691)" fill="white"/>
<rect x="262.975" y="154.691" width="15.4691" height="15.4691" rx="2" transform="rotate(90 262.975 154.691)" fill="white"/>
<rect x="232.037" y="154.691" width="15.4691" height="15.4691" rx="2" transform="rotate(90 232.037 154.691)" fill="white"/>
<rect x="201.1" y="154.691" width="15.4691" height="15.4691" rx="2" transform="rotate(90 201.1 154.691)" fill="white"/>
<rect x="170.161" y="154.691" width="15.4691" height="15.4691" rx="2" transform="rotate(90 170.161 154.691)" fill="white"/>
<rect x="139.223" y="154.691" width="15.4691" height="15.4691" rx="2" transform="rotate(90 139.223 154.691)" fill="white"/>
<rect x="108.283" y="154.691" width="15.4691" height="15.4691" rx="2" transform="rotate(90 108.283 154.691)" fill="white"/>
<rect x="77.3462" y="154.691" width="15.4691" height="15.4691" rx="2" transform="rotate(90 77.3462 154.691)" fill="white"/>
<rect x="46.4082" y="154.691" width="15.4691" height="15.4691" rx="2" transform="rotate(90 46.4082 154.691)" fill="white"/>
<rect x="15.4688" y="154.691" width="15.4691" height="15.4691" rx="2" transform="rotate(90 15.4688 154.691)" fill="white"/>
<rect x="696.111" y="185.629" width="15.4691" height="15.4691" rx="2" transform="rotate(90 696.111 185.629)" fill="white"/>
<rect x="665.174" y="185.629" width="15.4691" height="15.4691" rx="2" transform="rotate(90 665.174 185.629)" fill="white"/>
<rect x="634.234" y="185.629" width="15.4691" height="15.4691" rx="2" transform="rotate(90 634.234 185.629)" fill="white"/>
<rect x="603.297" y="185.629" width="15.4691" height="15.4691" rx="2" transform="rotate(90 603.297 185.629)" fill="white"/>
<rect x="572.357" y="185.629" width="15.4691" height="15.4691" rx="2" transform="rotate(90 572.357 185.629)" fill="white"/>
<rect x="541.42" y="185.629" width="15.4691" height="15.4691" rx="2" transform="rotate(90 541.42 185.629)" fill="white"/>
<rect x="510.482" y="185.629" width="15.4691" height="15.4691" rx="2" transform="rotate(90 510.482 185.629)" fill="white"/>
<rect x="479.543" y="185.629" width="15.4691" height="15.4691" rx="2" transform="rotate(90 479.543 185.629)" fill="white"/>
<rect x="448.605" y="185.629" width="15.4691" height="15.4691" rx="2" transform="rotate(90 448.605 185.629)" fill="white"/>
<rect x="417.666" y="185.629" width="15.4691" height="15.4691" rx="2" transform="rotate(90 417.666 185.629)" fill="white"/>
<rect x="386.729" y="185.629" width="15.4691" height="15.4691" rx="2" transform="rotate(90 386.729 185.629)" fill="white"/>
<rect x="355.791" y="185.629" width="15.4691" height="15.4691" rx="2" transform="rotate(90 355.791 185.629)" fill="white"/>
<rect x="324.852" y="185.629" width="15.4691" height="15.4691" rx="2" transform="rotate(90 324.852 185.629)" fill="white"/>
<rect x="293.914" y="185.629" width="15.4691" height="15.4691" rx="2" transform="rotate(90 293.914 185.629)" fill="white"/>
<rect x="262.975" y="185.629" width="15.4691" height="15.4691" rx="2" transform="rotate(90 262.975 185.629)" fill="white"/>
<rect x="232.037" y="185.629" width="15.4691" height="15.4691" rx="2" transform="rotate(90 232.037 185.629)" fill="white"/>
<rect x="201.1" y="185.629" width="15.4691" height="15.4691" rx="2" transform="rotate(90 201.1 185.629)" fill="white"/>
<rect x="170.162" y="185.629" width="15.4691" height="15.4691" rx="2" transform="rotate(90 170.162 185.629)" fill="white"/>
<rect x="139.223" y="185.629" width="15.4691" height="15.4691" rx="2" transform="rotate(90 139.223 185.629)" fill="white"/>
<rect x="108.283" y="185.629" width="15.4691" height="15.4691" rx="2" transform="rotate(90 108.283 185.629)" fill="white"/>
<rect x="77.3477" y="185.629" width="15.4691" height="15.4691" rx="2" transform="rotate(90 77.3477 185.629)" fill="white"/>
<rect x="46.4082" y="185.629" width="15.4691" height="15.4691" rx="2" transform="rotate(90 46.4082 185.629)" fill="white"/>
<rect x="15.4688" y="185.629" width="15.4691" height="15.4691" rx="2" transform="rotate(90 15.4688 185.629)" fill="white"/>
<rect x="696.111" y="216.568" width="15.4691" height="15.4691" rx="2" transform="rotate(90 696.111 216.568)" fill="white"/>
<rect x="665.174" y="216.568" width="15.4691" height="15.4691" rx="2" transform="rotate(90 665.174 216.568)" fill="white"/>
<rect x="634.234" y="216.568" width="15.4691" height="15.4691" rx="2" transform="rotate(90 634.234 216.568)" fill="white"/>
<rect x="603.297" y="216.566" width="15.4691" height="15.4691" rx="2" transform="rotate(90 603.297 216.566)" fill="white"/>
<rect x="572.357" y="216.566" width="15.4691" height="15.4691" rx="2" transform="rotate(90 572.357 216.566)" fill="white"/>
<rect x="541.42" y="216.566" width="15.4691" height="15.4691" rx="2" transform="rotate(90 541.42 216.566)" fill="white"/>
<rect x="510.482" y="216.566" width="15.4691" height="15.4691" rx="2" transform="rotate(90 510.482 216.566)" fill="white"/>
<rect x="479.543" y="216.566" width="15.4691" height="15.4691" rx="2" transform="rotate(90 479.543 216.566)" fill="white"/>
<rect x="448.605" y="216.566" width="15.4691" height="15.4691" rx="2" transform="rotate(90 448.605 216.566)" fill="white"/>
<rect x="417.666" y="216.566" width="15.4691" height="15.4691" rx="2" transform="rotate(90 417.666 216.566)" fill="white"/>
<rect x="386.729" y="216.566" width="15.4691" height="15.4691" rx="2" transform="rotate(90 386.729 216.566)" fill="white"/>
<rect x="355.791" y="216.566" width="15.4691" height="15.4691" rx="2" transform="rotate(90 355.791 216.566)" fill="white"/>
<rect x="324.852" y="216.566" width="15.4691" height="15.4691" rx="2" transform="rotate(90 324.852 216.566)" fill="white"/>
<rect x="293.914" y="216.566" width="15.4691" height="15.4691" rx="2" transform="rotate(90 293.914 216.566)" fill="white"/>
<rect x="262.975" y="216.566" width="15.4691" height="15.4691" rx="2" transform="rotate(90 262.975 216.566)" fill="white"/>
<rect x="232.037" y="216.566" width="15.4691" height="15.4691" rx="2" transform="rotate(90 232.037 216.566)" fill="white"/>
<rect x="201.1" y="216.566" width="15.4691" height="15.4691" rx="2" transform="rotate(90 201.1 216.566)" fill="white"/>
<rect x="170.162" y="216.566" width="15.4691" height="15.4691" rx="2" transform="rotate(90 170.162 216.566)" fill="white"/>
<rect x="139.223" y="216.566" width="15.4691" height="15.4691" rx="2" transform="rotate(90 139.223 216.566)" fill="white"/>
<rect x="108.283" y="216.566" width="15.4691" height="15.4691" rx="2" transform="rotate(90 108.283 216.566)" fill="white"/>
<rect x="77.3477" y="216.566" width="15.4691" height="15.4691" rx="2" transform="rotate(90 77.3477 216.566)" fill="white"/>
<rect x="46.4082" y="216.566" width="15.4691" height="15.4691" rx="2" transform="rotate(90 46.4082 216.566)" fill="white"/>
<rect x="15.4688" y="216.566" width="15.4691" height="15.4691" rx="2" transform="rotate(90 15.4688 216.566)" fill="white"/>
<rect x="696.111" y="247.506" width="15.4691" height="15.4691" rx="2" transform="rotate(90 696.111 247.506)" fill="white"/>
<rect x="665.174" y="247.506" width="15.4691" height="15.4691" rx="2" transform="rotate(90 665.174 247.506)" fill="white"/>
<rect x="634.234" y="247.506" width="15.4691" height="15.4691" rx="2" transform="rotate(90 634.234 247.506)" fill="white"/>
<rect x="603.297" y="247.506" width="15.4691" height="15.4691" rx="2" transform="rotate(90 603.297 247.506)" fill="white"/>
<rect x="572.357" y="247.506" width="15.4691" height="15.4691" rx="2" transform="rotate(90 572.357 247.506)" fill="white"/>
<rect x="541.42" y="247.506" width="15.4691" height="15.4691" rx="2" transform="rotate(90 541.42 247.506)" fill="white"/>
<rect x="510.482" y="247.506" width="15.4691" height="15.4691" rx="2" transform="rotate(90 510.482 247.506)" fill="white"/>
<rect x="479.543" y="247.506" width="15.4691" height="15.4691" rx="2" transform="rotate(90 479.543 247.506)" fill="white"/>
<rect x="448.605" y="247.506" width="15.4691" height="15.4691" rx="2" transform="rotate(90 448.605 247.506)" fill="white"/>
<rect x="417.666" y="247.506" width="15.4691" height="15.4691" rx="2" transform="rotate(90 417.666 247.506)" fill="white"/>
<rect x="386.729" y="247.506" width="15.4691" height="15.4691" rx="2" transform="rotate(90 386.729 247.506)" fill="white"/>
<rect x="355.791" y="247.506" width="15.4691" height="15.4691" rx="2" transform="rotate(90 355.791 247.506)" fill="white"/>
<rect x="324.852" y="247.506" width="15.4691" height="15.4691" rx="2" transform="rotate(90 324.852 247.506)" fill="white"/>
<rect x="293.914" y="247.506" width="15.4691" height="15.4691" rx="2" transform="rotate(90 293.914 247.506)" fill="white"/>
<rect x="262.975" y="247.506" width="15.4691" height="15.4691" rx="2" transform="rotate(90 262.975 247.506)" fill="white"/>
<rect x="232.037" y="247.506" width="15.4691" height="15.4691" rx="2" transform="rotate(90 232.037 247.506)" fill="white"/>
<rect x="201.1" y="247.506" width="15.4691" height="15.4691" rx="2" transform="rotate(90 201.1 247.506)" fill="white"/>
<rect x="170.162" y="247.506" width="15.4691" height="15.4691" rx="2" transform="rotate(90 170.162 247.506)" fill="white"/>
<rect x="139.223" y="247.506" width="15.4691" height="15.4691" rx="2" transform="rotate(90 139.223 247.506)" fill="white"/>
<rect x="108.283" y="247.506" width="15.4691" height="15.4691" rx="2" transform="rotate(90 108.283 247.506)" fill="white"/>
<rect x="77.3477" y="247.506" width="15.4691" height="15.4691" rx="2" transform="rotate(90 77.3477 247.506)" fill="white"/>
<rect x="46.4082" y="247.506" width="15.4691" height="15.4691" rx="2" transform="rotate(90 46.4082 247.506)" fill="white"/>
<rect x="15.4707" y="247.506" width="15.4691" height="15.4691" rx="2" transform="rotate(90 15.4707 247.506)" fill="white"/>
<rect x="696.111" y="278.445" width="15.4691" height="15.4691" rx="2" transform="rotate(90 696.111 278.445)" fill="white"/>
<rect x="665.174" y="278.445" width="15.4691" height="15.4691" rx="2" transform="rotate(90 665.174 278.445)" fill="white"/>
<rect x="634.234" y="278.443" width="15.4691" height="15.4691" rx="2" transform="rotate(90 634.234 278.443)" fill="white"/>
<rect x="603.297" y="278.445" width="15.4691" height="15.4691" rx="2" transform="rotate(90 603.297 278.445)" fill="white"/>
<rect x="572.357" y="278.445" width="15.4691" height="15.4691" rx="2" transform="rotate(90 572.357 278.445)" fill="white"/>
<rect x="541.42" y="278.443" width="15.4691" height="15.4691" rx="2" transform="rotate(90 541.42 278.443)" fill="white"/>
<rect x="510.482" y="278.445" width="15.4691" height="15.4691" rx="2" transform="rotate(90 510.482 278.445)" fill="white"/>
<rect x="479.543" y="278.445" width="15.4691" height="15.4691" rx="2" transform="rotate(90 479.543 278.445)" fill="white"/>
<rect x="448.605" y="278.445" width="15.4691" height="15.4691" rx="2" transform="rotate(90 448.605 278.445)" fill="white"/>
<rect x="417.666" y="278.445" width="15.4691" height="15.4691" rx="2" transform="rotate(90 417.666 278.445)" fill="white"/>
<rect x="386.729" y="278.443" width="15.4691" height="15.4691" rx="2" transform="rotate(90 386.729 278.443)" fill="white"/>
<rect x="355.791" y="278.445" width="15.4691" height="15.4691" rx="2" transform="rotate(90 355.791 278.445)" fill="white"/>
<rect x="324.852" y="278.445" width="15.4691" height="15.4691" rx="2" transform="rotate(90 324.852 278.445)" fill="white"/>
<rect x="293.914" y="278.445" width="15.4691" height="15.4691" rx="2" transform="rotate(90 293.914 278.445)" fill="white"/>
<rect x="262.975" y="278.445" width="15.4691" height="15.4691" rx="2" transform="rotate(90 262.975 278.445)" fill="white"/>
<rect x="232.037" y="278.443" width="15.4691" height="15.4691" rx="2" transform="rotate(90 232.037 278.443)" fill="white"/>
<rect x="201.1" y="278.445" width="15.4691" height="15.4691" rx="2" transform="rotate(90 201.1 278.445)" fill="white"/>
<rect x="170.162" y="278.443" width="15.4691" height="15.4691" rx="2" transform="rotate(90 170.162 278.443)" fill="white"/>
<rect x="139.223" y="278.443" width="15.4691" height="15.4691" rx="2" transform="rotate(90 139.223 278.443)" fill="white"/>
<rect x="108.283" y="278.445" width="15.4691" height="15.4691" rx="2" transform="rotate(90 108.283 278.445)" fill="white"/>
<rect x="77.3477" y="278.443" width="15.4691" height="15.4691" rx="2" transform="rotate(90 77.3477 278.443)" fill="white"/>
<rect x="46.4082" y="278.445" width="15.4691" height="15.4691" rx="2" transform="rotate(90 46.4082 278.445)" fill="white"/>
<rect x="15.4707" y="278.443" width="15.4691" height="15.4691" rx="2" transform="rotate(90 15.4707 278.443)" fill="white"/>
<rect x="696.111" y="309.383" width="15.4691" height="15.4691" rx="2" transform="rotate(90 696.111 309.383)" fill="white"/>
<rect x="665.174" y="309.383" width="15.4691" height="15.4691" rx="2" transform="rotate(90 665.174 309.383)" fill="white"/>
<rect x="634.234" y="309.383" width="15.4691" height="15.4691" rx="2" transform="rotate(90 634.234 309.383)" fill="white"/>
<rect x="603.297" y="309.383" width="15.4691" height="15.4691" rx="2" transform="rotate(90 603.297 309.383)" fill="white"/>
<rect x="572.357" y="309.383" width="15.4691" height="15.4691" rx="2" transform="rotate(90 572.357 309.383)" fill="white"/>
<rect x="541.42" y="309.383" width="15.4691" height="15.4691" rx="2" transform="rotate(90 541.42 309.383)" fill="white"/>
<rect x="510.482" y="309.383" width="15.4691" height="15.4691" rx="2" transform="rotate(90 510.482 309.383)" fill="white"/>
<rect x="479.543" y="309.383" width="15.4691" height="15.4691" rx="2" transform="rotate(90 479.543 309.383)" fill="white"/>
<rect x="448.605" y="309.383" width="15.4691" height="15.4691" rx="2" transform="rotate(90 448.605 309.383)" fill="white"/>
<rect x="417.666" y="309.383" width="15.4691" height="15.4691" rx="2" transform="rotate(90 417.666 309.383)" fill="white"/>
<rect x="386.729" y="309.383" width="15.4691" height="15.4691" rx="2" transform="rotate(90 386.729 309.383)" fill="white"/>
<rect x="355.791" y="309.383" width="15.4691" height="15.4691" rx="2" transform="rotate(90 355.791 309.383)" fill="white"/>
<rect x="324.852" y="309.383" width="15.4691" height="15.4691" rx="2" transform="rotate(90 324.852 309.383)" fill="white"/>
<rect x="293.914" y="309.383" width="15.4691" height="15.4691" rx="2" transform="rotate(90 293.914 309.383)" fill="white"/>
<rect x="262.975" y="309.383" width="15.4691" height="15.4691" rx="2" transform="rotate(90 262.975 309.383)" fill="white"/>
<rect x="232.037" y="309.383" width="15.4691" height="15.4691" rx="2" transform="rotate(90 232.037 309.383)" fill="white"/>
<rect x="201.1" y="309.383" width="15.4691" height="15.4691" rx="2" transform="rotate(90 201.1 309.383)" fill="white"/>
<rect x="170.161" y="309.383" width="15.4691" height="15.4691" rx="2" transform="rotate(90 170.161 309.383)" fill="white"/>
<rect x="139.223" y="309.383" width="15.4691" height="15.4691" rx="2" transform="rotate(90 139.223 309.383)" fill="white"/>
<rect x="108.283" y="309.383" width="15.4691" height="15.4691" rx="2" transform="rotate(90 108.283 309.383)" fill="white"/>
<rect x="77.3462" y="309.383" width="15.4691" height="15.4691" rx="2" transform="rotate(90 77.3462 309.383)" fill="white"/>
<rect x="46.4082" y="309.383" width="15.4691" height="15.4691" rx="2" transform="rotate(90 46.4082 309.383)" fill="white"/>
<rect x="15.4692" y="309.383" width="15.4691" height="15.4691" rx="2" transform="rotate(90 15.4692 309.383)" fill="white"/>
<rect x="696.111" y="340.322" width="15.4691" height="15.4691" rx="2" transform="rotate(90 696.111 340.322)" fill="white"/>
<rect x="665.174" y="340.322" width="15.4691" height="15.4691" rx="2" transform="rotate(90 665.174 340.322)" fill="white"/>
<rect x="634.234" y="340.322" width="15.4691" height="15.4691" rx="2" transform="rotate(90 634.234 340.322)" fill="white"/>
<rect x="603.297" y="340.322" width="15.4691" height="15.4691" rx="2" transform="rotate(90 603.297 340.322)" fill="white"/>
<rect x="572.357" y="340.322" width="15.4691" height="15.4691" rx="2" transform="rotate(90 572.357 340.322)" fill="white"/>
<rect x="541.42" y="340.322" width="15.4691" height="15.4691" rx="2" transform="rotate(90 541.42 340.322)" fill="white"/>
<rect x="510.482" y="340.322" width="15.4691" height="15.4691" rx="2" transform="rotate(90 510.482 340.322)" fill="white"/>
<rect x="479.543" y="340.322" width="15.4691" height="15.4691" rx="2" transform="rotate(90 479.543 340.322)" fill="white"/>
<rect x="448.605" y="340.322" width="15.4691" height="15.4691" rx="2" transform="rotate(90 448.605 340.322)" fill="white"/>
<rect x="417.666" y="340.322" width="15.4691" height="15.4691" rx="2" transform="rotate(90 417.666 340.322)" fill="white"/>
<rect x="386.729" y="340.322" width="15.4691" height="15.4691" rx="2" transform="rotate(90 386.729 340.322)" fill="white"/>
<rect x="355.791" y="340.322" width="15.4691" height="15.4691" rx="2" transform="rotate(90 355.791 340.322)" fill="white"/>
<rect x="324.852" y="340.322" width="15.4691" height="15.4691" rx="2" transform="rotate(90 324.852 340.322)" fill="white"/>
<rect x="293.914" y="340.322" width="15.4691" height="15.4691" rx="2" transform="rotate(90 293.914 340.322)" fill="white"/>
<rect x="262.975" y="340.322" width="15.4691" height="15.4691" rx="2" transform="rotate(90 262.975 340.322)" fill="white"/>
<rect x="232.037" y="340.322" width="15.4691" height="15.4691" rx="2" transform="rotate(90 232.037 340.322)" fill="white"/>
<rect x="201.1" y="340.322" width="15.4691" height="15.4691" rx="2" transform="rotate(90 201.1 340.322)" fill="white"/>
<rect x="170.162" y="340.322" width="15.4691" height="15.4691" rx="2" transform="rotate(90 170.162 340.322)" fill="white"/>
<rect x="139.223" y="340.322" width="15.4691" height="15.4691" rx="2" transform="rotate(90 139.223 340.322)" fill="white"/>
<rect x="108.283" y="340.322" width="15.4691" height="15.4691" rx="2" transform="rotate(90 108.283 340.322)" fill="white"/>
<rect x="77.3477" y="340.322" width="15.4691" height="15.4691" rx="2" transform="rotate(90 77.3477 340.322)" fill="white"/>
<rect x="46.4082" y="340.322" width="15.4691" height="15.4691" rx="2" transform="rotate(90 46.4082 340.322)" fill="white"/>
<rect x="15.4707" y="340.322" width="15.4691" height="15.4691" rx="2" transform="rotate(90 15.4707 340.322)" fill="white"/>
<rect x="696.111" y="371.26" width="15.4691" height="15.4691" rx="2" transform="rotate(90 696.111 371.26)" fill="white"/>
<rect x="665.174" y="371.26" width="15.4691" height="15.4691" rx="2" transform="rotate(90 665.174 371.26)" fill="white"/>
<rect x="634.234" y="371.26" width="15.4691" height="15.4691" rx="2" transform="rotate(90 634.234 371.26)" fill="white"/>
<rect x="603.297" y="371.26" width="15.4691" height="15.4691" rx="2" transform="rotate(90 603.297 371.26)" fill="white"/>
<rect x="572.357" y="371.26" width="15.4691" height="15.4691" rx="2" transform="rotate(90 572.357 371.26)" fill="white"/>
<rect x="541.42" y="371.26" width="15.4691" height="15.4691" rx="2" transform="rotate(90 541.42 371.26)" fill="white"/>
<rect x="510.482" y="371.26" width="15.4691" height="15.4691" rx="2" transform="rotate(90 510.482 371.26)" fill="white"/>
<rect x="479.543" y="371.26" width="15.4691" height="15.4691" rx="2" transform="rotate(90 479.543 371.26)" fill="white"/>
<rect x="448.605" y="371.26" width="15.4691" height="15.4691" rx="2" transform="rotate(90 448.605 371.26)" fill="white"/>
<rect x="417.666" y="371.26" width="15.4691" height="15.4691" rx="2" transform="rotate(90 417.666 371.26)" fill="white"/>
<rect x="386.729" y="371.26" width="15.4691" height="15.4691" rx="2" transform="rotate(90 386.729 371.26)" fill="white"/>
<rect x="355.791" y="371.26" width="15.4691" height="15.4691" rx="2" transform="rotate(90 355.791 371.26)" fill="white"/>
<rect x="324.852" y="371.26" width="15.4691" height="15.4691" rx="2" transform="rotate(90 324.852 371.26)" fill="white"/>
<rect x="293.914" y="371.26" width="15.4691" height="15.4691" rx="2" transform="rotate(90 293.914 371.26)" fill="white"/>
<rect x="262.975" y="371.26" width="15.4691" height="15.4691" rx="2" transform="rotate(90 262.975 371.26)" fill="white"/>
<rect x="232.037" y="371.26" width="15.4691" height="15.4691" rx="2" transform="rotate(90 232.037 371.26)" fill="white"/>
<rect x="201.1" y="371.26" width="15.4691" height="15.4691" rx="2" transform="rotate(90 201.1 371.26)" fill="white"/>
<rect x="170.162" y="371.26" width="15.4691" height="15.4691" rx="2" transform="rotate(90 170.162 371.26)" fill="white"/>
<rect x="139.223" y="371.26" width="15.4691" height="15.4691" rx="2" transform="rotate(90 139.223 371.26)" fill="white"/>
<rect x="108.283" y="371.26" width="15.4691" height="15.4691" rx="2" transform="rotate(90 108.283 371.26)" fill="white"/>
<rect x="77.3477" y="371.26" width="15.4691" height="15.4691" rx="2" transform="rotate(90 77.3477 371.26)" fill="white"/>
<rect x="46.4082" y="371.26" width="15.4691" height="15.4691" rx="2" transform="rotate(90 46.4082 371.26)" fill="white"/>
<rect x="15.4707" y="371.26" width="15.4691" height="15.4691" rx="2" transform="rotate(90 15.4707 371.26)" fill="white"/>
</g>
</svg>
