<svg width="37" height="60" viewBox="0 0 37 60" fill="none" xmlns="http://www.w3.org/2000/svg">
<path d="M4.16061 2.95717L23.3419 27.6812L32.9197 15.6716L22.4238 2.95717H4.16061ZM3.70871 57.043H22.1762L32.6325 44.48L23.3101 32.4638L3.70871 57.043ZM22.5025 60H2.2636C1.3874 60 0.606929 59.5096 0.227084 58.7206C-0.153272 57.9316 -0.0505603 57.0152 0.495701 56.3303L21.4449 30.0595L0.95305 3.64685C0.420586 2.95956 0.326901 2.04725 0.70896 1.26678C1.09187 0.485624 1.86996 0 2.73951 0H22.7524C23.4285 0 24.0642 0.299958 24.4956 0.821521L35.5595 14.2246C36.2356 15.0454 36.2451 16.2431 35.5828 17.0734L25.2071 30.0847L35.3118 43.1093C35.9572 43.9421 35.9368 45.1331 35.2633 45.942L24.2398 59.1858C23.81 59.7026 23.176 60 22.5025 60Z" fill="#4EDDBB"/>
<path d="M21.6901 59.4127L0.489792 31.3657C-0.120856 30.5581 -0.11711 29.4333 0.497626 28.6293L21.9468 0.581055L24.295 2.37655L3.16727 30.0052L24.0487 57.6298L21.6901 59.4127Z" fill="#4EDDBB"/>
<path d="M13.4473 17.0499H34.8244V14.0928H13.4473V17.0499Z" fill="#4EDDBB"/>
<path d="M1.526 31.4785H22.9029V28.5215H1.526V31.4785Z" fill="#4EDDBB"/>
<path d="M12.9369 45.4455H34.3142V42.4883H12.9369V45.4455Z" fill="#4EDDBB"/>
</svg>
