<svg width="77" height="16" viewBox="0 0 77 16" fill="none" xmlns="http://www.w3.org/2000/svg">
<g id="logo 1" clip-path="url(#clip0_286_15197)">
<g id="Clip path group">
<mask id="mask0_286_15197" style="mask-type:luminance" maskUnits="userSpaceOnUse" x="0" y="0" width="77" height="16">
<g id="clip0_514_485">
<path id="Vector" d="M76.9524 0H0V16H76.9524V0Z" fill="white"/>
</g>
</mask>
<g mask="url(#mask0_286_15197)">
<g id="Group">
<path id="Vector_2" d="M27.2887 8.00266C26.3465 9.08175 23.5958 11.7407 22.3382 12.3874C21.8554 12.6369 21.2986 12.8512 20.7866 12.6776C18.5791 11.9237 20.1228 9.16305 20.9521 7.80495C21.6121 6.72397 22.5231 5.85366 23.2882 4.854C24.0221 3.895 24.9702 1.89569 23.5393 1.06788C23.0546 0.787023 22.4374 0.866474 21.941 1.12516C21.4466 1.38385 21.0475 1.80145 20.6562 2.20982C18.1955 4.7727 15.6628 7.25982 13.0601 9.66933C12.622 10.0759 12.1801 10.4787 11.7382 10.8815C11.5279 11.0718 10.8018 11.9588 10.4729 11.7629C10.3775 11.7056 10.3463 11.5707 10.3736 11.4599C10.4534 11.1346 10.8155 10.8223 11.014 10.571C11.2749 10.2421 11.5299 9.90956 11.781 9.57326C12.2833 8.90065 12.768 8.21325 13.2333 7.51297C14.1638 6.11235 15.0204 4.65814 15.7972 3.15774C15.8517 3.05241 15.9062 2.94708 15.9587 2.84176C16.2722 2.2246 16.5778 1.49473 16.313 0.851693C16.058 0.234531 15.3338 -0.0574198 14.6914 0.014644C14.049 0.086708 13.4708 0.448874 12.9394 0.829522C9.62798 3.19838 7.15952 6.6131 4.10509 9.32564C3.86564 9.53813 3.54638 9.76358 3.21738 9.76541C2.61194 9.76914 2.59832 9.06141 2.72486 8.61798C3.43736 6.14376 5.99342 4.76346 7.24127 2.52948C7.33861 2.35394 7.43011 2.16916 7.44374 1.96591C7.47683 1.45962 7.00377 1.05125 6.52293 0.953324C5.66247 0.777781 4.79034 1.31549 4.25693 2.03613C3.79167 2.66622 3.54638 3.40718 3.26799 4.13706C2.53213 6.06985 1.57823 7.90103 0.834578 9.83009C0.379043 11.0626 0.0442052 12.369 0.0130576 13.6957C0.00137714 14.2168 -0.0550781 15.0667 0.209677 15.5287C0.460806 15.9685 1.03704 16.1052 1.47505 15.9204C2.09996 15.6581 2.51267 14.9485 2.90201 14.4126C3.3556 13.7918 3.79945 13.1635 4.24525 12.5352C5.13491 11.277 6.02067 10.0149 6.95121 8.78979C8.65267 6.55212 10.5352 4.42346 12.8108 2.80111C12.9141 2.7272 13.0425 2.65144 13.1574 2.70503C13.3346 2.78633 13.2859 3.0561 13.208 3.23904C11.5942 6.98266 9.08291 10.2828 7.72215 14.1336C7.54886 14.6251 7.40675 15.2201 7.7124 15.6359C8.00246 16.0331 8.59232 16.0701 9.02646 15.8558C9.46051 15.6433 9.77594 15.2405 10.0796 14.8561C13.208 10.887 16.6849 7.21363 20.4518 3.89315C20.6601 3.71022 20.9871 3.52914 21.176 3.73425C19.6653 7.1508 16.9224 10.0315 16.2702 13.7271C16.1573 14.3701 16.1398 15.1166 16.5817 15.5841C16.8601 15.8779 17.2319 15.9777 17.6271 15.9629C18.069 15.9445 18.542 15.7818 18.945 15.5841C21.3726 14.3923 25.3595 11.0977 27.2868 9.15748V7.99893L27.2887 8.00266Z" fill="#F5F7F0"/>
<path id="Vector_3" d="M42.4969 8.91214V1.10156H35.7885L27.2891 9.254V12.2142H38.6501V16.0021H42.4949V12.2142H43.3379L46.4176 8.91031H42.4949L42.4969 8.91214ZM32.8801 8.91214L38.6073 3.43901V8.91214H32.8801Z" fill="#F5F7F0"/>
<path id="Vector_4" d="M52.7869 8.36535L60.0249 1.07031H54.1808L46.5788 8.91049H52.2009L45.5859 16.0023H51.2743L58.559 8.30257L52.7869 8.36535Z" fill="#F5F7F0"/>
<path id="Vector_5" d="M75.2657 7.11068C74.1425 6.3383 72.3807 5.95211 69.9823 5.95211H66.1882L70.6929 1.10352H65.8825L59.359 7.70568C58.555 8.51871 58.0781 9.58484 58.0703 10.699C58.0703 10.7083 58.0703 10.7194 58.0703 10.7286V10.8284C58.0703 14.2783 60.4356 16.0041 65.1662 16.0041H69.9804C74.6253 16.0041 76.9493 14.2783 76.9493 10.8284V10.7286C76.9493 9.08968 76.3893 7.88488 75.2657 7.11252V7.11068ZM72.5929 10.7675C72.5929 11.9408 71.7364 12.5266 70.0251 12.5266H65.0221C63.2953 12.5266 62.4329 11.9408 62.4329 10.7675V10.6677C62.4329 9.54789 63.2953 8.98987 65.0221 8.98987H70.0251C71.7383 8.98987 72.5929 9.54972 72.5929 10.6677V10.7675Z" fill="#F5F7F0"/>
<path id="Vector_6" d="M74.3732 3.7963C75.3429 3.7963 76.129 3.05009 76.129 2.12959C76.129 1.2091 75.3429 0.462891 74.3732 0.462891C73.4033 0.462891 72.6172 1.2091 72.6172 2.12959C72.6172 3.05009 73.4033 3.7963 74.3732 3.7963Z" fill="#F5F7F0"/>
</g>
</g>
</g>
</g>
<defs>
<clipPath id="clip0_286_15197">
<rect width="76.9524" height="16" fill="white"/>
</clipPath>
</defs>
</svg>
