<svg width="638" height="663" viewBox="0 0 638 663" fill="none" xmlns="http://www.w3.org/2000/svg">
<g opacity="0.1">
<g clip-path="url(#clip0_510_4601)">
<rect width="16.068" height="16.068" rx="2.00851" transform="matrix(4.37114e-08 -1 -1 -4.37114e-08 423.975 664.199)" fill="#4EDDBB"/>
<rect width="16.068" height="16.068" rx="2.00851" transform="matrix(4.37114e-08 -1 -1 -4.37114e-08 423.975 644.115)" fill="#4EDDBB"/>
<rect width="16.068" height="16.068" rx="2.00851" transform="matrix(4.37114e-08 -1 -1 -4.37114e-08 423.975 624.027)" fill="#4EDDBB"/>
<rect width="16.068" height="16.068" rx="2.00851" transform="matrix(4.37114e-08 -1 -1 -4.37114e-08 423.975 603.943)" fill="#4EDDBB"/>
<rect width="16.068" height="16.068" rx="2.00851" transform="matrix(4.37114e-08 -1 -1 -4.37114e-08 423.975 583.859)" fill="#4EDDBB"/>
<rect width="16.068" height="16.068" rx="2.00851" transform="matrix(4.37114e-08 -1 -1 -4.37114e-08 423.975 563.775)" fill="#4EDDBB"/>
<rect width="16.068" height="16.068" rx="2.00851" transform="matrix(4.37114e-08 -1 -1 -4.37114e-08 423.975 543.688)" fill="#4EDDBB"/>
<rect width="16.068" height="16.068" rx="2.00851" transform="matrix(4.37114e-08 -1 -1 -4.37114e-08 423.975 523.602)" fill="#4EDDBB"/>
<rect width="16.068" height="16.068" rx="2.00851" transform="matrix(4.37114e-08 -1 -1 -4.37114e-08 403.894 664.199)" fill="#4EDDBB"/>
<rect width="16.068" height="16.068" rx="2.00851" transform="matrix(4.37114e-08 -1 -1 -4.37114e-08 403.894 644.115)" fill="#4EDDBB"/>
<rect width="16.068" height="16.068" rx="2.00851" transform="matrix(4.37114e-08 -1 -1 -4.37114e-08 403.894 624.027)" fill="#4EDDBB"/>
<rect width="16.068" height="16.068" rx="2.00851" transform="matrix(4.37114e-08 -1 -1 -4.37114e-08 403.894 603.943)" fill="#4EDDBB"/>
<rect width="16.068" height="16.068" rx="2.00851" transform="matrix(4.37114e-08 -1 -1 -4.37114e-08 403.894 583.859)" fill="#4EDDBB"/>
<rect width="16.068" height="16.068" rx="2.00851" transform="matrix(4.37114e-08 -1 -1 -4.37114e-08 403.894 563.775)" fill="#4EDDBB"/>
<rect width="16.068" height="16.068" rx="2.00851" transform="matrix(4.37114e-08 -1 -1 -4.37114e-08 403.894 543.688)" fill="#4EDDBB"/>
<rect width="16.068" height="16.068" rx="2.00851" transform="matrix(4.37114e-08 -1 -1 -4.37114e-08 403.894 523.602)" fill="#4EDDBB"/>
<rect width="16.068" height="16.068" rx="2.00851" transform="matrix(4.37114e-08 -1 -1 -4.37114e-08 383.807 664.199)" fill="#4EDDBB"/>
<rect width="16.068" height="16.068" rx="2.00851" transform="matrix(4.37114e-08 -1 -1 -4.37114e-08 383.807 644.115)" fill="#4EDDBB"/>
<rect width="16.068" height="16.068" rx="2.00851" transform="matrix(4.37114e-08 -1 -1 -4.37114e-08 383.807 624.027)" fill="#4EDDBB"/>
<rect width="16.068" height="16.068" rx="2.00851" transform="matrix(4.37114e-08 -1 -1 -4.37114e-08 383.807 603.943)" fill="#4EDDBB"/>
<rect width="16.068" height="16.068" rx="2.00851" transform="matrix(4.37114e-08 -1 -1 -4.37114e-08 383.807 583.859)" fill="#4EDDBB"/>
<rect width="16.068" height="16.068" rx="2.00851" transform="matrix(4.37114e-08 -1 -1 -4.37114e-08 383.807 563.775)" fill="#4EDDBB"/>
<rect width="16.068" height="16.068" rx="2.00851" transform="matrix(4.37114e-08 -1 -1 -4.37114e-08 383.807 543.688)" fill="#4EDDBB"/>
<rect width="16.068" height="16.068" rx="2.00851" transform="matrix(4.37114e-08 -1 -1 -4.37114e-08 383.807 523.602)" fill="#4EDDBB"/>
<rect width="16.068" height="16.068" rx="2.00851" transform="matrix(4.37114e-08 -1 -1 -4.37114e-08 383.807 503.52)" fill="#4EDDBB"/>
<rect width="16.068" height="16.068" rx="2.00851" transform="matrix(4.37114e-08 -1 -1 -4.37114e-08 383.807 483.434)" fill="#4EDDBB"/>
<rect width="16.068" height="16.068" rx="2.00851" transform="matrix(4.37114e-08 -1 -1 -4.37114e-08 383.807 463.35)" fill="#4EDDBB"/>
<rect width="16.068" height="16.068" rx="2.00851" transform="matrix(4.37114e-08 -1 -1 -4.37114e-08 383.807 443.264)" fill="#4EDDBB"/>
<rect width="16.068" height="16.068" rx="2.00851" transform="matrix(4.37114e-08 -1 -1 -4.37114e-08 383.807 423.178)" fill="#4EDDBB"/>
<rect width="16.068" height="16.068" rx="2.00851" transform="matrix(4.37114e-08 -1 -1 -4.37114e-08 383.807 403.094)" fill="#4EDDBB"/>
<rect width="16.068" height="16.068" rx="2.00851" transform="matrix(4.37114e-08 -1 -1 -4.37114e-08 383.807 383.008)" fill="#4EDDBB"/>
<rect width="16.068" height="16.068" rx="2.00851" transform="matrix(4.37114e-08 -1 -1 -4.37114e-08 383.807 362.922)" fill="#4EDDBB"/>
<rect width="16.068" height="16.068" rx="2.00851" transform="matrix(4.37114e-08 -1 -1 -4.37114e-08 383.807 342.84)" fill="#4EDDBB"/>
<rect width="16.068" height="16.068" rx="2.00851" transform="matrix(4.37114e-08 -1 -1 -4.37114e-08 383.807 322.752)" fill="#4EDDBB"/>
<rect width="16.068" height="16.068" rx="2.00851" transform="matrix(4.37114e-08 -1 -1 -4.37114e-08 383.807 302.668)" fill="#4EDDBB"/>
<rect width="16.068" height="16.068" rx="2.00851" transform="matrix(4.37114e-08 -1 -1 -4.37114e-08 363.72 664.199)" fill="#4EDDBB"/>
<rect width="16.068" height="16.068" rx="2.00851" transform="matrix(4.37114e-08 -1 -1 -4.37114e-08 363.72 644.115)" fill="#4EDDBB"/>
<rect width="16.068" height="16.068" rx="2.00851" transform="matrix(4.37114e-08 -1 -1 -4.37114e-08 363.72 624.027)" fill="#4EDDBB"/>
<rect width="16.068" height="16.068" rx="2.00851" transform="matrix(4.37114e-08 -1 -1 -4.37114e-08 363.72 603.943)" fill="#4EDDBB"/>
<rect width="16.068" height="16.068" rx="2.00851" transform="matrix(4.37114e-08 -1 -1 -4.37114e-08 363.72 583.859)" fill="#4EDDBB"/>
<rect width="16.068" height="16.068" rx="2.00851" transform="matrix(4.37114e-08 -1 -1 -4.37114e-08 363.72 563.775)" fill="#4EDDBB"/>
<rect width="16.068" height="16.068" rx="2.00851" transform="matrix(4.37114e-08 -1 -1 -4.37114e-08 363.72 543.688)" fill="#4EDDBB"/>
<rect width="16.068" height="16.068" rx="2.00851" transform="matrix(4.37114e-08 -1 -1 -4.37114e-08 363.72 523.602)" fill="#4EDDBB"/>
<rect width="16.068" height="16.068" rx="2.00851" transform="matrix(4.37114e-08 -1 -1 -4.37114e-08 363.72 503.52)" fill="#4EDDBB"/>
<rect width="16.068" height="16.068" rx="2.00851" transform="matrix(4.37114e-08 -1 -1 -4.37114e-08 363.72 483.436)" fill="#4EDDBB"/>
<rect width="16.068" height="16.068" rx="2.00851" transform="matrix(4.37114e-08 -1 -1 -4.37114e-08 363.72 463.35)" fill="#4EDDBB"/>
<rect width="16.068" height="16.068" rx="2.00851" transform="matrix(4.37114e-08 -1 -1 -4.37114e-08 363.72 443.264)" fill="#4EDDBB"/>
<rect width="16.068" height="16.068" rx="2.00851" transform="matrix(4.37114e-08 -1 -1 -4.37114e-08 363.72 423.178)" fill="#4EDDBB"/>
<rect width="16.068" height="16.068" rx="2.00851" transform="matrix(4.37114e-08 -1 -1 -4.37114e-08 363.72 403.094)" fill="#4EDDBB"/>
<rect width="16.068" height="16.068" rx="2.00851" transform="matrix(4.37114e-08 -1 -1 -4.37114e-08 363.72 383.008)" fill="#4EDDBB"/>
<rect width="16.068" height="16.068" rx="2.00851" transform="matrix(4.37114e-08 -1 -1 -4.37114e-08 363.72 362.922)" fill="#4EDDBB"/>
<rect width="16.068" height="16.068" rx="2.00851" transform="matrix(4.37114e-08 -1 -1 -4.37114e-08 363.72 342.84)" fill="#4EDDBB"/>
<rect width="16.068" height="16.068" rx="2.00851" transform="matrix(4.37114e-08 -1 -1 -4.37114e-08 363.72 322.752)" fill="#4EDDBB"/>
<rect width="16.068" height="16.068" rx="2.00851" transform="matrix(4.37114e-08 -1 -1 -4.37114e-08 363.72 302.668)" fill="#4EDDBB"/>
<rect width="16.068" height="16.068" rx="2.00851" transform="matrix(4.37114e-08 -1 -1 -4.37114e-08 363.72 282.582)" fill="#4EDDBB"/>
<rect width="16.068" height="16.068" rx="2.00851" transform="matrix(4.37114e-08 -1 -1 -4.37114e-08 363.72 262.496)" fill="#4EDDBB"/>
<rect width="16.068" height="16.068" rx="2.00851" transform="matrix(4.37114e-08 -1 -1 -4.37114e-08 343.639 664.199)" fill="#4EDDBB"/>
<rect width="16.068" height="16.068" rx="2.00851" transform="matrix(4.37114e-08 -1 -1 -4.37114e-08 343.639 644.115)" fill="#4EDDBB"/>
<rect width="16.068" height="16.068" rx="2.00851" transform="matrix(4.37114e-08 -1 -1 -4.37114e-08 343.639 624.027)" fill="#4EDDBB"/>
<rect width="16.068" height="16.068" rx="2.00851" transform="matrix(4.37114e-08 -1 -1 -4.37114e-08 343.639 603.943)" fill="#4EDDBB"/>
<rect width="16.068" height="16.068" rx="2.00851" transform="matrix(4.37114e-08 -1 -1 -4.37114e-08 343.639 583.859)" fill="#4EDDBB"/>
<rect width="16.068" height="16.068" rx="2.00851" transform="matrix(4.37114e-08 -1 -1 -4.37114e-08 343.639 563.775)" fill="#4EDDBB"/>
<rect width="16.068" height="16.068" rx="2.00851" transform="matrix(4.37114e-08 -1 -1 -4.37114e-08 343.639 543.688)" fill="#4EDDBB"/>
<rect width="16.068" height="16.068" rx="2.00851" transform="matrix(4.37114e-08 -1 -1 -4.37114e-08 343.639 523.602)" fill="#4EDDBB"/>
<rect width="16.068" height="16.068" rx="2.00851" transform="matrix(4.37114e-08 -1 -1 -4.37114e-08 343.639 503.52)" fill="#4EDDBB"/>
<rect width="16.068" height="16.068" rx="2.00851" transform="matrix(4.37114e-08 -1 -1 -4.37114e-08 343.639 483.436)" fill="#4EDDBB"/>
<rect width="16.068" height="16.068" rx="2.00851" transform="matrix(4.37114e-08 -1 -1 -4.37114e-08 343.639 463.35)" fill="#4EDDBB"/>
<rect width="16.068" height="16.068" rx="2.00851" transform="matrix(4.37114e-08 -1 -1 -4.37114e-08 343.639 443.264)" fill="#4EDDBB"/>
<rect width="16.068" height="16.068" rx="2.00851" transform="matrix(4.37114e-08 -1 -1 -4.37114e-08 343.639 423.178)" fill="#4EDDBB"/>
<rect width="16.068" height="16.068" rx="2.00851" transform="matrix(4.37114e-08 -1 -1 -4.37114e-08 343.639 403.094)" fill="#4EDDBB"/>
<rect width="16.068" height="16.068" rx="2.00851" transform="matrix(4.37114e-08 -1 -1 -4.37114e-08 343.639 383.008)" fill="#4EDDBB"/>
<rect width="16.068" height="16.068" rx="2.00851" transform="matrix(4.37114e-08 -1 -1 -4.37114e-08 343.639 362.922)" fill="#4EDDBB"/>
<rect width="16.068" height="16.068" rx="2.00851" transform="matrix(4.37114e-08 -1 -1 -4.37114e-08 343.639 342.84)" fill="#4EDDBB"/>
<rect width="16.068" height="16.068" rx="2.00851" transform="matrix(4.37114e-08 -1 -1 -4.37114e-08 343.639 322.752)" fill="#4EDDBB"/>
<rect width="16.068" height="16.068" rx="2.00851" transform="matrix(4.37114e-08 -1 -1 -4.37114e-08 343.639 302.668)" fill="#4EDDBB"/>
<rect width="16.068" height="16.068" rx="2.00851" transform="matrix(4.37114e-08 -1 -1 -4.37114e-08 343.639 282.582)" fill="#4EDDBB"/>
<rect width="16.068" height="16.068" rx="2.00851" transform="matrix(4.37114e-08 -1 -1 -4.37114e-08 343.639 262.496)" fill="#4EDDBB"/>
<rect width="16.068" height="16.068" rx="2.00851" transform="matrix(4.37114e-08 -1 -1 -4.37114e-08 323.552 664.199)" fill="#4EDDBB"/>
<rect width="16.068" height="16.068" rx="2.00851" transform="matrix(4.37114e-08 -1 -1 -4.37114e-08 323.552 644.115)" fill="#4EDDBB"/>
<rect width="16.068" height="16.068" rx="2.00851" transform="matrix(4.37114e-08 -1 -1 -4.37114e-08 323.552 624.027)" fill="#4EDDBB"/>
<rect width="16.068" height="16.068" rx="2.00851" transform="matrix(4.37114e-08 -1 -1 -4.37114e-08 323.552 603.943)" fill="#4EDDBB"/>
<rect width="16.068" height="16.068" rx="2.00851" transform="matrix(4.37114e-08 -1 -1 -4.37114e-08 323.552 583.859)" fill="#4EDDBB"/>
<rect width="16.068" height="16.068" rx="2.00851" transform="matrix(4.37114e-08 -1 -1 -4.37114e-08 323.552 563.775)" fill="#4EDDBB"/>
<rect width="16.068" height="16.068" rx="2.00851" transform="matrix(4.37114e-08 -1 -1 -4.37114e-08 323.552 543.688)" fill="#4EDDBB"/>
<rect width="16.068" height="16.068" rx="2.00851" transform="matrix(4.37114e-08 -1 -1 -4.37114e-08 323.552 523.602)" fill="#4EDDBB"/>
<rect width="16.068" height="16.068" rx="2.00851" transform="matrix(4.37114e-08 -1 -1 -4.37114e-08 323.552 503.52)" fill="#4EDDBB"/>
<rect width="16.068" height="16.068" rx="2.00851" transform="matrix(4.37114e-08 -1 -1 -4.37114e-08 323.552 483.434)" fill="#4EDDBB"/>
<rect width="16.068" height="16.068" rx="2.00851" transform="matrix(4.37114e-08 -1 -1 -4.37114e-08 323.552 463.35)" fill="#4EDDBB"/>
<rect width="16.068" height="16.068" rx="2.00851" transform="matrix(4.37114e-08 -1 -1 -4.37114e-08 323.552 443.264)" fill="#4EDDBB"/>
<rect width="16.068" height="16.068" rx="2.00851" transform="matrix(4.37114e-08 -1 -1 -4.37114e-08 323.552 423.178)" fill="#4EDDBB"/>
<rect width="16.068" height="16.068" rx="2.00851" transform="matrix(4.37114e-08 -1 -1 -4.37114e-08 323.552 403.094)" fill="#4EDDBB"/>
<rect width="16.068" height="16.068" rx="2.00851" transform="matrix(4.37114e-08 -1 -1 -4.37114e-08 323.552 383.008)" fill="#4EDDBB"/>
<rect width="16.068" height="16.068" rx="2.00851" transform="matrix(4.37114e-08 -1 -1 -4.37114e-08 323.552 362.922)" fill="#4EDDBB"/>
<rect width="16.068" height="16.068" rx="2.00851" transform="matrix(4.37114e-08 -1 -1 -4.37114e-08 323.552 342.84)" fill="#4EDDBB"/>
<rect width="16.068" height="16.068" rx="2.00851" transform="matrix(4.37114e-08 -1 -1 -4.37114e-08 323.552 322.752)" fill="#4EDDBB"/>
<rect width="16.068" height="16.068" rx="2.00851" transform="matrix(4.37114e-08 -1 -1 -4.37114e-08 323.552 302.668)" fill="#4EDDBB"/>
<rect width="16.068" height="16.068" rx="2.00851" transform="matrix(4.37114e-08 -1 -1 -4.37114e-08 323.552 282.582)" fill="#4EDDBB"/>
<rect width="16.068" height="16.068" rx="2.00851" transform="matrix(4.37114e-08 -1 -1 -4.37114e-08 323.552 262.494)" fill="#4EDDBB"/>
<rect width="16.068" height="16.068" rx="2.00851" transform="matrix(4.37114e-08 -1 -1 -4.37114e-08 303.468 664.199)" fill="#4EDDBB"/>
<rect width="16.068" height="16.068" rx="2.00851" transform="matrix(4.37114e-08 -1 -1 -4.37114e-08 303.468 644.115)" fill="#4EDDBB"/>
<rect width="16.068" height="16.068" rx="2.00851" transform="matrix(4.37114e-08 -1 -1 -4.37114e-08 303.468 624.027)" fill="#4EDDBB"/>
<rect width="16.068" height="16.068" rx="2.00851" transform="matrix(4.37114e-08 -1 -1 -4.37114e-08 303.468 603.943)" fill="#4EDDBB"/>
<rect width="16.068" height="16.068" rx="2.00851" transform="matrix(4.37114e-08 -1 -1 -4.37114e-08 303.468 583.859)" fill="#4EDDBB"/>
<rect width="16.068" height="16.068" rx="2.00851" transform="matrix(4.37114e-08 -1 -1 -4.37114e-08 303.468 563.775)" fill="#4EDDBB"/>
<rect width="16.068" height="16.068" rx="2.00851" transform="matrix(4.37114e-08 -1 -1 -4.37114e-08 303.468 543.688)" fill="#4EDDBB"/>
<rect width="16.068" height="16.068" rx="2.00851" transform="matrix(4.37114e-08 -1 -1 -4.37114e-08 303.468 523.602)" fill="#4EDDBB"/>
<rect width="16.068" height="16.068" rx="2.00851" transform="matrix(4.37114e-08 -1 -1 -4.37114e-08 303.468 503.52)" fill="#4EDDBB"/>
<rect width="16.068" height="16.068" rx="2.00851" transform="matrix(4.37114e-08 -1 -1 -4.37114e-08 303.468 483.434)" fill="#4EDDBB"/>
<rect width="16.068" height="16.068" rx="2.00851" transform="matrix(4.37114e-08 -1 -1 -4.37114e-08 303.468 463.35)" fill="#4EDDBB"/>
<rect width="16.068" height="16.068" rx="2.00851" transform="matrix(4.37114e-08 -1 -1 -4.37114e-08 303.468 443.264)" fill="#4EDDBB"/>
<rect width="16.068" height="16.068" rx="2.00851" transform="matrix(4.37114e-08 -1 -1 -4.37114e-08 303.468 423.178)" fill="#4EDDBB"/>
<rect width="16.068" height="16.068" rx="2.00851" transform="matrix(4.37114e-08 -1 -1 -4.37114e-08 303.468 403.094)" fill="#4EDDBB"/>
<rect width="16.068" height="16.068" rx="2.00851" transform="matrix(4.37114e-08 -1 -1 -4.37114e-08 303.468 383.008)" fill="#4EDDBB"/>
<rect width="16.068" height="16.068" rx="2.00851" transform="matrix(4.37114e-08 -1 -1 -4.37114e-08 303.468 362.922)" fill="#4EDDBB"/>
<rect width="16.068" height="16.068" rx="2.00851" transform="matrix(4.37114e-08 -1 -1 -4.37114e-08 303.468 342.84)" fill="#4EDDBB"/>
<rect width="16.068" height="16.068" rx="2.00851" transform="matrix(4.37114e-08 -1 -1 -4.37114e-08 303.468 322.752)" fill="#4EDDBB"/>
<rect width="16.068" height="16.068" rx="2.00851" transform="matrix(4.37114e-08 -1 -1 -4.37114e-08 303.468 302.668)" fill="#4EDDBB"/>
<rect width="16.068" height="16.068" rx="2.00851" transform="matrix(4.37114e-08 -1 -1 -4.37114e-08 303.468 282.582)" fill="#4EDDBB"/>
<rect width="16.068" height="16.068" rx="2.00851" transform="matrix(4.37114e-08 -1 -1 -4.37114e-08 303.468 262.494)" fill="#4EDDBB"/>
<rect width="16.068" height="16.068" rx="2.00851" transform="matrix(4.37114e-08 -1 -1 -4.37114e-08 283.381 664.199)" fill="#4EDDBB"/>
<rect width="16.068" height="16.068" rx="2.00851" transform="matrix(4.37114e-08 -1 -1 -4.37114e-08 283.381 644.115)" fill="#4EDDBB"/>
<rect width="16.068" height="16.068" rx="2.00851" transform="matrix(4.37114e-08 -1 -1 -4.37114e-08 283.381 624.027)" fill="#4EDDBB"/>
<rect width="16.068" height="16.068" rx="2.00851" transform="matrix(4.37114e-08 -1 -1 -4.37114e-08 283.381 603.943)" fill="#4EDDBB"/>
<rect width="16.068" height="16.068" rx="2.00851" transform="matrix(4.37114e-08 -1 -1 -4.37114e-08 283.381 583.859)" fill="#4EDDBB"/>
<rect width="16.068" height="16.068" rx="2.00851" transform="matrix(4.37114e-08 -1 -1 -4.37114e-08 283.381 563.775)" fill="#4EDDBB"/>
<rect width="16.068" height="16.068" rx="2.00851" transform="matrix(4.37114e-08 -1 -1 -4.37114e-08 283.381 543.688)" fill="#4EDDBB"/>
<rect width="16.068" height="16.068" rx="2.00851" transform="matrix(4.37114e-08 -1 -1 -4.37114e-08 283.381 523.602)" fill="#4EDDBB"/>
<rect width="16.068" height="16.068" rx="2.00851" transform="matrix(4.37114e-08 -1 -1 -4.37114e-08 283.381 503.52)" fill="#4EDDBB"/>
<rect width="16.068" height="16.068" rx="2.00851" transform="matrix(4.37114e-08 -1 -1 -4.37114e-08 283.381 483.436)" fill="#4EDDBB"/>
<rect width="16.068" height="16.068" rx="2.00851" transform="matrix(4.37114e-08 -1 -1 -4.37114e-08 283.381 463.35)" fill="#4EDDBB"/>
<rect width="16.068" height="16.068" rx="2.00851" transform="matrix(4.37114e-08 -1 -1 -4.37114e-08 283.381 443.264)" fill="#4EDDBB"/>
<rect width="16.068" height="16.068" rx="2.00851" transform="matrix(4.37114e-08 -1 -1 -4.37114e-08 283.381 423.178)" fill="#4EDDBB"/>
<rect width="16.068" height="16.068" rx="2.00851" transform="matrix(4.37114e-08 -1 -1 -4.37114e-08 283.381 403.094)" fill="#4EDDBB"/>
<rect width="16.068" height="16.068" rx="2.00851" transform="matrix(4.37114e-08 -1 -1 -4.37114e-08 283.381 383.008)" fill="#4EDDBB"/>
<rect width="16.068" height="16.068" rx="2.00851" transform="matrix(4.37114e-08 -1 -1 -4.37114e-08 283.381 362.922)" fill="#4EDDBB"/>
<rect width="16.068" height="16.068" rx="2.00851" transform="matrix(4.37114e-08 -1 -1 -4.37114e-08 283.381 342.84)" fill="#4EDDBB"/>
<rect width="16.068" height="16.068" rx="2.00851" transform="matrix(4.37114e-08 -1 -1 -4.37114e-08 283.381 322.752)" fill="#4EDDBB"/>
<rect width="16.068" height="16.068" rx="2.00851" transform="matrix(4.37114e-08 -1 -1 -4.37114e-08 283.381 302.668)" fill="#4EDDBB"/>
<rect width="16.068" height="16.068" rx="2.00851" transform="matrix(4.37114e-08 -1 -1 -4.37114e-08 263.296 664.199)" fill="#4EDDBB"/>
<rect width="16.068" height="16.068" rx="2.00851" transform="matrix(4.37114e-08 -1 -1 -4.37114e-08 263.296 644.115)" fill="#4EDDBB"/>
<rect width="16.068" height="16.068" rx="2.00851" transform="matrix(4.37114e-08 -1 -1 -4.37114e-08 263.296 624.027)" fill="#4EDDBB"/>
<rect width="16.068" height="16.068" rx="2.00851" transform="matrix(4.37114e-08 -1 -1 -4.37114e-08 263.296 603.943)" fill="#4EDDBB"/>
<rect width="16.068" height="16.068" rx="2.00851" transform="matrix(4.37114e-08 -1 -1 -4.37114e-08 263.296 583.859)" fill="#4EDDBB"/>
<rect width="16.068" height="16.068" rx="2.00851" transform="matrix(4.37114e-08 -1 -1 -4.37114e-08 263.296 563.775)" fill="#4EDDBB"/>
<rect width="16.068" height="16.068" rx="2.00851" transform="matrix(4.37114e-08 -1 -1 -4.37114e-08 263.296 543.688)" fill="#4EDDBB"/>
<rect width="16.068" height="16.068" rx="2.00851" transform="matrix(4.37114e-08 -1 -1 -4.37114e-08 263.296 523.602)" fill="#4EDDBB"/>
<rect width="16.068" height="16.068" rx="2.00851" transform="matrix(4.37114e-08 -1 -1 -4.37114e-08 263.296 503.52)" fill="#4EDDBB"/>
<rect width="16.068" height="16.068" rx="2.00851" transform="matrix(4.37114e-08 -1 -1 -4.37114e-08 263.296 483.434)" fill="#4EDDBB"/>
<rect width="16.068" height="16.068" rx="2.00851" transform="matrix(4.37114e-08 -1 -1 -4.37114e-08 263.296 463.35)" fill="#4EDDBB"/>
<rect width="16.068" height="16.068" rx="2.00851" transform="matrix(4.37114e-08 -1 -1 -4.37114e-08 263.296 443.264)" fill="#4EDDBB"/>
<rect width="16.068" height="16.068" rx="2.00851" transform="matrix(4.37114e-08 -1 -1 -4.37114e-08 263.296 423.178)" fill="#4EDDBB"/>
<rect width="16.068" height="16.068" rx="2.00851" transform="matrix(4.37114e-08 -1 -1 -4.37114e-08 263.296 403.094)" fill="#4EDDBB"/>
<rect width="16.068" height="16.068" rx="2.00851" transform="matrix(4.37114e-08 -1 -1 -4.37114e-08 263.296 383.008)" fill="#4EDDBB"/>
<rect width="16.068" height="16.068" rx="2.00851" transform="matrix(4.37114e-08 -1 -1 -4.37114e-08 263.296 362.922)" fill="#4EDDBB"/>
<rect width="16.068" height="16.068" rx="2.00851" transform="matrix(4.37114e-08 -1 -1 -4.37114e-08 263.296 342.84)" fill="#4EDDBB"/>
<rect width="16.068" height="16.068" rx="2.00851" transform="matrix(4.37114e-08 -1 -1 -4.37114e-08 263.296 322.752)" fill="#4EDDBB"/>
<rect width="16.068" height="16.068" rx="2.00851" transform="matrix(4.37114e-08 -1 -1 -4.37114e-08 263.296 302.668)" fill="#4EDDBB"/>
<rect width="16.068" height="16.068" rx="2.00851" transform="matrix(4.37114e-08 -1 -1 -4.37114e-08 263.296 282.582)" fill="#4EDDBB"/>
<rect width="16.068" height="16.068" rx="2.00851" transform="matrix(4.37114e-08 -1 -1 -4.37114e-08 243.212 664.199)" fill="#4EDDBB"/>
<rect width="16.068" height="16.068" rx="2.00851" transform="matrix(4.37114e-08 -1 -1 -4.37114e-08 243.212 644.115)" fill="#4EDDBB"/>
<rect width="16.068" height="16.068" rx="2.00851" transform="matrix(4.37114e-08 -1 -1 -4.37114e-08 243.212 624.027)" fill="#4EDDBB"/>
<rect width="16.068" height="16.068" rx="2.00851" transform="matrix(4.37114e-08 -1 -1 -4.37114e-08 243.212 603.943)" fill="#4EDDBB"/>
<rect width="16.068" height="16.068" rx="2.00851" transform="matrix(4.37114e-08 -1 -1 -4.37114e-08 243.212 583.859)" fill="#4EDDBB"/>
<rect width="16.068" height="16.068" rx="2.00851" transform="matrix(4.37114e-08 -1 -1 -4.37114e-08 243.212 563.775)" fill="#4EDDBB"/>
<rect width="16.068" height="16.068" rx="2.00851" transform="matrix(4.37114e-08 -1 -1 -4.37114e-08 243.212 543.688)" fill="#4EDDBB"/>
<rect width="16.068" height="16.068" rx="2.00851" transform="matrix(4.37114e-08 -1 -1 -4.37114e-08 243.213 523.602)" fill="#4EDDBB"/>
<rect width="16.068" height="16.068" rx="2.00851" transform="matrix(4.37114e-08 -1 -1 -4.37114e-08 243.212 503.52)" fill="#4EDDBB"/>
<rect width="16.068" height="16.068" rx="2.00851" transform="matrix(4.37114e-08 -1 -1 -4.37114e-08 243.212 483.434)" fill="#4EDDBB"/>
<rect width="16.068" height="16.068" rx="2.00851" transform="matrix(4.37114e-08 -1 -1 -4.37114e-08 243.212 463.35)" fill="#4EDDBB"/>
<rect width="16.068" height="16.068" rx="2.00851" transform="matrix(4.37114e-08 -1 -1 -4.37114e-08 243.212 443.264)" fill="#4EDDBB"/>
<rect width="16.068" height="16.068" rx="2.00851" transform="matrix(4.37114e-08 -1 -1 -4.37114e-08 243.212 423.178)" fill="#4EDDBB"/>
<rect width="16.068" height="16.068" rx="2.00851" transform="matrix(4.37114e-08 -1 -1 -4.37114e-08 243.212 403.094)" fill="#4EDDBB"/>
<rect width="16.068" height="16.068" rx="2.00851" transform="matrix(4.37114e-08 -1 -1 -4.37114e-08 243.212 383.008)" fill="#4EDDBB"/>
<rect width="16.068" height="16.068" rx="2.00851" transform="matrix(4.37114e-08 -1 -1 -4.37114e-08 243.212 362.922)" fill="#4EDDBB"/>
<rect width="16.068" height="16.068" rx="2.00851" transform="matrix(4.37114e-08 -1 -1 -4.37114e-08 243.212 342.84)" fill="#4EDDBB"/>
</g>
<rect width="16.068" height="16.068" rx="2.00851" transform="matrix(4.37114e-08 -1 -1 -4.37114e-08 223.129 664.721)" fill="#4EDDBB"/>
<rect width="16.068" height="16.068" rx="2.00851" transform="matrix(4.37114e-08 -1 -1 -4.37114e-08 223.129 644.633)" fill="#4EDDBB"/>
<rect width="16.068" height="16.068" rx="2.00851" transform="matrix(4.37114e-08 -1 -1 -4.37114e-08 223.129 624.549)" fill="#4EDDBB"/>
<rect width="16.068" height="16.068" rx="2.00851" transform="matrix(4.37114e-08 -1 -1 -4.37114e-08 223.129 604.465)" fill="#4EDDBB"/>
<rect width="16.068" height="16.068" rx="2.00851" transform="matrix(4.37114e-08 -1 -1 -4.37114e-08 223.129 584.381)" fill="#4EDDBB"/>
<rect width="16.068" height="16.068" rx="2.00851" transform="matrix(4.37114e-08 -1 -1 -4.37114e-08 223.129 564.293)" fill="#4EDDBB"/>
<rect width="16.068" height="16.068" rx="2.00851" transform="matrix(4.37114e-08 -1 -1 -4.37114e-08 223.129 544.207)" fill="#4EDDBB"/>
<rect width="16.068" height="16.068" rx="2.00851" transform="matrix(4.37114e-08 -1 -1 -4.37114e-08 223.129 524.125)" fill="#4EDDBB"/>
<rect width="16.068" height="16.068" rx="2.00851" transform="matrix(4.37114e-08 -1 -1 -4.37114e-08 203.044 664.721)" fill="#4EDDBB"/>
<rect width="16.068" height="16.068" rx="2.00851" transform="matrix(4.37114e-08 -1 -1 -4.37114e-08 203.044 644.633)" fill="#4EDDBB"/>
<rect width="16.068" height="16.068" rx="2.00851" transform="matrix(4.37114e-08 -1 -1 -4.37114e-08 203.044 624.549)" fill="#4EDDBB"/>
<rect width="16.068" height="16.068" rx="2.00851" transform="matrix(4.37114e-08 -1 -1 -4.37114e-08 203.044 604.465)" fill="#4EDDBB"/>
<rect width="16.068" height="16.068" rx="2.00851" transform="matrix(4.37114e-08 -1 -1 -4.37114e-08 423.979 664.723)" fill="#4EDDBB"/>
<rect width="16.068" height="16.068" rx="2.00851" transform="matrix(4.37114e-08 -1 -1 -4.37114e-08 423.979 644.637)" fill="#4EDDBB"/>
<rect width="16.068" height="16.068" rx="2.00851" transform="matrix(4.37114e-08 -1 -1 -4.37114e-08 423.979 624.551)" fill="#4EDDBB"/>
</g>
<g opacity="0.05">
<g clip-path="url(#clip1_510_4601)">
<rect x="440.451" y="663.982" width="16.068" height="16.068" rx="2.00851" transform="rotate(-90 440.451 663.982)" fill="#4EDDBB"/>
<rect x="440.451" y="643.898" width="16.068" height="16.068" rx="2.00851" transform="rotate(-90 440.451 643.898)" fill="#4EDDBB"/>
<rect x="440.451" y="623.812" width="16.068" height="16.068" rx="2.00851" transform="rotate(-90 440.451 623.812)" fill="#4EDDBB"/>
<rect x="440.451" y="603.727" width="16.068" height="16.068" rx="2.00851" transform="rotate(-90 440.451 603.727)" fill="#4EDDBB"/>
<rect x="440.451" y="583.641" width="16.068" height="16.068" rx="2.00851" transform="rotate(-90 440.451 583.641)" fill="#4EDDBB"/>
<rect x="440.451" y="563.557" width="16.068" height="16.068" rx="2.00851" transform="rotate(-90 440.451 563.557)" fill="#4EDDBB"/>
<rect x="440.451" y="543.471" width="16.068" height="16.068" rx="2.00851" transform="rotate(-90 440.451 543.471)" fill="#4EDDBB"/>
<rect x="440.451" y="523.385" width="16.068" height="16.068" rx="2.00851" transform="rotate(-90 440.451 523.385)" fill="#4EDDBB"/>
<rect x="440.451" y="503.303" width="16.068" height="16.068" rx="2.00851" transform="rotate(-90 440.451 503.303)" fill="#4EDDBB"/>
<rect x="440.451" y="483.215" width="16.068" height="16.068" rx="2.00851" transform="rotate(-90 440.451 483.215)" fill="#4EDDBB"/>
<rect x="440.451" y="463.129" width="16.068" height="16.068" rx="2.00851" transform="rotate(-90 440.451 463.129)" fill="#4EDDBB"/>
<rect x="460.536" y="663.982" width="16.068" height="16.068" rx="2.00851" transform="rotate(-90 460.536 663.982)" fill="#4EDDBB"/>
<rect x="460.536" y="643.898" width="16.068" height="16.068" rx="2.00851" transform="rotate(-90 460.536 643.898)" fill="#4EDDBB"/>
<rect x="460.536" y="623.812" width="16.068" height="16.068" rx="2.00851" transform="rotate(-90 460.536 623.812)" fill="#4EDDBB"/>
<rect x="460.536" y="603.727" width="16.068" height="16.068" rx="2.00851" transform="rotate(-90 460.536 603.727)" fill="#4EDDBB"/>
<rect x="460.536" y="583.641" width="16.068" height="16.068" rx="2.00851" transform="rotate(-90 460.536 583.641)" fill="#4EDDBB"/>
<rect x="460.536" y="563.557" width="16.068" height="16.068" rx="2.00851" transform="rotate(-90 460.536 563.557)" fill="#4EDDBB"/>
<rect x="460.536" y="543.471" width="16.068" height="16.068" rx="2.00851" transform="rotate(-90 460.536 543.471)" fill="#4EDDBB"/>
<rect x="460.536" y="523.385" width="16.068" height="16.068" rx="2.00851" transform="rotate(-90 460.536 523.385)" fill="#4EDDBB"/>
<rect x="460.536" y="503.303" width="16.068" height="16.068" rx="2.00851" transform="rotate(-90 460.536 503.303)" fill="#4EDDBB"/>
<rect x="460.536" y="483.215" width="16.068" height="16.068" rx="2.00851" transform="rotate(-90 460.536 483.215)" fill="#4EDDBB"/>
<rect x="460.536" y="463.129" width="16.068" height="16.068" rx="2.00851" transform="rotate(-90 460.536 463.129)" fill="#4EDDBB"/>
<rect x="460.536" y="443.045" width="16.068" height="16.068" rx="2.00851" transform="rotate(-90 460.536 443.045)" fill="#4EDDBB"/>
<rect x="460.536" y="422.959" width="16.068" height="16.068" rx="2.00851" transform="rotate(-90 460.536 422.959)" fill="#4EDDBB"/>
<rect x="480.619" y="663.982" width="16.068" height="16.068" rx="2.00851" transform="rotate(-90 480.619 663.982)" fill="#4EDDBB"/>
<rect x="480.619" y="643.898" width="16.068" height="16.068" rx="2.00851" transform="rotate(-90 480.619 643.898)" fill="#4EDDBB"/>
<rect x="480.619" y="623.811" width="16.068" height="16.068" rx="2.00851" transform="rotate(-90 480.619 623.811)" fill="#4EDDBB"/>
<rect x="480.619" y="603.727" width="16.068" height="16.068" rx="2.00851" transform="rotate(-90 480.619 603.727)" fill="#4EDDBB"/>
<rect x="480.619" y="583.641" width="16.068" height="16.068" rx="2.00851" transform="rotate(-90 480.619 583.641)" fill="#4EDDBB"/>
<rect x="480.619" y="563.555" width="16.068" height="16.068" rx="2.00851" transform="rotate(-90 480.619 563.555)" fill="#4EDDBB"/>
<rect x="480.619" y="543.471" width="16.068" height="16.068" rx="2.00851" transform="rotate(-90 480.619 543.471)" fill="#4EDDBB"/>
<rect x="480.619" y="523.385" width="16.068" height="16.068" rx="2.00851" transform="rotate(-90 480.619 523.385)" fill="#4EDDBB"/>
<rect x="480.619" y="503.303" width="16.068" height="16.068" rx="2.00851" transform="rotate(-90 480.619 503.303)" fill="#4EDDBB"/>
<rect x="480.619" y="483.215" width="16.068" height="16.068" rx="2.00851" transform="rotate(-90 480.619 483.215)" fill="#4EDDBB"/>
<rect x="480.619" y="463.129" width="16.068" height="16.068" rx="2.00851" transform="rotate(-90 480.619 463.129)" fill="#4EDDBB"/>
<rect x="480.619" y="443.045" width="16.068" height="16.068" rx="2.00851" transform="rotate(-90 480.619 443.045)" fill="#4EDDBB"/>
<rect x="480.619" y="422.959" width="16.068" height="16.068" rx="2.00851" transform="rotate(-90 480.619 422.959)" fill="#4EDDBB"/>
<rect x="500.707" y="663.982" width="16.068" height="16.068" rx="2.00851" transform="rotate(-90 500.707 663.982)" fill="#4EDDBB"/>
<rect x="500.707" y="643.898" width="16.068" height="16.068" rx="2.00851" transform="rotate(-90 500.707 643.898)" fill="#4EDDBB"/>
<rect x="500.707" y="623.812" width="16.068" height="16.068" rx="2.00851" transform="rotate(-90 500.707 623.812)" fill="#4EDDBB"/>
<rect x="500.707" y="603.727" width="16.068" height="16.068" rx="2.00851" transform="rotate(-90 500.707 603.727)" fill="#4EDDBB"/>
<rect x="500.707" y="583.641" width="16.068" height="16.068" rx="2.00851" transform="rotate(-90 500.707 583.641)" fill="#4EDDBB"/>
<rect x="500.707" y="563.557" width="16.068" height="16.068" rx="2.00851" transform="rotate(-90 500.707 563.557)" fill="#4EDDBB"/>
<rect x="500.707" y="543.471" width="16.068" height="16.068" rx="2.00851" transform="rotate(-90 500.707 543.471)" fill="#4EDDBB"/>
<rect x="500.707" y="523.385" width="16.068" height="16.068" rx="2.00851" transform="rotate(-90 500.707 523.385)" fill="#4EDDBB"/>
<rect x="500.707" y="503.303" width="16.068" height="16.068" rx="2.00851" transform="rotate(-90 500.707 503.303)" fill="#4EDDBB"/>
<rect x="500.707" y="483.215" width="16.068" height="16.068" rx="2.00851" transform="rotate(-90 500.707 483.215)" fill="#4EDDBB"/>
<rect x="500.707" y="463.129" width="16.068" height="16.068" rx="2.00851" transform="rotate(-90 500.707 463.129)" fill="#4EDDBB"/>
<rect x="500.707" y="443.045" width="16.068" height="16.068" rx="2.00851" transform="rotate(-90 500.707 443.045)" fill="#4EDDBB"/>
<rect x="500.707" y="422.959" width="16.068" height="16.068" rx="2.00851" transform="rotate(-90 500.707 422.959)" fill="#4EDDBB"/>
<rect x="520.79" y="663.982" width="16.068" height="16.068" rx="2.00851" transform="rotate(-90 520.79 663.982)" fill="#4EDDBB"/>
<rect x="520.79" y="643.898" width="16.068" height="16.068" rx="2.00851" transform="rotate(-90 520.79 643.898)" fill="#4EDDBB"/>
<rect x="520.79" y="623.811" width="16.068" height="16.068" rx="2.00851" transform="rotate(-90 520.79 623.811)" fill="#4EDDBB"/>
<rect x="520.79" y="603.727" width="16.068" height="16.068" rx="2.00851" transform="rotate(-90 520.79 603.727)" fill="#4EDDBB"/>
<rect x="520.79" y="583.641" width="16.068" height="16.068" rx="2.00851" transform="rotate(-90 520.79 583.641)" fill="#4EDDBB"/>
<rect x="520.79" y="563.557" width="16.068" height="16.068" rx="2.00851" transform="rotate(-90 520.79 563.557)" fill="#4EDDBB"/>
<rect x="520.79" y="543.471" width="16.068" height="16.068" rx="2.00851" transform="rotate(-90 520.79 543.471)" fill="#4EDDBB"/>
<rect x="520.79" y="523.385" width="16.068" height="16.068" rx="2.00851" transform="rotate(-90 520.79 523.385)" fill="#4EDDBB"/>
<rect x="520.79" y="503.303" width="16.068" height="16.068" rx="2.00851" transform="rotate(-90 520.79 503.303)" fill="#4EDDBB"/>
<rect x="520.79" y="483.215" width="16.068" height="16.068" rx="2.00851" transform="rotate(-90 520.79 483.215)" fill="#4EDDBB"/>
<rect x="520.79" y="463.129" width="16.068" height="16.068" rx="2.00851" transform="rotate(-90 520.79 463.129)" fill="#4EDDBB"/>
<rect x="520.79" y="443.045" width="16.068" height="16.068" rx="2.00851" transform="rotate(-90 520.79 443.045)" fill="#4EDDBB"/>
<rect x="520.79" y="422.959" width="16.068" height="16.068" rx="2.00851" transform="rotate(-90 520.79 422.959)" fill="#4EDDBB"/>
<rect x="540.875" y="663.982" width="16.068" height="16.068" rx="2.00851" transform="rotate(-90 540.875 663.982)" fill="#4EDDBB"/>
<rect x="540.875" y="643.898" width="16.068" height="16.068" rx="2.00851" transform="rotate(-90 540.875 643.898)" fill="#4EDDBB"/>
<rect x="540.875" y="623.811" width="16.068" height="16.068" rx="2.00851" transform="rotate(-90 540.875 623.811)" fill="#4EDDBB"/>
<rect x="540.875" y="603.727" width="16.068" height="16.068" rx="2.00851" transform="rotate(-90 540.875 603.727)" fill="#4EDDBB"/>
<rect x="540.875" y="583.641" width="16.068" height="16.068" rx="2.00851" transform="rotate(-90 540.875 583.641)" fill="#4EDDBB"/>
<rect x="540.875" y="563.555" width="16.068" height="16.068" rx="2.00851" transform="rotate(-90 540.875 563.555)" fill="#4EDDBB"/>
<rect x="540.875" y="543.471" width="16.068" height="16.068" rx="2.00851" transform="rotate(-90 540.875 543.471)" fill="#4EDDBB"/>
<rect x="540.875" y="523.385" width="16.068" height="16.068" rx="2.00851" transform="rotate(-90 540.875 523.385)" fill="#4EDDBB"/>
<rect x="540.875" y="503.303" width="16.068" height="16.068" rx="2.00851" transform="rotate(-90 540.875 503.303)" fill="#4EDDBB"/>
<rect x="540.875" y="483.215" width="16.068" height="16.068" rx="2.00851" transform="rotate(-90 540.875 483.215)" fill="#4EDDBB"/>
<rect x="540.875" y="463.129" width="16.068" height="16.068" rx="2.00851" transform="rotate(-90 540.875 463.129)" fill="#4EDDBB"/>
<rect x="560.963" y="663.982" width="16.068" height="16.068" rx="2.00851" transform="rotate(-90 560.963 663.982)" fill="#4EDDBB"/>
<rect x="560.963" y="643.898" width="16.068" height="16.068" rx="2.00851" transform="rotate(-90 560.963 643.898)" fill="#4EDDBB"/>
<rect x="560.963" y="623.812" width="16.068" height="16.068" rx="2.00851" transform="rotate(-90 560.963 623.812)" fill="#4EDDBB"/>
<rect x="560.963" y="603.727" width="16.068" height="16.068" rx="2.00851" transform="rotate(-90 560.963 603.727)" fill="#4EDDBB"/>
<rect x="560.963" y="583.641" width="16.068" height="16.068" rx="2.00851" transform="rotate(-90 560.963 583.641)" fill="#4EDDBB"/>
<rect x="560.963" y="563.557" width="16.068" height="16.068" rx="2.00851" transform="rotate(-90 560.963 563.557)" fill="#4EDDBB"/>
<rect x="560.963" y="543.471" width="16.068" height="16.068" rx="2.00851" transform="rotate(-90 560.963 543.471)" fill="#4EDDBB"/>
<rect x="560.963" y="523.385" width="16.068" height="16.068" rx="2.00851" transform="rotate(-90 560.963 523.385)" fill="#4EDDBB"/>
<rect x="560.963" y="503.303" width="16.068" height="16.068" rx="2.00851" transform="rotate(-90 560.963 503.303)" fill="#4EDDBB"/>
<rect x="560.963" y="483.215" width="16.068" height="16.068" rx="2.00851" transform="rotate(-90 560.963 483.215)" fill="#4EDDBB"/>
<rect x="560.963" y="463.129" width="16.068" height="16.068" rx="2.00851" transform="rotate(-90 560.963 463.129)" fill="#4EDDBB"/>
<rect x="560.963" y="443.045" width="16.068" height="16.068" rx="2.00851" transform="rotate(-90 560.963 443.045)" fill="#4EDDBB"/>
<rect x="581.045" y="663.982" width="16.068" height="16.068" rx="2.00851" transform="rotate(-90 581.045 663.982)" fill="#4EDDBB"/>
<rect x="581.045" y="643.898" width="16.068" height="16.068" rx="2.00851" transform="rotate(-90 581.045 643.898)" fill="#4EDDBB"/>
<rect x="581.045" y="623.811" width="16.068" height="16.068" rx="2.00851" transform="rotate(-90 581.045 623.811)" fill="#4EDDBB"/>
<rect x="581.045" y="603.727" width="16.068" height="16.068" rx="2.00851" transform="rotate(-90 581.045 603.727)" fill="#4EDDBB"/>
<rect x="581.045" y="583.641" width="16.068" height="16.068" rx="2.00851" transform="rotate(-90 581.045 583.641)" fill="#4EDDBB"/>
<rect x="581.045" y="563.557" width="16.068" height="16.068" rx="2.00851" transform="rotate(-90 581.045 563.557)" fill="#4EDDBB"/>
<rect x="581.045" y="543.471" width="16.068" height="16.068" rx="2.00851" transform="rotate(-90 581.045 543.471)" fill="#4EDDBB"/>
<rect x="581.045" y="523.385" width="16.068" height="16.068" rx="2.00851" transform="rotate(-90 581.045 523.385)" fill="#4EDDBB"/>
<rect x="581.045" y="503.303" width="16.068" height="16.068" rx="2.00851" transform="rotate(-90 581.045 503.303)" fill="#4EDDBB"/>
</g>
</g>
<g opacity="0.15">
<g clip-path="url(#clip2_510_4601)">
<rect width="16.068" height="16.068" rx="2.00851" transform="matrix(4.37114e-08 -1 -1 -4.37114e-08 138.541 671.527)" fill="#4EDDBB"/>
<rect width="16.068" height="16.068" rx="2.00851" transform="matrix(4.37114e-08 -1 -1 -4.37114e-08 138.541 651.441)" fill="#4EDDBB"/>
<rect width="16.068" height="16.068" rx="2.00851" transform="matrix(4.37114e-08 -1 -1 -4.37114e-08 138.541 631.357)" fill="#4EDDBB"/>
<rect width="16.068" height="16.068" rx="2.00851" transform="matrix(4.37114e-08 -1 -1 -4.37114e-08 138.541 611.271)" fill="#4EDDBB"/>
<rect width="16.068" height="16.068" rx="2.00851" transform="matrix(4.37114e-08 -1 -1 -4.37114e-08 138.541 591.186)" fill="#4EDDBB"/>
<rect width="16.068" height="16.068" rx="2.00851" transform="matrix(4.37114e-08 -1 -1 -4.37114e-08 138.541 571.102)" fill="#4EDDBB"/>
<rect width="16.068" height="16.068" rx="2.00851" transform="matrix(4.37114e-08 -1 -1 -4.37114e-08 138.541 551.018)" fill="#4EDDBB"/>
<rect width="16.068" height="16.068" rx="2.00851" transform="matrix(4.37114e-08 -1 -1 -4.37114e-08 138.541 530.932)" fill="#4EDDBB"/>
<rect width="16.068" height="16.068" rx="2.00851" transform="matrix(4.37114e-08 -1 -1 -4.37114e-08 138.541 510.846)" fill="#4EDDBB"/>
<rect width="16.068" height="16.068" rx="2.00851" transform="matrix(4.37114e-08 -1 -1 -4.37114e-08 138.541 490.762)" fill="#4EDDBB"/>
<rect width="16.068" height="16.068" rx="2.00851" transform="matrix(4.37114e-08 -1 -1 -4.37114e-08 138.541 470.678)" fill="#4EDDBB"/>
<rect width="16.068" height="16.068" rx="2.00851" transform="matrix(4.37114e-08 -1 -1 -4.37114e-08 138.541 450.592)" fill="#4EDDBB"/>
<rect width="16.068" height="16.068" rx="2.00851" transform="matrix(4.37114e-08 -1 -1 -4.37114e-08 138.541 430.506)" fill="#4EDDBB"/>
<rect width="16.068" height="16.068" rx="2.00851" transform="matrix(4.37114e-08 -1 -1 -4.37114e-08 138.541 410.422)" fill="#4EDDBB"/>
<rect width="16.068" height="16.068" rx="2.00851" transform="matrix(4.37114e-08 -1 -1 -4.37114e-08 138.541 390.338)" fill="#4EDDBB"/>
<rect width="16.068" height="16.068" rx="2.00851" transform="matrix(4.37114e-08 -1 -1 -4.37114e-08 138.541 370.25)" fill="#4EDDBB"/>
<rect width="16.068" height="16.068" rx="2.00851" transform="matrix(4.37114e-08 -1 -1 -4.37114e-08 138.541 350.166)" fill="#4EDDBB"/>
<rect width="16.068" height="16.068" rx="2.00851" transform="matrix(4.37114e-08 -1 -1 -4.37114e-08 138.541 330.082)" fill="#4EDDBB"/>
<rect width="16.068" height="16.068" rx="2.00851" transform="matrix(4.37114e-08 -1 -1 -4.37114e-08 138.541 309.998)" fill="#4EDDBB"/>
<rect width="16.068" height="16.068" rx="2.00851" transform="matrix(4.37114e-08 -1 -1 -4.37114e-08 138.541 289.91)" fill="#4EDDBB"/>
<rect width="16.068" height="16.068" rx="2.00851" transform="matrix(4.37114e-08 -1 -1 -4.37114e-08 138.541 269.824)" fill="#4EDDBB"/>
<rect width="16.068" height="16.068" rx="2.00851" transform="matrix(4.37114e-08 -1 -1 -4.37114e-08 118.46 671.527)" fill="#4EDDBB"/>
<rect width="16.068" height="16.068" rx="2.00851" transform="matrix(4.37114e-08 -1 -1 -4.37114e-08 118.46 651.441)" fill="#4EDDBB"/>
<rect width="16.068" height="16.068" rx="2.00851" transform="matrix(4.37114e-08 -1 -1 -4.37114e-08 118.46 631.357)" fill="#4EDDBB"/>
<rect width="16.068" height="16.068" rx="2.00851" transform="matrix(4.37114e-08 -1 -1 -4.37114e-08 118.46 611.271)" fill="#4EDDBB"/>
<rect width="16.068" height="16.068" rx="2.00851" transform="matrix(4.37114e-08 -1 -1 -4.37114e-08 118.46 591.186)" fill="#4EDDBB"/>
<rect width="16.068" height="16.068" rx="2.00851" transform="matrix(4.37114e-08 -1 -1 -4.37114e-08 118.46 571.102)" fill="#4EDDBB"/>
<rect width="16.068" height="16.068" rx="2.00851" transform="matrix(4.37114e-08 -1 -1 -4.37114e-08 118.46 551.018)" fill="#4EDDBB"/>
<rect width="16.068" height="16.068" rx="2.00851" transform="matrix(4.37114e-08 -1 -1 -4.37114e-08 118.46 530.932)" fill="#4EDDBB"/>
<rect width="16.068" height="16.068" rx="2.00851" transform="matrix(4.37114e-08 -1 -1 -4.37114e-08 118.46 510.846)" fill="#4EDDBB"/>
<rect width="16.068" height="16.068" rx="2.00851" transform="matrix(4.37114e-08 -1 -1 -4.37114e-08 118.46 490.762)" fill="#4EDDBB"/>
<rect width="16.068" height="16.068" rx="2.00851" transform="matrix(4.37114e-08 -1 -1 -4.37114e-08 118.46 470.678)" fill="#4EDDBB"/>
<rect width="16.068" height="16.068" rx="2.00851" transform="matrix(4.37114e-08 -1 -1 -4.37114e-08 118.46 450.592)" fill="#4EDDBB"/>
<rect width="16.068" height="16.068" rx="2.00851" transform="matrix(4.37114e-08 -1 -1 -4.37114e-08 118.46 430.506)" fill="#4EDDBB"/>
<rect width="16.068" height="16.068" rx="2.00851" transform="matrix(4.37114e-08 -1 -1 -4.37114e-08 118.46 410.422)" fill="#4EDDBB"/>
<rect width="16.068" height="16.068" rx="2.00851" transform="matrix(4.37114e-08 -1 -1 -4.37114e-08 118.46 390.338)" fill="#4EDDBB"/>
<rect width="16.068" height="16.068" rx="2.00851" transform="matrix(4.37114e-08 -1 -1 -4.37114e-08 118.46 370.25)" fill="#4EDDBB"/>
<rect width="16.068" height="16.068" rx="2.00851" transform="matrix(4.37114e-08 -1 -1 -4.37114e-08 118.46 350.166)" fill="#4EDDBB"/>
<rect width="16.068" height="16.068" rx="2.00851" transform="matrix(4.37114e-08 -1 -1 -4.37114e-08 118.46 330.082)" fill="#4EDDBB"/>
<rect width="16.068" height="16.068" rx="2.00851" transform="matrix(4.37114e-08 -1 -1 -4.37114e-08 118.46 309.998)" fill="#4EDDBB"/>
<rect width="16.068" height="16.068" rx="2.00851" transform="matrix(4.37114e-08 -1 -1 -4.37114e-08 118.46 289.91)" fill="#4EDDBB"/>
<rect width="16.068" height="16.068" rx="2.00851" transform="matrix(4.37114e-08 -1 -1 -4.37114e-08 118.46 269.824)" fill="#4EDDBB"/>
<rect width="16.068" height="16.068" rx="2.00851" transform="matrix(4.37114e-08 -1 -1 -4.37114e-08 98.373 671.527)" fill="#4EDDBB"/>
<rect width="16.068" height="16.068" rx="2.00851" transform="matrix(4.37114e-08 -1 -1 -4.37114e-08 98.373 651.441)" fill="#4EDDBB"/>
<rect width="16.068" height="16.068" rx="2.00851" transform="matrix(4.37114e-08 -1 -1 -4.37114e-08 98.373 631.357)" fill="#4EDDBB"/>
<rect width="16.068" height="16.068" rx="2.00851" transform="matrix(4.37114e-08 -1 -1 -4.37114e-08 98.373 611.271)" fill="#4EDDBB"/>
<rect width="16.068" height="16.068" rx="2.00851" transform="matrix(4.37114e-08 -1 -1 -4.37114e-08 98.373 591.186)" fill="#4EDDBB"/>
<rect width="16.068" height="16.068" rx="2.00851" transform="matrix(4.37114e-08 -1 -1 -4.37114e-08 98.373 571.102)" fill="#4EDDBB"/>
<rect width="16.068" height="16.068" rx="2.00851" transform="matrix(4.37114e-08 -1 -1 -4.37114e-08 98.373 551.018)" fill="#4EDDBB"/>
<rect width="16.068" height="16.068" rx="2.00851" transform="matrix(4.37114e-08 -1 -1 -4.37114e-08 98.373 530.932)" fill="#4EDDBB"/>
<rect width="16.068" height="16.068" rx="2.00851" transform="matrix(4.37114e-08 -1 -1 -4.37114e-08 98.373 510.846)" fill="#4EDDBB"/>
<rect width="16.068" height="16.068" rx="2.00851" transform="matrix(4.37114e-08 -1 -1 -4.37114e-08 98.373 490.762)" fill="#4EDDBB"/>
<rect width="16.068" height="16.068" rx="2.00851" transform="matrix(4.37114e-08 -1 -1 -4.37114e-08 98.373 470.678)" fill="#4EDDBB"/>
<rect width="16.068" height="16.068" rx="2.00851" transform="matrix(4.37114e-08 -1 -1 -4.37114e-08 98.373 450.592)" fill="#4EDDBB"/>
<rect width="16.068" height="16.068" rx="2.00851" transform="matrix(4.37114e-08 -1 -1 -4.37114e-08 98.373 430.506)" fill="#4EDDBB"/>
<rect width="16.068" height="16.068" rx="2.00851" transform="matrix(4.37114e-08 -1 -1 -4.37114e-08 98.373 410.422)" fill="#4EDDBB"/>
<rect width="16.068" height="16.068" rx="2.00851" transform="matrix(4.37114e-08 -1 -1 -4.37114e-08 98.373 390.338)" fill="#4EDDBB"/>
<rect width="16.068" height="16.068" rx="2.00851" transform="matrix(4.37114e-08 -1 -1 -4.37114e-08 98.373 370.25)" fill="#4EDDBB"/>
<rect width="16.068" height="16.068" rx="2.00851" transform="matrix(4.37114e-08 -1 -1 -4.37114e-08 98.373 350.166)" fill="#4EDDBB"/>
<rect width="16.068" height="16.068" rx="2.00851" transform="matrix(4.37114e-08 -1 -1 -4.37114e-08 98.373 330.082)" fill="#4EDDBB"/>
<rect width="16.068" height="16.068" rx="2.00851" transform="matrix(4.37114e-08 -1 -1 -4.37114e-08 98.373 309.998)" fill="#4EDDBB"/>
<rect width="16.068" height="16.068" rx="2.00851" transform="matrix(4.37114e-08 -1 -1 -4.37114e-08 98.373 289.91)" fill="#4EDDBB"/>
<rect width="16.068" height="16.068" rx="2.00851" transform="matrix(4.37114e-08 -1 -1 -4.37114e-08 98.373 269.824)" fill="#4EDDBB"/>
<rect width="16.068" height="16.068" rx="2.00851" transform="matrix(4.37114e-08 -1 -1 -4.37114e-08 98.373 249.742)" fill="#4EDDBB"/>
<rect width="16.068" height="16.068" rx="2.00851" transform="matrix(4.37114e-08 -1 -1 -4.37114e-08 98.373 229.658)" fill="#4EDDBB"/>
<rect width="16.068" height="16.068" rx="2.00851" transform="matrix(4.37114e-08 -1 -1 -4.37114e-08 98.373 209.572)" fill="#4EDDBB"/>
<rect width="16.068" height="16.068" rx="2.00851" transform="matrix(4.37114e-08 -1 -1 -4.37114e-08 98.373 189.486)" fill="#4EDDBB"/>
<rect width="16.068" height="16.068" rx="2.00851" transform="matrix(4.37114e-08 -1 -1 -4.37114e-08 98.373 169.4)" fill="#4EDDBB"/>
<rect width="16.068" height="16.068" rx="2.00851" transform="matrix(4.37114e-08 -1 -1 -4.37114e-08 98.373 149.314)" fill="#4EDDBB"/>
<rect width="16.068" height="16.068" rx="2.00851" transform="matrix(4.37114e-08 -1 -1 -4.37114e-08 98.373 129.23)" fill="#4EDDBB"/>
<rect width="16.068" height="16.068" rx="2.00851" transform="matrix(4.37114e-08 -1 -1 -4.37114e-08 98.373 109.145)" fill="#4EDDBB"/>
<rect width="16.068" height="16.068" rx="2.00851" transform="matrix(4.37114e-08 -1 -1 -4.37114e-08 98.373 89.0625)" fill="#4EDDBB"/>
<rect width="16.068" height="16.068" rx="2.00851" transform="matrix(4.37114e-08 -1 -1 -4.37114e-08 98.373 68.9746)" fill="#4EDDBB"/>
<rect width="16.068" height="16.068" rx="2.00851" transform="matrix(4.37114e-08 -1 -1 -4.37114e-08 98.373 48.8906)" fill="#4EDDBB"/>
<rect width="16.068" height="16.068" rx="2.00851" transform="matrix(4.37114e-08 -1 -1 -4.37114e-08 78.2858 671.527)" fill="#4EDDBB"/>
<rect width="16.068" height="16.068" rx="2.00851" transform="matrix(4.37114e-08 -1 -1 -4.37114e-08 78.2858 651.441)" fill="#4EDDBB"/>
<rect width="16.068" height="16.068" rx="2.00851" transform="matrix(4.37114e-08 -1 -1 -4.37114e-08 78.2858 631.357)" fill="#4EDDBB"/>
<rect width="16.068" height="16.068" rx="2.00851" transform="matrix(4.37114e-08 -1 -1 -4.37114e-08 78.2858 611.271)" fill="#4EDDBB"/>
<rect width="16.068" height="16.068" rx="2.00851" transform="matrix(4.37114e-08 -1 -1 -4.37114e-08 78.2858 591.186)" fill="#4EDDBB"/>
<rect width="16.068" height="16.068" rx="2.00851" transform="matrix(4.37114e-08 -1 -1 -4.37114e-08 78.2858 571.102)" fill="#4EDDBB"/>
<rect width="16.068" height="16.068" rx="2.00851" transform="matrix(4.37114e-08 -1 -1 -4.37114e-08 78.2858 551.018)" fill="#4EDDBB"/>
<rect width="16.068" height="16.068" rx="2.00851" transform="matrix(4.37114e-08 -1 -1 -4.37114e-08 78.2858 530.932)" fill="#4EDDBB"/>
<rect width="16.068" height="16.068" rx="2.00851" transform="matrix(4.37114e-08 -1 -1 -4.37114e-08 78.2858 510.846)" fill="#4EDDBB"/>
<rect width="16.068" height="16.068" rx="2.00851" transform="matrix(4.37114e-08 -1 -1 -4.37114e-08 78.2858 490.762)" fill="#4EDDBB"/>
<rect width="16.068" height="16.068" rx="2.00851" transform="matrix(4.37114e-08 -1 -1 -4.37114e-08 78.2858 470.678)" fill="#4EDDBB"/>
<rect width="16.068" height="16.068" rx="2.00851" transform="matrix(4.37114e-08 -1 -1 -4.37114e-08 78.2858 450.592)" fill="#4EDDBB"/>
<rect width="16.068" height="16.068" rx="2.00851" transform="matrix(4.37114e-08 -1 -1 -4.37114e-08 78.2858 430.506)" fill="#4EDDBB"/>
<rect width="16.068" height="16.068" rx="2.00851" transform="matrix(4.37114e-08 -1 -1 -4.37114e-08 78.2858 410.422)" fill="#4EDDBB"/>
<rect width="16.068" height="16.068" rx="2.00851" transform="matrix(4.37114e-08 -1 -1 -4.37114e-08 78.2858 390.338)" fill="#4EDDBB"/>
<rect width="16.068" height="16.068" rx="2.00851" transform="matrix(4.37114e-08 -1 -1 -4.37114e-08 78.2858 370.25)" fill="#4EDDBB"/>
<rect width="16.068" height="16.068" rx="2.00851" transform="matrix(4.37114e-08 -1 -1 -4.37114e-08 78.2858 350.166)" fill="#4EDDBB"/>
<rect width="16.068" height="16.068" rx="2.00851" transform="matrix(4.37114e-08 -1 -1 -4.37114e-08 78.2858 330.082)" fill="#4EDDBB"/>
<rect width="16.068" height="16.068" rx="2.00851" transform="matrix(4.37114e-08 -1 -1 -4.37114e-08 78.2858 309.998)" fill="#4EDDBB"/>
<rect width="16.068" height="16.068" rx="2.00851" transform="matrix(4.37114e-08 -1 -1 -4.37114e-08 78.2858 289.91)" fill="#4EDDBB"/>
<rect width="16.068" height="16.068" rx="2.00851" transform="matrix(4.37114e-08 -1 -1 -4.37114e-08 78.2858 269.824)" fill="#4EDDBB"/>
<rect width="16.068" height="16.068" rx="2.00851" transform="matrix(4.37114e-08 -1 -1 -4.37114e-08 78.2858 249.742)" fill="#4EDDBB"/>
<rect width="16.068" height="16.068" rx="2.00851" transform="matrix(4.37114e-08 -1 -1 -4.37114e-08 78.2858 229.658)" fill="#4EDDBB"/>
<rect width="16.068" height="16.068" rx="2.00851" transform="matrix(4.37114e-08 -1 -1 -4.37114e-08 78.2858 209.572)" fill="#4EDDBB"/>
<rect width="16.068" height="16.068" rx="2.00851" transform="matrix(4.37114e-08 -1 -1 -4.37114e-08 78.2858 189.486)" fill="#4EDDBB"/>
<rect width="16.068" height="16.068" rx="2.00851" transform="matrix(4.37114e-08 -1 -1 -4.37114e-08 78.2858 169.4)" fill="#4EDDBB"/>
<rect width="16.068" height="16.068" rx="2.00851" transform="matrix(4.37114e-08 -1 -1 -4.37114e-08 78.2858 149.314)" fill="#4EDDBB"/>
<rect width="16.068" height="16.068" rx="2.00851" transform="matrix(4.37114e-08 -1 -1 -4.37114e-08 78.2858 129.23)" fill="#4EDDBB"/>
<rect width="16.068" height="16.068" rx="2.00851" transform="matrix(4.37114e-08 -1 -1 -4.37114e-08 78.2858 109.145)" fill="#4EDDBB"/>
<rect width="16.068" height="16.068" rx="2.00851" transform="matrix(4.37114e-08 -1 -1 -4.37114e-08 78.2858 89.0625)" fill="#4EDDBB"/>
<rect width="16.068" height="16.068" rx="2.00851" transform="matrix(4.37114e-08 -1 -1 -4.37114e-08 78.2858 68.9746)" fill="#4EDDBB"/>
<rect width="16.068" height="16.068" rx="2.00851" transform="matrix(4.37114e-08 -1 -1 -4.37114e-08 78.2858 48.8906)" fill="#4EDDBB"/>
<rect width="16.068" height="16.068" rx="2.00851" transform="matrix(4.37114e-08 -1 -1 -4.37114e-08 78.2858 28.8047)" fill="#4EDDBB"/>
<rect width="16.068" height="16.068" rx="2.00851" transform="matrix(4.37114e-08 -1 -1 -4.37114e-08 78.2858 8.71875)" fill="#4EDDBB"/>
<rect width="16.068" height="16.068" rx="2.00851" transform="matrix(4.37114e-08 -1 -1 -4.37114e-08 58.2047 671.527)" fill="#4EDDBB"/>
<rect width="16.068" height="16.068" rx="2.00851" transform="matrix(4.37114e-08 -1 -1 -4.37114e-08 58.2047 651.441)" fill="#4EDDBB"/>
<rect width="16.068" height="16.068" rx="2.00851" transform="matrix(4.37114e-08 -1 -1 -4.37114e-08 58.2047 631.357)" fill="#4EDDBB"/>
<rect width="16.068" height="16.068" rx="2.00851" transform="matrix(4.37114e-08 -1 -1 -4.37114e-08 58.2047 611.271)" fill="#4EDDBB"/>
<rect width="16.068" height="16.068" rx="2.00851" transform="matrix(4.37114e-08 -1 -1 -4.37114e-08 58.2047 591.186)" fill="#4EDDBB"/>
<rect width="16.068" height="16.068" rx="2.00851" transform="matrix(4.37114e-08 -1 -1 -4.37114e-08 58.2047 571.102)" fill="#4EDDBB"/>
<rect width="16.068" height="16.068" rx="2.00851" transform="matrix(4.37114e-08 -1 -1 -4.37114e-08 58.2047 551.018)" fill="#4EDDBB"/>
<rect width="16.068" height="16.068" rx="2.00851" transform="matrix(4.37114e-08 -1 -1 -4.37114e-08 58.2047 530.932)" fill="#4EDDBB"/>
<rect width="16.068" height="16.068" rx="2.00851" transform="matrix(4.37114e-08 -1 -1 -4.37114e-08 58.2047 510.846)" fill="#4EDDBB"/>
<rect width="16.068" height="16.068" rx="2.00851" transform="matrix(4.37114e-08 -1 -1 -4.37114e-08 58.2047 490.762)" fill="#4EDDBB"/>
<rect width="16.068" height="16.068" rx="2.00851" transform="matrix(4.37114e-08 -1 -1 -4.37114e-08 58.2047 470.678)" fill="#4EDDBB"/>
<rect width="16.068" height="16.068" rx="2.00851" transform="matrix(4.37114e-08 -1 -1 -4.37114e-08 58.2047 450.592)" fill="#4EDDBB"/>
<rect width="16.068" height="16.068" rx="2.00851" transform="matrix(4.37114e-08 -1 -1 -4.37114e-08 58.2047 430.506)" fill="#4EDDBB"/>
<rect width="16.068" height="16.068" rx="2.00851" transform="matrix(4.37114e-08 -1 -1 -4.37114e-08 58.2047 410.422)" fill="#4EDDBB"/>
<rect width="16.068" height="16.068" rx="2.00851" transform="matrix(4.37114e-08 -1 -1 -4.37114e-08 58.2047 390.338)" fill="#4EDDBB"/>
<rect width="16.068" height="16.068" rx="2.00851" transform="matrix(4.37114e-08 -1 -1 -4.37114e-08 58.2047 370.25)" fill="#4EDDBB"/>
<rect width="16.068" height="16.068" rx="2.00851" transform="matrix(4.37114e-08 -1 -1 -4.37114e-08 58.2047 350.166)" fill="#4EDDBB"/>
<rect width="16.068" height="16.068" rx="2.00851" transform="matrix(4.37114e-08 -1 -1 -4.37114e-08 58.2047 330.082)" fill="#4EDDBB"/>
<rect width="16.068" height="16.068" rx="2.00851" transform="matrix(4.37114e-08 -1 -1 -4.37114e-08 58.2047 309.998)" fill="#4EDDBB"/>
<rect width="16.068" height="16.068" rx="2.00851" transform="matrix(4.37114e-08 -1 -1 -4.37114e-08 58.2047 289.91)" fill="#4EDDBB"/>
<rect width="16.068" height="16.068" rx="2.00851" transform="matrix(4.37114e-08 -1 -1 -4.37114e-08 58.2047 269.824)" fill="#4EDDBB"/>
<rect width="16.068" height="16.068" rx="2.00851" transform="matrix(4.37114e-08 -1 -1 -4.37114e-08 58.2047 249.742)" fill="#4EDDBB"/>
<rect width="16.068" height="16.068" rx="2.00851" transform="matrix(4.37114e-08 -1 -1 -4.37114e-08 58.2047 229.658)" fill="#4EDDBB"/>
<rect width="16.068" height="16.068" rx="2.00851" transform="matrix(4.37114e-08 -1 -1 -4.37114e-08 58.2047 209.572)" fill="#4EDDBB"/>
<rect width="16.068" height="16.068" rx="2.00851" transform="matrix(4.37114e-08 -1 -1 -4.37114e-08 58.2047 189.486)" fill="#4EDDBB"/>
<rect width="16.068" height="16.068" rx="2.00851" transform="matrix(4.37114e-08 -1 -1 -4.37114e-08 58.2047 169.4)" fill="#4EDDBB"/>
<rect width="16.068" height="16.068" rx="2.00851" transform="matrix(4.37114e-08 -1 -1 -4.37114e-08 58.2047 149.314)" fill="#4EDDBB"/>
<rect width="16.068" height="16.068" rx="2.00851" transform="matrix(4.37114e-08 -1 -1 -4.37114e-08 58.2047 129.23)" fill="#4EDDBB"/>
<rect width="16.068" height="16.068" rx="2.00851" transform="matrix(4.37114e-08 -1 -1 -4.37114e-08 58.2047 109.145)" fill="#4EDDBB"/>
<rect width="16.068" height="16.068" rx="2.00851" transform="matrix(4.37114e-08 -1 -1 -4.37114e-08 58.2047 89.0625)" fill="#4EDDBB"/>
<rect width="16.068" height="16.068" rx="2.00851" transform="matrix(4.37114e-08 -1 -1 -4.37114e-08 58.2047 68.9746)" fill="#4EDDBB"/>
<rect width="16.068" height="16.068" rx="2.00851" transform="matrix(4.37114e-08 -1 -1 -4.37114e-08 58.2047 48.8906)" fill="#4EDDBB"/>
<rect width="16.068" height="16.068" rx="2.00851" transform="matrix(4.37114e-08 -1 -1 -4.37114e-08 58.2047 28.8047)" fill="#4EDDBB"/>
<rect width="16.068" height="16.068" rx="2.00851" transform="matrix(4.37114e-08 -1 -1 -4.37114e-08 58.2047 8.71875)" fill="#4EDDBB"/>
<rect width="16.068" height="16.068" rx="2.00851" transform="matrix(4.37114e-08 -1 -1 -4.37114e-08 38.1174 671.527)" fill="#4EDDBB"/>
<rect width="16.068" height="16.068" rx="2.00851" transform="matrix(4.37114e-08 -1 -1 -4.37114e-08 38.1174 651.441)" fill="#4EDDBB"/>
<rect width="16.068" height="16.068" rx="2.00851" transform="matrix(4.37114e-08 -1 -1 -4.37114e-08 38.1174 631.357)" fill="#4EDDBB"/>
<rect width="16.068" height="16.068" rx="2.00851" transform="matrix(4.37114e-08 -1 -1 -4.37114e-08 38.1174 611.271)" fill="#4EDDBB"/>
<rect width="16.068" height="16.068" rx="2.00851" transform="matrix(4.37114e-08 -1 -1 -4.37114e-08 38.1174 591.186)" fill="#4EDDBB"/>
<rect width="16.068" height="16.068" rx="2.00851" transform="matrix(4.37114e-08 -1 -1 -4.37114e-08 38.1174 571.102)" fill="#4EDDBB"/>
<rect width="16.068" height="16.068" rx="2.00851" transform="matrix(4.37114e-08 -1 -1 -4.37114e-08 38.1174 551.018)" fill="#4EDDBB"/>
<rect width="16.068" height="16.068" rx="2.00851" transform="matrix(4.37114e-08 -1 -1 -4.37114e-08 38.1174 530.932)" fill="#4EDDBB"/>
<rect width="16.068" height="16.068" rx="2.00851" transform="matrix(4.37114e-08 -1 -1 -4.37114e-08 38.1174 510.846)" fill="#4EDDBB"/>
<rect width="16.068" height="16.068" rx="2.00851" transform="matrix(4.37114e-08 -1 -1 -4.37114e-08 38.1174 490.762)" fill="#4EDDBB"/>
<rect width="16.068" height="16.068" rx="2.00851" transform="matrix(4.37114e-08 -1 -1 -4.37114e-08 38.1174 470.678)" fill="#4EDDBB"/>
<rect width="16.068" height="16.068" rx="2.00851" transform="matrix(4.37114e-08 -1 -1 -4.37114e-08 38.1174 450.592)" fill="#4EDDBB"/>
<rect width="16.068" height="16.068" rx="2.00851" transform="matrix(4.37114e-08 -1 -1 -4.37114e-08 38.1174 430.506)" fill="#4EDDBB"/>
<rect width="16.068" height="16.068" rx="2.00851" transform="matrix(4.37114e-08 -1 -1 -4.37114e-08 38.1174 410.422)" fill="#4EDDBB"/>
<rect width="16.068" height="16.068" rx="2.00851" transform="matrix(4.37114e-08 -1 -1 -4.37114e-08 38.1174 390.338)" fill="#4EDDBB"/>
<rect width="16.068" height="16.068" rx="2.00851" transform="matrix(4.37114e-08 -1 -1 -4.37114e-08 38.1174 370.25)" fill="#4EDDBB"/>
<rect width="16.068" height="16.068" rx="2.00851" transform="matrix(4.37114e-08 -1 -1 -4.37114e-08 38.1174 350.166)" fill="#4EDDBB"/>
<rect width="16.068" height="16.068" rx="2.00851" transform="matrix(4.37114e-08 -1 -1 -4.37114e-08 38.1174 330.082)" fill="#4EDDBB"/>
<rect width="16.068" height="16.068" rx="2.00851" transform="matrix(4.37114e-08 -1 -1 -4.37114e-08 38.1174 309.998)" fill="#4EDDBB"/>
<rect width="16.068" height="16.068" rx="2.00851" transform="matrix(4.37114e-08 -1 -1 -4.37114e-08 38.1174 289.91)" fill="#4EDDBB"/>
<rect width="16.068" height="16.068" rx="2.00851" transform="matrix(4.37114e-08 -1 -1 -4.37114e-08 38.1174 269.824)" fill="#4EDDBB"/>
<rect width="16.068" height="16.068" rx="2.00851" transform="matrix(4.37114e-08 -1 -1 -4.37114e-08 38.1174 249.742)" fill="#4EDDBB"/>
<rect width="16.068" height="16.068" rx="2.00851" transform="matrix(4.37114e-08 -1 -1 -4.37114e-08 38.1174 229.658)" fill="#4EDDBB"/>
<rect width="16.068" height="16.068" rx="2.00851" transform="matrix(4.37114e-08 -1 -1 -4.37114e-08 38.1174 209.572)" fill="#4EDDBB"/>
<rect width="16.068" height="16.068" rx="2.00851" transform="matrix(4.37114e-08 -1 -1 -4.37114e-08 38.1174 189.486)" fill="#4EDDBB"/>
<rect width="16.068" height="16.068" rx="2.00851" transform="matrix(4.37114e-08 -1 -1 -4.37114e-08 38.1174 169.4)" fill="#4EDDBB"/>
<rect width="16.068" height="16.068" rx="2.00851" transform="matrix(4.37114e-08 -1 -1 -4.37114e-08 38.1174 149.314)" fill="#4EDDBB"/>
<rect width="16.068" height="16.068" rx="2.00851" transform="matrix(4.37114e-08 -1 -1 -4.37114e-08 38.1174 129.23)" fill="#4EDDBB"/>
<rect width="16.068" height="16.068" rx="2.00851" transform="matrix(4.37114e-08 -1 -1 -4.37114e-08 38.1174 109.145)" fill="#4EDDBB"/>
<rect width="16.068" height="16.068" rx="2.00851" transform="matrix(4.37114e-08 -1 -1 -4.37114e-08 38.1174 89.0625)" fill="#4EDDBB"/>
<rect width="16.068" height="16.068" rx="2.00851" transform="matrix(4.37114e-08 -1 -1 -4.37114e-08 38.1174 68.9746)" fill="#4EDDBB"/>
<rect width="16.068" height="16.068" rx="2.00851" transform="matrix(4.37114e-08 -1 -1 -4.37114e-08 38.1174 48.8906)" fill="#4EDDBB"/>
<rect width="16.068" height="16.068" rx="2.00851" transform="matrix(4.37114e-08 -1 -1 -4.37114e-08 38.1174 28.8047)" fill="#4EDDBB"/>
<rect width="16.068" height="16.068" rx="2.00851" transform="matrix(4.37114e-08 -1 -1 -4.37114e-08 38.1174 8.71875)" fill="#4EDDBB"/>
<rect width="16.068" height="16.068" rx="2.00851" transform="matrix(4.37114e-08 -1 -1 -4.37114e-08 18.0343 671.527)" fill="#4EDDBB"/>
<rect width="16.068" height="16.068" rx="2.00851" transform="matrix(4.37114e-08 -1 -1 -4.37114e-08 18.0343 651.441)" fill="#4EDDBB"/>
<rect width="16.068" height="16.068" rx="2.00851" transform="matrix(4.37114e-08 -1 -1 -4.37114e-08 18.0343 631.357)" fill="#4EDDBB"/>
<rect width="16.068" height="16.068" rx="2.00851" transform="matrix(4.37114e-08 -1 -1 -4.37114e-08 18.0343 611.271)" fill="#4EDDBB"/>
<rect width="16.068" height="16.068" rx="2.00851" transform="matrix(4.37114e-08 -1 -1 -4.37114e-08 18.0343 591.186)" fill="#4EDDBB"/>
<rect width="16.068" height="16.068" rx="2.00851" transform="matrix(4.37114e-08 -1 -1 -4.37114e-08 18.0343 571.102)" fill="#4EDDBB"/>
<rect width="16.068" height="16.068" rx="2.00851" transform="matrix(4.37114e-08 -1 -1 -4.37114e-08 18.0343 551.018)" fill="#4EDDBB"/>
<rect width="16.068" height="16.068" rx="2.00851" transform="matrix(4.37114e-08 -1 -1 -4.37114e-08 18.0343 530.932)" fill="#4EDDBB"/>
<rect width="16.068" height="16.068" rx="2.00851" transform="matrix(4.37114e-08 -1 -1 -4.37114e-08 18.0343 510.846)" fill="#4EDDBB"/>
<rect width="16.068" height="16.068" rx="2.00851" transform="matrix(4.37114e-08 -1 -1 -4.37114e-08 18.0343 490.762)" fill="#4EDDBB"/>
<rect width="16.068" height="16.068" rx="2.00851" transform="matrix(4.37114e-08 -1 -1 -4.37114e-08 18.0343 470.678)" fill="#4EDDBB"/>
<rect width="16.068" height="16.068" rx="2.00851" transform="matrix(4.37114e-08 -1 -1 -4.37114e-08 18.0343 450.592)" fill="#4EDDBB"/>
<rect width="16.068" height="16.068" rx="2.00851" transform="matrix(4.37114e-08 -1 -1 -4.37114e-08 18.0343 430.506)" fill="#4EDDBB"/>
<rect width="16.068" height="16.068" rx="2.00851" transform="matrix(4.37114e-08 -1 -1 -4.37114e-08 18.0343 410.422)" fill="#4EDDBB"/>
<rect width="16.068" height="16.068" rx="2.00851" transform="matrix(4.37114e-08 -1 -1 -4.37114e-08 18.0343 390.338)" fill="#4EDDBB"/>
<rect width="16.068" height="16.068" rx="2.00851" transform="matrix(4.37114e-08 -1 -1 -4.37114e-08 18.0343 370.25)" fill="#4EDDBB"/>
<rect width="16.068" height="16.068" rx="2.00851" transform="matrix(4.37114e-08 -1 -1 -4.37114e-08 18.0343 350.166)" fill="#4EDDBB"/>
<rect width="16.068" height="16.068" rx="2.00851" transform="matrix(4.37114e-08 -1 -1 -4.37114e-08 18.0343 330.082)" fill="#4EDDBB"/>
<rect width="16.068" height="16.068" rx="2.00851" transform="matrix(4.37114e-08 -1 -1 -4.37114e-08 18.0343 309.998)" fill="#4EDDBB"/>
<rect width="16.068" height="16.068" rx="2.00851" transform="matrix(4.37114e-08 -1 -1 -4.37114e-08 18.0343 289.91)" fill="#4EDDBB"/>
<rect width="16.068" height="16.068" rx="2.00851" transform="matrix(4.37114e-08 -1 -1 -4.37114e-08 18.0343 269.824)" fill="#4EDDBB"/>
<rect width="16.068" height="16.068" rx="2.00851" transform="matrix(4.37114e-08 -1 -1 -4.37114e-08 18.0343 249.742)" fill="#4EDDBB"/>
<rect width="16.068" height="16.068" rx="2.00851" transform="matrix(4.37114e-08 -1 -1 -4.37114e-08 18.0343 229.658)" fill="#4EDDBB"/>
<rect width="16.068" height="16.068" rx="2.00851" transform="matrix(4.37114e-08 -1 -1 -4.37114e-08 18.0343 209.572)" fill="#4EDDBB"/>
<rect width="16.068" height="16.068" rx="2.00851" transform="matrix(4.37114e-08 -1 -1 -4.37114e-08 18.0343 189.486)" fill="#4EDDBB"/>
<rect width="16.068" height="16.068" rx="2.00851" transform="matrix(4.37114e-08 -1 -1 -4.37114e-08 18.0343 169.4)" fill="#4EDDBB"/>
<rect width="16.068" height="16.068" rx="2.00851" transform="matrix(4.37114e-08 -1 -1 -4.37114e-08 18.0343 149.314)" fill="#4EDDBB"/>
<rect width="16.068" height="16.068" rx="2.00851" transform="matrix(4.37114e-08 -1 -1 -4.37114e-08 18.0343 129.23)" fill="#4EDDBB"/>
<rect width="16.068" height="16.068" rx="2.00851" transform="matrix(4.37114e-08 -1 -1 -4.37114e-08 18.0343 109.145)" fill="#4EDDBB"/>
<rect width="16.068" height="16.068" rx="2.00851" transform="matrix(4.37114e-08 -1 -1 -4.37114e-08 18.0343 89.0625)" fill="#4EDDBB"/>
<rect width="16.068" height="16.068" rx="2.00851" transform="matrix(4.37114e-08 -1 -1 -4.37114e-08 18.0343 68.9746)" fill="#4EDDBB"/>
<rect width="16.068" height="16.068" rx="2.00851" transform="matrix(4.37114e-08 -1 -1 -4.37114e-08 18.0343 48.8906)" fill="#4EDDBB"/>
<rect width="16.068" height="16.068" rx="2.00851" transform="matrix(4.37114e-08 -1 -1 -4.37114e-08 18.0343 28.8047)" fill="#4EDDBB"/>
<rect width="16.068" height="16.068" rx="2.00851" transform="matrix(4.37114e-08 -1 -1 -4.37114e-08 18.0343 8.71875)" fill="#4EDDBB"/>
</g>
<rect width="16.068" height="16.068" rx="2.00851" transform="matrix(4.37114e-08 -1 -1 -4.37114e-08 138.543 672.059)" fill="#4EDDBB"/>
<rect width="16.068" height="16.068" rx="2.00851" transform="matrix(4.37114e-08 -1 -1 -4.37114e-08 138.543 651.971)" fill="#4EDDBB"/>
<rect width="16.068" height="16.068" rx="2.00851" transform="matrix(4.37114e-08 -1 -1 -4.37114e-08 138.543 631.885)" fill="#4EDDBB"/>
<rect width="16.068" height="16.068" rx="2.00851" transform="matrix(4.37114e-08 -1 -1 -4.37114e-08 138.543 611.803)" fill="#4EDDBB"/>
<rect width="16.068" height="16.068" rx="2.00851" transform="matrix(4.37114e-08 -1 -1 -4.37114e-08 138.543 591.715)" fill="#4EDDBB"/>
<rect width="16.068" height="16.068" rx="2.00851" transform="matrix(4.37114e-08 -1 -1 -4.37114e-08 138.543 571.633)" fill="#4EDDBB"/>
<rect width="16.068" height="16.068" rx="2.00851" transform="matrix(4.37114e-08 -1 -1 -4.37114e-08 138.543 551.547)" fill="#4EDDBB"/>
<rect width="16.068" height="16.068" rx="2.00851" transform="matrix(4.37114e-08 -1 -1 -4.37114e-08 138.543 531.459)" fill="#4EDDBB"/>
<rect width="16.068" height="16.068" rx="2.00851" transform="matrix(4.37114e-08 -1 -1 -4.37114e-08 138.543 511.377)" fill="#4EDDBB"/>
<rect width="16.068" height="16.068" rx="2.00851" transform="matrix(4.37114e-08 -1 -1 -4.37114e-08 138.543 491.291)" fill="#4EDDBB"/>
<rect width="16.068" height="16.068" rx="2.00851" transform="matrix(4.37114e-08 -1 -1 -4.37114e-08 138.543 471.207)" fill="#4EDDBB"/>
<rect width="16.068" height="16.068" rx="2.00851" transform="matrix(4.37114e-08 -1 -1 -4.37114e-08 138.543 451.123)" fill="#4EDDBB"/>
<rect width="16.068" height="16.068" rx="2.00851" transform="matrix(4.37114e-08 -1 -1 -4.37114e-08 138.543 431.035)" fill="#4EDDBB"/>
<rect width="16.068" height="16.068" rx="2.00851" transform="matrix(4.37114e-08 -1 -1 -4.37114e-08 138.543 410.953)" fill="#4EDDBB"/>
<rect width="16.068" height="16.068" rx="2.00851" transform="matrix(4.37114e-08 -1 -1 -4.37114e-08 138.543 390.865)" fill="#4EDDBB"/>
<rect width="16.068" height="16.068" rx="2.00851" transform="matrix(4.37114e-08 -1 -1 -4.37114e-08 138.543 370.781)" fill="#4EDDBB"/>
</g>
<defs>
<clipPath id="clip0_510_4601">
<rect width="779.3" height="184.783" fill="white" transform="matrix(4.37114e-08 -1 -1 -4.37114e-08 407.91 1033.47)"/>
</clipPath>
<clipPath id="clip1_510_4601">
<rect width="779.3" height="184.783" fill="white" transform="translate(416.346 1193.94) rotate(-90)"/>
</clipPath>
<clipPath id="clip2_510_4601">
<rect width="779.3" height="184.783" fill="white" transform="matrix(4.37114e-08 -1 -1 -4.37114e-08 122.476 779.701)"/>
</clipPath>
</defs>
</svg>
