<svg width="387" height="215" viewBox="0 0 387 215" fill="none" xmlns="http://www.w3.org/2000/svg">
<g clip-path="url(#clip0_286_6490)">
<g opacity="0.05">
<rect x="386.729" width="15.4691" height="15.4691" rx="2" transform="rotate(90 386.729 0)" fill="#141416"/>
<rect x="355.791" width="15.4691" height="15.4691" rx="2" transform="rotate(90 355.791 0)" fill="#141416"/>
<rect x="324.852" width="15.4691" height="15.4691" rx="2" transform="rotate(90 324.852 0)" fill="#141416"/>
<rect x="293.914" width="15.4691" height="15.4691" rx="2" transform="rotate(90 293.914 0)" fill="#141416"/>
<rect x="262.975" width="15.4691" height="15.4691" rx="2" transform="rotate(90 262.975 0)" fill="#141416"/>
<rect x="232.037" width="15.4691" height="15.4691" rx="2" transform="rotate(90 232.037 0)" fill="#141416"/>
<rect x="201.1" width="15.4691" height="15.4691" rx="2" transform="rotate(90 201.1 0)" fill="#141416"/>
<rect x="170.161" width="15.4691" height="15.4691" rx="2" transform="rotate(90 170.161 0)" fill="#141416"/>
<rect x="139.222" width="15.4691" height="15.4691" rx="2" transform="rotate(90 139.222 0)" fill="#141416"/>
<rect x="108.283" width="15.4691" height="15.4691" rx="2" transform="rotate(90 108.283 0)" fill="#141416"/>
<rect x="77.3459" width="15.4691" height="15.4691" rx="2" transform="rotate(90 77.3459 0)" fill="#141416"/>
<rect x="46.4082" width="15.4691" height="15.4691" rx="2" transform="rotate(90 46.4082 0)" fill="#141416"/>
<rect x="15.4691" width="15.4691" height="15.4691" rx="2" transform="rotate(90 15.4691 0)" fill="#141416"/>
<rect x="386.729" y="30.9375" width="15.4691" height="15.4691" rx="2" transform="rotate(90 386.729 30.9375)" fill="#141416"/>
<rect x="355.791" y="30.9375" width="15.4691" height="15.4691" rx="2" transform="rotate(90 355.791 30.9375)" fill="#141416"/>
<rect x="324.852" y="30.9375" width="15.4691" height="15.4691" rx="2" transform="rotate(90 324.852 30.9375)" fill="#141416"/>
<rect x="293.914" y="30.9375" width="15.4691" height="15.4691" rx="2" transform="rotate(90 293.914 30.9375)" fill="#141416"/>
<rect x="262.975" y="30.9375" width="15.4691" height="15.4691" rx="2" transform="rotate(90 262.975 30.9375)" fill="#141416"/>
<rect x="232.037" y="30.9375" width="15.4691" height="15.4691" rx="2" transform="rotate(90 232.037 30.9375)" fill="#141416"/>
<rect x="201.1" y="30.9375" width="15.4691" height="15.4691" rx="2" transform="rotate(90 201.1 30.9375)" fill="#141416"/>
<rect x="170.16" y="30.9375" width="15.4691" height="15.4691" rx="2" transform="rotate(90 170.16 30.9375)" fill="#141416"/>
<rect x="139.223" y="30.9375" width="15.4691" height="15.4691" rx="2" transform="rotate(90 139.223 30.9375)" fill="#141416"/>
<rect x="108.283" y="30.9375" width="15.4691" height="15.4691" rx="2" transform="rotate(90 108.283 30.9375)" fill="#141416"/>
<rect x="77.3457" y="30.9375" width="15.4691" height="15.4691" rx="2" transform="rotate(90 77.3457 30.9375)" fill="#141416"/>
<rect x="46.4082" y="30.9375" width="15.4691" height="15.4691" rx="2" transform="rotate(90 46.4082 30.9375)" fill="#141416"/>
<rect x="15.4688" y="30.9375" width="15.4691" height="15.4691" rx="2" transform="rotate(90 15.4688 30.9375)" fill="#141416"/>
<rect x="386.729" y="61.877" width="15.4691" height="15.4691" rx="2" transform="rotate(90 386.729 61.877)" fill="#141416"/>
<rect x="355.791" y="61.875" width="15.4691" height="15.4691" rx="2" transform="rotate(90 355.791 61.875)" fill="#141416"/>
<rect x="324.852" y="61.875" width="15.4691" height="15.4691" rx="2" transform="rotate(90 324.852 61.875)" fill="#141416"/>
<rect x="293.914" y="61.875" width="15.4691" height="15.4691" rx="2" transform="rotate(90 293.914 61.875)" fill="#141416"/>
<rect x="262.975" y="61.877" width="15.4691" height="15.4691" rx="2" transform="rotate(90 262.975 61.877)" fill="#141416"/>
<rect x="232.037" y="61.877" width="15.4691" height="15.4691" rx="2" transform="rotate(90 232.037 61.877)" fill="#141416"/>
<rect x="201.1" y="61.877" width="15.4691" height="15.4691" rx="2" transform="rotate(90 201.1 61.877)" fill="#141416"/>
<rect x="170.16" y="61.877" width="15.4691" height="15.4691" rx="2" transform="rotate(90 170.16 61.877)" fill="#141416"/>
<rect x="139.223" y="61.877" width="15.4691" height="15.4691" rx="2" transform="rotate(90 139.223 61.877)" fill="#141416"/>
<rect x="108.283" y="61.875" width="15.4691" height="15.4691" rx="2" transform="rotate(90 108.283 61.875)" fill="#141416"/>
<rect x="77.3457" y="61.877" width="15.4691" height="15.4691" rx="2" transform="rotate(90 77.3457 61.877)" fill="#141416"/>
<rect x="46.4082" y="61.875" width="15.4691" height="15.4691" rx="2" transform="rotate(90 46.4082 61.875)" fill="#141416"/>
<rect x="15.4688" y="61.875" width="15.4691" height="15.4691" rx="2" transform="rotate(90 15.4688 61.875)" fill="#141416"/>
<rect x="386.729" y="92.8145" width="15.4691" height="15.4691" rx="2" transform="rotate(90 386.729 92.8145)" fill="#141416"/>
<rect x="355.791" y="92.8145" width="15.4691" height="15.4691" rx="2" transform="rotate(90 355.791 92.8145)" fill="#141416"/>
<rect x="324.852" y="92.8145" width="15.4691" height="15.4691" rx="2" transform="rotate(90 324.852 92.8145)" fill="#141416"/>
<rect x="293.914" y="92.8145" width="15.4691" height="15.4691" rx="2" transform="rotate(90 293.914 92.8145)" fill="#141416"/>
<rect x="262.975" y="92.8145" width="15.4691" height="15.4691" rx="2" transform="rotate(90 262.975 92.8145)" fill="#141416"/>
<rect x="232.037" y="92.8145" width="15.4691" height="15.4691" rx="2" transform="rotate(90 232.037 92.8145)" fill="#141416"/>
<rect x="201.1" y="92.8145" width="15.4691" height="15.4691" rx="2" transform="rotate(90 201.1 92.8145)" fill="#141416"/>
<rect x="170.16" y="92.8145" width="15.4691" height="15.4691" rx="2" transform="rotate(90 170.16 92.8145)" fill="#141416"/>
<rect x="139.223" y="92.8145" width="15.4691" height="15.4691" rx="2" transform="rotate(90 139.223 92.8145)" fill="#141416"/>
<rect x="108.283" y="92.8145" width="15.4691" height="15.4691" rx="2" transform="rotate(90 108.283 92.8145)" fill="#141416"/>
<rect x="77.3457" y="92.8145" width="15.4691" height="15.4691" rx="2" transform="rotate(90 77.3457 92.8145)" fill="#141416"/>
<rect x="46.4082" y="92.8145" width="15.4691" height="15.4691" rx="2" transform="rotate(90 46.4082 92.8145)" fill="#141416"/>
<rect x="15.4688" y="92.8145" width="15.4691" height="15.4691" rx="2" transform="rotate(90 15.4688 92.8145)" fill="#141416"/>
<rect x="386.729" y="123.754" width="15.4691" height="15.4691" rx="2" transform="rotate(90 386.729 123.754)" fill="#141416"/>
<rect x="355.791" y="123.754" width="15.4691" height="15.4691" rx="2" transform="rotate(90 355.791 123.754)" fill="#141416"/>
<rect x="324.852" y="123.754" width="15.4691" height="15.4691" rx="2" transform="rotate(90 324.852 123.754)" fill="#141416"/>
<rect x="293.914" y="123.754" width="15.4691" height="15.4691" rx="2" transform="rotate(90 293.914 123.754)" fill="#141416"/>
<rect x="262.975" y="123.752" width="15.4691" height="15.4691" rx="2" transform="rotate(90 262.975 123.752)" fill="#141416"/>
<rect x="232.037" y="123.754" width="15.4691" height="15.4691" rx="2" transform="rotate(90 232.037 123.754)" fill="#141416"/>
<rect x="201.1" y="123.752" width="15.4691" height="15.4691" rx="2" transform="rotate(90 201.1 123.752)" fill="#141416"/>
<rect x="170.16" y="123.754" width="15.4691" height="15.4691" rx="2" transform="rotate(90 170.16 123.754)" fill="#141416"/>
<rect x="139.223" y="123.754" width="15.4691" height="15.4691" rx="2" transform="rotate(90 139.223 123.754)" fill="#141416"/>
<rect x="108.283" y="123.752" width="15.4691" height="15.4691" rx="2" transform="rotate(90 108.283 123.752)" fill="#141416"/>
<rect x="77.3457" y="123.754" width="15.4691" height="15.4691" rx="2" transform="rotate(90 77.3457 123.754)" fill="#141416"/>
<rect x="46.4082" y="123.752" width="15.4691" height="15.4691" rx="2" transform="rotate(90 46.4082 123.752)" fill="#141416"/>
<rect x="15.4688" y="123.752" width="15.4691" height="15.4691" rx="2" transform="rotate(90 15.4688 123.752)" fill="#141416"/>
<rect x="386.729" y="154.691" width="15.4691" height="15.4691" rx="2" transform="rotate(90 386.729 154.691)" fill="#141416"/>
<rect x="355.791" y="154.691" width="15.4691" height="15.4691" rx="2" transform="rotate(90 355.791 154.691)" fill="#141416"/>
<rect x="324.852" y="154.691" width="15.4691" height="15.4691" rx="2" transform="rotate(90 324.852 154.691)" fill="#141416"/>
<rect x="293.914" y="154.691" width="15.4691" height="15.4691" rx="2" transform="rotate(90 293.914 154.691)" fill="#141416"/>
<rect x="262.975" y="154.691" width="15.4691" height="15.4691" rx="2" transform="rotate(90 262.975 154.691)" fill="#141416"/>
<rect x="232.037" y="154.691" width="15.4691" height="15.4691" rx="2" transform="rotate(90 232.037 154.691)" fill="#141416"/>
<rect x="201.1" y="154.691" width="15.4691" height="15.4691" rx="2" transform="rotate(90 201.1 154.691)" fill="#141416"/>
<rect x="170.161" y="154.691" width="15.4691" height="15.4691" rx="2" transform="rotate(90 170.161 154.691)" fill="#141416"/>
<rect x="139.222" y="154.691" width="15.4691" height="15.4691" rx="2" transform="rotate(90 139.222 154.691)" fill="#141416"/>
<rect x="108.283" y="154.691" width="15.4691" height="15.4691" rx="2" transform="rotate(90 108.283 154.691)" fill="#141416"/>
<rect x="77.3459" y="154.691" width="15.4691" height="15.4691" rx="2" transform="rotate(90 77.3459 154.691)" fill="#141416"/>
<rect x="46.4082" y="154.691" width="15.4691" height="15.4691" rx="2" transform="rotate(90 46.4082 154.691)" fill="#141416"/>
<rect x="15.4688" y="154.691" width="15.4691" height="15.4691" rx="2" transform="rotate(90 15.4688 154.691)" fill="#141416"/>
<rect x="386.729" y="185.629" width="15.4691" height="15.4691" rx="2" transform="rotate(90 386.729 185.629)" fill="#141416"/>
<rect x="355.791" y="185.629" width="15.4691" height="15.4691" rx="2" transform="rotate(90 355.791 185.629)" fill="#141416"/>
<rect x="324.852" y="185.629" width="15.4691" height="15.4691" rx="2" transform="rotate(90 324.852 185.629)" fill="#141416"/>
<rect x="293.914" y="185.629" width="15.4691" height="15.4691" rx="2" transform="rotate(90 293.914 185.629)" fill="#141416"/>
<rect x="262.975" y="185.629" width="15.4691" height="15.4691" rx="2" transform="rotate(90 262.975 185.629)" fill="#141416"/>
<rect x="232.037" y="185.629" width="15.4691" height="15.4691" rx="2" transform="rotate(90 232.037 185.629)" fill="#141416"/>
<rect x="201.1" y="185.629" width="15.4691" height="15.4691" rx="2" transform="rotate(90 201.1 185.629)" fill="#141416"/>
<rect x="170.16" y="185.629" width="15.4691" height="15.4691" rx="2" transform="rotate(90 170.16 185.629)" fill="#141416"/>
<rect x="139.223" y="185.629" width="15.4691" height="15.4691" rx="2" transform="rotate(90 139.223 185.629)" fill="#141416"/>
<rect x="108.283" y="185.629" width="15.4691" height="15.4691" rx="2" transform="rotate(90 108.283 185.629)" fill="#141416"/>
<rect x="77.3457" y="185.629" width="15.4691" height="15.4691" rx="2" transform="rotate(90 77.3457 185.629)" fill="#141416"/>
<rect x="46.4082" y="185.629" width="15.4691" height="15.4691" rx="2" transform="rotate(90 46.4082 185.629)" fill="#141416"/>
<rect x="15.4688" y="185.629" width="15.4691" height="15.4691" rx="2" transform="rotate(90 15.4688 185.629)" fill="#141416"/>
</g>
</g>
<defs>
<clipPath id="clip0_286_6490">
<rect width="387" height="387" fill="white" transform="translate(387) rotate(90)"/>
</clipPath>
</defs>
</svg>
