<svg width="309" height="77" viewBox="0 0 309 77" fill="none" xmlns="http://www.w3.org/2000/svg">
<g clip-path="url(#clip0_286_25849)">
<g opacity="0.05">
<rect x="293.914" width="15.4691" height="15.4691" rx="2" transform="rotate(90 293.914 0)" fill="#141416"/>
<rect x="262.975" width="15.4691" height="15.4691" rx="2" transform="rotate(90 262.975 0)" fill="#141416"/>
<rect x="232.037" width="15.4691" height="15.4691" rx="2" transform="rotate(90 232.037 0)" fill="#141416"/>
<rect x="201.1" width="15.4691" height="15.4691" rx="2" transform="rotate(90 201.1 0)" fill="#141416"/>
<rect x="170.161" width="15.4691" height="15.4691" rx="2" transform="rotate(90 170.161 0)" fill="#141416"/>
<rect x="139.223" width="15.4691" height="15.4691" rx="2" transform="rotate(90 139.223 0)" fill="#141416"/>
<rect x="108.283" width="15.4691" height="15.4691" rx="2" transform="rotate(90 108.283 0)" fill="#141416"/>
<rect x="77.3457" width="15.4691" height="15.4691" rx="2" transform="rotate(90 77.3457 0)" fill="#141416"/>
<rect x="46.4082" width="15.4691" height="15.4691" rx="2" transform="rotate(90 46.4082 0)" fill="#141416"/>
<rect x="15.4692" width="15.4691" height="15.4691" rx="2" transform="rotate(90 15.4692 0)" fill="#141416"/>
<rect x="293.914" y="30.9375" width="15.4691" height="15.4691" rx="2" transform="rotate(90 293.914 30.9375)" fill="#141416"/>
<rect x="262.975" y="30.9375" width="15.4691" height="15.4691" rx="2" transform="rotate(90 262.975 30.9375)" fill="#141416"/>
<rect x="232.037" y="30.9375" width="15.4691" height="15.4691" rx="2" transform="rotate(90 232.037 30.9375)" fill="#141416"/>
<rect x="201.1" y="30.9375" width="15.4691" height="15.4691" rx="2" transform="rotate(90 201.1 30.9375)" fill="#141416"/>
<rect x="170.16" y="30.9375" width="15.4691" height="15.4691" rx="2" transform="rotate(90 170.16 30.9375)" fill="#141416"/>
<rect x="139.223" y="30.9375" width="15.4691" height="15.4691" rx="2" transform="rotate(90 139.223 30.9375)" fill="#141416"/>
<rect x="108.283" y="30.9375" width="15.4691" height="15.4691" rx="2" transform="rotate(90 108.283 30.9375)" fill="#141416"/>
<rect x="77.3457" y="30.9375" width="15.4691" height="15.4691" rx="2" transform="rotate(90 77.3457 30.9375)" fill="#141416"/>
<rect x="46.4082" y="30.9375" width="15.4691" height="15.4691" rx="2" transform="rotate(90 46.4082 30.9375)" fill="#141416"/>
<rect x="15.4688" y="30.9375" width="15.4691" height="15.4691" rx="2" transform="rotate(90 15.4688 30.9375)" fill="#141416"/>
<rect x="293.914" y="61.875" width="15.4691" height="15.4691" rx="2" transform="rotate(90 293.914 61.875)" fill="#141416"/>
<rect x="262.975" y="61.8789" width="15.4691" height="15.4691" rx="2" transform="rotate(90 262.975 61.8789)" fill="#141416"/>
<rect x="232.037" y="61.8789" width="15.4691" height="15.4691" rx="2" transform="rotate(90 232.037 61.8789)" fill="#141416"/>
<rect x="201.1" y="61.8789" width="15.4691" height="15.4691" rx="2" transform="rotate(90 201.1 61.8789)" fill="#141416"/>
<rect x="170.16" y="61.8789" width="15.4691" height="15.4691" rx="2" transform="rotate(90 170.16 61.8789)" fill="#141416"/>
<rect x="139.223" y="61.8789" width="15.4691" height="15.4691" rx="2" transform="rotate(90 139.223 61.8789)" fill="#141416"/>
<rect x="108.283" y="61.875" width="15.4691" height="15.4691" rx="2" transform="rotate(90 108.283 61.875)" fill="#141416"/>
<rect x="77.3457" y="61.875" width="15.4691" height="15.4691" rx="2" transform="rotate(90 77.3457 61.875)" fill="#141416"/>
<rect x="46.4082" y="61.875" width="15.4691" height="15.4691" rx="2" transform="rotate(90 46.4082 61.875)" fill="#141416"/>
<rect x="15.4688" y="61.875" width="15.4691" height="15.4691" rx="2" transform="rotate(90 15.4688 61.875)" fill="#141416"/>
</g>
</g>
<defs>
<clipPath id="clip0_286_25849">
<rect width="77" height="309" fill="white" transform="translate(309) rotate(90)"/>
</clipPath>
</defs>
</svg>
