<svg width="77" height="16" viewBox="0 0 77 16" fill="none" xmlns="http://www.w3.org/2000/svg">
<g id="logo 1" clip-path="url(#clip0_352_25214)">
<g id="Clip path group">
<mask id="mask0_352_25214" style="mask-type:luminance" maskUnits="userSpaceOnUse" x="0" y="0" width="77" height="16">
<g id="clip0_514_485">
<path id="Vector" d="M76.9524 0H0V16H76.9524V0Z" fill="white"/>
</g>
</mask>
<g mask="url(#mask0_352_25214)">
<g id="Group">
<path id="Vector_2" d="M27.2887 8.00169C26.3465 9.08077 23.5958 11.7397 22.3382 12.3864C21.8554 12.6359 21.2986 12.8502 20.7866 12.6766C18.5791 11.9227 20.1228 9.16207 20.9521 7.80397C21.6121 6.72299 22.5231 5.85268 23.2882 4.85303C24.0221 3.89402 24.9702 1.89472 23.5393 1.06691C23.0546 0.786046 22.4374 0.865498 21.941 1.12419C21.4466 1.38288 21.0475 1.80048 20.6562 2.20884C18.1955 4.77172 15.6628 7.25885 13.0601 9.66835C12.622 10.0749 12.1801 10.4777 11.7382 10.8805C11.5279 11.0709 10.8018 11.9578 10.4729 11.7619C10.3775 11.7046 10.3463 11.5698 10.3736 11.4589C10.4534 11.1337 10.8155 10.8213 11.014 10.5701C11.2749 10.2412 11.5299 9.90858 11.781 9.57228C12.2833 8.89967 12.768 8.21228 13.2333 7.512C14.1638 6.11137 15.0204 4.65716 15.7972 3.15676C15.8517 3.05143 15.9062 2.94611 15.9587 2.84078C16.2722 2.22362 16.5778 1.49375 16.313 0.850717C16.058 0.233554 15.3338 -0.0583963 14.6914 0.0136675C14.049 0.0857315 13.4708 0.447898 12.9394 0.828545C9.62798 3.19741 7.15952 6.61212 4.10509 9.32466C3.86564 9.53716 3.54638 9.7626 3.21738 9.76443C2.61194 9.76816 2.59832 9.06043 2.72486 8.617C3.43736 6.14279 5.99342 4.76249 7.24127 2.52851C7.33861 2.35296 7.43011 2.16819 7.44374 1.96493C7.47683 1.45864 7.00377 1.05027 6.52293 0.952347C5.66247 0.776804 4.79034 1.31451 4.25693 2.03515C3.79167 2.66525 3.54638 3.40621 3.26799 4.13608C2.53213 6.06887 1.57823 7.90005 0.834578 9.82912C0.379043 11.0616 0.0442052 12.368 0.0130576 13.6947C0.00137714 14.2158 -0.0550781 15.0658 0.209677 15.5277C0.460806 15.9675 1.03704 16.1042 1.47505 15.9194C2.09996 15.6571 2.51267 14.9475 2.90201 14.4117C3.3556 13.7908 3.79945 13.1625 4.24525 12.5343C5.13491 11.276 6.02067 10.0139 6.95121 8.78881C8.65267 6.55114 10.5352 4.42249 12.8108 2.80013C12.9141 2.72622 13.0425 2.65047 13.1574 2.70405C13.3346 2.78535 13.2859 3.05513 13.208 3.23806C11.5942 6.98168 9.08291 10.2818 7.72215 14.1326C7.54886 14.6242 7.40675 15.2191 7.7124 15.6349C8.00246 16.0322 8.59232 16.0691 9.02646 15.8548C9.46051 15.6423 9.77594 15.2395 10.0796 14.8551C13.208 10.886 16.6849 7.21265 20.4518 3.89217C20.6601 3.70925 20.9871 3.52816 21.176 3.73327C19.6653 7.14983 16.9224 10.0306 16.2702 13.7261C16.1573 14.3692 16.1398 15.1157 16.5817 15.5831C16.8601 15.877 17.2319 15.9767 17.6271 15.9619C18.069 15.9435 18.542 15.7808 18.945 15.5831C21.3726 14.3913 25.3595 11.0967 27.2868 9.15651V7.99795L27.2887 8.00169Z" fill="#F5F7F0"/>
<path id="Vector_3" d="M42.4969 8.91018V1.09961H35.7885L27.2891 9.25205V12.2122H38.6501V16.0002H42.4949V12.2122H43.3379L46.4176 8.90836H42.4949L42.4969 8.91018ZM32.8801 8.91018L38.6073 3.43706V8.91018H32.8801Z" fill="#F5F7F0"/>
<path id="Vector_4" d="M52.7869 8.3634L60.0249 1.06836H54.1808L46.5788 8.90854H52.2009L45.5859 16.0004H51.2743L58.559 8.30062L52.7869 8.3634Z" fill="#F5F7F0"/>
<path id="Vector_5" d="M75.2657 7.1097C74.1425 6.33732 72.3807 5.95113 69.9823 5.95113H66.1882L70.6929 1.10254H65.8825L59.359 7.7047C58.555 8.51773 58.0781 9.58386 58.0703 10.6981C58.0703 10.7074 58.0703 10.7184 58.0703 10.7276V10.8274C58.0703 14.2773 60.4356 16.0031 65.1662 16.0031H69.9804C74.6253 16.0031 76.9493 14.2773 76.9493 10.8274V10.7276C76.9493 9.0887 76.3893 7.8839 75.2657 7.11155V7.1097ZM72.5929 10.7665C72.5929 11.9398 71.7364 12.5256 70.0251 12.5256H65.0221C63.2953 12.5256 62.4329 11.9398 62.4329 10.7665V10.6667C62.4329 9.54691 63.2953 8.98889 65.0221 8.98889H70.0251C71.7383 8.98889 72.5929 9.54874 72.5929 10.6667V10.7665Z" fill="#F5F7F0"/>
<path id="Vector_6" d="M74.3732 3.79532C75.3429 3.79532 76.129 3.04911 76.129 2.12862C76.129 1.20812 75.3429 0.461914 74.3732 0.461914C73.4033 0.461914 72.6172 1.20812 72.6172 2.12862C72.6172 3.04911 73.4033 3.79532 74.3732 3.79532Z" fill="#F5F7F0"/>
</g>
</g>
</g>
</g>
<defs>
<clipPath id="clip0_352_25214">
<rect width="76.9524" height="16" fill="white"/>
</clipPath>
</defs>
</svg>
