<svg width="183" height="60" viewBox="0 0 183 60" fill="none" xmlns="http://www.w3.org/2000/svg">
<g id="Group 427318958">
<path id="Vector" d="M58.4057 24.8995C58.4911 25.1375 58.5307 25.3683 58.5307 25.5989V26.0275C58.5307 26.6872 58.2735 27.2147 57.7658 27.6107C57.258 28.0127 56.4467 28.2105 55.332 28.2105H48.7035V23.5937H55.662C56.2425 23.5937 56.7106 23.6598 57.0868 23.7789C57.4558 23.9037 57.7459 24.0552 57.9635 24.247C58.1816 24.4381 58.3264 24.6556 58.4057 24.8995ZM58.1816 35.7428C57.8186 35.914 57.4028 36.0264 56.9347 36.0787C56.4666 36.1315 55.9853 36.1579 55.477 36.1579H48.7035V31.0533H55.4445C56.0309 31.0533 56.5591 31.0995 57.0272 31.1848C57.5019 31.2709 57.9112 31.403 58.2471 31.5941C58.5902 31.7786 58.854 32.0159 59.0452 32.3061C59.2301 32.5964 59.3288 32.9461 59.3352 33.3481V33.6913C59.3419 34.2388 59.2434 34.6743 59.0385 34.9971C58.8275 35.3268 58.5439 35.5709 58.1816 35.7428ZM63.4442 32.082C63.2136 31.5875 62.8836 31.1518 62.4552 30.7895C62.0267 30.42 61.5184 30.1231 60.9253 29.8923C60.3317 29.6551 59.6718 29.5096 58.9465 29.444C60.2985 29.2788 61.3075 28.8768 61.9739 28.2369C62.6397 27.591 62.9761 26.74 62.9761 25.6716V25.0647C62.9761 24.3587 62.8247 23.7458 62.528 23.2115C62.2311 22.6773 61.802 22.2285 61.2479 21.8662C60.6873 21.5099 60.0084 21.2327 59.2104 21.0483C58.4057 20.8566 57.5019 20.7646 56.5063 20.7646H44.3109V39.2382H56.2227C57.3962 39.2382 58.4454 39.1456 59.3816 38.9744C60.3118 38.7966 61.1031 38.5129 61.7623 38.1169C62.4156 37.7209 62.9167 37.2131 63.2664 36.5803C63.6161 35.947 63.7941 35.1821 63.7941 34.2783V33.7177C63.7941 33.1241 63.675 32.5766 63.4442 32.082Z" fill="#FEFEFE"/>
<path id="Vector_2" d="M49.1985 24.0882H55.6618C56.1829 24.0882 56.6113 24.1412 56.9279 24.247C57.2315 24.3455 57.4687 24.4712 57.634 24.6165C57.7854 24.7548 57.8912 24.8929 57.9435 25.0515C58.0029 25.2426 58.036 25.4278 58.036 25.5989V26.0275C58.036 26.5351 57.8581 26.918 57.4621 27.228C57.047 27.5513 56.3277 27.716 55.3319 27.716H49.1985V24.0882ZM58.069 27.9996C58.7025 27.505 59.0251 26.8386 59.0251 26.0275V25.5989C59.0251 25.322 58.9728 25.0317 58.8737 24.7348C58.7679 24.4182 58.5703 24.1279 58.2865 23.884C58.0228 23.6466 57.6731 23.4556 57.2381 23.3102C56.8162 23.172 56.2951 23.1058 55.6618 23.1058H48.2089V28.705H55.3319C56.5716 28.705 57.4687 28.4743 58.069 27.9996ZM58.8406 33.698C58.8473 34.1468 58.7745 34.4958 58.6231 34.7333C58.465 34.9838 58.2535 35.169 57.9699 35.3005C57.6605 35.446 57.2909 35.5451 56.8818 35.5907C56.4335 35.6437 55.9654 35.6635 55.4769 35.6635H49.1985V31.5479H55.4443C55.9984 31.5479 56.4995 31.5875 56.9412 31.6669C57.357 31.7456 57.7193 31.8645 58.0096 32.0226C58.2865 32.1747 58.485 32.3525 58.6297 32.5767C58.7679 32.7875 58.834 33.0453 58.8406 33.3548V33.698ZM58.485 31.1585C58.0956 30.9476 57.6406 30.7962 57.1197 30.697C56.6179 30.6117 56.0572 30.5654 55.4443 30.5654H48.2089V36.6526H55.4769C55.9984 36.6526 56.5062 36.626 56.994 36.5673C57.5151 36.5076 57.9831 36.3821 58.3923 36.191C58.8406 35.9801 59.197 35.6701 59.4542 35.2608C59.7114 34.8588 59.8369 34.3246 59.8303 33.6913V33.3416C59.8171 32.8404 59.6914 32.4053 59.4542 32.0359C59.2234 31.68 58.9001 31.3898 58.485 31.1585ZM56.2226 38.7436H44.7995V21.2593H56.5062C57.4621 21.2593 58.3328 21.3452 59.0978 21.523C59.8369 21.701 60.4697 21.9516 60.9775 22.2813C61.466 22.598 61.8416 22.994 62.0988 23.449C62.3493 23.9104 62.4815 24.4512 62.4815 25.0648V25.6717C62.4815 26.6078 62.2045 27.3271 61.6307 27.8806C61.0435 28.4485 60.12 28.8041 58.8869 28.9562L54.2372 29.5163L58.9001 29.9387C59.5792 29.9982 60.1992 30.1363 60.7467 30.3473C61.2808 30.5587 61.7491 30.8359 62.1318 31.1585C62.5079 31.4818 62.7982 31.858 62.9959 32.2931C63.2001 32.7155 63.2993 33.1967 63.2993 33.7177V34.2783C63.2993 35.0963 63.1407 35.7885 62.8378 36.3431C62.5343 36.8899 62.0855 37.3454 61.505 37.695C60.9054 38.0575 60.1597 38.3278 59.2894 38.4864C58.3923 38.6578 57.357 38.7436 56.2226 38.7436ZM63.8931 31.8712C63.6292 31.3172 63.2531 30.8226 62.7784 30.4134C62.3096 30.0114 61.7424 29.6815 61.103 29.4309C61.0832 29.4243 61.0699 29.4177 61.0502 29.411C61.5513 29.1935 61.9737 28.9232 62.3163 28.5932C63.0818 27.8547 63.464 26.8717 63.464 25.6717V25.0648C63.464 24.28 63.2993 23.5805 62.9562 22.9743C62.6263 22.374 62.1385 21.8596 61.5183 21.4569C60.9119 21.0616 60.1728 20.7647 59.322 20.5664C58.485 20.3687 57.5348 20.2695 56.5062 20.2695H43.8163V39.7261H56.2226C57.4226 39.7261 58.5107 39.6403 59.4674 39.4558C60.4564 39.2713 61.3139 38.9611 62.0134 38.5387C62.7387 38.1037 63.3059 37.5232 63.6946 36.8178C64.0907 36.1183 64.2818 35.2608 64.2818 34.2783V33.7177C64.2818 33.0519 64.1503 32.4319 63.8931 31.8712ZM49.1985 24.0882H55.6618C56.1829 24.0882 56.6113 24.1412 56.9279 24.247C57.2315 24.3455 57.4687 24.4712 57.634 24.6165C57.7854 24.7548 57.8912 24.8929 57.9435 25.0515C58.0029 25.2426 58.036 25.4278 58.036 25.5989V26.0275C58.036 26.5351 57.8581 26.918 57.4621 27.228C57.047 27.5513 56.3277 27.716 55.3319 27.716H49.1985V24.0882ZM58.069 27.9996C58.7025 27.505 59.0251 26.8386 59.0251 26.0275V25.5989C59.0251 25.322 58.9728 25.0317 58.8737 24.7348C58.7679 24.4182 58.5703 24.1279 58.2865 23.884C58.0228 23.6466 57.6731 23.4556 57.2381 23.3102C56.8162 23.172 56.2951 23.1058 55.6618 23.1058H48.2089V28.705H55.3319C56.5716 28.705 57.4687 28.4743 58.069 27.9996ZM58.8406 33.698C58.8473 34.1468 58.7745 34.4958 58.6231 34.7333C58.465 34.9838 58.2535 35.169 57.9699 35.3005C57.6605 35.446 57.2909 35.5451 56.8818 35.5907C56.4335 35.6437 55.9654 35.6635 55.4769 35.6635H49.1985V31.5479H55.4443C55.9984 31.5479 56.4995 31.5875 56.9412 31.6669C57.357 31.7456 57.7193 31.8645 58.0096 32.0226C58.2865 32.1747 58.485 32.3525 58.6297 32.5767C58.7679 32.7875 58.834 33.0453 58.8406 33.3548V33.698ZM59.4542 32.0359C59.2234 31.68 58.9001 31.3898 58.485 31.1585C58.0956 30.9476 57.6406 30.7962 57.1197 30.697C56.6179 30.6117 56.0572 30.5654 55.4443 30.5654H48.2089V36.6526H55.4769C55.9984 36.6526 56.5062 36.626 56.994 36.5673C57.5151 36.5076 57.9831 36.3821 58.3923 36.191C58.8406 35.9801 59.197 35.6701 59.4542 35.2608C59.7114 34.8588 59.8369 34.3246 59.8303 33.6913V33.3416C59.8171 32.8404 59.6914 32.4053 59.4542 32.0359ZM58.8406 33.698C58.8473 34.1468 58.7745 34.4958 58.6231 34.7333C58.465 34.9838 58.2535 35.169 57.9699 35.3005C57.6605 35.446 57.2909 35.5451 56.8818 35.5907C56.4335 35.6437 55.9654 35.6635 55.4769 35.6635H49.1985V31.5479H55.4443C55.9984 31.5479 56.4995 31.5875 56.9412 31.6669C57.357 31.7456 57.7193 31.8645 58.0096 32.0226C58.2865 32.1747 58.485 32.3525 58.6297 32.5767C58.7679 32.7875 58.834 33.0453 58.8406 33.3548V33.698ZM59.4542 32.0359C59.2234 31.68 58.9001 31.3898 58.485 31.1585C58.0956 30.9476 57.6406 30.7962 57.1197 30.697C56.6179 30.6117 56.0572 30.5654 55.4443 30.5654H48.2089V36.6526H55.4769C55.9984 36.6526 56.5062 36.626 56.994 36.5673C57.5151 36.5076 57.9831 36.3821 58.3923 36.191C58.8406 35.9801 59.197 35.6701 59.4542 35.2608C59.7114 34.8588 59.8369 34.3246 59.8303 33.6913V33.3416C59.8171 32.8404 59.6914 32.4053 59.4542 32.0359ZM58.036 26.0275C58.036 26.5351 57.8581 26.918 57.4621 27.228C57.047 27.5513 56.3277 27.716 55.3319 27.716H49.1985V24.0882H55.6618C56.1829 24.0882 56.6113 24.1412 56.9279 24.247C57.2315 24.3455 57.4687 24.4712 57.634 24.6165C57.7854 24.7548 57.8912 24.8929 57.9435 25.0515C58.0029 25.2426 58.036 25.4278 58.036 25.5989V26.0275ZM58.8737 24.7348C58.7679 24.4182 58.5703 24.1279 58.2865 23.884C58.0228 23.6466 57.6731 23.4556 57.2381 23.3102C56.8162 23.172 56.2951 23.1058 55.6618 23.1058H48.2089V28.705H55.3319C56.5716 28.705 57.4687 28.4743 58.069 27.9996C58.7025 27.505 59.0251 26.8386 59.0251 26.0275V25.5989C59.0251 25.322 58.9728 25.0317 58.8737 24.7348Z" fill="#FEFEFE"/>
<path id="Vector_3" d="M107.897 29.8131L114.585 20.7646H109.679L104.039 28.1774H99.9829V20.7646H95.5903V39.2382H99.9829V31.4817H104.211L110.543 39.2382H115.588L107.897 29.8131Z" fill="#FEFEFE"/>
<path id="Vector_4" d="M99.4883 38.7436H96.0787V21.2593H99.4883V28.666H104.283L109.922 21.2593H113.609L107.271 29.8263L114.546 38.7436H110.78L104.442 30.9873H99.4883V38.7436ZM108.517 29.7939L115.561 20.2695H109.434L103.795 27.683H100.477V20.2695H95.0957V39.7261H100.477V31.9764H103.973L110.311 39.7261H116.623L108.517 29.7939Z" fill="#FEFEFE"/>
<path id="Vector_5" d="M117.117 20.7646V23.917H124.795V39.2382H129.194V23.917H136.858V20.7646H117.117Z" fill="#FEFEFE"/>
<path id="Vector_6" d="M136.363 23.4226H128.699V38.7436H125.289V23.4226H117.612V21.2593H136.363V23.4226ZM116.623 20.2695V24.4051H124.3V39.7261H129.681V24.4051H137.352V20.2695H116.623Z" fill="#FEFEFE"/>
<path id="Vector_7" d="M167.645 23.9037H174.194C174.867 23.9037 175.441 23.9634 175.909 24.0817C176.377 24.2073 176.754 24.3851 177.05 24.6164C177.34 24.8472 177.558 25.1375 177.69 25.4734C177.822 25.8164 177.887 26.2124 177.887 26.6608V27.2346C177.887 28.2105 177.585 28.9562 176.971 29.464C176.351 29.9717 175.362 30.2289 173.983 30.2289H167.645V23.9037ZM181.825 24.0029C181.482 23.3101 180.981 22.723 180.328 22.2418C179.668 21.7604 178.864 21.3974 177.914 21.1402C176.964 20.8897 175.883 20.7646 174.682 20.7646H163.266V39.2382H167.632V33.3614H174.702C175.936 33.3614 177.024 33.2297 177.973 32.966C178.93 32.7022 179.728 32.3128 180.374 31.805C181.021 31.2973 181.515 30.664 181.845 29.9123C182.181 29.1604 182.346 28.2963 182.346 27.3205V26.3772C182.346 25.4931 182.175 24.7017 181.825 24.0029Z" fill="#FEFEFE"/>
<path id="Vector_8" d="M173.983 29.7343H168.139V24.3918H174.194C174.821 24.3918 175.355 24.4512 175.783 24.5636C176.18 24.6687 176.503 24.8142 176.74 25.0053C176.964 25.1832 177.129 25.3947 177.228 25.6584C177.34 25.9422 177.399 26.2781 177.399 26.6608V27.2347C177.399 28.0657 177.155 28.6726 176.654 29.0812C176.133 29.5163 175.236 29.7343 173.983 29.7343ZM177.353 24.2271C177.011 23.9567 176.562 23.7459 176.027 23.6071C175.526 23.4754 174.906 23.4093 174.194 23.4093H167.157V30.7168H173.983C175.493 30.7168 176.568 30.4332 177.281 29.8396C178.013 29.2398 178.382 28.3624 178.382 27.2347V26.6608C178.382 26.153 178.303 25.6914 178.145 25.2956C177.98 24.8731 177.716 24.5173 177.353 24.2271ZM181.851 27.3205C181.851 28.2238 181.699 29.0283 181.397 29.7146C181.093 30.387 180.651 30.9609 180.07 31.4228C179.477 31.8844 178.725 32.2474 177.842 32.4913C176.938 32.7419 175.883 32.8734 174.702 32.8734H167.144V38.7436H163.76V21.2593H174.682C175.836 21.2593 176.878 21.3777 177.789 21.6216C178.679 21.853 179.431 22.1955 180.031 22.6377C180.624 23.0727 181.08 23.6071 181.383 24.2271C181.693 24.8473 181.851 25.5725 181.851 26.3772V27.3205ZM182.267 23.7854C181.891 23.0199 181.337 22.3674 180.618 21.8463C179.912 21.3319 179.048 20.936 178.039 20.6656C177.05 20.4017 175.922 20.2695 174.682 20.2695H162.771V39.7261H168.126V33.8566H174.702C175.975 33.8566 177.116 33.7177 178.105 33.4408C179.121 33.1636 179.985 32.7419 180.677 32.1944C181.39 31.6403 181.931 30.941 182.293 30.1165C182.656 29.2988 182.84 28.3624 182.84 27.3205V26.3772C182.84 25.4211 182.649 24.5504 182.267 23.7854ZM173.983 29.7343H168.139V24.3918H174.194C174.821 24.3918 175.355 24.4512 175.783 24.5636C176.18 24.6687 176.503 24.8142 176.74 25.0053C176.964 25.1832 177.129 25.3947 177.228 25.6584C177.34 25.9422 177.399 26.2781 177.399 26.6608V27.2347C177.399 28.0657 177.155 28.6726 176.654 29.0812C176.133 29.5163 175.236 29.7343 173.983 29.7343ZM178.145 25.2956C177.98 24.8731 177.716 24.5173 177.353 24.2271C177.011 23.9567 176.562 23.7459 176.027 23.6071C175.526 23.4754 174.906 23.4093 174.194 23.4093H167.157V30.7168H173.983C175.493 30.7168 176.568 30.4332 177.281 29.8396C178.013 29.2398 178.382 28.3624 178.382 27.2347V26.6608C178.382 26.153 178.303 25.6914 178.145 25.2956ZM173.983 29.7343H168.139V24.3918H174.194C174.821 24.3918 175.355 24.4512 175.783 24.5636C176.18 24.6687 176.503 24.8142 176.74 25.0053C176.964 25.1832 177.129 25.3947 177.228 25.6584C177.34 25.9422 177.399 26.2781 177.399 26.6608V27.2347C177.399 28.0657 177.155 28.6726 176.654 29.0812C176.133 29.5163 175.236 29.7343 173.983 29.7343ZM178.145 25.2956C177.98 24.8731 177.716 24.5173 177.353 24.2271C177.011 23.9567 176.562 23.7459 176.027 23.6071C175.526 23.4754 174.906 23.4093 174.194 23.4093H167.157V30.7168H173.983C175.493 30.7168 176.568 30.4332 177.281 29.8396C178.013 29.2398 178.382 28.3624 178.382 27.2347V26.6608C178.382 26.153 178.303 25.6914 178.145 25.2956Z" fill="#FEFEFE"/>
<path id="Vector_9" d="M155.421 35.2446H143.818V25.1002H155.421V35.2446ZM160.528 25.4801C160.053 24.3395 159.321 23.3432 158.351 22.5055C157.389 21.6811 156.162 21.0286 154.711 20.5665C153.273 20.1117 151.558 19.8809 149.612 19.8809C147.667 19.8809 145.952 20.1117 144.515 20.5598C143.063 21.0219 141.837 21.6678 140.874 22.4924C139.904 23.3168 139.173 24.3198 138.697 25.4668C138.222 26.6014 137.985 27.8482 137.985 29.1871V30.8226C137.985 32.1614 138.222 33.4142 138.697 34.5422C139.173 35.6833 139.904 36.679 140.874 37.5101C141.837 38.3345 143.063 38.9811 144.515 39.4359C145.952 39.8909 147.66 40.1222 149.599 40.1222C151.545 40.1222 153.26 39.8842 154.698 39.4294C156.155 38.9678 157.376 38.3148 158.345 37.4902C159.321 36.6591 160.053 35.6569 160.528 34.5158C161.003 33.3878 161.24 32.1481 161.24 30.8226V29.1871C161.24 27.8614 161.003 26.6145 160.528 25.4801Z" fill="#FEFEFE"/>
<path id="Vector_10" d="M74.6848 24.4069H92.5639V20.2715H74.6848V24.4069Z" fill="#4EDDBB"/>
<path id="Vector_11" d="M70.3556 31.818H88.2349V27.6826H70.3556V31.818Z" fill="#4EDDBB"/>
<path id="Vector_12" d="M66.8694 39.8024H84.7485V35.667H66.8694V39.8024Z" fill="#4EDDBB"/>
<path id="Vector_13" d="M4.16061 2.95717L23.3419 27.6812L32.9197 15.6716L22.4238 2.95717H4.16061ZM3.70871 57.043H22.1762L32.6325 44.48L23.3101 32.4638L3.70871 57.043ZM22.5025 60H2.2636C1.3874 60 0.606929 59.5096 0.227084 58.7206C-0.153272 57.9316 -0.0505603 57.0152 0.495701 56.3303L21.4449 30.0595L0.95305 3.64685C0.420586 2.95956 0.326901 2.04725 0.70896 1.26678C1.09187 0.485624 1.86996 0 2.73951 0H22.7524C23.4285 0 24.0642 0.299958 24.4956 0.821521L35.5595 14.2246C36.2356 15.0454 36.2451 16.2431 35.5828 17.0734L25.2071 30.0847L35.3118 43.1093C35.9572 43.9421 35.9368 45.1331 35.2633 45.942L24.2398 59.1858C23.81 59.7026 23.176 60 22.5025 60Z" fill="#4EDDBB"/>
<path id="Vector_14" d="M21.6901 59.4127L0.489792 31.3657C-0.120856 30.5581 -0.11711 29.4333 0.497626 28.6293L21.9468 0.581055L24.295 2.37655L3.16727 30.0052L24.0487 57.6298L21.6901 59.4127Z" fill="#4EDDBB"/>
<path id="Vector_15" d="M13.4473 17.0499H34.8244V14.0928H13.4473V17.0499Z" fill="#4EDDBB"/>
<path id="Vector_16" d="M1.526 31.4785H22.9029V28.5215H1.526V31.4785Z" fill="#4EDDBB"/>
<path id="Vector_17" d="M12.9369 45.4455H34.3142V42.4883H12.9369V45.4455Z" fill="#4EDDBB"/>
</g>
</svg>
