<svg width="133" height="196" viewBox="0 0 133 196" fill="none" xmlns="http://www.w3.org/2000/svg">
<g opacity="0.05">
<rect x="-3" width="16" height="16" rx="2" fill="#4EDDBB"/>
<rect x="-3" y="20" width="16" height="16" rx="2" fill="#4EDDBB"/>
<rect x="-3" y="40" width="16" height="16" rx="2" fill="#4EDDBB"/>
<rect x="-3" y="60" width="16" height="16" rx="2" fill="#4EDDBB"/>
<rect x="-3" y="80" width="16" height="16" rx="2" fill="#4EDDBB"/>
<rect x="-3" y="100" width="16" height="16" rx="2" fill="#4EDDBB"/>
<rect x="-3" y="120" width="16" height="16" rx="2" fill="#4EDDBB"/>
<rect x="-3" y="140" width="16" height="16" rx="2" fill="#4EDDBB"/>
<rect x="-3" y="160" width="16" height="16" rx="2" fill="#4EDDBB"/>
<rect x="-3" y="180" width="16" height="16" rx="2" fill="#4EDDBB"/>
<rect x="17" width="16" height="16" rx="2" fill="#4EDDBB"/>
<rect x="17" y="20" width="16" height="16" rx="2" fill="#4EDDBB"/>
<rect x="17" y="40" width="16" height="16" rx="2" fill="#4EDDBB"/>
<rect x="17" y="60" width="16" height="16" rx="2" fill="#4EDDBB"/>
<rect x="17" y="80" width="16" height="16" rx="2" fill="#4EDDBB"/>
<rect x="17" y="100" width="16" height="16" rx="2" fill="#4EDDBB"/>
<rect x="17" y="120" width="16" height="16" rx="2" fill="#4EDDBB"/>
<rect x="17" y="140" width="16" height="16" rx="2" fill="#4EDDBB"/>
<rect x="17" y="160" width="16" height="16" rx="2" fill="#4EDDBB"/>
<rect x="17" y="180" width="16" height="16" rx="2" fill="#4EDDBB"/>
<rect x="37" width="16" height="16" rx="2" fill="#4EDDBB"/>
<rect x="37" y="20" width="16" height="16" rx="2" fill="#4EDDBB"/>
<rect x="37" y="40" width="16" height="16" rx="2" fill="#4EDDBB"/>
<rect x="37" y="60" width="16" height="16" rx="2" fill="#4EDDBB"/>
<rect x="37" y="80" width="16" height="16" rx="2" fill="#4EDDBB"/>
<rect x="37" y="100" width="16" height="16" rx="2" fill="#4EDDBB"/>
<rect x="37" y="120" width="16" height="16" rx="2" fill="#4EDDBB"/>
<rect x="37" y="140" width="16" height="16" rx="2" fill="#4EDDBB"/>
<rect x="37" y="160" width="16" height="16" rx="2" fill="#4EDDBB"/>
<rect x="37" y="180" width="16" height="16" rx="2" fill="#4EDDBB"/>
<rect x="57" width="16" height="16" rx="2" fill="#4EDDBB"/>
<rect x="57" y="20" width="16" height="16" rx="2" fill="#4EDDBB"/>
<rect x="57" y="40" width="16" height="16" rx="2" fill="#4EDDBB"/>
<rect x="57" y="60" width="16" height="16" rx="2" fill="#4EDDBB"/>
<rect x="57" y="80" width="16" height="16" rx="2" fill="#4EDDBB"/>
<rect x="57" y="100" width="16" height="16" rx="2" fill="#4EDDBB"/>
<rect x="57" y="120" width="16" height="16" rx="2" fill="#4EDDBB"/>
<rect x="57" y="140" width="16" height="16" rx="2" fill="#4EDDBB"/>
<rect x="57" y="160" width="16" height="16" rx="2" fill="#4EDDBB"/>
<rect x="57" y="180" width="16" height="16" rx="2" fill="#4EDDBB"/>
<rect x="77" width="16" height="16" rx="2" fill="#4EDDBB"/>
<rect x="77" y="20" width="16" height="16" rx="2" fill="#4EDDBB"/>
<rect x="77" y="40" width="16" height="16" rx="2" fill="#4EDDBB"/>
<rect x="77" y="60" width="16" height="16" rx="2" fill="#4EDDBB"/>
<rect x="77" y="80" width="16" height="16" rx="2" fill="#4EDDBB"/>
<rect x="77" y="100" width="16" height="16" rx="2" fill="#4EDDBB"/>
<rect x="77" y="120" width="16" height="16" rx="2" fill="#4EDDBB"/>
<rect x="77" y="140" width="16" height="16" rx="2" fill="#4EDDBB"/>
<rect x="77" y="160" width="16" height="16" rx="2" fill="#4EDDBB"/>
<rect x="77" y="180" width="16" height="16" rx="2" fill="#4EDDBB"/>
<rect x="97" width="16" height="16" rx="2" fill="#4EDDBB"/>
<rect x="97" y="20" width="16" height="16" rx="2" fill="#4EDDBB"/>
<rect x="97" y="40" width="16" height="16" rx="2" fill="#4EDDBB"/>
<rect x="97" y="60" width="16" height="16" rx="2" fill="#4EDDBB"/>
<rect x="97" y="80" width="16" height="16" rx="2" fill="#4EDDBB"/>
<rect x="97" y="100" width="16" height="16" rx="2" fill="#4EDDBB"/>
<rect x="97" y="120" width="16" height="16" rx="2" fill="#4EDDBB"/>
<rect x="97" y="140" width="16" height="16" rx="2" fill="#4EDDBB"/>
<rect x="97" y="160" width="16" height="16" rx="2" fill="#4EDDBB"/>
<rect x="97" y="180" width="16" height="16" rx="2" fill="#4EDDBB"/>
<rect x="117" width="16" height="16" rx="2" fill="#4EDDBB"/>
<rect x="117" y="20" width="16" height="16" rx="2" fill="#4EDDBB"/>
<rect x="117" y="40" width="16" height="16" rx="2" fill="#4EDDBB"/>
<rect x="117" y="60" width="16" height="16" rx="2" fill="#4EDDBB"/>
<rect x="117" y="80" width="16" height="16" rx="2" fill="#4EDDBB"/>
<rect x="117" y="100" width="16" height="16" rx="2" fill="#4EDDBB"/>
<rect x="117" y="120" width="16" height="16" rx="2" fill="#4EDDBB"/>
<rect x="117" y="140" width="16" height="16" rx="2" fill="#4EDDBB"/>
<rect x="117" y="160" width="16" height="16" rx="2" fill="#4EDDBB"/>
<rect x="117" y="180" width="16" height="16" rx="2" fill="#4EDDBB"/>
</g>
</svg>
