<svg width="355" height="209" viewBox="0 0 355 209" fill="none" xmlns="http://www.w3.org/2000/svg">
<g clip-path="url(#clip0_351_639)">
<rect x="339.926" width="15.4691" height="15.4691" rx="2" transform="rotate(90 339.926 0)" fill="#1E1E1E"/>
<rect x="308.988" width="15.4691" height="15.4691" rx="2" transform="rotate(90 308.988 0)" fill="#1E1E1E"/>
<rect x="278.049" width="15.4691" height="15.4691" rx="2" transform="rotate(90 278.049 0)" fill="#1E1E1E"/>
<rect x="247.111" width="15.4691" height="15.4691" rx="2" transform="rotate(90 247.111 0)" fill="#1E1E1E"/>
<rect x="216.174" width="15.4691" height="15.4691" rx="2" transform="rotate(90 216.174 0)" fill="#1E1E1E"/>
<rect x="185.234" width="15.4691" height="15.4691" rx="2" transform="rotate(90 185.234 0)" fill="#1E1E1E"/>
<rect x="154.297" width="15.4691" height="15.4691" rx="2" transform="rotate(90 154.297 0)" fill="#1E1E1E"/>
<rect x="123.357" width="15.4691" height="15.4691" rx="2" transform="rotate(90 123.357 0)" fill="#1E1E1E"/>
<rect x="92.4199" width="15.4691" height="15.4691" rx="2" transform="rotate(90 92.4199 0)" fill="#1E1E1E"/>
<rect x="61.4824" width="15.4691" height="15.4691" rx="2" transform="rotate(90 61.4824 0)" fill="#1E1E1E"/>
<rect x="30.543" width="15.4691" height="15.4691" rx="2" transform="rotate(90 30.543 0)" fill="#1E1E1E"/>
<rect x="339.926" y="30.9375" width="15.4691" height="15.4691" rx="2" transform="rotate(90 339.926 30.9375)" fill="#1E1E1E"/>
<rect x="308.988" y="30.9375" width="15.4691" height="15.4691" rx="2" transform="rotate(90 308.988 30.9375)" fill="#1E1E1E"/>
<rect x="278.049" y="30.9375" width="15.4691" height="15.4691" rx="2" transform="rotate(90 278.049 30.9375)" fill="#1E1E1E"/>
<rect x="247.111" y="30.9375" width="15.4691" height="15.4691" rx="2" transform="rotate(90 247.111 30.9375)" fill="#1E1E1E"/>
<rect x="216.174" y="30.9375" width="15.4691" height="15.4691" rx="2" transform="rotate(90 216.174 30.9375)" fill="#1E1E1E"/>
<rect x="185.234" y="30.9375" width="15.4691" height="15.4691" rx="2" transform="rotate(90 185.234 30.9375)" fill="#1E1E1E"/>
<rect x="154.297" y="30.9375" width="15.4691" height="15.4691" rx="2" transform="rotate(90 154.297 30.9375)" fill="#1E1E1E"/>
<rect x="123.357" y="30.9375" width="15.4691" height="15.4691" rx="2" transform="rotate(90 123.357 30.9375)" fill="#1E1E1E"/>
<rect x="92.4199" y="30.9375" width="15.4691" height="15.4691" rx="2" transform="rotate(90 92.4199 30.9375)" fill="#1E1E1E"/>
<rect x="61.4824" y="30.9375" width="15.4691" height="15.4691" rx="2" transform="rotate(90 61.4824 30.9375)" fill="#1E1E1E"/>
<rect x="30.543" y="30.9375" width="15.4691" height="15.4691" rx="2" transform="rotate(90 30.543 30.9375)" fill="#1E1E1E"/>
<rect x="339.926" y="61.8789" width="15.4691" height="15.4691" rx="2" transform="rotate(90 339.926 61.8789)" fill="#1E1E1E"/>
<rect x="308.988" y="61.875" width="15.4691" height="15.4691" rx="2" transform="rotate(90 308.988 61.875)" fill="#1E1E1E"/>
<rect x="278.049" y="61.875" width="15.4691" height="15.4691" rx="2" transform="rotate(90 278.049 61.875)" fill="#1E1E1E"/>
<rect x="247.111" y="61.875" width="15.4691" height="15.4691" rx="2" transform="rotate(90 247.111 61.875)" fill="#1E1E1E"/>
<rect x="216.174" y="61.875" width="15.4691" height="15.4691" rx="2" transform="rotate(90 216.174 61.875)" fill="#1E1E1E"/>
<rect x="185.234" y="61.875" width="15.4691" height="15.4691" rx="2" transform="rotate(90 185.234 61.875)" fill="#1E1E1E"/>
<rect x="154.297" y="61.8789" width="15.4691" height="15.4691" rx="2" transform="rotate(90 154.297 61.8789)" fill="#1E1E1E"/>
<rect x="123.357" y="61.8789" width="15.4691" height="15.4691" rx="2" transform="rotate(90 123.357 61.8789)" fill="#1E1E1E"/>
<rect x="92.4199" y="61.8789" width="15.4691" height="15.4691" rx="2" transform="rotate(90 92.4199 61.8789)" fill="#1E1E1E"/>
<rect x="61.4824" y="61.8789" width="15.4691" height="15.4691" rx="2" transform="rotate(90 61.4824 61.8789)" fill="#1E1E1E"/>
<rect x="30.543" y="61.8789" width="15.4691" height="15.4691" rx="2" transform="rotate(90 30.543 61.8789)" fill="#1E1E1E"/>
<rect x="339.926" y="92.8125" width="15.4691" height="15.4691" rx="2" transform="rotate(90 339.926 92.8125)" fill="#1E1E1E"/>
<rect x="308.988" y="92.8125" width="15.4691" height="15.4691" rx="2" transform="rotate(90 308.988 92.8125)" fill="#1E1E1E"/>
<rect x="278.049" y="92.8125" width="15.4691" height="15.4691" rx="2" transform="rotate(90 278.049 92.8125)" fill="#1E1E1E"/>
<rect x="247.111" y="92.8125" width="15.4691" height="15.4691" rx="2" transform="rotate(90 247.111 92.8125)" fill="#1E1E1E"/>
<rect x="216.174" y="92.8125" width="15.4691" height="15.4691" rx="2" transform="rotate(90 216.174 92.8125)" fill="#1E1E1E"/>
<rect x="185.234" y="92.8125" width="15.4691" height="15.4691" rx="2" transform="rotate(90 185.234 92.8125)" fill="#1E1E1E"/>
<rect x="154.297" y="92.8164" width="15.4691" height="15.4691" rx="2" transform="rotate(90 154.297 92.8164)" fill="#1E1E1E"/>
<rect x="123.357" y="92.8164" width="15.4691" height="15.4691" rx="2" transform="rotate(90 123.357 92.8164)" fill="#1E1E1E"/>
<rect x="92.4199" y="92.8164" width="15.4691" height="15.4691" rx="2" transform="rotate(90 92.4199 92.8164)" fill="#1E1E1E"/>
<rect x="61.4824" y="92.8164" width="15.4691" height="15.4691" rx="2" transform="rotate(90 61.4824 92.8164)" fill="#1E1E1E"/>
<rect x="30.543" y="92.8164" width="15.4691" height="15.4691" rx="2" transform="rotate(90 30.543 92.8164)" fill="#1E1E1E"/>
<rect x="339.926" y="123.754" width="15.4691" height="15.4691" rx="2" transform="rotate(90 339.926 123.754)" fill="#1E1E1E"/>
<rect x="308.988" y="123.75" width="15.4691" height="15.4691" rx="2" transform="rotate(90 308.988 123.75)" fill="#1E1E1E"/>
<rect x="278.049" y="123.75" width="15.4691" height="15.4691" rx="2" transform="rotate(90 278.049 123.75)" fill="#1E1E1E"/>
<rect x="247.111" y="123.75" width="15.4691" height="15.4691" rx="2" transform="rotate(90 247.111 123.75)" fill="#1E1E1E"/>
<rect x="216.174" y="123.75" width="15.4691" height="15.4691" rx="2" transform="rotate(90 216.174 123.75)" fill="#1E1E1E"/>
<rect x="185.234" y="123.754" width="15.4691" height="15.4691" rx="2" transform="rotate(90 185.234 123.754)" fill="#1E1E1E"/>
<rect x="154.297" y="123.754" width="15.4691" height="15.4691" rx="2" transform="rotate(90 154.297 123.754)" fill="#1E1E1E"/>
<rect x="123.357" y="123.754" width="15.4691" height="15.4691" rx="2" transform="rotate(90 123.357 123.754)" fill="#1E1E1E"/>
<rect x="92.4199" y="123.754" width="15.4691" height="15.4691" rx="2" transform="rotate(90 92.4199 123.754)" fill="#1E1E1E"/>
<rect x="61.4824" y="123.754" width="15.4691" height="15.4691" rx="2" transform="rotate(90 61.4824 123.754)" fill="#1E1E1E"/>
<rect x="30.543" y="123.754" width="15.4691" height="15.4691" rx="2" transform="rotate(90 30.543 123.754)" fill="#1E1E1E"/>
<rect x="339.926" y="154.691" width="15.4691" height="15.4691" rx="2" transform="rotate(90 339.926 154.691)" fill="#1E1E1E"/>
<rect x="308.988" y="154.691" width="15.4691" height="15.4691" rx="2" transform="rotate(90 308.988 154.691)" fill="#1E1E1E"/>
<rect x="278.049" y="154.691" width="15.4691" height="15.4691" rx="2" transform="rotate(90 278.049 154.691)" fill="#1E1E1E"/>
<rect x="247.111" y="154.691" width="15.4691" height="15.4691" rx="2" transform="rotate(90 247.111 154.691)" fill="#1E1E1E"/>
<rect x="216.174" y="154.691" width="15.4691" height="15.4691" rx="2" transform="rotate(90 216.174 154.691)" fill="#1E1E1E"/>
<rect x="185.234" y="154.691" width="15.4691" height="15.4691" rx="2" transform="rotate(90 185.234 154.691)" fill="#1E1E1E"/>
<rect opacity="0.6" x="154.297" y="154.691" width="15.4691" height="15.4691" rx="2" transform="rotate(90 154.297 154.691)" fill="#1E1E1E"/>
<rect x="123.357" y="154.691" width="15.4691" height="15.4691" rx="2" transform="rotate(90 123.357 154.691)" fill="#1E1E1E"/>
<rect x="92.4199" y="154.691" width="15.4691" height="15.4691" rx="2" transform="rotate(90 92.4199 154.691)" fill="#1E1E1E"/>
<rect x="61.4824" y="154.691" width="15.4691" height="15.4691" rx="2" transform="rotate(90 61.4824 154.691)" fill="#1E1E1E"/>
<rect x="30.543" y="154.691" width="15.4691" height="15.4691" rx="2" transform="rotate(90 30.543 154.691)" fill="#1E1E1E"/>
<rect x="339.926" y="185.629" width="15.4691" height="15.4691" rx="2" transform="rotate(90 339.926 185.629)" fill="#1E1E1E"/>
<rect x="308.988" y="185.629" width="15.4691" height="15.4691" rx="2" transform="rotate(90 308.988 185.629)" fill="#1E1E1E"/>
<rect x="278.049" y="185.629" width="15.4691" height="15.4691" rx="2" transform="rotate(90 278.049 185.629)" fill="#1E1E1E"/>
<rect x="247.111" y="185.629" width="15.4691" height="15.4691" rx="2" transform="rotate(90 247.111 185.629)" fill="#1E1E1E"/>
<rect x="216.174" y="185.629" width="15.4691" height="15.4691" rx="2" transform="rotate(90 216.174 185.629)" fill="#1E1E1E"/>
<rect x="185.234" y="185.629" width="15.4691" height="15.4691" rx="2" transform="rotate(90 185.234 185.629)" fill="#1E1E1E"/>
<rect x="154.297" y="185.629" width="15.4691" height="15.4691" rx="2" transform="rotate(90 154.297 185.629)" fill="#1E1E1E"/>
<rect x="123.357" y="185.629" width="15.4691" height="15.4691" rx="2" transform="rotate(90 123.357 185.629)" fill="#1E1E1E"/>
<rect x="92.4199" y="185.629" width="15.4691" height="15.4691" rx="2" transform="rotate(90 92.4199 185.629)" fill="#1E1E1E"/>
<rect x="61.4824" y="185.629" width="15.4691" height="15.4691" rx="2" transform="rotate(90 61.4824 185.629)" fill="#1E1E1E"/>
<rect x="30.543" y="185.629" width="15.4691" height="15.4691" rx="2" transform="rotate(90 30.543 185.629)" fill="#1E1E1E"/>
</g>
<defs>
<clipPath id="clip0_351_639">
<rect width="209" height="355" fill="white" transform="translate(355) rotate(90)"/>
</clipPath>
</defs>
</svg>
