<svg width="230" height="484" viewBox="0 0 230 484" fill="none" xmlns="http://www.w3.org/2000/svg">
<g opacity="0.05">
<g clip-path="url(#clip0_514_1715)">
<rect width="15.5932" height="15.5932" rx="1.94915" transform="matrix(4.37114e-08 -1 -1 -4.37114e-08 210.508 483.916)" fill="#4EDDBB"/>
<rect width="15.5932" height="15.5932" rx="1.94915" transform="matrix(4.37114e-08 -1 -1 -4.37114e-08 210.508 464.424)" fill="#4EDDBB"/>
<rect width="15.5932" height="15.5932" rx="1.94915" transform="matrix(4.37114e-08 -1 -1 -4.37114e-08 210.508 444.934)" fill="#4EDDBB"/>
<rect width="15.5932" height="15.5932" rx="1.94915" transform="matrix(4.37114e-08 -1 -1 -4.37114e-08 210.508 425.441)" fill="#4EDDBB"/>
<rect width="15.5932" height="15.5932" rx="1.94915" transform="matrix(4.37114e-08 -1 -1 -4.37114e-08 210.508 405.949)" fill="#4EDDBB"/>
<rect width="15.5932" height="15.5932" rx="1.94915" transform="matrix(4.37114e-08 -1 -1 -4.37114e-08 210.508 386.457)" fill="#4EDDBB"/>
<rect width="15.5932" height="15.5932" rx="1.94915" transform="matrix(4.37114e-08 -1 -1 -4.37114e-08 191.016 483.916)" fill="#4EDDBB"/>
<rect width="15.5932" height="15.5932" rx="1.94915" transform="matrix(4.37114e-08 -1 -1 -4.37114e-08 191.016 464.424)" fill="#4EDDBB"/>
<rect width="15.5932" height="15.5932" rx="1.94915" transform="matrix(4.37114e-08 -1 -1 -4.37114e-08 191.016 444.934)" fill="#4EDDBB"/>
<rect width="15.5932" height="15.5932" rx="1.94915" transform="matrix(4.37114e-08 -1 -1 -4.37114e-08 191.016 425.441)" fill="#4EDDBB"/>
<rect width="15.5932" height="15.5932" rx="1.94915" transform="matrix(4.37114e-08 -1 -1 -4.37114e-08 191.016 405.949)" fill="#4EDDBB"/>
<rect width="15.5932" height="15.5932" rx="1.94915" transform="matrix(4.37114e-08 -1 -1 -4.37114e-08 191.016 386.457)" fill="#4EDDBB"/>
<rect width="15.5932" height="15.5932" rx="1.94915" transform="matrix(4.37114e-08 -1 -1 -4.37114e-08 191.016 366.967)" fill="#4EDDBB"/>
<rect width="15.5932" height="15.5932" rx="1.94915" transform="matrix(4.37114e-08 -1 -1 -4.37114e-08 191.016 347.477)" fill="#4EDDBB"/>
<rect width="15.5932" height="15.5932" rx="1.94915" transform="matrix(4.37114e-08 -1 -1 -4.37114e-08 191.016 327.984)" fill="#4EDDBB"/>
<rect width="15.5932" height="15.5932" rx="1.94915" transform="matrix(4.37114e-08 -1 -1 -4.37114e-08 191.016 308.492)" fill="#4EDDBB"/>
<rect width="15.5932" height="15.5932" rx="1.94915" transform="matrix(4.37114e-08 -1 -1 -4.37114e-08 191.016 289)" fill="#4EDDBB"/>
<rect width="15.5932" height="15.5932" rx="1.94915" transform="matrix(4.37114e-08 -1 -1 -4.37114e-08 191.016 269.508)" fill="#4EDDBB"/>
<rect width="15.5932" height="15.5932" rx="1.94915" transform="matrix(4.37114e-08 -1 -1 -4.37114e-08 191.016 250.018)" fill="#4EDDBB"/>
<rect width="15.5932" height="15.5932" rx="1.94915" transform="matrix(4.37114e-08 -1 -1 -4.37114e-08 191.016 230.525)" fill="#4EDDBB"/>
<rect width="15.5932" height="15.5932" rx="1.94915" transform="matrix(4.37114e-08 -1 -1 -4.37114e-08 191.016 211.035)" fill="#4EDDBB"/>
<rect width="15.5932" height="15.5932" rx="1.94915" transform="matrix(4.37114e-08 -1 -1 -4.37114e-08 191.016 191.543)" fill="#4EDDBB"/>
<rect width="15.5932" height="15.5932" rx="1.94915" transform="matrix(4.37114e-08 -1 -1 -4.37114e-08 191.016 172.051)" fill="#4EDDBB"/>
<rect width="15.5932" height="15.5932" rx="1.94915" transform="matrix(4.37114e-08 -1 -1 -4.37114e-08 171.523 483.916)" fill="#4EDDBB"/>
<rect width="15.5932" height="15.5932" rx="1.94915" transform="matrix(4.37114e-08 -1 -1 -4.37114e-08 171.523 464.424)" fill="#4EDDBB"/>
<rect width="15.5932" height="15.5932" rx="1.94915" transform="matrix(4.37114e-08 -1 -1 -4.37114e-08 171.523 444.934)" fill="#4EDDBB"/>
<rect width="15.5932" height="15.5932" rx="1.94915" transform="matrix(4.37114e-08 -1 -1 -4.37114e-08 171.523 425.441)" fill="#4EDDBB"/>
<rect width="15.5932" height="15.5932" rx="1.94915" transform="matrix(4.37114e-08 -1 -1 -4.37114e-08 171.523 405.949)" fill="#4EDDBB"/>
<rect width="15.5932" height="15.5932" rx="1.94915" transform="matrix(4.37114e-08 -1 -1 -4.37114e-08 171.523 386.457)" fill="#4EDDBB"/>
<rect width="15.5932" height="15.5932" rx="1.94915" transform="matrix(4.37114e-08 -1 -1 -4.37114e-08 171.523 366.967)" fill="#4EDDBB"/>
<rect width="15.5932" height="15.5932" rx="1.94915" transform="matrix(4.37114e-08 -1 -1 -4.37114e-08 171.523 347.477)" fill="#4EDDBB"/>
<rect width="15.5932" height="15.5932" rx="1.94915" transform="matrix(4.37114e-08 -1 -1 -4.37114e-08 171.523 327.984)" fill="#4EDDBB"/>
<rect width="15.5932" height="15.5932" rx="1.94915" transform="matrix(4.37114e-08 -1 -1 -4.37114e-08 171.523 308.492)" fill="#4EDDBB"/>
<rect width="15.5932" height="15.5932" rx="1.94915" transform="matrix(4.37114e-08 -1 -1 -4.37114e-08 171.523 289)" fill="#4EDDBB"/>
<rect width="15.5932" height="15.5932" rx="1.94915" transform="matrix(4.37114e-08 -1 -1 -4.37114e-08 171.523 269.508)" fill="#4EDDBB"/>
<rect width="15.5932" height="15.5932" rx="1.94915" transform="matrix(4.37114e-08 -1 -1 -4.37114e-08 171.523 250.018)" fill="#4EDDBB"/>
<rect width="15.5932" height="15.5932" rx="1.94915" transform="matrix(4.37114e-08 -1 -1 -4.37114e-08 171.523 230.525)" fill="#4EDDBB"/>
<rect width="15.5932" height="15.5932" rx="1.94915" transform="matrix(4.37114e-08 -1 -1 -4.37114e-08 171.523 211.035)" fill="#4EDDBB"/>
<rect width="15.5932" height="15.5932" rx="1.94915" transform="matrix(4.37114e-08 -1 -1 -4.37114e-08 171.523 191.543)" fill="#4EDDBB"/>
<rect width="15.5932" height="15.5932" rx="1.94915" transform="matrix(4.37114e-08 -1 -1 -4.37114e-08 171.523 172.051)" fill="#4EDDBB"/>
<rect width="15.5932" height="15.5932" rx="1.94915" transform="matrix(4.37114e-08 -1 -1 -4.37114e-08 171.523 152.559)" fill="#4EDDBB"/>
<rect width="15.5932" height="15.5932" rx="1.94915" transform="matrix(4.37114e-08 -1 -1 -4.37114e-08 171.523 133.066)" fill="#4EDDBB"/>
<rect width="15.5932" height="15.5932" rx="1.94915" transform="matrix(4.37114e-08 -1 -1 -4.37114e-08 171.523 113.576)" fill="#4EDDBB"/>
<rect width="15.5932" height="15.5932" rx="1.94915" transform="matrix(4.37114e-08 -1 -1 -4.37114e-08 152.033 483.916)" fill="#4EDDBB"/>
<rect width="15.5932" height="15.5932" rx="1.94915" transform="matrix(4.37114e-08 -1 -1 -4.37114e-08 152.033 464.424)" fill="#4EDDBB"/>
<rect width="15.5932" height="15.5932" rx="1.94915" transform="matrix(4.37114e-08 -1 -1 -4.37114e-08 152.033 444.934)" fill="#4EDDBB"/>
<rect width="15.5932" height="15.5932" rx="1.94915" transform="matrix(4.37114e-08 -1 -1 -4.37114e-08 152.033 425.441)" fill="#4EDDBB"/>
<rect width="15.5932" height="15.5932" rx="1.94915" transform="matrix(4.37114e-08 -1 -1 -4.37114e-08 152.033 405.949)" fill="#4EDDBB"/>
<rect width="15.5932" height="15.5932" rx="1.94915" transform="matrix(4.37114e-08 -1 -1 -4.37114e-08 152.033 386.457)" fill="#4EDDBB"/>
<rect width="15.5932" height="15.5932" rx="1.94915" transform="matrix(4.37114e-08 -1 -1 -4.37114e-08 152.033 366.967)" fill="#4EDDBB"/>
<rect width="15.5932" height="15.5932" rx="1.94915" transform="matrix(4.37114e-08 -1 -1 -4.37114e-08 152.033 347.477)" fill="#4EDDBB"/>
<rect width="15.5932" height="15.5932" rx="1.94915" transform="matrix(4.37114e-08 -1 -1 -4.37114e-08 152.033 327.984)" fill="#4EDDBB"/>
<rect width="15.5932" height="15.5932" rx="1.94915" transform="matrix(4.37114e-08 -1 -1 -4.37114e-08 152.033 308.492)" fill="#4EDDBB"/>
<rect width="15.5932" height="15.5932" rx="1.94915" transform="matrix(4.37114e-08 -1 -1 -4.37114e-08 152.033 289)" fill="#4EDDBB"/>
<rect width="15.5932" height="15.5932" rx="1.94915" transform="matrix(4.37114e-08 -1 -1 -4.37114e-08 152.033 269.508)" fill="#4EDDBB"/>
<rect width="15.5932" height="15.5932" rx="1.94915" transform="matrix(4.37114e-08 -1 -1 -4.37114e-08 152.033 250.018)" fill="#4EDDBB"/>
<rect width="15.5932" height="15.5932" rx="1.94915" transform="matrix(4.37114e-08 -1 -1 -4.37114e-08 152.033 230.525)" fill="#4EDDBB"/>
<rect width="15.5932" height="15.5932" rx="1.94915" transform="matrix(4.37114e-08 -1 -1 -4.37114e-08 152.033 211.035)" fill="#4EDDBB"/>
<rect width="15.5932" height="15.5932" rx="1.94915" transform="matrix(4.37114e-08 -1 -1 -4.37114e-08 152.033 191.543)" fill="#4EDDBB"/>
<rect width="15.5932" height="15.5932" rx="1.94915" transform="matrix(4.37114e-08 -1 -1 -4.37114e-08 152.033 172.051)" fill="#4EDDBB"/>
<rect width="15.5932" height="15.5932" rx="1.94915" transform="matrix(4.37114e-08 -1 -1 -4.37114e-08 152.033 152.559)" fill="#4EDDBB"/>
<rect width="15.5932" height="15.5932" rx="1.94915" transform="matrix(4.37114e-08 -1 -1 -4.37114e-08 152.033 133.066)" fill="#4EDDBB"/>
<rect width="15.5932" height="15.5932" rx="1.94915" transform="matrix(4.37114e-08 -1 -1 -4.37114e-08 152.033 113.576)" fill="#4EDDBB"/>
<rect width="15.5932" height="15.5932" rx="1.94915" transform="matrix(4.37114e-08 -1 -1 -4.37114e-08 152.033 94.0859)" fill="#4EDDBB"/>
<rect width="15.5932" height="15.5932" rx="1.94915" transform="matrix(4.37114e-08 -1 -1 -4.37114e-08 152.033 74.5938)" fill="#4EDDBB"/>
<rect width="15.5932" height="15.5932" rx="1.94915" transform="matrix(4.37114e-08 -1 -1 -4.37114e-08 132.541 483.916)" fill="#4EDDBB"/>
<rect width="15.5932" height="15.5932" rx="1.94915" transform="matrix(4.37114e-08 -1 -1 -4.37114e-08 132.541 464.424)" fill="#4EDDBB"/>
<rect width="15.5932" height="15.5932" rx="1.94915" transform="matrix(4.37114e-08 -1 -1 -4.37114e-08 132.541 444.934)" fill="#4EDDBB"/>
<rect width="15.5932" height="15.5932" rx="1.94915" transform="matrix(4.37114e-08 -1 -1 -4.37114e-08 132.541 425.441)" fill="#4EDDBB"/>
<rect width="15.5932" height="15.5932" rx="1.94915" transform="matrix(4.37114e-08 -1 -1 -4.37114e-08 132.541 405.949)" fill="#4EDDBB"/>
<rect width="15.5932" height="15.5932" rx="1.94915" transform="matrix(4.37114e-08 -1 -1 -4.37114e-08 132.541 386.457)" fill="#4EDDBB"/>
<rect width="15.5932" height="15.5932" rx="1.94915" transform="matrix(4.37114e-08 -1 -1 -4.37114e-08 132.541 366.967)" fill="#4EDDBB"/>
<rect width="15.5932" height="15.5932" rx="1.94915" transform="matrix(4.37114e-08 -1 -1 -4.37114e-08 132.541 347.477)" fill="#4EDDBB"/>
<rect width="15.5932" height="15.5932" rx="1.94915" transform="matrix(4.37114e-08 -1 -1 -4.37114e-08 132.541 327.984)" fill="#4EDDBB"/>
<rect width="15.5932" height="15.5932" rx="1.94915" transform="matrix(4.37114e-08 -1 -1 -4.37114e-08 132.541 308.492)" fill="#4EDDBB"/>
<rect width="15.5932" height="15.5932" rx="1.94915" transform="matrix(4.37114e-08 -1 -1 -4.37114e-08 132.541 289)" fill="#4EDDBB"/>
<rect width="15.5932" height="15.5932" rx="1.94915" transform="matrix(4.37114e-08 -1 -1 -4.37114e-08 132.541 269.508)" fill="#4EDDBB"/>
<rect width="15.5932" height="15.5932" rx="1.94915" transform="matrix(4.37114e-08 -1 -1 -4.37114e-08 132.541 250.018)" fill="#4EDDBB"/>
<rect width="15.5932" height="15.5932" rx="1.94915" transform="matrix(4.37114e-08 -1 -1 -4.37114e-08 132.541 230.525)" fill="#4EDDBB"/>
<rect width="15.5932" height="15.5932" rx="1.94915" transform="matrix(4.37114e-08 -1 -1 -4.37114e-08 132.541 211.035)" fill="#4EDDBB"/>
<rect width="15.5932" height="15.5932" rx="1.94915" transform="matrix(4.37114e-08 -1 -1 -4.37114e-08 132.541 191.543)" fill="#4EDDBB"/>
<rect width="15.5932" height="15.5932" rx="1.94915" transform="matrix(4.37114e-08 -1 -1 -4.37114e-08 132.541 172.051)" fill="#4EDDBB"/>
<rect width="15.5932" height="15.5932" rx="1.94915" transform="matrix(4.37114e-08 -1 -1 -4.37114e-08 132.541 152.559)" fill="#4EDDBB"/>
<rect width="15.5932" height="15.5932" rx="1.94915" transform="matrix(4.37114e-08 -1 -1 -4.37114e-08 132.541 133.066)" fill="#4EDDBB"/>
<rect width="15.5932" height="15.5932" rx="1.94915" transform="matrix(4.37114e-08 -1 -1 -4.37114e-08 132.541 113.576)" fill="#4EDDBB"/>
<rect width="15.5932" height="15.5932" rx="1.94915" transform="matrix(4.37114e-08 -1 -1 -4.37114e-08 132.541 94.0859)" fill="#4EDDBB"/>
<rect width="15.5932" height="15.5932" rx="1.94915" transform="matrix(4.37114e-08 -1 -1 -4.37114e-08 132.541 74.5938)" fill="#4EDDBB"/>
<rect width="15.5932" height="15.5932" rx="1.94915" transform="matrix(4.37114e-08 -1 -1 -4.37114e-08 113.051 483.916)" fill="#4EDDBB"/>
<rect width="15.5932" height="15.5932" rx="1.94915" transform="matrix(4.37114e-08 -1 -1 -4.37114e-08 113.051 464.424)" fill="#4EDDBB"/>
<rect width="15.5932" height="15.5932" rx="1.94915" transform="matrix(4.37114e-08 -1 -1 -4.37114e-08 113.051 444.934)" fill="#4EDDBB"/>
<rect width="15.5932" height="15.5932" rx="1.94915" transform="matrix(4.37114e-08 -1 -1 -4.37114e-08 113.051 425.441)" fill="#4EDDBB"/>
<rect width="15.5932" height="15.5932" rx="1.94915" transform="matrix(4.37114e-08 -1 -1 -4.37114e-08 113.051 405.949)" fill="#4EDDBB"/>
<rect width="15.5932" height="15.5932" rx="1.94915" transform="matrix(4.37114e-08 -1 -1 -4.37114e-08 113.051 386.457)" fill="#4EDDBB"/>
<rect width="15.5932" height="15.5932" rx="1.94915" transform="matrix(4.37114e-08 -1 -1 -4.37114e-08 113.051 366.967)" fill="#4EDDBB"/>
<rect width="15.5932" height="15.5932" rx="1.94915" transform="matrix(4.37114e-08 -1 -1 -4.37114e-08 113.051 347.477)" fill="#4EDDBB"/>
<rect width="15.5932" height="15.5932" rx="1.94915" transform="matrix(4.37114e-08 -1 -1 -4.37114e-08 113.051 327.984)" fill="#4EDDBB"/>
<rect width="15.5932" height="15.5932" rx="1.94915" transform="matrix(4.37114e-08 -1 -1 -4.37114e-08 113.051 308.492)" fill="#4EDDBB"/>
<rect width="15.5932" height="15.5932" rx="1.94915" transform="matrix(4.37114e-08 -1 -1 -4.37114e-08 113.051 289)" fill="#4EDDBB"/>
<rect width="15.5932" height="15.5932" rx="1.94915" transform="matrix(4.37114e-08 -1 -1 -4.37114e-08 113.051 269.508)" fill="#4EDDBB"/>
<rect width="15.5932" height="15.5932" rx="1.94915" transform="matrix(4.37114e-08 -1 -1 -4.37114e-08 113.051 250.018)" fill="#4EDDBB"/>
<rect width="15.5932" height="15.5932" rx="1.94915" transform="matrix(4.37114e-08 -1 -1 -4.37114e-08 113.051 230.525)" fill="#4EDDBB"/>
<rect width="15.5932" height="15.5932" rx="1.94915" transform="matrix(4.37114e-08 -1 -1 -4.37114e-08 113.051 211.035)" fill="#4EDDBB"/>
<rect width="15.5932" height="15.5932" rx="1.94915" transform="matrix(4.37114e-08 -1 -1 -4.37114e-08 113.051 191.543)" fill="#4EDDBB"/>
<rect width="15.5932" height="15.5932" rx="1.94915" transform="matrix(4.37114e-08 -1 -1 -4.37114e-08 113.051 172.051)" fill="#4EDDBB"/>
<rect width="15.5932" height="15.5932" rx="1.94915" transform="matrix(4.37114e-08 -1 -1 -4.37114e-08 113.051 152.559)" fill="#4EDDBB"/>
<rect width="15.5932" height="15.5932" rx="1.94915" transform="matrix(4.37114e-08 -1 -1 -4.37114e-08 113.051 133.066)" fill="#4EDDBB"/>
<rect width="15.5932" height="15.5932" rx="1.94915" transform="matrix(4.37114e-08 -1 -1 -4.37114e-08 113.051 113.576)" fill="#4EDDBB"/>
<rect width="15.5932" height="15.5932" rx="1.94915" transform="matrix(4.37114e-08 -1 -1 -4.37114e-08 113.051 94.0859)" fill="#4EDDBB"/>
<rect width="15.5932" height="15.5932" rx="1.94915" transform="matrix(4.37114e-08 -1 -1 -4.37114e-08 113.051 74.5938)" fill="#4EDDBB"/>
<rect width="15.5932" height="15.5932" rx="1.94915" transform="matrix(4.37114e-08 -1 -1 -4.37114e-08 93.5588 483.916)" fill="#4EDDBB"/>
<rect width="15.5932" height="15.5932" rx="1.94915" transform="matrix(4.37114e-08 -1 -1 -4.37114e-08 93.5588 464.424)" fill="#4EDDBB"/>
<rect width="15.5932" height="15.5932" rx="1.94915" transform="matrix(4.37114e-08 -1 -1 -4.37114e-08 93.5588 444.934)" fill="#4EDDBB"/>
<rect width="15.5932" height="15.5932" rx="1.94915" transform="matrix(4.37114e-08 -1 -1 -4.37114e-08 93.5588 425.441)" fill="#4EDDBB"/>
<rect width="15.5932" height="15.5932" rx="1.94915" transform="matrix(4.37114e-08 -1 -1 -4.37114e-08 93.5588 405.949)" fill="#4EDDBB"/>
<rect width="15.5932" height="15.5932" rx="1.94915" transform="matrix(4.37114e-08 -1 -1 -4.37114e-08 93.5588 386.457)" fill="#4EDDBB"/>
<rect width="15.5932" height="15.5932" rx="1.94915" transform="matrix(4.37114e-08 -1 -1 -4.37114e-08 93.5588 366.967)" fill="#4EDDBB"/>
<rect width="15.5932" height="15.5932" rx="1.94915" transform="matrix(4.37114e-08 -1 -1 -4.37114e-08 93.5588 347.477)" fill="#4EDDBB"/>
<rect width="15.5932" height="15.5932" rx="1.94915" transform="matrix(4.37114e-08 -1 -1 -4.37114e-08 93.5588 327.984)" fill="#4EDDBB"/>
<rect width="15.5932" height="15.5932" rx="1.94915" transform="matrix(4.37114e-08 -1 -1 -4.37114e-08 93.5588 308.492)" fill="#4EDDBB"/>
<rect width="15.5932" height="15.5932" rx="1.94915" transform="matrix(4.37114e-08 -1 -1 -4.37114e-08 93.5588 289)" fill="#4EDDBB"/>
<rect width="15.5932" height="15.5932" rx="1.94915" transform="matrix(4.37114e-08 -1 -1 -4.37114e-08 93.5588 269.508)" fill="#4EDDBB"/>
<rect width="15.5932" height="15.5932" rx="1.94915" transform="matrix(4.37114e-08 -1 -1 -4.37114e-08 93.5588 250.018)" fill="#4EDDBB"/>
<rect width="15.5932" height="15.5932" rx="1.94915" transform="matrix(4.37114e-08 -1 -1 -4.37114e-08 93.5588 230.525)" fill="#4EDDBB"/>
<rect width="15.5932" height="15.5932" rx="1.94915" transform="matrix(4.37114e-08 -1 -1 -4.37114e-08 93.5588 211.035)" fill="#4EDDBB"/>
<rect width="15.5932" height="15.5932" rx="1.94915" transform="matrix(4.37114e-08 -1 -1 -4.37114e-08 93.5588 191.543)" fill="#4EDDBB"/>
<rect width="15.5932" height="15.5932" rx="1.94915" transform="matrix(4.37114e-08 -1 -1 -4.37114e-08 93.5588 172.051)" fill="#4EDDBB"/>
<rect width="15.5932" height="15.5932" rx="1.94915" transform="matrix(4.37114e-08 -1 -1 -4.37114e-08 74.0664 483.916)" fill="#4EDDBB"/>
<rect width="15.5932" height="15.5932" rx="1.94915" transform="matrix(4.37114e-08 -1 -1 -4.37114e-08 74.0664 464.424)" fill="#4EDDBB"/>
<rect width="15.5932" height="15.5932" rx="1.94915" transform="matrix(4.37114e-08 -1 -1 -4.37114e-08 74.0664 444.934)" fill="#4EDDBB"/>
<rect width="15.5932" height="15.5932" rx="1.94915" transform="matrix(4.37114e-08 -1 -1 -4.37114e-08 74.0664 425.441)" fill="#4EDDBB"/>
<rect width="15.5932" height="15.5932" rx="1.94915" transform="matrix(4.37114e-08 -1 -1 -4.37114e-08 74.0664 405.949)" fill="#4EDDBB"/>
<rect width="15.5932" height="15.5932" rx="1.94915" transform="matrix(4.37114e-08 -1 -1 -4.37114e-08 74.0664 386.457)" fill="#4EDDBB"/>
<rect width="15.5932" height="15.5932" rx="1.94915" transform="matrix(4.37114e-08 -1 -1 -4.37114e-08 74.0664 366.967)" fill="#4EDDBB"/>
<rect width="15.5932" height="15.5932" rx="1.94915" transform="matrix(4.37114e-08 -1 -1 -4.37114e-08 74.0664 347.477)" fill="#4EDDBB"/>
<rect width="15.5932" height="15.5932" rx="1.94915" transform="matrix(4.37114e-08 -1 -1 -4.37114e-08 74.0664 327.984)" fill="#4EDDBB"/>
<rect width="15.5932" height="15.5932" rx="1.94915" transform="matrix(4.37114e-08 -1 -1 -4.37114e-08 74.0664 308.492)" fill="#4EDDBB"/>
<rect width="15.5932" height="15.5932" rx="1.94915" transform="matrix(4.37114e-08 -1 -1 -4.37114e-08 74.0664 289)" fill="#4EDDBB"/>
<rect width="15.5932" height="15.5932" rx="1.94915" transform="matrix(4.37114e-08 -1 -1 -4.37114e-08 74.0664 269.508)" fill="#4EDDBB"/>
<rect width="15.5932" height="15.5932" rx="1.94915" transform="matrix(4.37114e-08 -1 -1 -4.37114e-08 74.0664 250.018)" fill="#4EDDBB"/>
<rect width="15.5932" height="15.5932" rx="1.94915" transform="matrix(4.37114e-08 -1 -1 -4.37114e-08 74.0664 230.525)" fill="#4EDDBB"/>
<rect width="15.5932" height="15.5932" rx="1.94915" transform="matrix(4.37114e-08 -1 -1 -4.37114e-08 74.0664 211.035)" fill="#4EDDBB"/>
<rect width="15.5932" height="15.5932" rx="1.94915" transform="matrix(4.37114e-08 -1 -1 -4.37114e-08 74.0664 191.543)" fill="#4EDDBB"/>
<rect width="15.5932" height="15.5932" rx="1.94915" transform="matrix(4.37114e-08 -1 -1 -4.37114e-08 74.0664 172.051)" fill="#4EDDBB"/>
<rect width="15.5932" height="15.5932" rx="1.94915" transform="matrix(4.37114e-08 -1 -1 -4.37114e-08 74.0664 152.559)" fill="#4EDDBB"/>
<rect width="15.5932" height="15.5932" rx="1.94915" transform="matrix(4.37114e-08 -1 -1 -4.37114e-08 54.5762 483.916)" fill="#4EDDBB"/>
<rect width="15.5932" height="15.5932" rx="1.94915" transform="matrix(4.37114e-08 -1 -1 -4.37114e-08 54.5762 464.424)" fill="#4EDDBB"/>
<rect width="15.5932" height="15.5932" rx="1.94915" transform="matrix(4.37114e-08 -1 -1 -4.37114e-08 54.5762 444.934)" fill="#4EDDBB"/>
<rect width="15.5932" height="15.5932" rx="1.94915" transform="matrix(4.37114e-08 -1 -1 -4.37114e-08 54.5762 425.441)" fill="#4EDDBB"/>
<rect width="15.5932" height="15.5932" rx="1.94915" transform="matrix(4.37114e-08 -1 -1 -4.37114e-08 54.5762 405.949)" fill="#4EDDBB"/>
<rect width="15.5932" height="15.5932" rx="1.94915" transform="matrix(4.37114e-08 -1 -1 -4.37114e-08 54.5762 386.457)" fill="#4EDDBB"/>
<rect width="15.5932" height="15.5932" rx="1.94915" transform="matrix(4.37114e-08 -1 -1 -4.37114e-08 54.5762 366.967)" fill="#4EDDBB"/>
<rect width="15.5932" height="15.5932" rx="1.94915" transform="matrix(4.37114e-08 -1 -1 -4.37114e-08 54.5762 347.477)" fill="#4EDDBB"/>
<rect width="15.5932" height="15.5932" rx="1.94915" transform="matrix(4.37114e-08 -1 -1 -4.37114e-08 54.5762 327.984)" fill="#4EDDBB"/>
<rect width="15.5932" height="15.5932" rx="1.94915" transform="matrix(4.37114e-08 -1 -1 -4.37114e-08 54.5762 308.492)" fill="#4EDDBB"/>
<rect width="15.5932" height="15.5932" rx="1.94915" transform="matrix(4.37114e-08 -1 -1 -4.37114e-08 54.5762 289)" fill="#4EDDBB"/>
<rect width="15.5932" height="15.5932" rx="1.94915" transform="matrix(4.37114e-08 -1 -1 -4.37114e-08 54.5762 269.508)" fill="#4EDDBB"/>
<rect width="15.5932" height="15.5932" rx="1.94915" transform="matrix(4.37114e-08 -1 -1 -4.37114e-08 54.5762 250.018)" fill="#4EDDBB"/>
<rect width="15.5932" height="15.5932" rx="1.94915" transform="matrix(4.37114e-08 -1 -1 -4.37114e-08 54.5762 230.525)" fill="#4EDDBB"/>
<rect width="15.5932" height="15.5932" rx="1.94915" transform="matrix(4.37114e-08 -1 -1 -4.37114e-08 54.5762 211.035)" fill="#4EDDBB"/>
</g>
<rect width="15.5932" height="15.5932" rx="1.94915" transform="matrix(4.37114e-08 -1 -1 -4.37114e-08 35.084 484.424)" fill="#4EDDBB"/>
<rect width="15.5932" height="15.5932" rx="1.94915" transform="matrix(4.37114e-08 -1 -1 -4.37114e-08 35.084 464.934)" fill="#4EDDBB"/>
<rect width="15.5932" height="15.5932" rx="1.94915" transform="matrix(4.37114e-08 -1 -1 -4.37114e-08 35.084 445.441)" fill="#4EDDBB"/>
<rect width="15.5932" height="15.5932" rx="1.94915" transform="matrix(4.37114e-08 -1 -1 -4.37114e-08 35.084 425.949)" fill="#4EDDBB"/>
<rect width="15.5932" height="15.5932" rx="1.94915" transform="matrix(4.37114e-08 -1 -1 -4.37114e-08 35.084 406.457)" fill="#4EDDBB"/>
<rect width="15.5932" height="15.5932" rx="1.94915" transform="matrix(4.37114e-08 -1 -1 -4.37114e-08 35.084 386.967)" fill="#4EDDBB"/>
<rect width="15.5932" height="15.5932" rx="1.94915" transform="matrix(4.37114e-08 -1 -1 -4.37114e-08 15.5938 484.424)" fill="#4EDDBB"/>
<rect width="15.5932" height="15.5932" rx="1.94915" transform="matrix(4.37114e-08 -1 -1 -4.37114e-08 15.5938 464.934)" fill="#4EDDBB"/>
<rect width="15.5932" height="15.5932" rx="1.94915" transform="matrix(4.37114e-08 -1 -1 -4.37114e-08 230 484.424)" fill="#4EDDBB"/>
</g>
<rect opacity="0.05" width="15.5932" height="15.5932" rx="1.94915" transform="matrix(4.37114e-08 -1 -1 -4.37114e-08 132.541 54.5938)" fill="#4EDDBB"/>
<rect opacity="0.05" width="15.5932" height="15.5932" rx="1.94915" transform="matrix(4.37114e-08 -1 -1 -4.37114e-08 132.541 35.5938)" fill="#4EDDBB"/>
<rect opacity="0.05" width="15.5932" height="15.5932" rx="1.94915" transform="matrix(4.37114e-08 -1 -1 -4.37114e-08 132.541 15.5938)" fill="#4EDDBB"/>
<rect opacity="0.05" width="15.5932" height="15.5932" rx="1.94915" transform="matrix(4.37114e-08 -1 -1 -4.37114e-08 112.594 54.5938)" fill="#4EDDBB"/>
<defs>
<clipPath id="clip0_514_1715">
<rect width="756.271" height="179.322" fill="white" transform="matrix(4.37114e-08 -1 -1 -4.37114e-08 214.406 815.271)"/>
</clipPath>
</defs>
</svg>
