<svg width="28" height="25" viewBox="0 0 28 25" fill="none" xmlns="http://www.w3.org/2000/svg">
<g id="delivery time">
<path id="Vector" opacity="0.4" d="M11.3346 0H6.0013C3.05578 0 0.667969 2.38781 0.667969 5.33333V16C0.667969 18.487 2.37019 20.5764 4.67309 21.1666C4.75915 19.7715 5.91786 18.6667 7.33464 18.6667C8.80739 18.6667 10.0013 19.8606 10.0013 21.3333H16.668V5.33333C16.668 2.38781 14.2802 0 11.3346 0Z" fill="#4EDDBB"/>
<path id="Vector_2" d="M16.668 21.334V5.33398H20.9468C21.6243 5.33398 22.2764 5.59185 22.7706 6.05522L26.4918 9.54384C27.0295 10.048 27.3346 10.7522 27.3346 11.4893V18.6673C27.3346 20.1401 26.1407 21.334 24.668 21.334H16.668Z" fill="#4EDDBB"/>
<path id="Vector_3" d="M10.6667 21.3333C10.6667 23.1743 9.17428 24.6667 7.33333 24.6667C5.49238 24.6667 4 23.1743 4 21.3333C4 21.2633 4.00216 21.1939 4.00641 21.125C4.11397 19.3811 5.56237 18 7.33333 18C9.17428 18 10.6667 19.4924 10.6667 21.3333Z" fill="#4EDDBB"/>
<path id="Vector_4" opacity="0.4" d="M25.3269 21.3333C25.3269 23.1743 23.8345 24.6667 21.9936 24.6667C20.1526 24.6667 18.6603 23.1743 18.6603 21.3333C18.6603 21.2633 18.6624 21.1939 18.6667 21.125C18.7742 19.3811 20.2226 18 21.9936 18C23.8345 18 25.3269 19.4924 25.3269 21.3333Z" fill="#4EDDBB"/>
<path id="Vector 1976 (Stroke)" fill-rule="evenodd" clip-rule="evenodd" d="M8.66797 5C9.22025 5 9.66797 5.44772 9.66797 6V9.66667H12.0013C12.5536 9.66667 13.0013 10.1144 13.0013 10.6667C13.0013 11.219 12.5536 11.6667 12.0013 11.6667H8.66797C8.11568 11.6667 7.66797 11.219 7.66797 10.6667V6C7.66797 5.44772 8.11568 5 8.66797 5Z" fill="#4EDDBB"/>
</g>
</svg>
