<svg width="32" height="32" viewBox="0 0 32 32" fill="none" xmlns="http://www.w3.org/2000/svg">
<rect x="8.5" y="18.5" width="15" height="5" rx="0.5" fill="#4EDDBB"/>
<rect x="13.5" y="20.5" width="5" height="1" rx="0.5" fill="#106E6A"/>
<rect x="13.5" y="20.5" width="5" height="1" rx="0.5" stroke="#106E6A"/>
<rect x="8.5" y="18.5" width="15" height="5" rx="0.5" stroke="#4EDDBB"/>
<path d="M11 24C11 25.6569 9.65685 27 8 27C6.34315 27 5 25.6569 5 24C5 22.3431 6.34315 21 8 21C9.65685 21 11 22.3431 11 24Z" fill="#106E6A"/>
<path d="M27 24C27 25.6569 25.6569 27 24 27C22.3431 27 21 25.6569 21 24C21 22.3431 22.3431 21 24 21C25.6569 21 27 22.3431 27 24Z" fill="#106E6A"/>
<path d="M11.5 18.5L18.9612 12.7944C19.4846 12.3941 19.4846 11.6059 18.9612 11.2056L11.5 5.5" stroke="#4EDDBB"/>
<path d="M20.5 5.5L13.0388 11.2056C12.5154 11.6059 12.5154 12.3941 13.0388 12.7944L20.5 18.5" stroke="#4EDDBB"/>
<rect x="5" y="2" width="22" height="5" rx="1" fill="#106E6A"/>
</svg>
