<svg width="32" height="32" viewBox="0 0 32 32" fill="none" xmlns="http://www.w3.org/2000/svg">
<path fill-rule="evenodd" clip-rule="evenodd" d="M15.9987 3.66699C14.0654 3.66699 12.3167 4.4494 11.0489 5.71725C10.6584 6.10777 10.0252 6.10777 9.63469 5.71725C9.24417 5.32672 9.24417 4.69356 9.63469 4.30303C11.2623 2.67545 13.5136 1.66699 15.9987 1.66699C18.4837 1.66699 20.735 2.67545 22.3626 4.30303C22.7531 4.69356 22.7531 5.32672 22.3626 5.71725C21.9721 6.10777 21.3389 6.10777 20.9484 5.71725C19.6806 4.4494 17.9319 3.66699 15.9987 3.66699ZM15.9987 7.66699C15.1699 7.66699 14.4213 8.00168 13.8773 8.54567C13.4868 8.9362 12.8536 8.9362 12.4631 8.54567C12.0726 8.15515 12.0726 7.52198 12.4631 7.13146C13.3668 6.22773 14.6182 5.66699 15.9987 5.66699C17.3791 5.66699 18.6305 6.22773 19.5342 7.13146C19.9247 7.52198 19.9247 8.15515 19.5342 8.54567C19.1437 8.9362 18.5105 8.9362 18.12 8.54567C17.576 8.00168 16.8274 7.66699 15.9987 7.66699Z" fill="#4EDDBB"/>
<path opacity="0.4" d="M6.66602 14.667C6.66602 12.4579 8.45688 10.667 10.666 10.667H21.3327C23.5418 10.667 25.3327 12.4579 25.3327 14.667V25.3337C25.3327 27.5428 23.5418 29.3337 21.3327 29.3337H10.666C8.45688 29.3337 6.66602 27.5428 6.66602 25.3337V14.667Z" fill="#4EDDBB"/>
<path fill-rule="evenodd" clip-rule="evenodd" d="M21.3327 20.0003C21.3327 22.9458 18.9449 25.3337 15.9993 25.3337C13.0538 25.3337 10.666 22.9458 10.666 20.0003C10.666 17.0548 13.0538 14.667 15.9993 14.667C18.9449 14.667 21.3327 17.0548 21.3327 20.0003ZM15 20C15 20.5523 14.5523 21 14 21C13.4477 21 13 20.5523 13 20C13 19.4477 13.4477 19 14 19C14.5523 19 15 19.4477 15 20ZM18 21C18.5523 21 19 20.5523 19 20C19 19.4477 18.5523 19 18 19C17.4477 19 17 19.4477 17 20C17 20.5523 17.4477 21 18 21Z" fill="#4EDDBB"/>
</svg>
