<svg width="32" height="32" viewBox="0 0 32 32" fill="none" xmlns="http://www.w3.org/2000/svg">
<g id="Huge-icon/user/bulk/user-polygon">
<g id="user polygon">
<path id="Vector" opacity="0.4" d="M13.2287 3.42866C14.9436 2.4131 17.0564 2.4131 18.7713 3.42866L25.2287 7.25276C26.9436 8.26831 28 10.1451 28 12.1762V19.8244C28 21.8555 26.9436 23.7323 25.2287 24.7479L18.7713 28.572C17.0564 29.5875 14.9436 29.5875 13.2287 28.572L6.77128 24.7479C5.05641 23.7323 4 21.8555 4 19.8244V12.1762C4 10.1451 5.05641 8.26831 6.77128 7.25276L13.2287 3.42866Z" fill="#4EDDBB"/>
<g id="Vector_2">
<path d="M13.2278 28.5715C14.9426 29.587 17.0554 29.587 18.7703 28.5715L24.4004 25.2373C22.7232 22.264 19.5889 20.2637 15.999 20.2637C12.4092 20.2637 9.27486 22.264 7.59766 25.2373L13.2278 28.5715Z" fill="#4EDDBB"/>
</g>
<circle id="Ellipse 260" cx="4" cy="4" r="4" transform="matrix(1 0 0 -1 12 17.334)" fill="#4EDDBB"/>
</g>
</g>
</svg>
