<svg width="230" height="485" viewBox="0 0 230 485" fill="none" xmlns="http://www.w3.org/2000/svg">
<g opacity="0.05">
<g clip-path="url(#clip0_514_1716)">
<rect x="19.4919" y="484.916" width="15.5932" height="15.5932" rx="1.94915" transform="rotate(-90 19.4919 484.916)" fill="#4EDDBB"/>
<rect x="19.4919" y="465.424" width="15.5932" height="15.5932" rx="1.94915" transform="rotate(-90 19.4919 465.424)" fill="#4EDDBB"/>
<rect x="19.4919" y="445.934" width="15.5932" height="15.5932" rx="1.94915" transform="rotate(-90 19.4919 445.934)" fill="#4EDDBB"/>
<rect x="19.4919" y="426.441" width="15.5932" height="15.5932" rx="1.94915" transform="rotate(-90 19.4919 426.441)" fill="#4EDDBB"/>
<rect x="19.4919" y="406.949" width="15.5932" height="15.5932" rx="1.94915" transform="rotate(-90 19.4919 406.949)" fill="#4EDDBB"/>
<rect x="19.4919" y="387.457" width="15.5932" height="15.5932" rx="1.94915" transform="rotate(-90 19.4919 387.457)" fill="#4EDDBB"/>
<rect x="38.9844" y="484.916" width="15.5932" height="15.5932" rx="1.94915" transform="rotate(-90 38.9844 484.916)" fill="#4EDDBB"/>
<rect x="38.9844" y="465.424" width="15.5932" height="15.5932" rx="1.94915" transform="rotate(-90 38.9844 465.424)" fill="#4EDDBB"/>
<rect x="38.9844" y="445.934" width="15.5932" height="15.5932" rx="1.94915" transform="rotate(-90 38.9844 445.934)" fill="#4EDDBB"/>
<rect x="38.9844" y="426.441" width="15.5932" height="15.5932" rx="1.94915" transform="rotate(-90 38.9844 426.441)" fill="#4EDDBB"/>
<rect x="38.9844" y="406.949" width="15.5932" height="15.5932" rx="1.94915" transform="rotate(-90 38.9844 406.949)" fill="#4EDDBB"/>
<rect x="38.9844" y="387.457" width="15.5932" height="15.5932" rx="1.94915" transform="rotate(-90 38.9844 387.457)" fill="#4EDDBB"/>
<rect x="38.9844" y="367.967" width="15.5932" height="15.5932" rx="1.94915" transform="rotate(-90 38.9844 367.967)" fill="#4EDDBB"/>
<rect x="38.9844" y="348.477" width="15.5932" height="15.5932" rx="1.94915" transform="rotate(-90 38.9844 348.477)" fill="#4EDDBB"/>
<rect x="38.9844" y="328.984" width="15.5932" height="15.5932" rx="1.94915" transform="rotate(-90 38.9844 328.984)" fill="#4EDDBB"/>
<rect x="38.9844" y="309.492" width="15.5932" height="15.5932" rx="1.94915" transform="rotate(-90 38.9844 309.492)" fill="#4EDDBB"/>
<rect x="38.9844" y="290" width="15.5932" height="15.5932" rx="1.94915" transform="rotate(-90 38.9844 290)" fill="#4EDDBB"/>
<rect x="38.9844" y="270.508" width="15.5932" height="15.5932" rx="1.94915" transform="rotate(-90 38.9844 270.508)" fill="#4EDDBB"/>
<rect x="38.9844" y="251.018" width="15.5932" height="15.5932" rx="1.94915" transform="rotate(-90 38.9844 251.018)" fill="#4EDDBB"/>
<rect x="38.9844" y="231.525" width="15.5932" height="15.5932" rx="1.94915" transform="rotate(-90 38.9844 231.525)" fill="#4EDDBB"/>
<rect x="38.9844" y="212.035" width="15.5932" height="15.5932" rx="1.94915" transform="rotate(-90 38.9844 212.035)" fill="#4EDDBB"/>
<rect x="38.9844" y="192.543" width="15.5932" height="15.5932" rx="1.94915" transform="rotate(-90 38.9844 192.543)" fill="#4EDDBB"/>
<rect x="38.9844" y="173.051" width="15.5932" height="15.5932" rx="1.94915" transform="rotate(-90 38.9844 173.051)" fill="#4EDDBB"/>
<rect x="58.4766" y="484.916" width="15.5932" height="15.5932" rx="1.94915" transform="rotate(-90 58.4766 484.916)" fill="#4EDDBB"/>
<rect x="58.4766" y="465.424" width="15.5932" height="15.5932" rx="1.94915" transform="rotate(-90 58.4766 465.424)" fill="#4EDDBB"/>
<rect x="58.4766" y="445.934" width="15.5932" height="15.5932" rx="1.94915" transform="rotate(-90 58.4766 445.934)" fill="#4EDDBB"/>
<rect x="58.4766" y="426.441" width="15.5932" height="15.5932" rx="1.94915" transform="rotate(-90 58.4766 426.441)" fill="#4EDDBB"/>
<rect x="58.4766" y="406.949" width="15.5932" height="15.5932" rx="1.94915" transform="rotate(-90 58.4766 406.949)" fill="#4EDDBB"/>
<rect x="58.4766" y="387.457" width="15.5932" height="15.5932" rx="1.94915" transform="rotate(-90 58.4766 387.457)" fill="#4EDDBB"/>
<rect x="58.4766" y="367.967" width="15.5932" height="15.5932" rx="1.94915" transform="rotate(-90 58.4766 367.967)" fill="#4EDDBB"/>
<rect x="58.4766" y="348.477" width="15.5932" height="15.5932" rx="1.94915" transform="rotate(-90 58.4766 348.477)" fill="#4EDDBB"/>
<rect x="58.4766" y="328.984" width="15.5932" height="15.5932" rx="1.94915" transform="rotate(-90 58.4766 328.984)" fill="#4EDDBB"/>
<rect x="58.4766" y="309.492" width="15.5932" height="15.5932" rx="1.94915" transform="rotate(-90 58.4766 309.492)" fill="#4EDDBB"/>
<rect x="58.4766" y="290" width="15.5932" height="15.5932" rx="1.94915" transform="rotate(-90 58.4766 290)" fill="#4EDDBB"/>
<rect x="58.4766" y="270.508" width="15.5932" height="15.5932" rx="1.94915" transform="rotate(-90 58.4766 270.508)" fill="#4EDDBB"/>
<rect x="58.4766" y="251.018" width="15.5932" height="15.5932" rx="1.94915" transform="rotate(-90 58.4766 251.018)" fill="#4EDDBB"/>
<rect x="58.4766" y="231.525" width="15.5932" height="15.5932" rx="1.94915" transform="rotate(-90 58.4766 231.525)" fill="#4EDDBB"/>
<rect x="58.4766" y="212.035" width="15.5932" height="15.5932" rx="1.94915" transform="rotate(-90 58.4766 212.035)" fill="#4EDDBB"/>
<rect x="58.4766" y="192.543" width="15.5932" height="15.5932" rx="1.94915" transform="rotate(-90 58.4766 192.543)" fill="#4EDDBB"/>
<rect x="58.4766" y="173.051" width="15.5932" height="15.5932" rx="1.94915" transform="rotate(-90 58.4766 173.051)" fill="#4EDDBB"/>
<rect x="58.4766" y="153.559" width="15.5932" height="15.5932" rx="1.94915" transform="rotate(-90 58.4766 153.559)" fill="#4EDDBB"/>
<rect x="58.4766" y="134.066" width="15.5932" height="15.5932" rx="1.94915" transform="rotate(-90 58.4766 134.066)" fill="#4EDDBB"/>
<rect x="58.4766" y="114.576" width="15.5932" height="15.5932" rx="1.94915" transform="rotate(-90 58.4766 114.576)" fill="#4EDDBB"/>
<rect x="77.9666" y="484.916" width="15.5932" height="15.5932" rx="1.94915" transform="rotate(-90 77.9666 484.916)" fill="#4EDDBB"/>
<rect x="77.9666" y="465.424" width="15.5932" height="15.5932" rx="1.94915" transform="rotate(-90 77.9666 465.424)" fill="#4EDDBB"/>
<rect x="77.9666" y="445.934" width="15.5932" height="15.5932" rx="1.94915" transform="rotate(-90 77.9666 445.934)" fill="#4EDDBB"/>
<rect x="77.9666" y="426.441" width="15.5932" height="15.5932" rx="1.94915" transform="rotate(-90 77.9666 426.441)" fill="#4EDDBB"/>
<rect x="77.9666" y="406.949" width="15.5932" height="15.5932" rx="1.94915" transform="rotate(-90 77.9666 406.949)" fill="#4EDDBB"/>
<rect x="77.9666" y="387.457" width="15.5932" height="15.5932" rx="1.94915" transform="rotate(-90 77.9666 387.457)" fill="#4EDDBB"/>
<rect x="77.9666" y="367.967" width="15.5932" height="15.5932" rx="1.94915" transform="rotate(-90 77.9666 367.967)" fill="#4EDDBB"/>
<rect x="77.9666" y="348.477" width="15.5932" height="15.5932" rx="1.94915" transform="rotate(-90 77.9666 348.477)" fill="#4EDDBB"/>
<rect x="77.9666" y="328.984" width="15.5932" height="15.5932" rx="1.94915" transform="rotate(-90 77.9666 328.984)" fill="#4EDDBB"/>
<rect x="77.9666" y="309.492" width="15.5932" height="15.5932" rx="1.94915" transform="rotate(-90 77.9666 309.492)" fill="#4EDDBB"/>
<rect x="77.9666" y="290" width="15.5932" height="15.5932" rx="1.94915" transform="rotate(-90 77.9666 290)" fill="#4EDDBB"/>
<rect x="77.9666" y="270.508" width="15.5932" height="15.5932" rx="1.94915" transform="rotate(-90 77.9666 270.508)" fill="#4EDDBB"/>
<rect x="77.9666" y="251.018" width="15.5932" height="15.5932" rx="1.94915" transform="rotate(-90 77.9666 251.018)" fill="#4EDDBB"/>
<rect x="77.9666" y="231.525" width="15.5932" height="15.5932" rx="1.94915" transform="rotate(-90 77.9666 231.525)" fill="#4EDDBB"/>
<rect x="77.9666" y="212.035" width="15.5932" height="15.5932" rx="1.94915" transform="rotate(-90 77.9666 212.035)" fill="#4EDDBB"/>
<rect x="77.9666" y="192.543" width="15.5932" height="15.5932" rx="1.94915" transform="rotate(-90 77.9666 192.543)" fill="#4EDDBB"/>
<rect x="77.9666" y="173.051" width="15.5932" height="15.5932" rx="1.94915" transform="rotate(-90 77.9666 173.051)" fill="#4EDDBB"/>
<rect x="77.9666" y="153.559" width="15.5932" height="15.5932" rx="1.94915" transform="rotate(-90 77.9666 153.559)" fill="#4EDDBB"/>
<rect x="77.9666" y="134.066" width="15.5932" height="15.5932" rx="1.94915" transform="rotate(-90 77.9666 134.066)" fill="#4EDDBB"/>
<rect x="77.9666" y="114.576" width="15.5932" height="15.5932" rx="1.94915" transform="rotate(-90 77.9666 114.576)" fill="#4EDDBB"/>
<rect x="77.9666" y="95.0859" width="15.5932" height="15.5932" rx="1.94915" transform="rotate(-90 77.9666 95.0859)" fill="#4EDDBB"/>
<rect x="77.9666" y="75.5938" width="15.5932" height="15.5932" rx="1.94915" transform="rotate(-90 77.9666 75.5938)" fill="#4EDDBB"/>
<rect x="97.459" y="484.916" width="15.5932" height="15.5932" rx="1.94915" transform="rotate(-90 97.459 484.916)" fill="#4EDDBB"/>
<rect x="97.459" y="465.424" width="15.5932" height="15.5932" rx="1.94915" transform="rotate(-90 97.459 465.424)" fill="#4EDDBB"/>
<rect x="97.459" y="445.934" width="15.5932" height="15.5932" rx="1.94915" transform="rotate(-90 97.459 445.934)" fill="#4EDDBB"/>
<rect x="97.459" y="426.441" width="15.5932" height="15.5932" rx="1.94915" transform="rotate(-90 97.459 426.441)" fill="#4EDDBB"/>
<rect x="97.459" y="406.949" width="15.5932" height="15.5932" rx="1.94915" transform="rotate(-90 97.459 406.949)" fill="#4EDDBB"/>
<rect x="97.459" y="387.457" width="15.5932" height="15.5932" rx="1.94915" transform="rotate(-90 97.459 387.457)" fill="#4EDDBB"/>
<rect x="97.459" y="367.967" width="15.5932" height="15.5932" rx="1.94915" transform="rotate(-90 97.459 367.967)" fill="#4EDDBB"/>
<rect x="97.459" y="348.477" width="15.5932" height="15.5932" rx="1.94915" transform="rotate(-90 97.459 348.477)" fill="#4EDDBB"/>
<rect x="97.459" y="328.984" width="15.5932" height="15.5932" rx="1.94915" transform="rotate(-90 97.459 328.984)" fill="#4EDDBB"/>
<rect x="97.459" y="309.492" width="15.5932" height="15.5932" rx="1.94915" transform="rotate(-90 97.459 309.492)" fill="#4EDDBB"/>
<rect x="97.459" y="290" width="15.5932" height="15.5932" rx="1.94915" transform="rotate(-90 97.459 290)" fill="#4EDDBB"/>
<rect x="97.459" y="270.508" width="15.5932" height="15.5932" rx="1.94915" transform="rotate(-90 97.459 270.508)" fill="#4EDDBB"/>
<rect x="97.459" y="251.018" width="15.5932" height="15.5932" rx="1.94915" transform="rotate(-90 97.459 251.018)" fill="#4EDDBB"/>
<rect x="97.459" y="231.525" width="15.5932" height="15.5932" rx="1.94915" transform="rotate(-90 97.459 231.525)" fill="#4EDDBB"/>
<rect x="97.459" y="212.035" width="15.5932" height="15.5932" rx="1.94915" transform="rotate(-90 97.459 212.035)" fill="#4EDDBB"/>
<rect x="97.459" y="192.543" width="15.5932" height="15.5932" rx="1.94915" transform="rotate(-90 97.459 192.543)" fill="#4EDDBB"/>
<rect x="97.459" y="173.051" width="15.5932" height="15.5932" rx="1.94915" transform="rotate(-90 97.459 173.051)" fill="#4EDDBB"/>
<rect x="97.459" y="153.559" width="15.5932" height="15.5932" rx="1.94915" transform="rotate(-90 97.459 153.559)" fill="#4EDDBB"/>
<rect x="97.459" y="134.066" width="15.5932" height="15.5932" rx="1.94915" transform="rotate(-90 97.459 134.066)" fill="#4EDDBB"/>
<rect x="97.459" y="114.576" width="15.5932" height="15.5932" rx="1.94915" transform="rotate(-90 97.459 114.576)" fill="#4EDDBB"/>
<rect x="97.459" y="95.0859" width="15.5932" height="15.5932" rx="1.94915" transform="rotate(-90 97.459 95.0859)" fill="#4EDDBB"/>
<rect x="97.459" y="75.5938" width="15.5932" height="15.5932" rx="1.94915" transform="rotate(-90 97.459 75.5938)" fill="#4EDDBB"/>
<rect x="116.949" y="484.916" width="15.5932" height="15.5932" rx="1.94915" transform="rotate(-90 116.949 484.916)" fill="#4EDDBB"/>
<rect x="116.949" y="465.424" width="15.5932" height="15.5932" rx="1.94915" transform="rotate(-90 116.949 465.424)" fill="#4EDDBB"/>
<rect x="116.949" y="445.934" width="15.5932" height="15.5932" rx="1.94915" transform="rotate(-90 116.949 445.934)" fill="#4EDDBB"/>
<rect x="116.949" y="426.441" width="15.5932" height="15.5932" rx="1.94915" transform="rotate(-90 116.949 426.441)" fill="#4EDDBB"/>
<rect x="116.949" y="406.949" width="15.5932" height="15.5932" rx="1.94915" transform="rotate(-90 116.949 406.949)" fill="#4EDDBB"/>
<rect x="116.949" y="387.457" width="15.5932" height="15.5932" rx="1.94915" transform="rotate(-90 116.949 387.457)" fill="#4EDDBB"/>
<rect x="116.949" y="367.967" width="15.5932" height="15.5932" rx="1.94915" transform="rotate(-90 116.949 367.967)" fill="#4EDDBB"/>
<rect x="116.949" y="348.477" width="15.5932" height="15.5932" rx="1.94915" transform="rotate(-90 116.949 348.477)" fill="#4EDDBB"/>
<rect x="116.949" y="328.984" width="15.5932" height="15.5932" rx="1.94915" transform="rotate(-90 116.949 328.984)" fill="#4EDDBB"/>
<rect x="116.949" y="309.492" width="15.5932" height="15.5932" rx="1.94915" transform="rotate(-90 116.949 309.492)" fill="#4EDDBB"/>
<rect x="116.949" y="290" width="15.5932" height="15.5932" rx="1.94915" transform="rotate(-90 116.949 290)" fill="#4EDDBB"/>
<rect x="116.949" y="270.508" width="15.5932" height="15.5932" rx="1.94915" transform="rotate(-90 116.949 270.508)" fill="#4EDDBB"/>
<rect x="116.949" y="251.018" width="15.5932" height="15.5932" rx="1.94915" transform="rotate(-90 116.949 251.018)" fill="#4EDDBB"/>
<rect x="116.949" y="231.525" width="15.5932" height="15.5932" rx="1.94915" transform="rotate(-90 116.949 231.525)" fill="#4EDDBB"/>
<rect x="116.949" y="212.035" width="15.5932" height="15.5932" rx="1.94915" transform="rotate(-90 116.949 212.035)" fill="#4EDDBB"/>
<rect x="116.949" y="192.543" width="15.5932" height="15.5932" rx="1.94915" transform="rotate(-90 116.949 192.543)" fill="#4EDDBB"/>
<rect x="116.949" y="173.051" width="15.5932" height="15.5932" rx="1.94915" transform="rotate(-90 116.949 173.051)" fill="#4EDDBB"/>
<rect x="116.949" y="153.559" width="15.5932" height="15.5932" rx="1.94915" transform="rotate(-90 116.949 153.559)" fill="#4EDDBB"/>
<rect x="116.949" y="134.066" width="15.5932" height="15.5932" rx="1.94915" transform="rotate(-90 116.949 134.066)" fill="#4EDDBB"/>
<rect x="116.949" y="114.576" width="15.5932" height="15.5932" rx="1.94915" transform="rotate(-90 116.949 114.576)" fill="#4EDDBB"/>
<rect x="116.949" y="95.0859" width="15.5932" height="15.5932" rx="1.94915" transform="rotate(-90 116.949 95.0859)" fill="#4EDDBB"/>
<rect x="116.949" y="75.5938" width="15.5932" height="15.5932" rx="1.94915" transform="rotate(-90 116.949 75.5938)" fill="#4EDDBB"/>
<rect x="136.441" y="484.916" width="15.5932" height="15.5932" rx="1.94915" transform="rotate(-90 136.441 484.916)" fill="#4EDDBB"/>
<rect x="136.441" y="465.424" width="15.5932" height="15.5932" rx="1.94915" transform="rotate(-90 136.441 465.424)" fill="#4EDDBB"/>
<rect x="136.441" y="445.934" width="15.5932" height="15.5932" rx="1.94915" transform="rotate(-90 136.441 445.934)" fill="#4EDDBB"/>
<rect x="136.441" y="426.441" width="15.5932" height="15.5932" rx="1.94915" transform="rotate(-90 136.441 426.441)" fill="#4EDDBB"/>
<rect x="136.441" y="406.949" width="15.5932" height="15.5932" rx="1.94915" transform="rotate(-90 136.441 406.949)" fill="#4EDDBB"/>
<rect x="136.441" y="387.457" width="15.5932" height="15.5932" rx="1.94915" transform="rotate(-90 136.441 387.457)" fill="#4EDDBB"/>
<rect x="136.441" y="367.967" width="15.5932" height="15.5932" rx="1.94915" transform="rotate(-90 136.441 367.967)" fill="#4EDDBB"/>
<rect x="136.441" y="348.477" width="15.5932" height="15.5932" rx="1.94915" transform="rotate(-90 136.441 348.477)" fill="#4EDDBB"/>
<rect x="136.441" y="328.984" width="15.5932" height="15.5932" rx="1.94915" transform="rotate(-90 136.441 328.984)" fill="#4EDDBB"/>
<rect x="136.441" y="309.492" width="15.5932" height="15.5932" rx="1.94915" transform="rotate(-90 136.441 309.492)" fill="#4EDDBB"/>
<rect x="136.441" y="290" width="15.5932" height="15.5932" rx="1.94915" transform="rotate(-90 136.441 290)" fill="#4EDDBB"/>
<rect x="136.441" y="270.508" width="15.5932" height="15.5932" rx="1.94915" transform="rotate(-90 136.441 270.508)" fill="#4EDDBB"/>
<rect x="136.441" y="251.018" width="15.5932" height="15.5932" rx="1.94915" transform="rotate(-90 136.441 251.018)" fill="#4EDDBB"/>
<rect x="136.441" y="231.525" width="15.5932" height="15.5932" rx="1.94915" transform="rotate(-90 136.441 231.525)" fill="#4EDDBB"/>
<rect x="136.441" y="212.035" width="15.5932" height="15.5932" rx="1.94915" transform="rotate(-90 136.441 212.035)" fill="#4EDDBB"/>
<rect x="136.441" y="192.543" width="15.5932" height="15.5932" rx="1.94915" transform="rotate(-90 136.441 192.543)" fill="#4EDDBB"/>
<rect x="136.441" y="173.051" width="15.5932" height="15.5932" rx="1.94915" transform="rotate(-90 136.441 173.051)" fill="#4EDDBB"/>
<rect x="155.934" y="484.916" width="15.5932" height="15.5932" rx="1.94915" transform="rotate(-90 155.934 484.916)" fill="#4EDDBB"/>
<rect x="155.934" y="465.424" width="15.5932" height="15.5932" rx="1.94915" transform="rotate(-90 155.934 465.424)" fill="#4EDDBB"/>
<rect x="155.934" y="445.934" width="15.5932" height="15.5932" rx="1.94915" transform="rotate(-90 155.934 445.934)" fill="#4EDDBB"/>
<rect x="155.934" y="426.441" width="15.5932" height="15.5932" rx="1.94915" transform="rotate(-90 155.934 426.441)" fill="#4EDDBB"/>
<rect x="155.934" y="406.949" width="15.5932" height="15.5932" rx="1.94915" transform="rotate(-90 155.934 406.949)" fill="#4EDDBB"/>
<rect x="155.934" y="387.457" width="15.5932" height="15.5932" rx="1.94915" transform="rotate(-90 155.934 387.457)" fill="#4EDDBB"/>
<rect x="155.934" y="367.967" width="15.5932" height="15.5932" rx="1.94915" transform="rotate(-90 155.934 367.967)" fill="#4EDDBB"/>
<rect x="155.934" y="348.477" width="15.5932" height="15.5932" rx="1.94915" transform="rotate(-90 155.934 348.477)" fill="#4EDDBB"/>
<rect x="155.934" y="328.984" width="15.5932" height="15.5932" rx="1.94915" transform="rotate(-90 155.934 328.984)" fill="#4EDDBB"/>
<rect x="155.934" y="309.492" width="15.5932" height="15.5932" rx="1.94915" transform="rotate(-90 155.934 309.492)" fill="#4EDDBB"/>
<rect x="155.934" y="290" width="15.5932" height="15.5932" rx="1.94915" transform="rotate(-90 155.934 290)" fill="#4EDDBB"/>
<rect x="155.934" y="270.508" width="15.5932" height="15.5932" rx="1.94915" transform="rotate(-90 155.934 270.508)" fill="#4EDDBB"/>
<rect x="155.934" y="251.018" width="15.5932" height="15.5932" rx="1.94915" transform="rotate(-90 155.934 251.018)" fill="#4EDDBB"/>
<rect x="155.934" y="231.525" width="15.5932" height="15.5932" rx="1.94915" transform="rotate(-90 155.934 231.525)" fill="#4EDDBB"/>
<rect x="155.934" y="212.035" width="15.5932" height="15.5932" rx="1.94915" transform="rotate(-90 155.934 212.035)" fill="#4EDDBB"/>
<rect x="155.934" y="192.543" width="15.5932" height="15.5932" rx="1.94915" transform="rotate(-90 155.934 192.543)" fill="#4EDDBB"/>
<rect x="155.934" y="173.051" width="15.5932" height="15.5932" rx="1.94915" transform="rotate(-90 155.934 173.051)" fill="#4EDDBB"/>
<rect x="155.934" y="153.559" width="15.5932" height="15.5932" rx="1.94915" transform="rotate(-90 155.934 153.559)" fill="#4EDDBB"/>
<rect x="175.424" y="484.916" width="15.5932" height="15.5932" rx="1.94915" transform="rotate(-90 175.424 484.916)" fill="#4EDDBB"/>
<rect x="175.424" y="465.424" width="15.5932" height="15.5932" rx="1.94915" transform="rotate(-90 175.424 465.424)" fill="#4EDDBB"/>
<rect x="175.424" y="445.934" width="15.5932" height="15.5932" rx="1.94915" transform="rotate(-90 175.424 445.934)" fill="#4EDDBB"/>
<rect x="175.424" y="426.441" width="15.5932" height="15.5932" rx="1.94915" transform="rotate(-90 175.424 426.441)" fill="#4EDDBB"/>
<rect x="175.424" y="406.949" width="15.5932" height="15.5932" rx="1.94915" transform="rotate(-90 175.424 406.949)" fill="#4EDDBB"/>
<rect x="175.424" y="387.457" width="15.5932" height="15.5932" rx="1.94915" transform="rotate(-90 175.424 387.457)" fill="#4EDDBB"/>
<rect x="175.424" y="367.967" width="15.5932" height="15.5932" rx="1.94915" transform="rotate(-90 175.424 367.967)" fill="#4EDDBB"/>
<rect x="175.424" y="348.477" width="15.5932" height="15.5932" rx="1.94915" transform="rotate(-90 175.424 348.477)" fill="#4EDDBB"/>
<rect x="175.424" y="328.984" width="15.5932" height="15.5932" rx="1.94915" transform="rotate(-90 175.424 328.984)" fill="#4EDDBB"/>
<rect x="175.424" y="309.492" width="15.5932" height="15.5932" rx="1.94915" transform="rotate(-90 175.424 309.492)" fill="#4EDDBB"/>
<rect x="175.424" y="290" width="15.5932" height="15.5932" rx="1.94915" transform="rotate(-90 175.424 290)" fill="#4EDDBB"/>
<rect x="175.424" y="270.508" width="15.5932" height="15.5932" rx="1.94915" transform="rotate(-90 175.424 270.508)" fill="#4EDDBB"/>
<rect x="175.424" y="251.018" width="15.5932" height="15.5932" rx="1.94915" transform="rotate(-90 175.424 251.018)" fill="#4EDDBB"/>
<rect x="175.424" y="231.525" width="15.5932" height="15.5932" rx="1.94915" transform="rotate(-90 175.424 231.525)" fill="#4EDDBB"/>
<rect x="175.424" y="212.035" width="15.5932" height="15.5932" rx="1.94915" transform="rotate(-90 175.424 212.035)" fill="#4EDDBB"/>
</g>
<rect x="194.916" y="485.424" width="15.5932" height="15.5932" rx="1.94915" transform="rotate(-90 194.916 485.424)" fill="#4EDDBB"/>
<rect x="194.916" y="465.934" width="15.5932" height="15.5932" rx="1.94915" transform="rotate(-90 194.916 465.934)" fill="#4EDDBB"/>
<rect x="194.916" y="446.441" width="15.5932" height="15.5932" rx="1.94915" transform="rotate(-90 194.916 446.441)" fill="#4EDDBB"/>
<rect x="194.916" y="426.949" width="15.5932" height="15.5932" rx="1.94915" transform="rotate(-90 194.916 426.949)" fill="#4EDDBB"/>
<rect x="194.916" y="407.457" width="15.5932" height="15.5932" rx="1.94915" transform="rotate(-90 194.916 407.457)" fill="#4EDDBB"/>
<rect x="194.916" y="387.967" width="15.5932" height="15.5932" rx="1.94915" transform="rotate(-90 194.916 387.967)" fill="#4EDDBB"/>
<rect x="214.406" y="485.424" width="15.5932" height="15.5932" rx="1.94915" transform="rotate(-90 214.406 485.424)" fill="#4EDDBB"/>
<rect x="214.406" y="465.934" width="15.5932" height="15.5932" rx="1.94915" transform="rotate(-90 214.406 465.934)" fill="#4EDDBB"/>
<rect y="485.424" width="15.5932" height="15.5932" rx="1.94915" transform="rotate(-90 0 485.424)" fill="#4EDDBB"/>
</g>
<rect opacity="0.05" x="97.459" y="55.5938" width="15.5932" height="15.5932" rx="1.94915" transform="rotate(-90 97.459 55.5938)" fill="#4EDDBB"/>
<rect opacity="0.05" x="117" y="15.5938" width="15.5932" height="15.5932" rx="1.94915" transform="rotate(-90 117 15.5938)" fill="#4EDDBB"/>
<rect opacity="0.05" x="116.949" y="55.5938" width="15.5932" height="15.5932" rx="1.94915" transform="rotate(-90 116.949 55.5938)" fill="#4EDDBB"/>
<rect opacity="0.05" x="116.949" y="35.5938" width="15.5932" height="15.5932" rx="1.94915" transform="rotate(-90 116.949 35.5938)" fill="#4EDDBB"/>
<defs>
<clipPath id="clip0_514_1716">
<rect width="756.271" height="179.322" fill="white" transform="translate(15.5938 816.271) rotate(-90)"/>
</clipPath>
</defs>
</svg>
