<svg width="24" height="28" viewBox="0 0 24 28" fill="none" xmlns="http://www.w3.org/2000/svg">
<g id="notepad">
<path id="Vector" opacity="0.4" d="M24 23.332V7.33203C24 5.12289 22.2091 3.33203 20 3.33203H4C1.79086 3.33203 0 5.12289 0 7.33203V23.332C0 25.5412 1.79086 27.332 4 27.332H20C22.2091 27.332 24 25.5412 24 23.332Z" fill="#4EDDBB"/>
<path id="Vector 430 (Stroke)" fill-rule="evenodd" clip-rule="evenodd" d="M5.66797 11.332C5.66797 10.7797 6.11568 10.332 6.66797 10.332H17.3346C17.8869 10.332 18.3346 10.7797 18.3346 11.332C18.3346 11.8843 17.8869 12.332 17.3346 12.332H6.66797C6.11568 12.332 5.66797 11.8843 5.66797 11.332Z" fill="#4EDDBB"/>
<path id="Vector 431 (Stroke)" fill-rule="evenodd" clip-rule="evenodd" d="M5.66797 16.666C5.66797 16.1137 6.11568 15.666 6.66797 15.666H17.3346C17.8869 15.666 18.3346 16.1137 18.3346 16.666C18.3346 17.2183 17.8869 17.666 17.3346 17.666H6.66797C6.11568 17.666 5.66797 17.2183 5.66797 16.666Z" fill="#4EDDBB"/>
<path id="Vector 432 (Stroke)" fill-rule="evenodd" clip-rule="evenodd" d="M5.66797 22C5.66797 21.4477 6.11568 21 6.66797 21H12.0013C12.5536 21 13.0013 21.4477 13.0013 22C13.0013 22.5523 12.5536 23 12.0013 23H6.66797C6.11568 23 5.66797 22.5523 5.66797 22Z" fill="#4EDDBB"/>
<path id="Vector_2" d="M14.668 0.666016H9.33464C7.86188 0.666016 6.66797 1.85992 6.66797 3.33268C6.66797 4.80544 7.86188 5.99935 9.33464 5.99935H14.668C16.1407 5.99935 17.3346 4.80544 17.3346 3.33268C17.3346 1.85992 16.1407 0.666016 14.668 0.666016Z" fill="#4EDDBB"/>
</g>
</svg>
