<svg width="230" height="487" viewBox="0 0 230 487" fill="none" xmlns="http://www.w3.org/2000/svg">
<g opacity="0.1">
<g clip-path="url(#clip0_286_472)">
<rect x="19.4919" y="483.391" width="15.5932" height="15.5932" rx="1.94915" transform="rotate(-90 19.4919 483.391)" fill="#4EDDBB"/>
<rect x="19.4919" y="463.898" width="15.5932" height="15.5932" rx="1.94915" transform="rotate(-90 19.4919 463.898)" fill="#4EDDBB"/>
<rect x="19.4919" y="444.408" width="15.5932" height="15.5932" rx="1.94915" transform="rotate(-90 19.4919 444.408)" fill="#4EDDBB"/>
<rect x="19.4919" y="424.916" width="15.5932" height="15.5932" rx="1.94915" transform="rotate(-90 19.4919 424.916)" fill="#4EDDBB"/>
<rect x="19.4919" y="405.424" width="15.5932" height="15.5932" rx="1.94915" transform="rotate(-90 19.4919 405.424)" fill="#4EDDBB"/>
<rect x="19.4919" y="385.934" width="15.5932" height="15.5932" rx="1.94915" transform="rotate(-90 19.4919 385.934)" fill="#4EDDBB"/>
<rect x="19.4919" y="366.441" width="15.5932" height="15.5932" rx="1.94915" transform="rotate(-90 19.4919 366.441)" fill="#4EDDBB"/>
<rect x="19.4919" y="346.949" width="15.5932" height="15.5932" rx="1.94915" transform="rotate(-90 19.4919 346.949)" fill="#4EDDBB"/>
<rect x="19.4919" y="327.457" width="15.5932" height="15.5932" rx="1.94915" transform="rotate(-90 19.4919 327.457)" fill="#4EDDBB"/>
<rect x="38.9844" y="483.391" width="15.5932" height="15.5932" rx="1.94915" transform="rotate(-90 38.9844 483.391)" fill="#4EDDBB"/>
<rect x="38.9844" y="463.898" width="15.5932" height="15.5932" rx="1.94915" transform="rotate(-90 38.9844 463.898)" fill="#4EDDBB"/>
<rect x="38.9844" y="444.408" width="15.5932" height="15.5932" rx="1.94915" transform="rotate(-90 38.9844 444.408)" fill="#4EDDBB"/>
<rect x="38.9844" y="424.916" width="15.5932" height="15.5932" rx="1.94915" transform="rotate(-90 38.9844 424.916)" fill="#4EDDBB"/>
<rect x="38.9844" y="405.424" width="15.5932" height="15.5932" rx="1.94915" transform="rotate(-90 38.9844 405.424)" fill="#4EDDBB"/>
<rect x="38.9844" y="385.934" width="15.5932" height="15.5932" rx="1.94915" transform="rotate(-90 38.9844 385.934)" fill="#4EDDBB"/>
<rect x="38.9844" y="366.441" width="15.5932" height="15.5932" rx="1.94915" transform="rotate(-90 38.9844 366.441)" fill="#4EDDBB"/>
<rect x="38.9844" y="346.949" width="15.5932" height="15.5932" rx="1.94915" transform="rotate(-90 38.9844 346.949)" fill="#4EDDBB"/>
<rect x="38.9844" y="327.457" width="15.5932" height="15.5932" rx="1.94915" transform="rotate(-90 38.9844 327.457)" fill="#4EDDBB"/>
<rect x="38.9844" y="307.967" width="15.5932" height="15.5932" rx="1.94915" transform="rotate(-90 38.9844 307.967)" fill="#4EDDBB"/>
<rect x="38.9844" y="288.477" width="15.5932" height="15.5932" rx="1.94915" transform="rotate(-90 38.9844 288.477)" fill="#4EDDBB"/>
<rect x="38.9844" y="268.984" width="15.5932" height="15.5932" rx="1.94915" transform="rotate(-90 38.9844 268.984)" fill="#4EDDBB"/>
<rect x="38.9844" y="249.492" width="15.5932" height="15.5932" rx="1.94915" transform="rotate(-90 38.9844 249.492)" fill="#4EDDBB"/>
<rect x="38.9844" y="230" width="15.5932" height="15.5932" rx="1.94915" transform="rotate(-90 38.9844 230)" fill="#4EDDBB"/>
<rect x="38.9844" y="210.508" width="15.5932" height="15.5932" rx="1.94915" transform="rotate(-90 38.9844 210.508)" fill="#4EDDBB"/>
<rect x="38.9844" y="191.018" width="15.5932" height="15.5932" rx="1.94915" transform="rotate(-90 38.9844 191.018)" fill="#4EDDBB"/>
<rect x="38.9844" y="171.525" width="15.5932" height="15.5932" rx="1.94915" transform="rotate(-90 38.9844 171.525)" fill="#4EDDBB"/>
<rect x="38.9844" y="152.035" width="15.5932" height="15.5932" rx="1.94915" transform="rotate(-90 38.9844 152.035)" fill="#4EDDBB"/>
<rect x="38.9844" y="132.543" width="15.5932" height="15.5932" rx="1.94915" transform="rotate(-90 38.9844 132.543)" fill="#4EDDBB"/>
<rect x="38.9844" y="113.051" width="15.5932" height="15.5932" rx="1.94915" transform="rotate(-90 38.9844 113.051)" fill="#4EDDBB"/>
<rect x="58.4766" y="483.391" width="15.5932" height="15.5932" rx="1.94915" transform="rotate(-90 58.4766 483.391)" fill="#4EDDBB"/>
<rect x="58.4766" y="463.898" width="15.5932" height="15.5932" rx="1.94915" transform="rotate(-90 58.4766 463.898)" fill="#4EDDBB"/>
<rect x="58.4766" y="444.408" width="15.5932" height="15.5932" rx="1.94915" transform="rotate(-90 58.4766 444.408)" fill="#4EDDBB"/>
<rect x="58.4766" y="424.916" width="15.5932" height="15.5932" rx="1.94915" transform="rotate(-90 58.4766 424.916)" fill="#4EDDBB"/>
<rect x="58.4766" y="405.424" width="15.5932" height="15.5932" rx="1.94915" transform="rotate(-90 58.4766 405.424)" fill="#4EDDBB"/>
<rect x="58.4766" y="385.934" width="15.5932" height="15.5932" rx="1.94915" transform="rotate(-90 58.4766 385.934)" fill="#4EDDBB"/>
<rect x="58.4766" y="366.441" width="15.5932" height="15.5932" rx="1.94915" transform="rotate(-90 58.4766 366.441)" fill="#4EDDBB"/>
<rect x="58.4766" y="346.949" width="15.5932" height="15.5932" rx="1.94915" transform="rotate(-90 58.4766 346.949)" fill="#4EDDBB"/>
<rect x="58.4766" y="327.457" width="15.5932" height="15.5932" rx="1.94915" transform="rotate(-90 58.4766 327.457)" fill="#4EDDBB"/>
<rect x="58.4766" y="307.967" width="15.5932" height="15.5932" rx="1.94915" transform="rotate(-90 58.4766 307.967)" fill="#4EDDBB"/>
<rect x="58.4766" y="288.477" width="15.5932" height="15.5932" rx="1.94915" transform="rotate(-90 58.4766 288.477)" fill="#4EDDBB"/>
<rect x="58.4766" y="268.984" width="15.5932" height="15.5932" rx="1.94915" transform="rotate(-90 58.4766 268.984)" fill="#4EDDBB"/>
<rect x="58.4766" y="249.492" width="15.5932" height="15.5932" rx="1.94915" transform="rotate(-90 58.4766 249.492)" fill="#4EDDBB"/>
<rect x="58.4766" y="230" width="15.5932" height="15.5932" rx="1.94915" transform="rotate(-90 58.4766 230)" fill="#4EDDBB"/>
<rect x="58.4766" y="210.508" width="15.5932" height="15.5932" rx="1.94915" transform="rotate(-90 58.4766 210.508)" fill="#4EDDBB"/>
<rect x="58.4766" y="191.018" width="15.5932" height="15.5932" rx="1.94915" transform="rotate(-90 58.4766 191.018)" fill="#4EDDBB"/>
<rect x="58.4766" y="171.525" width="15.5932" height="15.5932" rx="1.94915" transform="rotate(-90 58.4766 171.525)" fill="#4EDDBB"/>
<rect x="58.4766" y="152.035" width="15.5932" height="15.5932" rx="1.94915" transform="rotate(-90 58.4766 152.035)" fill="#4EDDBB"/>
<rect x="58.4766" y="132.543" width="15.5932" height="15.5932" rx="1.94915" transform="rotate(-90 58.4766 132.543)" fill="#4EDDBB"/>
<rect x="58.4766" y="113.051" width="15.5932" height="15.5932" rx="1.94915" transform="rotate(-90 58.4766 113.051)" fill="#4EDDBB"/>
<rect x="58.4766" y="93.5586" width="15.5932" height="15.5932" rx="1.94915" transform="rotate(-90 58.4766 93.5586)" fill="#4EDDBB"/>
<rect x="58.4766" y="74.0664" width="15.5932" height="15.5932" rx="1.94915" transform="rotate(-90 58.4766 74.0664)" fill="#4EDDBB"/>
<rect x="58.4766" y="54.5762" width="15.5932" height="15.5932" rx="1.94915" transform="rotate(-90 58.4766 54.5762)" fill="#4EDDBB"/>
<rect x="77.9666" y="483.391" width="15.5932" height="15.5932" rx="1.94915" transform="rotate(-90 77.9666 483.391)" fill="#4EDDBB"/>
<rect x="77.9666" y="463.898" width="15.5932" height="15.5932" rx="1.94915" transform="rotate(-90 77.9666 463.898)" fill="#4EDDBB"/>
<rect x="77.9666" y="444.408" width="15.5932" height="15.5932" rx="1.94915" transform="rotate(-90 77.9666 444.408)" fill="#4EDDBB"/>
<rect x="77.9666" y="424.916" width="15.5932" height="15.5932" rx="1.94915" transform="rotate(-90 77.9666 424.916)" fill="#4EDDBB"/>
<rect x="77.9666" y="405.424" width="15.5932" height="15.5932" rx="1.94915" transform="rotate(-90 77.9666 405.424)" fill="#4EDDBB"/>
<rect x="77.9666" y="385.934" width="15.5932" height="15.5932" rx="1.94915" transform="rotate(-90 77.9666 385.934)" fill="#4EDDBB"/>
<rect x="77.9666" y="366.441" width="15.5932" height="15.5932" rx="1.94915" transform="rotate(-90 77.9666 366.441)" fill="#4EDDBB"/>
<rect x="77.9666" y="346.949" width="15.5932" height="15.5932" rx="1.94915" transform="rotate(-90 77.9666 346.949)" fill="#4EDDBB"/>
<rect x="77.9666" y="327.457" width="15.5932" height="15.5932" rx="1.94915" transform="rotate(-90 77.9666 327.457)" fill="#4EDDBB"/>
<rect x="77.9666" y="307.967" width="15.5932" height="15.5932" rx="1.94915" transform="rotate(-90 77.9666 307.967)" fill="#4EDDBB"/>
<rect x="77.9666" y="288.477" width="15.5932" height="15.5932" rx="1.94915" transform="rotate(-90 77.9666 288.477)" fill="#4EDDBB"/>
<rect x="77.9666" y="268.984" width="15.5932" height="15.5932" rx="1.94915" transform="rotate(-90 77.9666 268.984)" fill="#4EDDBB"/>
<rect x="77.9666" y="249.492" width="15.5932" height="15.5932" rx="1.94915" transform="rotate(-90 77.9666 249.492)" fill="#4EDDBB"/>
<rect x="77.9666" y="230" width="15.5932" height="15.5932" rx="1.94915" transform="rotate(-90 77.9666 230)" fill="#4EDDBB"/>
<rect x="77.9666" y="210.508" width="15.5932" height="15.5932" rx="1.94915" transform="rotate(-90 77.9666 210.508)" fill="#4EDDBB"/>
<rect x="77.9666" y="191.018" width="15.5932" height="15.5932" rx="1.94915" transform="rotate(-90 77.9666 191.018)" fill="#4EDDBB"/>
<rect x="77.9666" y="171.525" width="15.5932" height="15.5932" rx="1.94915" transform="rotate(-90 77.9666 171.525)" fill="#4EDDBB"/>
<rect x="77.9666" y="152.035" width="15.5932" height="15.5932" rx="1.94915" transform="rotate(-90 77.9666 152.035)" fill="#4EDDBB"/>
<rect x="77.9666" y="132.543" width="15.5932" height="15.5932" rx="1.94915" transform="rotate(-90 77.9666 132.543)" fill="#4EDDBB"/>
<rect x="77.9666" y="113.051" width="15.5932" height="15.5932" rx="1.94915" transform="rotate(-90 77.9666 113.051)" fill="#4EDDBB"/>
<rect x="77.9666" y="93.5586" width="15.5932" height="15.5932" rx="1.94915" transform="rotate(-90 77.9666 93.5586)" fill="#4EDDBB"/>
<rect x="77.9666" y="74.0664" width="15.5932" height="15.5932" rx="1.94915" transform="rotate(-90 77.9666 74.0664)" fill="#4EDDBB"/>
<rect x="77.9666" y="54.5762" width="15.5932" height="15.5932" rx="1.94915" transform="rotate(-90 77.9666 54.5762)" fill="#4EDDBB"/>
<rect x="77.9666" y="35.0859" width="15.5932" height="15.5932" rx="1.94915" transform="rotate(-90 77.9666 35.0859)" fill="#4EDDBB"/>
<rect x="77.9666" y="15.5938" width="15.5932" height="15.5932" rx="1.94915" transform="rotate(-90 77.9666 15.5938)" fill="#4EDDBB"/>
<rect x="97.459" y="483.391" width="15.5932" height="15.5932" rx="1.94915" transform="rotate(-90 97.459 483.391)" fill="#4EDDBB"/>
<rect x="97.459" y="463.898" width="15.5932" height="15.5932" rx="1.94915" transform="rotate(-90 97.459 463.898)" fill="#4EDDBB"/>
<rect x="97.459" y="444.408" width="15.5932" height="15.5932" rx="1.94915" transform="rotate(-90 97.459 444.408)" fill="#4EDDBB"/>
<rect x="97.459" y="424.916" width="15.5932" height="15.5932" rx="1.94915" transform="rotate(-90 97.459 424.916)" fill="#4EDDBB"/>
<rect x="97.459" y="405.424" width="15.5932" height="15.5932" rx="1.94915" transform="rotate(-90 97.459 405.424)" fill="#4EDDBB"/>
<rect x="97.459" y="385.934" width="15.5932" height="15.5932" rx="1.94915" transform="rotate(-90 97.459 385.934)" fill="#4EDDBB"/>
<rect x="97.459" y="366.441" width="15.5932" height="15.5932" rx="1.94915" transform="rotate(-90 97.459 366.441)" fill="#4EDDBB"/>
<rect x="97.459" y="346.949" width="15.5932" height="15.5932" rx="1.94915" transform="rotate(-90 97.459 346.949)" fill="#4EDDBB"/>
<rect x="97.459" y="327.457" width="15.5932" height="15.5932" rx="1.94915" transform="rotate(-90 97.459 327.457)" fill="#4EDDBB"/>
<rect x="97.459" y="307.967" width="15.5932" height="15.5932" rx="1.94915" transform="rotate(-90 97.459 307.967)" fill="#4EDDBB"/>
<rect x="97.459" y="288.477" width="15.5932" height="15.5932" rx="1.94915" transform="rotate(-90 97.459 288.477)" fill="#4EDDBB"/>
<rect x="97.459" y="268.984" width="15.5932" height="15.5932" rx="1.94915" transform="rotate(-90 97.459 268.984)" fill="#4EDDBB"/>
<rect x="97.459" y="249.492" width="15.5932" height="15.5932" rx="1.94915" transform="rotate(-90 97.459 249.492)" fill="#4EDDBB"/>
<rect x="97.459" y="230" width="15.5932" height="15.5932" rx="1.94915" transform="rotate(-90 97.459 230)" fill="#4EDDBB"/>
<rect x="97.459" y="210.508" width="15.5932" height="15.5932" rx="1.94915" transform="rotate(-90 97.459 210.508)" fill="#4EDDBB"/>
<rect x="97.459" y="191.018" width="15.5932" height="15.5932" rx="1.94915" transform="rotate(-90 97.459 191.018)" fill="#4EDDBB"/>
<rect x="97.459" y="171.525" width="15.5932" height="15.5932" rx="1.94915" transform="rotate(-90 97.459 171.525)" fill="#4EDDBB"/>
<rect x="97.459" y="152.035" width="15.5932" height="15.5932" rx="1.94915" transform="rotate(-90 97.459 152.035)" fill="#4EDDBB"/>
<rect x="97.459" y="132.543" width="15.5932" height="15.5932" rx="1.94915" transform="rotate(-90 97.459 132.543)" fill="#4EDDBB"/>
<rect x="97.459" y="113.051" width="15.5932" height="15.5932" rx="1.94915" transform="rotate(-90 97.459 113.051)" fill="#4EDDBB"/>
<rect x="97.459" y="93.5586" width="15.5932" height="15.5932" rx="1.94915" transform="rotate(-90 97.459 93.5586)" fill="#4EDDBB"/>
<rect x="97.459" y="74.0664" width="15.5932" height="15.5932" rx="1.94915" transform="rotate(-90 97.459 74.0664)" fill="#4EDDBB"/>
<rect x="97.459" y="54.5762" width="15.5932" height="15.5932" rx="1.94915" transform="rotate(-90 97.459 54.5762)" fill="#4EDDBB"/>
<rect x="97.459" y="35.0859" width="15.5932" height="15.5932" rx="1.94915" transform="rotate(-90 97.459 35.0859)" fill="#4EDDBB"/>
<rect x="97.459" y="15.5938" width="15.5932" height="15.5932" rx="1.94915" transform="rotate(-90 97.459 15.5938)" fill="#4EDDBB"/>
<rect x="116.949" y="483.391" width="15.5932" height="15.5932" rx="1.94915" transform="rotate(-90 116.949 483.391)" fill="#4EDDBB"/>
<rect x="116.949" y="463.898" width="15.5932" height="15.5932" rx="1.94915" transform="rotate(-90 116.949 463.898)" fill="#4EDDBB"/>
<rect x="116.949" y="444.408" width="15.5932" height="15.5932" rx="1.94915" transform="rotate(-90 116.949 444.408)" fill="#4EDDBB"/>
<rect x="116.949" y="424.916" width="15.5932" height="15.5932" rx="1.94915" transform="rotate(-90 116.949 424.916)" fill="#4EDDBB"/>
<rect x="116.949" y="405.424" width="15.5932" height="15.5932" rx="1.94915" transform="rotate(-90 116.949 405.424)" fill="#4EDDBB"/>
<rect x="116.949" y="385.934" width="15.5932" height="15.5932" rx="1.94915" transform="rotate(-90 116.949 385.934)" fill="#4EDDBB"/>
<rect x="116.949" y="366.441" width="15.5932" height="15.5932" rx="1.94915" transform="rotate(-90 116.949 366.441)" fill="#4EDDBB"/>
<rect x="116.949" y="346.949" width="15.5932" height="15.5932" rx="1.94915" transform="rotate(-90 116.949 346.949)" fill="#4EDDBB"/>
<rect x="116.949" y="327.457" width="15.5932" height="15.5932" rx="1.94915" transform="rotate(-90 116.949 327.457)" fill="#4EDDBB"/>
<rect x="116.949" y="307.967" width="15.5932" height="15.5932" rx="1.94915" transform="rotate(-90 116.949 307.967)" fill="#4EDDBB"/>
<rect x="116.949" y="288.477" width="15.5932" height="15.5932" rx="1.94915" transform="rotate(-90 116.949 288.477)" fill="#4EDDBB"/>
<rect x="116.949" y="268.984" width="15.5932" height="15.5932" rx="1.94915" transform="rotate(-90 116.949 268.984)" fill="#4EDDBB"/>
<rect x="116.949" y="249.492" width="15.5932" height="15.5932" rx="1.94915" transform="rotate(-90 116.949 249.492)" fill="#4EDDBB"/>
<rect x="116.949" y="230" width="15.5932" height="15.5932" rx="1.94915" transform="rotate(-90 116.949 230)" fill="#4EDDBB"/>
<rect x="116.949" y="210.508" width="15.5932" height="15.5932" rx="1.94915" transform="rotate(-90 116.949 210.508)" fill="#4EDDBB"/>
<rect x="116.949" y="191.018" width="15.5932" height="15.5932" rx="1.94915" transform="rotate(-90 116.949 191.018)" fill="#4EDDBB"/>
<rect x="116.949" y="171.525" width="15.5932" height="15.5932" rx="1.94915" transform="rotate(-90 116.949 171.525)" fill="#4EDDBB"/>
<rect x="116.949" y="152.035" width="15.5932" height="15.5932" rx="1.94915" transform="rotate(-90 116.949 152.035)" fill="#4EDDBB"/>
<rect x="116.949" y="132.543" width="15.5932" height="15.5932" rx="1.94915" transform="rotate(-90 116.949 132.543)" fill="#4EDDBB"/>
<rect x="116.949" y="113.051" width="15.5932" height="15.5932" rx="1.94915" transform="rotate(-90 116.949 113.051)" fill="#4EDDBB"/>
<rect x="116.949" y="93.5586" width="15.5932" height="15.5932" rx="1.94915" transform="rotate(-90 116.949 93.5586)" fill="#4EDDBB"/>
<rect x="116.949" y="74.0664" width="15.5932" height="15.5932" rx="1.94915" transform="rotate(-90 116.949 74.0664)" fill="#4EDDBB"/>
<rect x="116.949" y="54.5762" width="15.5932" height="15.5932" rx="1.94915" transform="rotate(-90 116.949 54.5762)" fill="#4EDDBB"/>
<rect x="116.949" y="35.0859" width="15.5932" height="15.5932" rx="1.94915" transform="rotate(-90 116.949 35.0859)" fill="#4EDDBB"/>
<rect x="116.949" y="15.5938" width="15.5932" height="15.5932" rx="1.94915" transform="rotate(-90 116.949 15.5938)" fill="#4EDDBB"/>
<rect x="136.441" y="483.391" width="15.5932" height="15.5932" rx="1.94915" transform="rotate(-90 136.441 483.391)" fill="#4EDDBB"/>
<rect x="136.441" y="463.898" width="15.5932" height="15.5932" rx="1.94915" transform="rotate(-90 136.441 463.898)" fill="#4EDDBB"/>
<rect x="136.441" y="444.408" width="15.5932" height="15.5932" rx="1.94915" transform="rotate(-90 136.441 444.408)" fill="#4EDDBB"/>
<rect x="136.441" y="424.916" width="15.5932" height="15.5932" rx="1.94915" transform="rotate(-90 136.441 424.916)" fill="#4EDDBB"/>
<rect x="136.441" y="405.424" width="15.5932" height="15.5932" rx="1.94915" transform="rotate(-90 136.441 405.424)" fill="#4EDDBB"/>
<rect x="136.441" y="385.934" width="15.5932" height="15.5932" rx="1.94915" transform="rotate(-90 136.441 385.934)" fill="#4EDDBB"/>
<rect x="136.441" y="366.441" width="15.5932" height="15.5932" rx="1.94915" transform="rotate(-90 136.441 366.441)" fill="#4EDDBB"/>
<rect x="136.441" y="346.949" width="15.5932" height="15.5932" rx="1.94915" transform="rotate(-90 136.441 346.949)" fill="#4EDDBB"/>
<rect x="136.441" y="327.457" width="15.5932" height="15.5932" rx="1.94915" transform="rotate(-90 136.441 327.457)" fill="#4EDDBB"/>
<rect x="136.441" y="307.967" width="15.5932" height="15.5932" rx="1.94915" transform="rotate(-90 136.441 307.967)" fill="#4EDDBB"/>
<rect x="136.441" y="288.477" width="15.5932" height="15.5932" rx="1.94915" transform="rotate(-90 136.441 288.477)" fill="#4EDDBB"/>
<rect x="136.441" y="268.984" width="15.5932" height="15.5932" rx="1.94915" transform="rotate(-90 136.441 268.984)" fill="#4EDDBB"/>
<rect x="136.441" y="249.492" width="15.5932" height="15.5932" rx="1.94915" transform="rotate(-90 136.441 249.492)" fill="#4EDDBB"/>
<rect x="136.441" y="230" width="15.5932" height="15.5932" rx="1.94915" transform="rotate(-90 136.441 230)" fill="#4EDDBB"/>
<rect x="136.441" y="210.508" width="15.5932" height="15.5932" rx="1.94915" transform="rotate(-90 136.441 210.508)" fill="#4EDDBB"/>
<rect x="136.441" y="191.018" width="15.5932" height="15.5932" rx="1.94915" transform="rotate(-90 136.441 191.018)" fill="#4EDDBB"/>
<rect x="136.441" y="171.525" width="15.5932" height="15.5932" rx="1.94915" transform="rotate(-90 136.441 171.525)" fill="#4EDDBB"/>
<rect x="136.441" y="152.035" width="15.5932" height="15.5932" rx="1.94915" transform="rotate(-90 136.441 152.035)" fill="#4EDDBB"/>
<rect x="136.441" y="132.543" width="15.5932" height="15.5932" rx="1.94915" transform="rotate(-90 136.441 132.543)" fill="#4EDDBB"/>
<rect x="136.441" y="113.051" width="15.5932" height="15.5932" rx="1.94915" transform="rotate(-90 136.441 113.051)" fill="#4EDDBB"/>
<rect x="155.934" y="483.391" width="15.5932" height="15.5932" rx="1.94915" transform="rotate(-90 155.934 483.391)" fill="#4EDDBB"/>
<rect x="155.934" y="463.898" width="15.5932" height="15.5932" rx="1.94915" transform="rotate(-90 155.934 463.898)" fill="#4EDDBB"/>
<rect x="155.934" y="444.408" width="15.5932" height="15.5932" rx="1.94915" transform="rotate(-90 155.934 444.408)" fill="#4EDDBB"/>
<rect x="155.934" y="424.916" width="15.5932" height="15.5932" rx="1.94915" transform="rotate(-90 155.934 424.916)" fill="#4EDDBB"/>
<rect x="155.934" y="405.424" width="15.5932" height="15.5932" rx="1.94915" transform="rotate(-90 155.934 405.424)" fill="#4EDDBB"/>
<rect x="155.934" y="385.934" width="15.5932" height="15.5932" rx="1.94915" transform="rotate(-90 155.934 385.934)" fill="#4EDDBB"/>
<rect x="155.934" y="366.441" width="15.5932" height="15.5932" rx="1.94915" transform="rotate(-90 155.934 366.441)" fill="#4EDDBB"/>
<rect x="155.934" y="346.949" width="15.5932" height="15.5932" rx="1.94915" transform="rotate(-90 155.934 346.949)" fill="#4EDDBB"/>
<rect x="155.934" y="327.457" width="15.5932" height="15.5932" rx="1.94915" transform="rotate(-90 155.934 327.457)" fill="#4EDDBB"/>
<rect x="155.934" y="307.967" width="15.5932" height="15.5932" rx="1.94915" transform="rotate(-90 155.934 307.967)" fill="#4EDDBB"/>
<rect x="155.934" y="288.477" width="15.5932" height="15.5932" rx="1.94915" transform="rotate(-90 155.934 288.477)" fill="#4EDDBB"/>
<rect x="155.934" y="268.984" width="15.5932" height="15.5932" rx="1.94915" transform="rotate(-90 155.934 268.984)" fill="#4EDDBB"/>
<rect x="155.934" y="249.492" width="15.5932" height="15.5932" rx="1.94915" transform="rotate(-90 155.934 249.492)" fill="#4EDDBB"/>
<rect x="155.934" y="230" width="15.5932" height="15.5932" rx="1.94915" transform="rotate(-90 155.934 230)" fill="#4EDDBB"/>
<rect x="155.934" y="210.508" width="15.5932" height="15.5932" rx="1.94915" transform="rotate(-90 155.934 210.508)" fill="#4EDDBB"/>
<rect x="155.934" y="191.018" width="15.5932" height="15.5932" rx="1.94915" transform="rotate(-90 155.934 191.018)" fill="#4EDDBB"/>
<rect x="155.934" y="171.525" width="15.5932" height="15.5932" rx="1.94915" transform="rotate(-90 155.934 171.525)" fill="#4EDDBB"/>
<rect x="155.934" y="152.035" width="15.5932" height="15.5932" rx="1.94915" transform="rotate(-90 155.934 152.035)" fill="#4EDDBB"/>
<rect x="155.934" y="132.543" width="15.5932" height="15.5932" rx="1.94915" transform="rotate(-90 155.934 132.543)" fill="#4EDDBB"/>
<rect x="155.934" y="113.051" width="15.5932" height="15.5932" rx="1.94915" transform="rotate(-90 155.934 113.051)" fill="#4EDDBB"/>
<rect x="155.934" y="93.5586" width="15.5932" height="15.5932" rx="1.94915" transform="rotate(-90 155.934 93.5586)" fill="#4EDDBB"/>
<rect x="175.424" y="483.391" width="15.5932" height="15.5932" rx="1.94915" transform="rotate(-90 175.424 483.391)" fill="#4EDDBB"/>
<rect x="175.424" y="463.898" width="15.5932" height="15.5932" rx="1.94915" transform="rotate(-90 175.424 463.898)" fill="#4EDDBB"/>
<rect x="175.424" y="444.408" width="15.5932" height="15.5932" rx="1.94915" transform="rotate(-90 175.424 444.408)" fill="#4EDDBB"/>
<rect x="175.424" y="424.916" width="15.5932" height="15.5932" rx="1.94915" transform="rotate(-90 175.424 424.916)" fill="#4EDDBB"/>
<rect x="175.424" y="405.424" width="15.5932" height="15.5932" rx="1.94915" transform="rotate(-90 175.424 405.424)" fill="#4EDDBB"/>
<rect x="175.424" y="385.934" width="15.5932" height="15.5932" rx="1.94915" transform="rotate(-90 175.424 385.934)" fill="#4EDDBB"/>
<rect x="175.424" y="366.441" width="15.5932" height="15.5932" rx="1.94915" transform="rotate(-90 175.424 366.441)" fill="#4EDDBB"/>
<rect x="175.424" y="346.949" width="15.5932" height="15.5932" rx="1.94915" transform="rotate(-90 175.424 346.949)" fill="#4EDDBB"/>
<rect x="175.424" y="327.457" width="15.5932" height="15.5932" rx="1.94915" transform="rotate(-90 175.424 327.457)" fill="#4EDDBB"/>
<rect x="175.424" y="307.967" width="15.5932" height="15.5932" rx="1.94915" transform="rotate(-90 175.424 307.967)" fill="#4EDDBB"/>
<rect x="175.424" y="288.477" width="15.5932" height="15.5932" rx="1.94915" transform="rotate(-90 175.424 288.477)" fill="#4EDDBB"/>
<rect x="175.424" y="268.984" width="15.5932" height="15.5932" rx="1.94915" transform="rotate(-90 175.424 268.984)" fill="#4EDDBB"/>
<rect x="175.424" y="249.492" width="15.5932" height="15.5932" rx="1.94915" transform="rotate(-90 175.424 249.492)" fill="#4EDDBB"/>
<rect x="175.424" y="230" width="15.5932" height="15.5932" rx="1.94915" transform="rotate(-90 175.424 230)" fill="#4EDDBB"/>
<rect x="175.424" y="210.508" width="15.5932" height="15.5932" rx="1.94915" transform="rotate(-90 175.424 210.508)" fill="#4EDDBB"/>
<rect x="175.424" y="191.018" width="15.5932" height="15.5932" rx="1.94915" transform="rotate(-90 175.424 191.018)" fill="#4EDDBB"/>
<rect x="175.424" y="171.525" width="15.5932" height="15.5932" rx="1.94915" transform="rotate(-90 175.424 171.525)" fill="#4EDDBB"/>
<rect x="175.424" y="152.035" width="15.5932" height="15.5932" rx="1.94915" transform="rotate(-90 175.424 152.035)" fill="#4EDDBB"/>
</g>
<rect x="194.916" y="483.898" width="15.5932" height="15.5932" rx="1.94915" transform="rotate(-90 194.916 483.898)" fill="#4EDDBB"/>
<rect x="194.916" y="464.408" width="15.5932" height="15.5932" rx="1.94915" transform="rotate(-90 194.916 464.408)" fill="#4EDDBB"/>
<rect x="194.916" y="444.916" width="15.5932" height="15.5932" rx="1.94915" transform="rotate(-90 194.916 444.916)" fill="#4EDDBB"/>
<rect x="194.916" y="425.424" width="15.5932" height="15.5932" rx="1.94915" transform="rotate(-90 194.916 425.424)" fill="#4EDDBB"/>
<rect x="194.916" y="405.934" width="15.5932" height="15.5932" rx="1.94915" transform="rotate(-90 194.916 405.934)" fill="#4EDDBB"/>
<rect x="194.916" y="386.441" width="15.5932" height="15.5932" rx="1.94915" transform="rotate(-90 194.916 386.441)" fill="#4EDDBB"/>
<rect x="194.916" y="366.949" width="15.5932" height="15.5932" rx="1.94915" transform="rotate(-90 194.916 366.949)" fill="#4EDDBB"/>
<rect x="194.916" y="347.457" width="15.5932" height="15.5932" rx="1.94915" transform="rotate(-90 194.916 347.457)" fill="#4EDDBB"/>
<rect x="194.916" y="327.967" width="15.5932" height="15.5932" rx="1.94915" transform="rotate(-90 194.916 327.967)" fill="#4EDDBB"/>
<rect x="214.406" y="483.898" width="15.5932" height="15.5932" rx="1.94915" transform="rotate(-90 214.406 483.898)" fill="#4EDDBB"/>
<rect x="214.406" y="464.408" width="15.5932" height="15.5932" rx="1.94915" transform="rotate(-90 214.406 464.408)" fill="#4EDDBB"/>
<rect x="214.406" y="444.916" width="15.5932" height="15.5932" rx="1.94915" transform="rotate(-90 214.406 444.916)" fill="#4EDDBB"/>
<rect x="214.406" y="425.424" width="15.5932" height="15.5932" rx="1.94915" transform="rotate(-90 214.406 425.424)" fill="#4EDDBB"/>
<rect x="214.406" y="405.934" width="15.5932" height="15.5932" rx="1.94915" transform="rotate(-90 214.406 405.934)" fill="#4EDDBB"/>
<rect y="483.898" width="15.5932" height="15.5932" rx="1.94915" transform="rotate(-90 0 483.898)" fill="#4EDDBB"/>
<rect y="464.408" width="15.5932" height="15.5932" rx="1.94915" transform="rotate(-90 0 464.408)" fill="#4EDDBB"/>
<rect y="444.916" width="15.5932" height="15.5932" rx="1.94915" transform="rotate(-90 0 444.916)" fill="#4EDDBB"/>
<rect y="425.424" width="15.5932" height="15.5932" rx="1.94915" transform="rotate(-90 0 425.424)" fill="#4EDDBB"/>
</g>
<defs>
<clipPath id="clip0_286_472">
<rect width="756.271" height="179.322" fill="white" transform="translate(15.5938 756.271) rotate(-90)"/>
</clipPath>
</defs>
</svg>
