<svg width="28" height="20" viewBox="0 0 28 20" fill="none" xmlns="http://www.w3.org/2000/svg">
<g id="user">
<path id="combo shape" fill-rule="evenodd" clip-rule="evenodd" d="M14 8.66602C16.2091 8.66602 18 6.87515 18 4.66602C18 2.45688 16.2091 0.666016 14 0.666016C11.7909 0.666016 10 2.45688 10 4.66602C10 6.87515 11.7909 8.66602 14 8.66602ZM14 19.332C18.4183 19.332 22 17.5412 22 15.332C22 13.1229 18.4183 11.332 14 11.332C9.58172 11.332 6 13.1229 6 15.332C6 17.5412 9.58172 19.332 14 19.332ZM6.50822 11.3574C3.21533 11.5605 0.666016 12.9641 0.666016 14.6655C0.666016 16.0681 2.39867 17.2684 4.85219 17.7605C4.30392 17.0181 3.99935 16.1965 3.99935 15.3322C3.99935 13.8076 4.94703 12.4159 6.50822 11.3574ZM23.9991 15.3322C23.9991 16.1965 23.6945 17.0181 23.1463 17.7605C25.5998 17.2684 27.3324 16.0681 27.3324 14.6655C27.3324 12.9641 24.7831 11.5605 21.4902 11.3574C23.0514 12.4159 23.9991 13.8076 23.9991 15.3322ZM18.957 8.04588C19.6147 7.08323 19.9993 5.91921 19.9993 4.66536C19.9993 4.24929 19.957 3.8431 19.8763 3.45088C20.1259 3.37363 20.3911 3.33203 20.666 3.33203C22.1387 3.33203 23.3326 4.52594 23.3326 5.9987C23.3326 7.47146 22.1387 8.66536 20.666 8.66536C20.0157 8.66536 19.4198 8.43262 18.957 8.04588ZM7.33268 3.33203C7.6076 3.33203 7.8728 3.37363 8.12233 3.45088C8.0417 3.8431 7.99935 4.24929 7.99935 4.66536C7.99935 5.91921 8.38395 7.08323 9.04163 8.04588C8.57885 8.43262 7.98295 8.66536 7.33268 8.66536C5.85992 8.66536 4.66602 7.47146 4.66602 5.9987C4.66602 4.52594 5.85992 3.33203 7.33268 3.33203Z" fill="#4EDDBB"/>
</g>
</svg>
