<svg width="32" height="32" viewBox="0 0 32 32" fill="none" xmlns="http://www.w3.org/2000/svg">
<g id="Huge-icon/ecommerce/bulk/trolley">
<g id="shopping basket">
<path id="Rectangle 811" opacity="0.4" d="M10.668 9.33366C10.668 7.8609 11.8619 6.66699 13.3346 6.66699H24.0013C25.4741 6.66699 26.668 7.8609 26.668 9.33366V20.0003C26.668 21.4731 25.4741 22.667 24.0013 22.667H13.3346C11.8619 22.667 10.668 21.4731 10.668 20.0003V9.33366Z" fill="#4EDDBB"/>
<path id="Vector 1860 (Stroke)" fill-rule="evenodd" clip-rule="evenodd" d="M16.3359 10.667C16.3359 10.1147 16.7837 9.66699 17.3359 9.66699H20.0026C20.5549 9.66699 21.0026 10.1147 21.0026 10.667C21.0026 11.2193 20.5549 11.667 20.0026 11.667H17.3359C16.7837 11.667 16.3359 11.2193 16.3359 10.667Z" fill="#4EDDBB"/>
<path id="Ellipse 670" opacity="0.4" d="M10.6667 26.0003C10.6667 27.8413 9.17428 29.3337 7.33333 29.3337C5.49238 29.3337 4 27.8413 4 26.0003C4 24.1594 5.49238 22.667 7.33333 22.667C9.17428 22.667 10.6667 24.1594 10.6667 26.0003Z" fill="#4EDDBB"/>
<path id="Subtract" fill-rule="evenodd" clip-rule="evenodd" d="M2.66797 1.66699C2.11568 1.66699 1.66797 2.11471 1.66797 2.66699C1.66797 3.21928 2.11568 3.66699 2.66797 3.66699H4.0013C4.92178 3.66699 5.66797 4.41318 5.66797 5.33366V23.1122C6.15796 22.829 6.72673 22.667 7.33333 22.667C7.44628 22.667 7.55791 22.6726 7.66797 22.6836V5.33366C7.66797 3.30861 6.02635 1.66699 4.0013 1.66699H2.66797ZM10.2207 27.667C10.5043 27.1767 10.6667 26.6075 10.6667 26.0003C10.6667 25.8878 10.6611 25.7766 10.6502 25.667H29.3346C29.8869 25.667 30.3346 26.1147 30.3346 26.667C30.3346 27.2193 29.8869 27.667 29.3346 27.667H10.2207Z" fill="#4EDDBB"/>
</g>
</g>
</svg>
