<svg width="230" height="423" viewBox="0 0 230 423" fill="none" xmlns="http://www.w3.org/2000/svg">
<g opacity="0.03">
<g clip-path="url(#clip0_309_5548)">
<rect x="19.4917" y="424.916" width="15.5932" height="15.5932" rx="1.94915" transform="rotate(-90 19.4917 424.916)" fill="#4EDDBB"/>
<rect x="19.4917" y="405.424" width="15.5932" height="15.5932" rx="1.94915" transform="rotate(-90 19.4917 405.424)" fill="#4EDDBB"/>
<rect x="19.4917" y="385.934" width="15.5932" height="15.5932" rx="1.94915" transform="rotate(-90 19.4917 385.934)" fill="#4EDDBB"/>
<rect x="19.4917" y="366.441" width="15.5932" height="15.5932" rx="1.94915" transform="rotate(-90 19.4917 366.441)" fill="#4EDDBB"/>
<rect x="19.4917" y="346.949" width="15.5932" height="15.5932" rx="1.94915" transform="rotate(-90 19.4917 346.949)" fill="#4EDDBB"/>
<rect x="19.4917" y="327.457" width="15.5932" height="15.5932" rx="1.94915" transform="rotate(-90 19.4917 327.457)" fill="#4EDDBB"/>
<rect x="38.9839" y="424.916" width="15.5932" height="15.5932" rx="1.94915" transform="rotate(-90 38.9839 424.916)" fill="#4EDDBB"/>
<rect x="38.9839" y="405.424" width="15.5932" height="15.5932" rx="1.94915" transform="rotate(-90 38.9839 405.424)" fill="#4EDDBB"/>
<rect x="38.9839" y="385.934" width="15.5932" height="15.5932" rx="1.94915" transform="rotate(-90 38.9839 385.934)" fill="#4EDDBB"/>
<rect x="38.9839" y="366.441" width="15.5932" height="15.5932" rx="1.94915" transform="rotate(-90 38.9839 366.441)" fill="#4EDDBB"/>
<rect x="38.9839" y="346.949" width="15.5932" height="15.5932" rx="1.94915" transform="rotate(-90 38.9839 346.949)" fill="#4EDDBB"/>
<rect x="38.9839" y="327.457" width="15.5932" height="15.5932" rx="1.94915" transform="rotate(-90 38.9839 327.457)" fill="#4EDDBB"/>
<rect x="38.9839" y="307.967" width="15.5932" height="15.5932" rx="1.94915" transform="rotate(-90 38.9839 307.967)" fill="#4EDDBB"/>
<rect x="38.9839" y="288.477" width="15.5932" height="15.5932" rx="1.94915" transform="rotate(-90 38.9839 288.477)" fill="#4EDDBB"/>
<rect x="38.9839" y="268.984" width="15.5932" height="15.5932" rx="1.94915" transform="rotate(-90 38.9839 268.984)" fill="#4EDDBB"/>
<rect x="38.9839" y="249.492" width="15.5932" height="15.5932" rx="1.94915" transform="rotate(-90 38.9839 249.492)" fill="#4EDDBB"/>
<rect x="38.9839" y="230" width="15.5932" height="15.5932" rx="1.94915" transform="rotate(-90 38.9839 230)" fill="#4EDDBB"/>
<rect x="38.9839" y="210.508" width="15.5932" height="15.5932" rx="1.94915" transform="rotate(-90 38.9839 210.508)" fill="#4EDDBB"/>
<rect x="38.9839" y="191.018" width="15.5932" height="15.5932" rx="1.94915" transform="rotate(-90 38.9839 191.018)" fill="#4EDDBB"/>
<rect x="38.9839" y="171.525" width="15.5932" height="15.5932" rx="1.94915" transform="rotate(-90 38.9839 171.525)" fill="#4EDDBB"/>
<rect x="38.9839" y="152.035" width="15.5932" height="15.5932" rx="1.94915" transform="rotate(-90 38.9839 152.035)" fill="#4EDDBB"/>
<rect x="38.9839" y="132.543" width="15.5932" height="15.5932" rx="1.94915" transform="rotate(-90 38.9839 132.543)" fill="#4EDDBB"/>
<rect x="38.9839" y="113.051" width="15.5932" height="15.5932" rx="1.94915" transform="rotate(-90 38.9839 113.051)" fill="#4EDDBB"/>
<rect x="58.4761" y="424.916" width="15.5932" height="15.5932" rx="1.94915" transform="rotate(-90 58.4761 424.916)" fill="#4EDDBB"/>
<rect x="58.4761" y="405.424" width="15.5932" height="15.5932" rx="1.94915" transform="rotate(-90 58.4761 405.424)" fill="#4EDDBB"/>
<rect x="58.4761" y="385.934" width="15.5932" height="15.5932" rx="1.94915" transform="rotate(-90 58.4761 385.934)" fill="#4EDDBB"/>
<rect x="58.4761" y="366.441" width="15.5932" height="15.5932" rx="1.94915" transform="rotate(-90 58.4761 366.441)" fill="#4EDDBB"/>
<rect x="58.4761" y="346.949" width="15.5932" height="15.5932" rx="1.94915" transform="rotate(-90 58.4761 346.949)" fill="#4EDDBB"/>
<rect x="58.4761" y="327.457" width="15.5932" height="15.5932" rx="1.94915" transform="rotate(-90 58.4761 327.457)" fill="#4EDDBB"/>
<rect x="58.4761" y="307.967" width="15.5932" height="15.5932" rx="1.94915" transform="rotate(-90 58.4761 307.967)" fill="#4EDDBB"/>
<rect x="58.4761" y="288.477" width="15.5932" height="15.5932" rx="1.94915" transform="rotate(-90 58.4761 288.477)" fill="#4EDDBB"/>
<rect x="58.4761" y="268.984" width="15.5932" height="15.5932" rx="1.94915" transform="rotate(-90 58.4761 268.984)" fill="#4EDDBB"/>
<rect x="58.4761" y="249.492" width="15.5932" height="15.5932" rx="1.94915" transform="rotate(-90 58.4761 249.492)" fill="#4EDDBB"/>
<rect x="58.4761" y="230" width="15.5932" height="15.5932" rx="1.94915" transform="rotate(-90 58.4761 230)" fill="#4EDDBB"/>
<rect x="58.4761" y="210.508" width="15.5932" height="15.5932" rx="1.94915" transform="rotate(-90 58.4761 210.508)" fill="#4EDDBB"/>
<rect x="58.4761" y="191.018" width="15.5932" height="15.5932" rx="1.94915" transform="rotate(-90 58.4761 191.018)" fill="#4EDDBB"/>
<rect x="58.4761" y="171.525" width="15.5932" height="15.5932" rx="1.94915" transform="rotate(-90 58.4761 171.525)" fill="#4EDDBB"/>
<rect x="58.4761" y="152.035" width="15.5932" height="15.5932" rx="1.94915" transform="rotate(-90 58.4761 152.035)" fill="#4EDDBB"/>
<rect x="58.4761" y="132.543" width="15.5932" height="15.5932" rx="1.94915" transform="rotate(-90 58.4761 132.543)" fill="#4EDDBB"/>
<rect x="58.4761" y="113.051" width="15.5932" height="15.5932" rx="1.94915" transform="rotate(-90 58.4761 113.051)" fill="#4EDDBB"/>
<rect x="58.4761" y="93.5586" width="15.5932" height="15.5932" rx="1.94915" transform="rotate(-90 58.4761 93.5586)" fill="#4EDDBB"/>
<rect x="58.4761" y="74.0664" width="15.5932" height="15.5932" rx="1.94915" transform="rotate(-90 58.4761 74.0664)" fill="#4EDDBB"/>
<rect x="58.4761" y="54.5762" width="15.5932" height="15.5932" rx="1.94915" transform="rotate(-90 58.4761 54.5762)" fill="#4EDDBB"/>
<rect x="77.9663" y="424.916" width="15.5932" height="15.5932" rx="1.94915" transform="rotate(-90 77.9663 424.916)" fill="#4EDDBB"/>
<rect x="77.9663" y="405.424" width="15.5932" height="15.5932" rx="1.94915" transform="rotate(-90 77.9663 405.424)" fill="#4EDDBB"/>
<rect x="77.9663" y="385.934" width="15.5932" height="15.5932" rx="1.94915" transform="rotate(-90 77.9663 385.934)" fill="#4EDDBB"/>
<rect x="77.9663" y="366.441" width="15.5932" height="15.5932" rx="1.94915" transform="rotate(-90 77.9663 366.441)" fill="#4EDDBB"/>
<rect x="77.9663" y="346.949" width="15.5932" height="15.5932" rx="1.94915" transform="rotate(-90 77.9663 346.949)" fill="#4EDDBB"/>
<rect x="77.9663" y="327.457" width="15.5932" height="15.5932" rx="1.94915" transform="rotate(-90 77.9663 327.457)" fill="#4EDDBB"/>
<rect x="77.9663" y="307.967" width="15.5932" height="15.5932" rx="1.94915" transform="rotate(-90 77.9663 307.967)" fill="#4EDDBB"/>
<rect x="77.9663" y="288.477" width="15.5932" height="15.5932" rx="1.94915" transform="rotate(-90 77.9663 288.477)" fill="#4EDDBB"/>
<rect x="77.9663" y="268.984" width="15.5932" height="15.5932" rx="1.94915" transform="rotate(-90 77.9663 268.984)" fill="#4EDDBB"/>
<rect x="77.9663" y="249.492" width="15.5932" height="15.5932" rx="1.94915" transform="rotate(-90 77.9663 249.492)" fill="#4EDDBB"/>
<rect x="77.9663" y="230" width="15.5932" height="15.5932" rx="1.94915" transform="rotate(-90 77.9663 230)" fill="#4EDDBB"/>
<rect x="77.9663" y="210.508" width="15.5932" height="15.5932" rx="1.94915" transform="rotate(-90 77.9663 210.508)" fill="#4EDDBB"/>
<rect x="77.9663" y="191.018" width="15.5932" height="15.5932" rx="1.94915" transform="rotate(-90 77.9663 191.018)" fill="#4EDDBB"/>
<rect x="77.9663" y="171.525" width="15.5932" height="15.5932" rx="1.94915" transform="rotate(-90 77.9663 171.525)" fill="#4EDDBB"/>
<rect x="77.9663" y="152.035" width="15.5932" height="15.5932" rx="1.94915" transform="rotate(-90 77.9663 152.035)" fill="#4EDDBB"/>
<rect x="77.9663" y="132.543" width="15.5932" height="15.5932" rx="1.94915" transform="rotate(-90 77.9663 132.543)" fill="#4EDDBB"/>
<rect x="77.9663" y="113.051" width="15.5932" height="15.5932" rx="1.94915" transform="rotate(-90 77.9663 113.051)" fill="#4EDDBB"/>
<rect x="77.9663" y="93.5586" width="15.5932" height="15.5932" rx="1.94915" transform="rotate(-90 77.9663 93.5586)" fill="#4EDDBB"/>
<rect x="77.9663" y="74.0664" width="15.5932" height="15.5932" rx="1.94915" transform="rotate(-90 77.9663 74.0664)" fill="#4EDDBB"/>
<rect x="77.9663" y="54.5762" width="15.5932" height="15.5932" rx="1.94915" transform="rotate(-90 77.9663 54.5762)" fill="#4EDDBB"/>
<rect x="77.9663" y="35.0859" width="15.5932" height="15.5932" rx="1.94915" transform="rotate(-90 77.9663 35.0859)" fill="#4EDDBB"/>
<rect x="77.9663" y="15.5938" width="15.5932" height="15.5932" rx="1.94915" transform="rotate(-90 77.9663 15.5938)" fill="#4EDDBB"/>
<rect x="97.4585" y="424.916" width="15.5932" height="15.5932" rx="1.94915" transform="rotate(-90 97.4585 424.916)" fill="#4EDDBB"/>
<rect x="97.4585" y="405.424" width="15.5932" height="15.5932" rx="1.94915" transform="rotate(-90 97.4585 405.424)" fill="#4EDDBB"/>
<rect x="97.4585" y="385.934" width="15.5932" height="15.5932" rx="1.94915" transform="rotate(-90 97.4585 385.934)" fill="#4EDDBB"/>
<rect x="97.4585" y="366.441" width="15.5932" height="15.5932" rx="1.94915" transform="rotate(-90 97.4585 366.441)" fill="#4EDDBB"/>
<rect x="97.4585" y="346.949" width="15.5932" height="15.5932" rx="1.94915" transform="rotate(-90 97.4585 346.949)" fill="#4EDDBB"/>
<rect x="97.4585" y="327.457" width="15.5932" height="15.5932" rx="1.94915" transform="rotate(-90 97.4585 327.457)" fill="#4EDDBB"/>
<rect x="97.4585" y="307.967" width="15.5932" height="15.5932" rx="1.94915" transform="rotate(-90 97.4585 307.967)" fill="#4EDDBB"/>
<rect x="97.4585" y="288.477" width="15.5932" height="15.5932" rx="1.94915" transform="rotate(-90 97.4585 288.477)" fill="#4EDDBB"/>
<rect x="97.4585" y="268.984" width="15.5932" height="15.5932" rx="1.94915" transform="rotate(-90 97.4585 268.984)" fill="#4EDDBB"/>
<rect x="97.4585" y="249.492" width="15.5932" height="15.5932" rx="1.94915" transform="rotate(-90 97.4585 249.492)" fill="#4EDDBB"/>
<rect x="97.4585" y="230" width="15.5932" height="15.5932" rx="1.94915" transform="rotate(-90 97.4585 230)" fill="#4EDDBB"/>
<rect x="97.4585" y="210.508" width="15.5932" height="15.5932" rx="1.94915" transform="rotate(-90 97.4585 210.508)" fill="#4EDDBB"/>
<rect x="97.4585" y="191.018" width="15.5932" height="15.5932" rx="1.94915" transform="rotate(-90 97.4585 191.018)" fill="#4EDDBB"/>
<rect x="97.4585" y="171.525" width="15.5932" height="15.5932" rx="1.94915" transform="rotate(-90 97.4585 171.525)" fill="#4EDDBB"/>
<rect x="97.4585" y="152.035" width="15.5932" height="15.5932" rx="1.94915" transform="rotate(-90 97.4585 152.035)" fill="#4EDDBB"/>
<rect x="97.4585" y="132.543" width="15.5932" height="15.5932" rx="1.94915" transform="rotate(-90 97.4585 132.543)" fill="#4EDDBB"/>
<rect x="97.4585" y="113.051" width="15.5932" height="15.5932" rx="1.94915" transform="rotate(-90 97.4585 113.051)" fill="#4EDDBB"/>
<rect x="97.4585" y="93.5586" width="15.5932" height="15.5932" rx="1.94915" transform="rotate(-90 97.4585 93.5586)" fill="#4EDDBB"/>
<rect x="97.4585" y="74.0664" width="15.5932" height="15.5932" rx="1.94915" transform="rotate(-90 97.4585 74.0664)" fill="#4EDDBB"/>
<rect x="97.4585" y="54.5762" width="15.5932" height="15.5932" rx="1.94915" transform="rotate(-90 97.4585 54.5762)" fill="#4EDDBB"/>
<rect x="97.4585" y="35.0859" width="15.5932" height="15.5932" rx="1.94915" transform="rotate(-90 97.4585 35.0859)" fill="#4EDDBB"/>
<rect x="97.4585" y="15.5938" width="15.5932" height="15.5932" rx="1.94915" transform="rotate(-90 97.4585 15.5938)" fill="#4EDDBB"/>
<rect x="116.949" y="424.916" width="15.5932" height="15.5932" rx="1.94915" transform="rotate(-90 116.949 424.916)" fill="#4EDDBB"/>
<rect x="116.949" y="405.424" width="15.5932" height="15.5932" rx="1.94915" transform="rotate(-90 116.949 405.424)" fill="#4EDDBB"/>
<rect x="116.949" y="385.934" width="15.5932" height="15.5932" rx="1.94915" transform="rotate(-90 116.949 385.934)" fill="#4EDDBB"/>
<rect x="116.949" y="366.441" width="15.5932" height="15.5932" rx="1.94915" transform="rotate(-90 116.949 366.441)" fill="#4EDDBB"/>
<rect x="116.949" y="346.949" width="15.5932" height="15.5932" rx="1.94915" transform="rotate(-90 116.949 346.949)" fill="#4EDDBB"/>
<rect x="116.949" y="327.457" width="15.5932" height="15.5932" rx="1.94915" transform="rotate(-90 116.949 327.457)" fill="#4EDDBB"/>
<rect x="116.949" y="307.967" width="15.5932" height="15.5932" rx="1.94915" transform="rotate(-90 116.949 307.967)" fill="#4EDDBB"/>
<rect x="116.949" y="288.477" width="15.5932" height="15.5932" rx="1.94915" transform="rotate(-90 116.949 288.477)" fill="#4EDDBB"/>
<rect x="116.949" y="268.984" width="15.5932" height="15.5932" rx="1.94915" transform="rotate(-90 116.949 268.984)" fill="#4EDDBB"/>
<rect x="116.949" y="249.492" width="15.5932" height="15.5932" rx="1.94915" transform="rotate(-90 116.949 249.492)" fill="#4EDDBB"/>
<rect x="116.949" y="230" width="15.5932" height="15.5932" rx="1.94915" transform="rotate(-90 116.949 230)" fill="#4EDDBB"/>
<rect x="116.949" y="210.508" width="15.5932" height="15.5932" rx="1.94915" transform="rotate(-90 116.949 210.508)" fill="#4EDDBB"/>
<rect x="116.949" y="191.018" width="15.5932" height="15.5932" rx="1.94915" transform="rotate(-90 116.949 191.018)" fill="#4EDDBB"/>
<rect x="116.949" y="171.525" width="15.5932" height="15.5932" rx="1.94915" transform="rotate(-90 116.949 171.525)" fill="#4EDDBB"/>
<rect x="116.949" y="152.035" width="15.5932" height="15.5932" rx="1.94915" transform="rotate(-90 116.949 152.035)" fill="#4EDDBB"/>
<rect x="116.949" y="132.543" width="15.5932" height="15.5932" rx="1.94915" transform="rotate(-90 116.949 132.543)" fill="#4EDDBB"/>
<rect x="116.949" y="113.051" width="15.5932" height="15.5932" rx="1.94915" transform="rotate(-90 116.949 113.051)" fill="#4EDDBB"/>
<rect x="116.949" y="93.5586" width="15.5932" height="15.5932" rx="1.94915" transform="rotate(-90 116.949 93.5586)" fill="#4EDDBB"/>
<rect x="116.949" y="74.0664" width="15.5932" height="15.5932" rx="1.94915" transform="rotate(-90 116.949 74.0664)" fill="#4EDDBB"/>
<rect x="116.949" y="54.5762" width="15.5932" height="15.5932" rx="1.94915" transform="rotate(-90 116.949 54.5762)" fill="#4EDDBB"/>
<rect x="116.949" y="35.0859" width="15.5932" height="15.5932" rx="1.94915" transform="rotate(-90 116.949 35.0859)" fill="#4EDDBB"/>
<rect x="116.949" y="15.5938" width="15.5932" height="15.5932" rx="1.94915" transform="rotate(-90 116.949 15.5938)" fill="#4EDDBB"/>
<rect x="136.441" y="424.916" width="15.5932" height="15.5932" rx="1.94915" transform="rotate(-90 136.441 424.916)" fill="#4EDDBB"/>
<rect x="136.441" y="405.424" width="15.5932" height="15.5932" rx="1.94915" transform="rotate(-90 136.441 405.424)" fill="#4EDDBB"/>
<rect x="136.441" y="385.934" width="15.5932" height="15.5932" rx="1.94915" transform="rotate(-90 136.441 385.934)" fill="#4EDDBB"/>
<rect x="136.441" y="366.441" width="15.5932" height="15.5932" rx="1.94915" transform="rotate(-90 136.441 366.441)" fill="#4EDDBB"/>
<rect x="136.441" y="346.949" width="15.5932" height="15.5932" rx="1.94915" transform="rotate(-90 136.441 346.949)" fill="#4EDDBB"/>
<rect x="136.441" y="327.457" width="15.5932" height="15.5932" rx="1.94915" transform="rotate(-90 136.441 327.457)" fill="#4EDDBB"/>
<rect x="136.441" y="307.967" width="15.5932" height="15.5932" rx="1.94915" transform="rotate(-90 136.441 307.967)" fill="#4EDDBB"/>
<rect x="136.441" y="288.477" width="15.5932" height="15.5932" rx="1.94915" transform="rotate(-90 136.441 288.477)" fill="#4EDDBB"/>
<rect x="136.441" y="268.984" width="15.5932" height="15.5932" rx="1.94915" transform="rotate(-90 136.441 268.984)" fill="#4EDDBB"/>
<rect x="136.441" y="249.492" width="15.5932" height="15.5932" rx="1.94915" transform="rotate(-90 136.441 249.492)" fill="#4EDDBB"/>
<rect x="136.441" y="230" width="15.5932" height="15.5932" rx="1.94915" transform="rotate(-90 136.441 230)" fill="#4EDDBB"/>
<rect x="136.441" y="210.508" width="15.5932" height="15.5932" rx="1.94915" transform="rotate(-90 136.441 210.508)" fill="#4EDDBB"/>
<rect x="136.441" y="191.018" width="15.5932" height="15.5932" rx="1.94915" transform="rotate(-90 136.441 191.018)" fill="#4EDDBB"/>
<rect x="136.441" y="171.525" width="15.5932" height="15.5932" rx="1.94915" transform="rotate(-90 136.441 171.525)" fill="#4EDDBB"/>
<rect x="136.441" y="152.035" width="15.5932" height="15.5932" rx="1.94915" transform="rotate(-90 136.441 152.035)" fill="#4EDDBB"/>
<rect x="136.441" y="132.543" width="15.5932" height="15.5932" rx="1.94915" transform="rotate(-90 136.441 132.543)" fill="#4EDDBB"/>
<rect x="136.441" y="113.051" width="15.5932" height="15.5932" rx="1.94915" transform="rotate(-90 136.441 113.051)" fill="#4EDDBB"/>
<rect x="155.933" y="424.916" width="15.5932" height="15.5932" rx="1.94915" transform="rotate(-90 155.933 424.916)" fill="#4EDDBB"/>
<rect x="155.933" y="405.424" width="15.5932" height="15.5932" rx="1.94915" transform="rotate(-90 155.933 405.424)" fill="#4EDDBB"/>
<rect x="155.933" y="385.934" width="15.5932" height="15.5932" rx="1.94915" transform="rotate(-90 155.933 385.934)" fill="#4EDDBB"/>
<rect x="155.933" y="366.441" width="15.5932" height="15.5932" rx="1.94915" transform="rotate(-90 155.933 366.441)" fill="#4EDDBB"/>
<rect x="155.933" y="346.949" width="15.5932" height="15.5932" rx="1.94915" transform="rotate(-90 155.933 346.949)" fill="#4EDDBB"/>
<rect x="155.933" y="327.457" width="15.5932" height="15.5932" rx="1.94915" transform="rotate(-90 155.933 327.457)" fill="#4EDDBB"/>
<rect x="155.933" y="307.967" width="15.5932" height="15.5932" rx="1.94915" transform="rotate(-90 155.933 307.967)" fill="#4EDDBB"/>
<rect x="155.933" y="288.477" width="15.5932" height="15.5932" rx="1.94915" transform="rotate(-90 155.933 288.477)" fill="#4EDDBB"/>
<rect x="155.933" y="268.984" width="15.5932" height="15.5932" rx="1.94915" transform="rotate(-90 155.933 268.984)" fill="#4EDDBB"/>
<rect x="155.933" y="249.492" width="15.5932" height="15.5932" rx="1.94915" transform="rotate(-90 155.933 249.492)" fill="#4EDDBB"/>
<rect x="155.933" y="230" width="15.5932" height="15.5932" rx="1.94915" transform="rotate(-90 155.933 230)" fill="#4EDDBB"/>
<rect x="155.933" y="210.508" width="15.5932" height="15.5932" rx="1.94915" transform="rotate(-90 155.933 210.508)" fill="#4EDDBB"/>
<rect x="155.933" y="191.018" width="15.5932" height="15.5932" rx="1.94915" transform="rotate(-90 155.933 191.018)" fill="#4EDDBB"/>
<rect x="155.933" y="171.525" width="15.5932" height="15.5932" rx="1.94915" transform="rotate(-90 155.933 171.525)" fill="#4EDDBB"/>
<rect x="155.933" y="152.035" width="15.5932" height="15.5932" rx="1.94915" transform="rotate(-90 155.933 152.035)" fill="#4EDDBB"/>
<rect x="155.933" y="132.543" width="15.5932" height="15.5932" rx="1.94915" transform="rotate(-90 155.933 132.543)" fill="#4EDDBB"/>
<rect x="155.933" y="113.051" width="15.5932" height="15.5932" rx="1.94915" transform="rotate(-90 155.933 113.051)" fill="#4EDDBB"/>
<rect x="155.933" y="93.5586" width="15.5932" height="15.5932" rx="1.94915" transform="rotate(-90 155.933 93.5586)" fill="#4EDDBB"/>
<rect x="175.423" y="424.916" width="15.5932" height="15.5932" rx="1.94915" transform="rotate(-90 175.423 424.916)" fill="#4EDDBB"/>
<rect x="175.423" y="405.424" width="15.5932" height="15.5932" rx="1.94915" transform="rotate(-90 175.423 405.424)" fill="#4EDDBB"/>
<rect x="175.423" y="385.934" width="15.5932" height="15.5932" rx="1.94915" transform="rotate(-90 175.423 385.934)" fill="#4EDDBB"/>
<rect x="175.423" y="366.441" width="15.5932" height="15.5932" rx="1.94915" transform="rotate(-90 175.423 366.441)" fill="#4EDDBB"/>
<rect x="175.423" y="346.949" width="15.5932" height="15.5932" rx="1.94915" transform="rotate(-90 175.423 346.949)" fill="#4EDDBB"/>
<rect x="175.423" y="327.457" width="15.5932" height="15.5932" rx="1.94915" transform="rotate(-90 175.423 327.457)" fill="#4EDDBB"/>
<rect x="175.423" y="307.967" width="15.5932" height="15.5932" rx="1.94915" transform="rotate(-90 175.423 307.967)" fill="#4EDDBB"/>
<rect x="175.423" y="288.477" width="15.5932" height="15.5932" rx="1.94915" transform="rotate(-90 175.423 288.477)" fill="#4EDDBB"/>
<rect x="175.423" y="268.984" width="15.5932" height="15.5932" rx="1.94915" transform="rotate(-90 175.423 268.984)" fill="#4EDDBB"/>
<rect x="175.423" y="249.492" width="15.5932" height="15.5932" rx="1.94915" transform="rotate(-90 175.423 249.492)" fill="#4EDDBB"/>
<rect x="175.423" y="230" width="15.5932" height="15.5932" rx="1.94915" transform="rotate(-90 175.423 230)" fill="#4EDDBB"/>
<rect x="175.423" y="210.508" width="15.5932" height="15.5932" rx="1.94915" transform="rotate(-90 175.423 210.508)" fill="#4EDDBB"/>
<rect x="175.423" y="191.018" width="15.5932" height="15.5932" rx="1.94915" transform="rotate(-90 175.423 191.018)" fill="#4EDDBB"/>
<rect x="175.423" y="171.525" width="15.5932" height="15.5932" rx="1.94915" transform="rotate(-90 175.423 171.525)" fill="#4EDDBB"/>
<rect x="175.423" y="152.035" width="15.5932" height="15.5932" rx="1.94915" transform="rotate(-90 175.423 152.035)" fill="#4EDDBB"/>
</g>
<rect x="194.916" y="425.424" width="15.5932" height="15.5932" rx="1.94915" transform="rotate(-90 194.916 425.424)" fill="#4EDDBB" fill-opacity="0.15"/>
<rect x="194.916" y="405.934" width="15.5932" height="15.5932" rx="1.94915" transform="rotate(-90 194.916 405.934)" fill="#4EDDBB" fill-opacity="0.15"/>
<rect x="194.916" y="386.441" width="15.5932" height="15.5932" rx="1.94915" transform="rotate(-90 194.916 386.441)" fill="#4EDDBB" fill-opacity="0.15"/>
<rect x="194.916" y="366.949" width="15.5932" height="15.5932" rx="1.94915" transform="rotate(-90 194.916 366.949)" fill="#4EDDBB" fill-opacity="0.15"/>
<rect x="194.916" y="347.457" width="15.5932" height="15.5932" rx="1.94915" transform="rotate(-90 194.916 347.457)" fill="#4EDDBB" fill-opacity="0.15"/>
<rect x="194.916" y="327.967" width="15.5932" height="15.5932" rx="1.94915" transform="rotate(-90 194.916 327.967)" fill="#4EDDBB" fill-opacity="0.15"/>
<rect x="214.406" y="425.424" width="15.5932" height="15.5932" rx="1.94915" transform="rotate(-90 214.406 425.424)" fill="#4EDDBB" fill-opacity="0.15"/>
<rect x="214.406" y="405.934" width="15.5932" height="15.5932" rx="1.94915" transform="rotate(-90 214.406 405.934)" fill="#4EDDBB" fill-opacity="0.15"/>
<rect x="-0.000488281" y="425.424" width="15.5932" height="15.5932" rx="1.94915" transform="rotate(-90 -0.000488281 425.424)" fill="#4EDDBB" fill-opacity="0.15"/>
</g>
<defs>
<clipPath id="clip0_309_5548">
<rect width="756.271" height="179.322" fill="white" transform="translate(15.5933 756.271) rotate(-90)"/>
</clipPath>
</defs>
</svg>
