<svg width="230" height="485" viewBox="0 0 230 485" fill="none" xmlns="http://www.w3.org/2000/svg">
<g opacity="0.07">
<g clip-path="url(#clip0_528_833)">
<rect width="15.5932" height="15.5932" rx="1.94915" transform="matrix(4.37114e-08 -1 -1 -4.37114e-08 210.507 483.391)" fill="#4EDDBB"/>
<rect width="15.5932" height="15.5932" rx="1.94915" transform="matrix(4.37114e-08 -1 -1 -4.37114e-08 210.507 463.898)" fill="#4EDDBB"/>
<rect width="15.5932" height="15.5932" rx="1.94915" transform="matrix(4.37114e-08 -1 -1 -4.37114e-08 210.507 444.408)" fill="#4EDDBB"/>
<rect width="15.5932" height="15.5932" rx="1.94915" transform="matrix(4.37114e-08 -1 -1 -4.37114e-08 210.507 424.916)" fill="#4EDDBB"/>
<rect width="15.5932" height="15.5932" rx="1.94915" transform="matrix(4.37114e-08 -1 -1 -4.37114e-08 210.507 405.424)" fill="#4EDDBB"/>
<rect width="15.5932" height="15.5932" rx="1.94915" transform="matrix(4.37114e-08 -1 -1 -4.37114e-08 210.507 385.934)" fill="#4EDDBB"/>
<rect width="15.5932" height="15.5932" rx="1.94915" transform="matrix(4.37114e-08 -1 -1 -4.37114e-08 210.507 366.441)" fill="#4EDDBB"/>
<rect width="15.5932" height="15.5932" rx="1.94915" transform="matrix(4.37114e-08 -1 -1 -4.37114e-08 210.507 346.949)" fill="#4EDDBB"/>
<rect width="15.5932" height="15.5932" rx="1.94915" transform="matrix(4.37114e-08 -1 -1 -4.37114e-08 210.507 327.457)" fill="#4EDDBB"/>
<rect width="15.5932" height="15.5932" rx="1.94915" transform="matrix(4.37114e-08 -1 -1 -4.37114e-08 191.015 483.391)" fill="#4EDDBB"/>
<rect width="15.5932" height="15.5932" rx="1.94915" transform="matrix(4.37114e-08 -1 -1 -4.37114e-08 191.015 463.898)" fill="#4EDDBB"/>
<rect width="15.5932" height="15.5932" rx="1.94915" transform="matrix(4.37114e-08 -1 -1 -4.37114e-08 191.015 444.408)" fill="#4EDDBB"/>
<rect width="15.5932" height="15.5932" rx="1.94915" transform="matrix(4.37114e-08 -1 -1 -4.37114e-08 191.015 424.916)" fill="#4EDDBB"/>
<rect width="15.5932" height="15.5932" rx="1.94915" transform="matrix(4.37114e-08 -1 -1 -4.37114e-08 191.015 405.424)" fill="#4EDDBB"/>
<rect width="15.5932" height="15.5932" rx="1.94915" transform="matrix(4.37114e-08 -1 -1 -4.37114e-08 191.015 385.934)" fill="#4EDDBB"/>
<rect width="15.5932" height="15.5932" rx="1.94915" transform="matrix(4.37114e-08 -1 -1 -4.37114e-08 191.015 366.441)" fill="#4EDDBB"/>
<rect width="15.5932" height="15.5932" rx="1.94915" transform="matrix(4.37114e-08 -1 -1 -4.37114e-08 191.015 346.949)" fill="#4EDDBB"/>
<rect width="15.5932" height="15.5932" rx="1.94915" transform="matrix(4.37114e-08 -1 -1 -4.37114e-08 191.015 327.457)" fill="#4EDDBB"/>
<rect width="15.5932" height="15.5932" rx="1.94915" transform="matrix(4.37114e-08 -1 -1 -4.37114e-08 191.015 307.967)" fill="#4EDDBB"/>
<rect width="15.5932" height="15.5932" rx="1.94915" transform="matrix(4.37114e-08 -1 -1 -4.37114e-08 191.015 288.477)" fill="#4EDDBB"/>
<rect width="15.5932" height="15.5932" rx="1.94915" transform="matrix(4.37114e-08 -1 -1 -4.37114e-08 191.015 268.984)" fill="#4EDDBB"/>
<rect width="15.5932" height="15.5932" rx="1.94915" transform="matrix(4.37114e-08 -1 -1 -4.37114e-08 191.015 249.492)" fill="#4EDDBB"/>
<rect width="15.5932" height="15.5932" rx="1.94915" transform="matrix(4.37114e-08 -1 -1 -4.37114e-08 191.015 230)" fill="#4EDDBB"/>
<rect width="15.5932" height="15.5932" rx="1.94915" transform="matrix(4.37114e-08 -1 -1 -4.37114e-08 191.015 210.508)" fill="#4EDDBB"/>
<rect width="15.5932" height="15.5932" rx="1.94915" transform="matrix(4.37114e-08 -1 -1 -4.37114e-08 191.015 191.018)" fill="#4EDDBB"/>
<rect width="15.5932" height="15.5932" rx="1.94915" transform="matrix(4.37114e-08 -1 -1 -4.37114e-08 191.015 171.525)" fill="#4EDDBB"/>
<rect width="15.5932" height="15.5932" rx="1.94915" transform="matrix(4.37114e-08 -1 -1 -4.37114e-08 191.015 152.035)" fill="#4EDDBB"/>
<rect width="15.5932" height="15.5932" rx="1.94915" transform="matrix(4.37114e-08 -1 -1 -4.37114e-08 191.015 132.543)" fill="#4EDDBB"/>
<rect width="15.5932" height="15.5932" rx="1.94915" transform="matrix(4.37114e-08 -1 -1 -4.37114e-08 191.015 113.051)" fill="#4EDDBB"/>
<rect width="15.5932" height="15.5932" rx="1.94915" transform="matrix(4.37114e-08 -1 -1 -4.37114e-08 171.523 483.391)" fill="#4EDDBB"/>
<rect width="15.5932" height="15.5932" rx="1.94915" transform="matrix(4.37114e-08 -1 -1 -4.37114e-08 171.523 463.898)" fill="#4EDDBB"/>
<rect width="15.5932" height="15.5932" rx="1.94915" transform="matrix(4.37114e-08 -1 -1 -4.37114e-08 171.523 444.408)" fill="#4EDDBB"/>
<rect width="15.5932" height="15.5932" rx="1.94915" transform="matrix(4.37114e-08 -1 -1 -4.37114e-08 171.523 424.916)" fill="#4EDDBB"/>
<rect width="15.5932" height="15.5932" rx="1.94915" transform="matrix(4.37114e-08 -1 -1 -4.37114e-08 171.523 405.424)" fill="#4EDDBB"/>
<rect width="15.5932" height="15.5932" rx="1.94915" transform="matrix(4.37114e-08 -1 -1 -4.37114e-08 171.523 385.934)" fill="#4EDDBB"/>
<rect width="15.5932" height="15.5932" rx="1.94915" transform="matrix(4.37114e-08 -1 -1 -4.37114e-08 171.523 366.441)" fill="#4EDDBB"/>
<rect width="15.5932" height="15.5932" rx="1.94915" transform="matrix(4.37114e-08 -1 -1 -4.37114e-08 171.523 346.949)" fill="#4EDDBB"/>
<rect width="15.5932" height="15.5932" rx="1.94915" transform="matrix(4.37114e-08 -1 -1 -4.37114e-08 171.523 327.457)" fill="#4EDDBB"/>
<rect width="15.5932" height="15.5932" rx="1.94915" transform="matrix(4.37114e-08 -1 -1 -4.37114e-08 171.523 307.967)" fill="#4EDDBB"/>
<rect width="15.5932" height="15.5932" rx="1.94915" transform="matrix(4.37114e-08 -1 -1 -4.37114e-08 171.523 288.477)" fill="#4EDDBB"/>
<rect width="15.5932" height="15.5932" rx="1.94915" transform="matrix(4.37114e-08 -1 -1 -4.37114e-08 171.523 268.984)" fill="#4EDDBB"/>
<rect width="15.5932" height="15.5932" rx="1.94915" transform="matrix(4.37114e-08 -1 -1 -4.37114e-08 171.523 249.492)" fill="#4EDDBB"/>
<rect width="15.5932" height="15.5932" rx="1.94915" transform="matrix(4.37114e-08 -1 -1 -4.37114e-08 171.523 230)" fill="#4EDDBB"/>
<rect width="15.5932" height="15.5932" rx="1.94915" transform="matrix(4.37114e-08 -1 -1 -4.37114e-08 171.523 210.508)" fill="#4EDDBB"/>
<rect width="15.5932" height="15.5932" rx="1.94915" transform="matrix(4.37114e-08 -1 -1 -4.37114e-08 171.523 191.018)" fill="#4EDDBB"/>
<rect width="15.5932" height="15.5932" rx="1.94915" transform="matrix(4.37114e-08 -1 -1 -4.37114e-08 171.523 171.525)" fill="#4EDDBB"/>
<rect width="15.5932" height="15.5932" rx="1.94915" transform="matrix(4.37114e-08 -1 -1 -4.37114e-08 171.523 152.035)" fill="#4EDDBB"/>
<rect width="15.5932" height="15.5932" rx="1.94915" transform="matrix(4.37114e-08 -1 -1 -4.37114e-08 171.523 132.543)" fill="#4EDDBB"/>
<rect width="15.5932" height="15.5932" rx="1.94915" transform="matrix(4.37114e-08 -1 -1 -4.37114e-08 171.523 113.051)" fill="#4EDDBB"/>
<rect width="15.5932" height="15.5932" rx="1.94915" transform="matrix(4.37114e-08 -1 -1 -4.37114e-08 171.523 93.5586)" fill="#4EDDBB"/>
<rect width="15.5932" height="15.5932" rx="1.94915" transform="matrix(4.37114e-08 -1 -1 -4.37114e-08 171.523 74.0664)" fill="#4EDDBB"/>
<rect width="15.5932" height="15.5932" rx="1.94915" transform="matrix(4.37114e-08 -1 -1 -4.37114e-08 171.523 54.5762)" fill="#4EDDBB"/>
<rect width="15.5932" height="15.5932" rx="1.94915" transform="matrix(4.37114e-08 -1 -1 -4.37114e-08 152.033 483.391)" fill="#4EDDBB"/>
<rect width="15.5932" height="15.5932" rx="1.94915" transform="matrix(4.37114e-08 -1 -1 -4.37114e-08 152.033 463.898)" fill="#4EDDBB"/>
<rect width="15.5932" height="15.5932" rx="1.94915" transform="matrix(4.37114e-08 -1 -1 -4.37114e-08 152.033 444.408)" fill="#4EDDBB"/>
<rect width="15.5932" height="15.5932" rx="1.94915" transform="matrix(4.37114e-08 -1 -1 -4.37114e-08 152.033 424.916)" fill="#4EDDBB"/>
<rect width="15.5932" height="15.5932" rx="1.94915" transform="matrix(4.37114e-08 -1 -1 -4.37114e-08 152.033 405.424)" fill="#4EDDBB"/>
<rect width="15.5932" height="15.5932" rx="1.94915" transform="matrix(4.37114e-08 -1 -1 -4.37114e-08 152.033 385.934)" fill="#4EDDBB"/>
<rect width="15.5932" height="15.5932" rx="1.94915" transform="matrix(4.37114e-08 -1 -1 -4.37114e-08 152.033 366.441)" fill="#4EDDBB"/>
<rect width="15.5932" height="15.5932" rx="1.94915" transform="matrix(4.37114e-08 -1 -1 -4.37114e-08 152.033 346.949)" fill="#4EDDBB"/>
<rect width="15.5932" height="15.5932" rx="1.94915" transform="matrix(4.37114e-08 -1 -1 -4.37114e-08 152.033 327.457)" fill="#4EDDBB"/>
<rect width="15.5932" height="15.5932" rx="1.94915" transform="matrix(4.37114e-08 -1 -1 -4.37114e-08 152.033 307.967)" fill="#4EDDBB"/>
<rect width="15.5932" height="15.5932" rx="1.94915" transform="matrix(4.37114e-08 -1 -1 -4.37114e-08 152.033 288.477)" fill="#4EDDBB"/>
<rect width="15.5932" height="15.5932" rx="1.94915" transform="matrix(4.37114e-08 -1 -1 -4.37114e-08 152.033 268.984)" fill="#4EDDBB"/>
<rect width="15.5932" height="15.5932" rx="1.94915" transform="matrix(4.37114e-08 -1 -1 -4.37114e-08 152.033 249.492)" fill="#4EDDBB"/>
<rect width="15.5932" height="15.5932" rx="1.94915" transform="matrix(4.37114e-08 -1 -1 -4.37114e-08 152.033 230)" fill="#4EDDBB"/>
<rect width="15.5932" height="15.5932" rx="1.94915" transform="matrix(4.37114e-08 -1 -1 -4.37114e-08 152.033 210.508)" fill="#4EDDBB"/>
<rect width="15.5932" height="15.5932" rx="1.94915" transform="matrix(4.37114e-08 -1 -1 -4.37114e-08 152.033 191.018)" fill="#4EDDBB"/>
<rect width="15.5932" height="15.5932" rx="1.94915" transform="matrix(4.37114e-08 -1 -1 -4.37114e-08 152.033 171.525)" fill="#4EDDBB"/>
<rect width="15.5932" height="15.5932" rx="1.94915" transform="matrix(4.37114e-08 -1 -1 -4.37114e-08 152.033 152.035)" fill="#4EDDBB"/>
<rect width="15.5932" height="15.5932" rx="1.94915" transform="matrix(4.37114e-08 -1 -1 -4.37114e-08 152.033 132.543)" fill="#4EDDBB"/>
<rect width="15.5932" height="15.5932" rx="1.94915" transform="matrix(4.37114e-08 -1 -1 -4.37114e-08 152.033 113.051)" fill="#4EDDBB"/>
<rect width="15.5932" height="15.5932" rx="1.94915" transform="matrix(4.37114e-08 -1 -1 -4.37114e-08 152.033 93.5586)" fill="#4EDDBB"/>
<rect width="15.5932" height="15.5932" rx="1.94915" transform="matrix(4.37114e-08 -1 -1 -4.37114e-08 152.033 74.0664)" fill="#4EDDBB"/>
<rect width="15.5932" height="15.5932" rx="1.94915" transform="matrix(4.37114e-08 -1 -1 -4.37114e-08 152.033 54.5762)" fill="#4EDDBB"/>
<rect width="15.5932" height="15.5932" rx="1.94915" transform="matrix(4.37114e-08 -1 -1 -4.37114e-08 152.033 35.0859)" fill="#4EDDBB"/>
<rect width="15.5932" height="15.5932" rx="1.94915" transform="matrix(4.37114e-08 -1 -1 -4.37114e-08 152.033 15.5938)" fill="#4EDDBB"/>
<rect width="15.5932" height="15.5932" rx="1.94915" transform="matrix(4.37114e-08 -1 -1 -4.37114e-08 132.541 483.391)" fill="#4EDDBB"/>
<rect width="15.5932" height="15.5932" rx="1.94915" transform="matrix(4.37114e-08 -1 -1 -4.37114e-08 132.541 463.898)" fill="#4EDDBB"/>
<rect width="15.5932" height="15.5932" rx="1.94915" transform="matrix(4.37114e-08 -1 -1 -4.37114e-08 132.541 444.408)" fill="#4EDDBB"/>
<rect width="15.5932" height="15.5932" rx="1.94915" transform="matrix(4.37114e-08 -1 -1 -4.37114e-08 132.541 424.916)" fill="#4EDDBB"/>
<rect width="15.5932" height="15.5932" rx="1.94915" transform="matrix(4.37114e-08 -1 -1 -4.37114e-08 132.541 405.424)" fill="#4EDDBB"/>
<rect width="15.5932" height="15.5932" rx="1.94915" transform="matrix(4.37114e-08 -1 -1 -4.37114e-08 132.541 385.934)" fill="#4EDDBB"/>
<rect width="15.5932" height="15.5932" rx="1.94915" transform="matrix(4.37114e-08 -1 -1 -4.37114e-08 132.541 366.441)" fill="#4EDDBB"/>
<rect width="15.5932" height="15.5932" rx="1.94915" transform="matrix(4.37114e-08 -1 -1 -4.37114e-08 132.541 346.949)" fill="#4EDDBB"/>
<rect width="15.5932" height="15.5932" rx="1.94915" transform="matrix(4.37114e-08 -1 -1 -4.37114e-08 132.541 327.457)" fill="#4EDDBB"/>
<rect width="15.5932" height="15.5932" rx="1.94915" transform="matrix(4.37114e-08 -1 -1 -4.37114e-08 132.541 307.967)" fill="#4EDDBB"/>
<rect width="15.5932" height="15.5932" rx="1.94915" transform="matrix(4.37114e-08 -1 -1 -4.37114e-08 132.541 288.477)" fill="#4EDDBB"/>
<rect width="15.5932" height="15.5932" rx="1.94915" transform="matrix(4.37114e-08 -1 -1 -4.37114e-08 132.541 268.984)" fill="#4EDDBB"/>
<rect width="15.5932" height="15.5932" rx="1.94915" transform="matrix(4.37114e-08 -1 -1 -4.37114e-08 132.541 249.492)" fill="#4EDDBB"/>
<rect width="15.5932" height="15.5932" rx="1.94915" transform="matrix(4.37114e-08 -1 -1 -4.37114e-08 132.541 230)" fill="#4EDDBB"/>
<rect width="15.5932" height="15.5932" rx="1.94915" transform="matrix(4.37114e-08 -1 -1 -4.37114e-08 132.541 210.508)" fill="#4EDDBB"/>
<rect width="15.5932" height="15.5932" rx="1.94915" transform="matrix(4.37114e-08 -1 -1 -4.37114e-08 132.541 191.018)" fill="#4EDDBB"/>
<rect width="15.5932" height="15.5932" rx="1.94915" transform="matrix(4.37114e-08 -1 -1 -4.37114e-08 132.541 171.525)" fill="#4EDDBB"/>
<rect width="15.5932" height="15.5932" rx="1.94915" transform="matrix(4.37114e-08 -1 -1 -4.37114e-08 132.541 152.035)" fill="#4EDDBB"/>
<rect width="15.5932" height="15.5932" rx="1.94915" transform="matrix(4.37114e-08 -1 -1 -4.37114e-08 132.541 132.543)" fill="#4EDDBB"/>
<rect width="15.5932" height="15.5932" rx="1.94915" transform="matrix(4.37114e-08 -1 -1 -4.37114e-08 132.541 113.051)" fill="#4EDDBB"/>
<rect width="15.5932" height="15.5932" rx="1.94915" transform="matrix(4.37114e-08 -1 -1 -4.37114e-08 132.541 93.5586)" fill="#4EDDBB"/>
<rect width="15.5932" height="15.5932" rx="1.94915" transform="matrix(4.37114e-08 -1 -1 -4.37114e-08 132.541 74.0664)" fill="#4EDDBB"/>
<rect width="15.5932" height="15.5932" rx="1.94915" transform="matrix(4.37114e-08 -1 -1 -4.37114e-08 132.541 54.5762)" fill="#4EDDBB"/>
<rect width="15.5932" height="15.5932" rx="1.94915" transform="matrix(4.37114e-08 -1 -1 -4.37114e-08 132.541 35.0859)" fill="#4EDDBB"/>
<rect width="15.5932" height="15.5932" rx="1.94915" transform="matrix(4.37114e-08 -1 -1 -4.37114e-08 132.541 15.5938)" fill="#4EDDBB"/>
<rect width="15.5932" height="15.5932" rx="1.94915" transform="matrix(4.37114e-08 -1 -1 -4.37114e-08 113.05 483.391)" fill="#4EDDBB"/>
<rect width="15.5932" height="15.5932" rx="1.94915" transform="matrix(4.37114e-08 -1 -1 -4.37114e-08 113.05 463.898)" fill="#4EDDBB"/>
<rect width="15.5932" height="15.5932" rx="1.94915" transform="matrix(4.37114e-08 -1 -1 -4.37114e-08 113.05 444.408)" fill="#4EDDBB"/>
<rect width="15.5932" height="15.5932" rx="1.94915" transform="matrix(4.37114e-08 -1 -1 -4.37114e-08 113.05 424.916)" fill="#4EDDBB"/>
<rect width="15.5932" height="15.5932" rx="1.94915" transform="matrix(4.37114e-08 -1 -1 -4.37114e-08 113.05 405.424)" fill="#4EDDBB"/>
<rect width="15.5932" height="15.5932" rx="1.94915" transform="matrix(4.37114e-08 -1 -1 -4.37114e-08 113.05 385.934)" fill="#4EDDBB"/>
<rect width="15.5932" height="15.5932" rx="1.94915" transform="matrix(4.37114e-08 -1 -1 -4.37114e-08 113.05 366.441)" fill="#4EDDBB"/>
<rect width="15.5932" height="15.5932" rx="1.94915" transform="matrix(4.37114e-08 -1 -1 -4.37114e-08 113.05 346.949)" fill="#4EDDBB"/>
<rect width="15.5932" height="15.5932" rx="1.94915" transform="matrix(4.37114e-08 -1 -1 -4.37114e-08 113.05 327.457)" fill="#4EDDBB"/>
<rect width="15.5932" height="15.5932" rx="1.94915" transform="matrix(4.37114e-08 -1 -1 -4.37114e-08 113.05 307.967)" fill="#4EDDBB"/>
<rect width="15.5932" height="15.5932" rx="1.94915" transform="matrix(4.37114e-08 -1 -1 -4.37114e-08 113.05 288.477)" fill="#4EDDBB"/>
<rect width="15.5932" height="15.5932" rx="1.94915" transform="matrix(4.37114e-08 -1 -1 -4.37114e-08 113.05 268.984)" fill="#4EDDBB"/>
<rect width="15.5932" height="15.5932" rx="1.94915" transform="matrix(4.37114e-08 -1 -1 -4.37114e-08 113.05 249.492)" fill="#4EDDBB"/>
<rect width="15.5932" height="15.5932" rx="1.94915" transform="matrix(4.37114e-08 -1 -1 -4.37114e-08 113.05 230)" fill="#4EDDBB"/>
<rect width="15.5932" height="15.5932" rx="1.94915" transform="matrix(4.37114e-08 -1 -1 -4.37114e-08 113.05 210.508)" fill="#4EDDBB"/>
<rect width="15.5932" height="15.5932" rx="1.94915" transform="matrix(4.37114e-08 -1 -1 -4.37114e-08 113.05 191.018)" fill="#4EDDBB"/>
<rect width="15.5932" height="15.5932" rx="1.94915" transform="matrix(4.37114e-08 -1 -1 -4.37114e-08 113.05 171.525)" fill="#4EDDBB"/>
<rect width="15.5932" height="15.5932" rx="1.94915" transform="matrix(4.37114e-08 -1 -1 -4.37114e-08 113.05 152.035)" fill="#4EDDBB"/>
<rect width="15.5932" height="15.5932" rx="1.94915" transform="matrix(4.37114e-08 -1 -1 -4.37114e-08 113.05 132.543)" fill="#4EDDBB"/>
<rect width="15.5932" height="15.5932" rx="1.94915" transform="matrix(4.37114e-08 -1 -1 -4.37114e-08 113.05 113.051)" fill="#4EDDBB"/>
<rect width="15.5932" height="15.5932" rx="1.94915" transform="matrix(4.37114e-08 -1 -1 -4.37114e-08 113.05 93.5586)" fill="#4EDDBB"/>
<rect width="15.5932" height="15.5932" rx="1.94915" transform="matrix(4.37114e-08 -1 -1 -4.37114e-08 113.05 74.0664)" fill="#4EDDBB"/>
<rect width="15.5932" height="15.5932" rx="1.94915" transform="matrix(4.37114e-08 -1 -1 -4.37114e-08 113.05 54.5762)" fill="#4EDDBB"/>
<rect width="15.5932" height="15.5932" rx="1.94915" transform="matrix(4.37114e-08 -1 -1 -4.37114e-08 113.05 35.0859)" fill="#4EDDBB"/>
<rect width="15.5932" height="15.5932" rx="1.94915" transform="matrix(4.37114e-08 -1 -1 -4.37114e-08 113.05 15.5938)" fill="#4EDDBB"/>
<rect width="15.5932" height="15.5932" rx="1.94915" transform="matrix(4.37114e-08 -1 -1 -4.37114e-08 93.5581 483.391)" fill="#4EDDBB"/>
<rect width="15.5932" height="15.5932" rx="1.94915" transform="matrix(4.37114e-08 -1 -1 -4.37114e-08 93.5581 463.898)" fill="#4EDDBB"/>
<rect width="15.5932" height="15.5932" rx="1.94915" transform="matrix(4.37114e-08 -1 -1 -4.37114e-08 93.5581 444.408)" fill="#4EDDBB"/>
<rect width="15.5932" height="15.5932" rx="1.94915" transform="matrix(4.37114e-08 -1 -1 -4.37114e-08 93.5581 424.916)" fill="#4EDDBB"/>
<rect width="15.5932" height="15.5932" rx="1.94915" transform="matrix(4.37114e-08 -1 -1 -4.37114e-08 93.5581 405.424)" fill="#4EDDBB"/>
<rect width="15.5932" height="15.5932" rx="1.94915" transform="matrix(4.37114e-08 -1 -1 -4.37114e-08 93.5581 385.934)" fill="#4EDDBB"/>
<rect width="15.5932" height="15.5932" rx="1.94915" transform="matrix(4.37114e-08 -1 -1 -4.37114e-08 93.5581 366.441)" fill="#4EDDBB"/>
<rect width="15.5932" height="15.5932" rx="1.94915" transform="matrix(4.37114e-08 -1 -1 -4.37114e-08 93.5581 346.949)" fill="#4EDDBB"/>
<rect width="15.5932" height="15.5932" rx="1.94915" transform="matrix(4.37114e-08 -1 -1 -4.37114e-08 93.5581 327.457)" fill="#4EDDBB"/>
<rect width="15.5932" height="15.5932" rx="1.94915" transform="matrix(4.37114e-08 -1 -1 -4.37114e-08 93.5581 307.967)" fill="#4EDDBB"/>
<rect width="15.5932" height="15.5932" rx="1.94915" transform="matrix(4.37114e-08 -1 -1 -4.37114e-08 93.5581 288.477)" fill="#4EDDBB"/>
<rect width="15.5932" height="15.5932" rx="1.94915" transform="matrix(4.37114e-08 -1 -1 -4.37114e-08 93.5581 268.984)" fill="#4EDDBB"/>
<rect width="15.5932" height="15.5932" rx="1.94915" transform="matrix(4.37114e-08 -1 -1 -4.37114e-08 93.5581 249.492)" fill="#4EDDBB"/>
<rect width="15.5932" height="15.5932" rx="1.94915" transform="matrix(4.37114e-08 -1 -1 -4.37114e-08 93.5581 230)" fill="#4EDDBB"/>
<rect width="15.5932" height="15.5932" rx="1.94915" transform="matrix(4.37114e-08 -1 -1 -4.37114e-08 93.5581 210.508)" fill="#4EDDBB"/>
<rect width="15.5932" height="15.5932" rx="1.94915" transform="matrix(4.37114e-08 -1 -1 -4.37114e-08 93.5581 191.018)" fill="#4EDDBB"/>
<rect width="15.5932" height="15.5932" rx="1.94915" transform="matrix(4.37114e-08 -1 -1 -4.37114e-08 93.5581 171.525)" fill="#4EDDBB"/>
<rect width="15.5932" height="15.5932" rx="1.94915" transform="matrix(4.37114e-08 -1 -1 -4.37114e-08 93.5581 152.035)" fill="#4EDDBB"/>
<rect width="15.5932" height="15.5932" rx="1.94915" transform="matrix(4.37114e-08 -1 -1 -4.37114e-08 93.5581 132.543)" fill="#4EDDBB"/>
<rect width="15.5932" height="15.5932" rx="1.94915" transform="matrix(4.37114e-08 -1 -1 -4.37114e-08 93.5581 113.051)" fill="#4EDDBB"/>
<rect width="15.5932" height="15.5932" rx="1.94915" transform="matrix(4.37114e-08 -1 -1 -4.37114e-08 74.0659 483.391)" fill="#4EDDBB"/>
<rect width="15.5932" height="15.5932" rx="1.94915" transform="matrix(4.37114e-08 -1 -1 -4.37114e-08 74.0659 463.898)" fill="#4EDDBB"/>
<rect width="15.5932" height="15.5932" rx="1.94915" transform="matrix(4.37114e-08 -1 -1 -4.37114e-08 74.0659 444.408)" fill="#4EDDBB"/>
<rect width="15.5932" height="15.5932" rx="1.94915" transform="matrix(4.37114e-08 -1 -1 -4.37114e-08 74.0659 424.916)" fill="#4EDDBB"/>
<rect width="15.5932" height="15.5932" rx="1.94915" transform="matrix(4.37114e-08 -1 -1 -4.37114e-08 74.0659 405.424)" fill="#4EDDBB"/>
<rect width="15.5932" height="15.5932" rx="1.94915" transform="matrix(4.37114e-08 -1 -1 -4.37114e-08 74.0659 385.934)" fill="#4EDDBB"/>
<rect width="15.5932" height="15.5932" rx="1.94915" transform="matrix(4.37114e-08 -1 -1 -4.37114e-08 74.0659 366.441)" fill="#4EDDBB"/>
<rect width="15.5932" height="15.5932" rx="1.94915" transform="matrix(4.37114e-08 -1 -1 -4.37114e-08 74.0659 346.949)" fill="#4EDDBB"/>
<rect width="15.5932" height="15.5932" rx="1.94915" transform="matrix(4.37114e-08 -1 -1 -4.37114e-08 74.0659 327.457)" fill="#4EDDBB"/>
<rect width="15.5932" height="15.5932" rx="1.94915" transform="matrix(4.37114e-08 -1 -1 -4.37114e-08 74.0659 307.967)" fill="#4EDDBB"/>
<rect width="15.5932" height="15.5932" rx="1.94915" transform="matrix(4.37114e-08 -1 -1 -4.37114e-08 74.0659 288.477)" fill="#4EDDBB"/>
<rect width="15.5932" height="15.5932" rx="1.94915" transform="matrix(4.37114e-08 -1 -1 -4.37114e-08 74.0659 268.984)" fill="#4EDDBB"/>
<rect width="15.5932" height="15.5932" rx="1.94915" transform="matrix(4.37114e-08 -1 -1 -4.37114e-08 74.0659 249.492)" fill="#4EDDBB"/>
<rect width="15.5932" height="15.5932" rx="1.94915" transform="matrix(4.37114e-08 -1 -1 -4.37114e-08 74.0659 230)" fill="#4EDDBB"/>
<rect width="15.5932" height="15.5932" rx="1.94915" transform="matrix(4.37114e-08 -1 -1 -4.37114e-08 74.0659 210.508)" fill="#4EDDBB"/>
<rect width="15.5932" height="15.5932" rx="1.94915" transform="matrix(4.37114e-08 -1 -1 -4.37114e-08 74.0659 191.018)" fill="#4EDDBB"/>
<rect width="15.5932" height="15.5932" rx="1.94915" transform="matrix(4.37114e-08 -1 -1 -4.37114e-08 74.0659 171.525)" fill="#4EDDBB"/>
<rect width="15.5932" height="15.5932" rx="1.94915" transform="matrix(4.37114e-08 -1 -1 -4.37114e-08 74.0659 152.035)" fill="#4EDDBB"/>
<rect width="15.5932" height="15.5932" rx="1.94915" transform="matrix(4.37114e-08 -1 -1 -4.37114e-08 74.0659 132.543)" fill="#4EDDBB"/>
<rect width="15.5932" height="15.5932" rx="1.94915" transform="matrix(4.37114e-08 -1 -1 -4.37114e-08 74.0659 113.051)" fill="#4EDDBB"/>
<rect width="15.5932" height="15.5932" rx="1.94915" transform="matrix(4.37114e-08 -1 -1 -4.37114e-08 74.0659 93.5586)" fill="#4EDDBB"/>
<rect width="15.5932" height="15.5932" rx="1.94915" transform="matrix(4.37114e-08 -1 -1 -4.37114e-08 54.5757 483.391)" fill="#4EDDBB"/>
<rect width="15.5932" height="15.5932" rx="1.94915" transform="matrix(4.37114e-08 -1 -1 -4.37114e-08 54.5757 463.898)" fill="#4EDDBB"/>
<rect width="15.5932" height="15.5932" rx="1.94915" transform="matrix(4.37114e-08 -1 -1 -4.37114e-08 54.5757 444.408)" fill="#4EDDBB"/>
<rect width="15.5932" height="15.5932" rx="1.94915" transform="matrix(4.37114e-08 -1 -1 -4.37114e-08 54.5757 424.916)" fill="#4EDDBB"/>
<rect width="15.5932" height="15.5932" rx="1.94915" transform="matrix(4.37114e-08 -1 -1 -4.37114e-08 54.5757 405.424)" fill="#4EDDBB"/>
<rect width="15.5932" height="15.5932" rx="1.94915" transform="matrix(4.37114e-08 -1 -1 -4.37114e-08 54.5757 385.934)" fill="#4EDDBB"/>
<rect width="15.5932" height="15.5932" rx="1.94915" transform="matrix(4.37114e-08 -1 -1 -4.37114e-08 54.5757 366.441)" fill="#4EDDBB"/>
<rect width="15.5932" height="15.5932" rx="1.94915" transform="matrix(4.37114e-08 -1 -1 -4.37114e-08 54.5757 346.949)" fill="#4EDDBB"/>
<rect width="15.5932" height="15.5932" rx="1.94915" transform="matrix(4.37114e-08 -1 -1 -4.37114e-08 54.5757 327.457)" fill="#4EDDBB"/>
<rect width="15.5932" height="15.5932" rx="1.94915" transform="matrix(4.37114e-08 -1 -1 -4.37114e-08 54.5757 307.967)" fill="#4EDDBB"/>
<rect width="15.5932" height="15.5932" rx="1.94915" transform="matrix(4.37114e-08 -1 -1 -4.37114e-08 54.5757 288.477)" fill="#4EDDBB"/>
<rect width="15.5932" height="15.5932" rx="1.94915" transform="matrix(4.37114e-08 -1 -1 -4.37114e-08 54.5757 268.984)" fill="#4EDDBB"/>
<rect width="15.5932" height="15.5932" rx="1.94915" transform="matrix(4.37114e-08 -1 -1 -4.37114e-08 54.5757 249.492)" fill="#4EDDBB"/>
<rect width="15.5932" height="15.5932" rx="1.94915" transform="matrix(4.37114e-08 -1 -1 -4.37114e-08 54.5757 230)" fill="#4EDDBB"/>
<rect width="15.5932" height="15.5932" rx="1.94915" transform="matrix(4.37114e-08 -1 -1 -4.37114e-08 54.5757 210.508)" fill="#4EDDBB"/>
<rect width="15.5932" height="15.5932" rx="1.94915" transform="matrix(4.37114e-08 -1 -1 -4.37114e-08 54.5757 191.018)" fill="#4EDDBB"/>
<rect width="15.5932" height="15.5932" rx="1.94915" transform="matrix(4.37114e-08 -1 -1 -4.37114e-08 54.5757 171.525)" fill="#4EDDBB"/>
<rect width="15.5932" height="15.5932" rx="1.94915" transform="matrix(4.37114e-08 -1 -1 -4.37114e-08 54.5757 152.035)" fill="#4EDDBB"/>
</g>
<rect width="15.5932" height="15.5932" rx="1.94915" transform="matrix(4.37114e-08 -1 -1 -4.37114e-08 35.0835 483.898)" fill="#4EDDBB" fill-opacity="0.3"/>
<rect width="15.5932" height="15.5932" rx="1.94915" transform="matrix(4.37114e-08 -1 -1 -4.37114e-08 35.0835 464.408)" fill="#4EDDBB" fill-opacity="0.3"/>
<rect width="15.5932" height="15.5932" rx="1.94915" transform="matrix(4.37114e-08 -1 -1 -4.37114e-08 35.0835 444.916)" fill="#4EDDBB" fill-opacity="0.3"/>
<rect width="15.5932" height="15.5932" rx="1.94915" transform="matrix(4.37114e-08 -1 -1 -4.37114e-08 35.0835 425.424)" fill="#4EDDBB" fill-opacity="0.3"/>
<rect width="15.5932" height="15.5932" rx="1.94915" transform="matrix(4.37114e-08 -1 -1 -4.37114e-08 35.0835 405.934)" fill="#4EDDBB" fill-opacity="0.3"/>
<rect width="15.5932" height="15.5932" rx="1.94915" transform="matrix(4.37114e-08 -1 -1 -4.37114e-08 35.0835 386.441)" fill="#4EDDBB" fill-opacity="0.3"/>
<rect width="15.5932" height="15.5932" rx="1.94915" transform="matrix(4.37114e-08 -1 -1 -4.37114e-08 35.0835 366.949)" fill="#4EDDBB" fill-opacity="0.3"/>
<rect width="15.5932" height="15.5932" rx="1.94915" transform="matrix(4.37114e-08 -1 -1 -4.37114e-08 35.0835 347.457)" fill="#4EDDBB" fill-opacity="0.3"/>
<rect width="15.5932" height="15.5932" rx="1.94915" transform="matrix(4.37114e-08 -1 -1 -4.37114e-08 35.0835 327.967)" fill="#4EDDBB" fill-opacity="0.3"/>
<rect width="15.5932" height="15.5932" rx="1.94915" transform="matrix(4.37114e-08 -1 -1 -4.37114e-08 15.5933 483.898)" fill="#4EDDBB" fill-opacity="0.3"/>
<rect width="15.5932" height="15.5932" rx="1.94915" transform="matrix(4.37114e-08 -1 -1 -4.37114e-08 15.5933 464.408)" fill="#4EDDBB" fill-opacity="0.3"/>
<rect width="15.5932" height="15.5932" rx="1.94915" transform="matrix(4.37114e-08 -1 -1 -4.37114e-08 15.5933 444.916)" fill="#4EDDBB" fill-opacity="0.3"/>
<rect width="15.5932" height="15.5932" rx="1.94915" transform="matrix(4.37114e-08 -1 -1 -4.37114e-08 15.5933 425.424)" fill="#4EDDBB" fill-opacity="0.3"/>
<rect width="15.5932" height="15.5932" rx="1.94915" transform="matrix(4.37114e-08 -1 -1 -4.37114e-08 15.5933 405.934)" fill="#4EDDBB" fill-opacity="0.3"/>
<rect width="15.5932" height="15.5932" rx="1.94915" transform="matrix(4.37114e-08 -1 -1 -4.37114e-08 230 483.898)" fill="#4EDDBB" fill-opacity="0.3"/>
<rect width="15.5932" height="15.5932" rx="1.94915" transform="matrix(4.37114e-08 -1 -1 -4.37114e-08 230 464.408)" fill="#4EDDBB" fill-opacity="0.3"/>
<rect width="15.5932" height="15.5932" rx="1.94915" transform="matrix(4.37114e-08 -1 -1 -4.37114e-08 230 444.916)" fill="#4EDDBB" fill-opacity="0.3"/>
<rect width="15.5932" height="15.5932" rx="1.94915" transform="matrix(4.37114e-08 -1 -1 -4.37114e-08 230 425.424)" fill="#4EDDBB" fill-opacity="0.3"/>
</g>
<rect opacity="0.05" width="15.5932" height="15.5932" rx="1.94915" transform="matrix(4.37114e-08 -1 -1 -4.37114e-08 95.541 55.5938)" fill="#4EDDBB"/>
<rect opacity="0.05" width="15.5932" height="15.5932" rx="1.94915" transform="matrix(4.37114e-08 -1 -1 -4.37114e-08 76 15.5938)" fill="#4EDDBB"/>
<rect opacity="0.05" width="15.5932" height="15.5932" rx="1.94915" transform="matrix(4.37114e-08 -1 -1 -4.37114e-08 76.0508 55.5938)" fill="#4EDDBB"/>
<rect opacity="0.05" width="15.5932" height="15.5932" rx="1.94915" transform="matrix(4.37114e-08 -1 -1 -4.37114e-08 76.0508 35.5938)" fill="#4EDDBB"/>
<defs>
<clipPath id="clip0_528_833">
<rect width="756.271" height="179.322" fill="white" transform="matrix(4.37114e-08 -1 -1 -4.37114e-08 214.406 756.271)"/>
</clipPath>
</defs>
</svg>
