<svg width="29" height="25" viewBox="0 0 29 25" fill="none" xmlns="http://www.w3.org/2000/svg">
<g id="card check">
<path id="Rectangle 901" opacity="0.4" d="M22.0007 -2.33127e-07C24.9462 -1.04375e-07 27.334 2.38781 27.334 5.33333L27.334 18.6667C27.334 21.6122 24.9462 24 22.0007 24L6.00065 24C3.05513 24 0.667319 21.6122 0.667319 18.6667L0.66732 5.33333C0.66732 2.38781 3.05513 -1.06126e-06 6.00065 -9.3251e-07L22.0007 -2.33127e-07Z" fill="#4EDDBB"/>
<circle id="Ellipse 799" cx="6.0013" cy="18.6673" r="1.33333" fill="#4EDDBB"/>
<path id="Vector 2149" d="M0.66732 5.33398L27.334 5.33398L27.334 10.6673L0.66732 10.6673L0.66732 5.33398Z" fill="#4EDDBB"/>
<path id="Vector 2139 (Stroke)" fill-rule="evenodd" clip-rule="evenodd" d="M27.9925 17.9135C28.4082 18.2771 28.4503 18.9089 28.0866 19.3245L24.2601 23.6977C23.4378 24.6374 22.0215 24.7633 21.0464 23.9832L18.7093 22.1136C18.2781 21.7686 18.2081 21.1393 18.5532 20.708C18.8982 20.2767 19.5275 20.2068 19.9587 20.5518L22.2958 22.4215C22.4351 22.5329 22.6374 22.515 22.7549 22.3807L26.5814 18.0075C26.9451 17.5919 27.5769 17.5498 27.9925 17.9135Z" fill="#4EDDBB"/>
</g>
</svg>
