<svg width="28" height="25" viewBox="0 0 28 25" fill="none" xmlns="http://www.w3.org/2000/svg">
<g id="fast delivery">
<path id="Vector" opacity="0.4" d="M11.3346 0H6.0013C3.05578 0 0.667969 2.38781 0.667969 5.33333V16C0.667969 18.487 2.37019 20.5764 4.67309 21.1666C4.75915 19.7715 5.91786 18.6667 7.33464 18.6667C8.80739 18.6667 10.0013 19.8606 10.0013 21.3333H16.668V5.33333C16.668 2.38781 14.2802 0 11.3346 0Z" fill="#4EDDBB"/>
<path id="Vector_2" d="M16.668 21.334V5.33398H20.9468C21.6243 5.33398 22.2764 5.59185 22.7706 6.05522L26.4918 9.54384C27.0295 10.048 27.3346 10.7522 27.3346 11.4893V18.6673C27.3346 20.1401 26.1407 21.334 24.668 21.334H16.668Z" fill="#4EDDBB"/>
<path id="Vector_3" d="M10.6667 21.3333C10.6667 23.1743 9.17428 24.6667 7.33333 24.6667C5.49238 24.6667 4 23.1743 4 21.3333C4 21.2633 4.00216 21.1939 4.00641 21.125C4.11397 19.3811 5.56237 18 7.33333 18C9.17428 18 10.6667 19.4924 10.6667 21.3333Z" fill="#4EDDBB"/>
<path id="Vector_4" opacity="0.4" d="M25.3269 21.3333C25.3269 23.1743 23.8345 24.6667 21.9936 24.6667C20.1526 24.6667 18.6603 23.1743 18.6603 21.3333C18.6603 21.2633 18.6624 21.1939 18.6667 21.125C18.7742 19.3811 20.2226 18 21.9936 18C23.8345 18 25.3269 19.4924 25.3269 21.3333Z" fill="#4EDDBB"/>
<path id="Vector 1980 (Stroke)" fill-rule="evenodd" clip-rule="evenodd" d="M7.66797 6.66602C7.66797 6.11373 8.11568 5.66602 8.66797 5.66602L11.3346 5.66602C11.8869 5.66602 12.3346 6.11373 12.3346 6.66602C12.3346 7.2183 11.8869 7.66602 11.3346 7.66602L8.66797 7.66602C8.11568 7.66602 7.66797 7.2183 7.66797 6.66602Z" fill="#4EDDBB"/>
<path id="Vector 1981 (Stroke)" fill-rule="evenodd" clip-rule="evenodd" d="M5 12C5 11.4477 5.44772 11 6 11L11.3333 11C11.8856 11 12.3333 11.4477 12.3333 12C12.3333 12.5523 11.8856 13 11.3333 13L6 13C5.44772 13 5 12.5523 5 12Z" fill="#4EDDBB"/>
</g>
</svg>
