<svg width="517" height="237" viewBox="0 0 517 237" fill="none" xmlns="http://www.w3.org/2000/svg">
<g opacity="0.1">
<mask id="mask0_0_4" style="mask-type:luminance" maskUnits="userSpaceOnUse" x="0" y="0" width="711" height="237">
<path d="M0 0H711V237H0V0Z" fill="white"/>
</mask>
<g mask="url(#mask0_0_4)">
<path d="M501.101 3.49219H513.079C514.182 3.49219 515.076 4.36485 515.076 5.44134V17.1362C515.076 18.2127 514.182 19.0854 513.079 19.0854H501.101C499.998 19.0854 499.104 18.2127 499.104 17.1362V5.44134C499.104 4.36485 499.998 3.49219 501.101 3.49219Z" fill="#4EDDBB"/>
<path d="M481.138 3.49219H493.117C494.219 3.49219 495.113 4.36485 495.113 5.44134V17.1362C495.113 18.2127 494.219 19.0854 493.117 19.0854H481.138C480.036 19.0854 479.142 18.2127 479.142 17.1362V5.44134C479.142 4.36485 480.036 3.49219 481.138 3.49219Z" fill="#4EDDBB"/>
<path d="M461.172 3.49219H473.151C474.253 3.49219 475.147 4.36485 475.147 5.44134V17.1362C475.147 18.2127 474.253 19.0854 473.151 19.0854H461.172C460.07 19.0854 459.176 18.2127 459.176 17.1362V5.44134C459.176 4.36485 460.07 3.49219 461.172 3.49219Z" fill="#4EDDBB"/>
<path d="M441.21 3.49219H453.188C454.291 3.49219 455.185 4.36485 455.185 5.44134V17.1362C455.185 18.2127 454.291 19.0854 453.188 19.0854H441.21C440.107 19.0854 439.213 18.2127 439.213 17.1362V5.44134C439.213 4.36485 440.107 3.49219 441.21 3.49219Z" fill="#4EDDBB"/>
<path d="M421.245 3.49219H433.224C434.326 3.49219 435.22 4.36485 435.22 5.44134V17.1362C435.22 18.2127 434.326 19.0854 433.224 19.0854H421.245C420.142 19.0854 419.249 18.2127 419.249 17.1362V5.44134C419.249 4.36485 420.142 3.49219 421.245 3.49219Z" fill="#4EDDBB"/>
<path d="M401.28 3.49219H413.259C414.362 3.49219 415.255 4.36485 415.255 5.44134V17.1362C415.255 18.2127 414.362 19.0854 413.259 19.0854H401.28C400.178 19.0854 399.284 18.2127 399.284 17.1362V5.44134C399.284 4.36485 400.178 3.49219 401.28 3.49219Z" fill="#4EDDBB"/>
<path d="M381.318 3.49219H393.296C394.399 3.49219 395.293 4.36485 395.293 5.44134V17.1362C395.293 18.2127 394.399 19.0854 393.296 19.0854H381.318C380.215 19.0854 379.321 18.2127 379.321 17.1362V5.44134C379.321 4.36485 380.215 3.49219 381.318 3.49219Z" fill="#4EDDBB"/>
<path d="M361.352 3.49219H373.331C374.433 3.49219 375.327 4.36485 375.327 5.44134V17.1362C375.327 18.2127 374.433 19.0854 373.331 19.0854H361.352C360.25 19.0854 359.356 18.2127 359.356 17.1362V5.44134C359.356 4.36485 360.25 3.49219 361.352 3.49219Z" fill="#4EDDBB"/>
<path d="M341.387 3.49219H353.366C354.469 3.49219 355.362 4.36485 355.362 5.44134V17.1362C355.362 18.2127 354.469 19.0854 353.366 19.0854H341.387C340.285 19.0854 339.391 18.2127 339.391 17.1362V5.44134C339.391 4.36485 340.285 3.49219 341.387 3.49219Z" fill="#4EDDBB"/>
<path d="M321.423 3.49219H333.401C334.504 3.49219 335.398 4.36485 335.398 5.44134V17.1362C335.398 18.2127 334.504 19.0854 333.401 19.0854H321.423C320.32 19.0854 319.426 18.2127 319.426 17.1362V5.44134C319.426 4.36485 320.32 3.49219 321.423 3.49219Z" fill="#4EDDBB"/>
<path d="M501.101 22.9844H513.079C514.182 22.9844 515.076 23.8571 515.076 24.9336V36.6285C515.076 37.7049 514.182 38.5776 513.079 38.5776H501.101C499.998 38.5776 499.104 37.7049 499.104 36.6285V24.9336C499.104 23.8571 499.998 22.9844 501.101 22.9844Z" fill="#4EDDBB"/>
<path d="M481.138 22.9844H493.117C494.219 22.9844 495.113 23.8571 495.113 24.9336V36.6285C495.113 37.7049 494.219 38.5776 493.117 38.5776H481.138C480.036 38.5776 479.142 37.7049 479.142 36.6285V24.9336C479.142 23.8571 480.036 22.9844 481.138 22.9844Z" fill="#4EDDBB"/>
<path d="M461.172 22.9844H473.151C474.253 22.9844 475.147 23.8571 475.147 24.9336V36.6285C475.147 37.7049 474.253 38.5776 473.151 38.5776H461.172C460.07 38.5776 459.176 37.7049 459.176 36.6285V24.9336C459.176 23.8571 460.07 22.9844 461.172 22.9844Z" fill="#4EDDBB"/>
<path d="M441.21 22.9844H453.188C454.291 22.9844 455.185 23.8571 455.185 24.9336V36.6285C455.185 37.7049 454.291 38.5776 453.188 38.5776H441.21C440.107 38.5776 439.213 37.7049 439.213 36.6285V24.9336C439.213 23.8571 440.107 22.9844 441.21 22.9844Z" fill="#4EDDBB"/>
<path d="M421.245 22.9844H433.224C434.326 22.9844 435.22 23.8571 435.22 24.9336V36.6285C435.22 37.7049 434.326 38.5776 433.224 38.5776H421.245C420.142 38.5776 419.249 37.7049 419.249 36.6285V24.9336C419.249 23.8571 420.142 22.9844 421.245 22.9844Z" fill="#4EDDBB"/>
<path d="M401.28 22.9844H413.259C414.362 22.9844 415.255 23.8571 415.255 24.9336V36.6285C415.255 37.7049 414.362 38.5776 413.259 38.5776H401.28C400.178 38.5776 399.284 37.7049 399.284 36.6285V24.9336C399.284 23.8571 400.178 22.9844 401.28 22.9844Z" fill="#4EDDBB"/>
<path d="M381.318 22.9844H393.296C394.399 22.9844 395.293 23.8571 395.293 24.9336V36.6285C395.293 37.7049 394.399 38.5776 393.296 38.5776H381.318C380.215 38.5776 379.321 37.7049 379.321 36.6285V24.9336C379.321 23.8571 380.215 22.9844 381.318 22.9844Z" fill="#4EDDBB"/>
<path d="M361.352 22.9844H373.331C374.433 22.9844 375.327 23.8571 375.327 24.9336V36.6285C375.327 37.7049 374.433 38.5776 373.331 38.5776H361.352C360.25 38.5776 359.356 37.7049 359.356 36.6285V24.9336C359.356 23.8571 360.25 22.9844 361.352 22.9844Z" fill="#4EDDBB"/>
<path d="M341.387 22.9844H353.366C354.469 22.9844 355.362 23.8571 355.362 24.9336V36.6285C355.362 37.7049 354.469 38.5776 353.366 38.5776H341.387C340.285 38.5776 339.391 37.7049 339.391 36.6285V24.9336C339.391 23.8571 340.285 22.9844 341.387 22.9844Z" fill="#4EDDBB"/>
<path d="M321.423 22.9844H333.401C334.504 22.9844 335.398 23.8571 335.398 24.9336V36.6285C335.398 37.7049 334.504 38.5776 333.401 38.5776H321.423C320.32 38.5776 319.426 37.7049 319.426 36.6285V24.9336C319.426 23.8571 320.32 22.9844 321.423 22.9844Z" fill="#4EDDBB"/>
<path d="M301.46 22.9844H313.439C314.541 22.9844 315.435 23.8571 315.435 24.9336V36.6285C315.435 37.7049 314.541 38.5776 313.439 38.5776H301.46C300.358 38.5776 299.464 37.7049 299.464 36.6285V24.9336C299.464 23.8571 300.358 22.9844 301.46 22.9844Z" fill="#4EDDBB"/>
<path d="M281.498 22.9844H293.476C294.579 22.9844 295.472 23.8571 295.472 24.9336V36.6285C295.472 37.7049 294.579 38.5776 293.476 38.5776H281.498C280.395 38.5776 279.501 37.7049 279.501 36.6285V24.9336C279.501 23.8571 280.395 22.9844 281.498 22.9844Z" fill="#4EDDBB"/>
<path d="M261.532 22.9844H273.51C274.613 22.9844 275.507 23.8571 275.507 24.9336V36.6285C275.507 37.7049 274.613 38.5776 273.51 38.5776H261.532C260.429 38.5776 259.535 37.7049 259.535 36.6285V24.9336C259.535 23.8571 260.429 22.9844 261.532 22.9844Z" fill="#4EDDBB"/>
<path d="M241.567 22.9844H253.546C254.648 22.9844 255.542 23.8571 255.542 24.9336V36.6285C255.542 37.7049 254.648 38.5776 253.546 38.5776H241.567C240.465 38.5776 239.571 37.7049 239.571 36.6285V24.9336C239.571 23.8571 240.465 22.9844 241.567 22.9844Z" fill="#4EDDBB"/>
<path d="M221.603 22.9844H233.581C234.684 22.9844 235.577 23.8571 235.577 24.9336V36.6285C235.577 37.7049 234.684 38.5776 233.581 38.5776H221.603C220.5 38.5776 219.606 37.7049 219.606 36.6285V24.9336C219.606 23.8571 220.5 22.9844 221.603 22.9844Z" fill="#4EDDBB"/>
<path d="M201.638 22.9844H213.616C214.719 22.9844 215.613 23.8571 215.613 24.9336V36.6285C215.613 37.7049 214.719 38.5776 213.616 38.5776H201.638C200.535 38.5776 199.641 37.7049 199.641 36.6285V24.9336C199.641 23.8571 200.535 22.9844 201.638 22.9844Z" fill="#4EDDBB"/>
<path d="M181.675 22.9844H193.654C194.756 22.9844 195.65 23.8571 195.65 24.9336V36.6285C195.65 37.7049 194.756 38.5776 193.654 38.5776H181.675C180.573 38.5776 179.679 37.7049 179.679 36.6285V24.9336C179.679 23.8571 180.573 22.9844 181.675 22.9844Z" fill="#4EDDBB"/>
<path d="M161.71 22.9844H173.688C174.791 22.9844 175.684 23.8571 175.684 24.9336V36.6285C175.684 37.7049 174.791 38.5776 173.688 38.5776H161.71C160.607 38.5776 159.713 37.7049 159.713 36.6285V24.9336C159.713 23.8571 160.607 22.9844 161.71 22.9844Z" fill="#4EDDBB"/>
<path d="M141.747 22.9844H153.725C154.828 22.9844 155.722 23.8571 155.722 24.9336V36.6285C155.722 37.7049 154.828 38.5776 153.725 38.5776H141.747C140.644 38.5776 139.75 37.7049 139.75 36.6285V24.9336C139.75 23.8571 140.644 22.9844 141.747 22.9844Z" fill="#4EDDBB"/>
<path d="M121.782 22.9844H133.761C134.863 22.9844 135.757 23.8571 135.757 24.9336V36.6285C135.757 37.7049 134.863 38.5776 133.761 38.5776H121.782C120.68 38.5776 119.786 37.7049 119.786 36.6285V24.9336C119.786 23.8571 120.68 22.9844 121.782 22.9844Z" fill="#4EDDBB"/>
<path d="M101.818 22.9844H113.796C114.899 22.9844 115.792 23.8571 115.792 24.9336V36.6285C115.792 37.7049 114.899 38.5776 113.796 38.5776H101.818C100.715 38.5776 99.8211 37.7049 99.8211 36.6285V24.9336C99.8211 23.8571 100.715 22.9844 101.818 22.9844Z" fill="#4EDDBB"/>
<path d="M501.101 42.4766H513.079C514.182 42.4766 515.076 43.3493 515.076 44.4257V56.1206C515.076 57.1971 514.182 58.0698 513.079 58.0698H501.101C499.998 58.0698 499.104 57.1971 499.104 56.1206V44.4257C499.104 43.3493 499.998 42.4766 501.101 42.4766Z" fill="#4EDDBB"/>
<path d="M481.138 42.4766H493.117C494.219 42.4766 495.113 43.3493 495.113 44.4257V56.1206C495.113 57.1971 494.219 58.0698 493.117 58.0698H481.138C480.036 58.0698 479.142 57.1971 479.142 56.1206V44.4257C479.142 43.3493 480.036 42.4766 481.138 42.4766Z" fill="#4EDDBB"/>
<path d="M461.172 42.4766H473.151C474.253 42.4766 475.147 43.3493 475.147 44.4257V56.1206C475.147 57.1971 474.253 58.0698 473.151 58.0698H461.172C460.07 58.0698 459.176 57.1971 459.176 56.1206V44.4257C459.176 43.3493 460.07 42.4766 461.172 42.4766Z" fill="#4EDDBB"/>
<path d="M441.21 42.4766H453.188C454.291 42.4766 455.185 43.3493 455.185 44.4257V56.1206C455.185 57.1971 454.291 58.0698 453.188 58.0698H441.21C440.107 58.0698 439.213 57.1971 439.213 56.1206V44.4257C439.213 43.3493 440.107 42.4766 441.21 42.4766Z" fill="#4EDDBB"/>
<path d="M421.245 42.4766H433.224C434.326 42.4766 435.22 43.3493 435.22 44.4257V56.1206C435.22 57.1971 434.326 58.0698 433.224 58.0698H421.245C420.142 58.0698 419.249 57.1971 419.249 56.1206V44.4257C419.249 43.3493 420.142 42.4766 421.245 42.4766Z" fill="#4EDDBB"/>
<path d="M401.28 42.4766H413.259C414.362 42.4766 415.255 43.3493 415.255 44.4257V56.1206C415.255 57.1971 414.362 58.0698 413.259 58.0698H401.28C400.178 58.0698 399.284 57.1971 399.284 56.1206V44.4257C399.284 43.3493 400.178 42.4766 401.28 42.4766Z" fill="#4EDDBB"/>
<path d="M381.318 42.4766H393.296C394.399 42.4766 395.293 43.3493 395.293 44.4257V56.1206C395.293 57.1971 394.399 58.0698 393.296 58.0698H381.318C380.215 58.0698 379.321 57.1971 379.321 56.1206V44.4257C379.321 43.3493 380.215 42.4766 381.318 42.4766Z" fill="#4EDDBB"/>
<path d="M361.352 42.4766H373.331C374.433 42.4766 375.327 43.3493 375.327 44.4257V56.1206C375.327 57.1971 374.433 58.0698 373.331 58.0698H361.352C360.25 58.0698 359.356 57.1971 359.356 56.1206V44.4257C359.356 43.3493 360.25 42.4766 361.352 42.4766Z" fill="#4EDDBB"/>
<path d="M341.387 42.4766H353.366C354.469 42.4766 355.362 43.3493 355.362 44.4257V56.1206C355.362 57.1971 354.469 58.0698 353.366 58.0698H341.387C340.285 58.0698 339.391 57.1971 339.391 56.1206V44.4257C339.391 43.3493 340.285 42.4766 341.387 42.4766Z" fill="#4EDDBB"/>
<path d="M321.423 42.4766H333.401C334.504 42.4766 335.398 43.3493 335.398 44.4257V56.1206C335.398 57.1971 334.504 58.0698 333.401 58.0698H321.423C320.32 58.0698 319.426 57.1971 319.426 56.1206V44.4257C319.426 43.3493 320.32 42.4766 321.423 42.4766Z" fill="#4EDDBB"/>
<path d="M301.46 42.4766H313.439C314.541 42.4766 315.435 43.3493 315.435 44.4257V56.1206C315.435 57.1971 314.541 58.0698 313.439 58.0698H301.46C300.358 58.0698 299.464 57.1971 299.464 56.1206V44.4257C299.464 43.3493 300.358 42.4766 301.46 42.4766Z" fill="#4EDDBB"/>
<path d="M281.498 42.4766H293.476C294.579 42.4766 295.472 43.3493 295.472 44.4257V56.1206C295.472 57.1971 294.579 58.0698 293.476 58.0698H281.498C280.395 58.0698 279.501 57.1971 279.501 56.1206V44.4257C279.501 43.3493 280.395 42.4766 281.498 42.4766Z" fill="#4EDDBB"/>
<path d="M261.532 42.4766H273.51C274.613 42.4766 275.507 43.3493 275.507 44.4257V56.1206C275.507 57.1971 274.613 58.0698 273.51 58.0698H261.532C260.429 58.0698 259.535 57.1971 259.535 56.1206V44.4257C259.535 43.3493 260.429 42.4766 261.532 42.4766Z" fill="#4EDDBB"/>
<path d="M241.567 42.4766H253.546C254.648 42.4766 255.542 43.3493 255.542 44.4257V56.1206C255.542 57.1971 254.648 58.0698 253.546 58.0698H241.567C240.465 58.0698 239.571 57.1971 239.571 56.1206V44.4257C239.571 43.3493 240.465 42.4766 241.567 42.4766Z" fill="#4EDDBB"/>
<path d="M221.603 42.4766H233.581C234.684 42.4766 235.577 43.3493 235.577 44.4257V56.1206C235.577 57.1971 234.684 58.0698 233.581 58.0698H221.603C220.5 58.0698 219.606 57.1971 219.606 56.1206V44.4257C219.606 43.3493 220.5 42.4766 221.603 42.4766Z" fill="#4EDDBB"/>
<path d="M201.638 42.4766H213.616C214.719 42.4766 215.613 43.3493 215.613 44.4257V56.1206C215.613 57.1971 214.719 58.0698 213.616 58.0698H201.638C200.535 58.0698 199.641 57.1971 199.641 56.1206V44.4257C199.641 43.3493 200.535 42.4766 201.638 42.4766Z" fill="#4EDDBB"/>
<path d="M181.675 42.4766H193.654C194.756 42.4766 195.65 43.3493 195.65 44.4257V56.1206C195.65 57.1971 194.756 58.0698 193.654 58.0698H181.675C180.573 58.0698 179.679 57.1971 179.679 56.1206V44.4257C179.679 43.3493 180.573 42.4766 181.675 42.4766Z" fill="#4EDDBB"/>
<path d="M161.71 42.4766H173.688C174.791 42.4766 175.684 43.3493 175.684 44.4257V56.1206C175.684 57.1971 174.791 58.0698 173.688 58.0698H161.71C160.607 58.0698 159.713 57.1971 159.713 56.1206V44.4257C159.713 43.3493 160.607 42.4766 161.71 42.4766Z" fill="#4EDDBB"/>
<path d="M141.747 42.4766H153.725C154.828 42.4766 155.722 43.3493 155.722 44.4257V56.1206C155.722 57.1971 154.828 58.0698 153.725 58.0698H141.747C140.644 58.0698 139.75 57.1971 139.75 56.1206V44.4257C139.75 43.3493 140.644 42.4766 141.747 42.4766Z" fill="#4EDDBB"/>
<path d="M121.782 42.4766H133.761C134.863 42.4766 135.757 43.3493 135.757 44.4257V56.1206C135.757 57.1971 134.863 58.0698 133.761 58.0698H121.782C120.68 58.0698 119.786 57.1971 119.786 56.1206V44.4257C119.786 43.3493 120.68 42.4766 121.782 42.4766Z" fill="#4EDDBB"/>
<path d="M101.818 42.4766H113.796C114.899 42.4766 115.792 43.3493 115.792 44.4257V56.1206C115.792 57.1971 114.899 58.0698 113.796 58.0698H101.818C100.715 58.0698 99.8211 57.1971 99.8211 56.1206V44.4257C99.8211 43.3493 100.715 42.4766 101.818 42.4766Z" fill="#4EDDBB"/>
<path d="M81.8525 42.4766H93.8309C94.9335 42.4766 95.8274 43.3493 95.8274 44.4257V56.1206C95.8274 57.1971 94.9335 58.0698 93.8309 58.0698H81.8525C80.7499 58.0698 79.856 57.1971 79.856 56.1206V44.4257C79.856 43.3493 80.7499 42.4766 81.8525 42.4766Z" fill="#4EDDBB"/>
<path d="M61.8876 42.4766H73.8661C74.9687 42.4766 75.8625 43.3493 75.8625 44.4257V56.1206C75.8625 57.1971 74.9687 58.0698 73.8661 58.0698H61.8876C60.785 58.0698 59.8912 57.1971 59.8912 56.1206V44.4257C59.8912 43.3493 60.785 42.4766 61.8876 42.4766Z" fill="#4EDDBB"/>
<path d="M41.9247 42.4766H53.9032C55.0058 42.4766 55.8997 43.3493 55.8997 44.4257V56.1206C55.8997 57.1971 55.0058 58.0698 53.9032 58.0698H41.9247C40.8222 58.0698 39.9283 57.1971 39.9283 56.1206V44.4257C39.9283 43.3493 40.8222 42.4766 41.9247 42.4766Z" fill="#4EDDBB"/>
<path d="M501.101 61.9668H513.079C514.182 61.9668 515.076 62.8395 515.076 63.9159V75.6108C515.076 76.6873 514.182 77.56 513.079 77.56H501.101C499.998 77.56 499.104 76.6873 499.104 75.6108V63.9159C499.104 62.8395 499.998 61.9668 501.101 61.9668Z" fill="#4EDDBB"/>
<path d="M481.138 61.9668H493.117C494.219 61.9668 495.113 62.8395 495.113 63.9159V75.6108C495.113 76.6873 494.219 77.56 493.117 77.56H481.138C480.036 77.56 479.142 76.6873 479.142 75.6108V63.9159C479.142 62.8395 480.036 61.9668 481.138 61.9668Z" fill="#4EDDBB"/>
<path d="M461.172 61.9668H473.151C474.253 61.9668 475.147 62.8395 475.147 63.9159V75.6108C475.147 76.6873 474.253 77.56 473.151 77.56H461.172C460.07 77.56 459.176 76.6873 459.176 75.6108V63.9159C459.176 62.8395 460.07 61.9668 461.172 61.9668Z" fill="#4EDDBB"/>
<path d="M441.21 61.9668H453.188C454.291 61.9668 455.185 62.8395 455.185 63.9159V75.6108C455.185 76.6873 454.291 77.56 453.188 77.56H441.21C440.107 77.56 439.213 76.6873 439.213 75.6108V63.9159C439.213 62.8395 440.107 61.9668 441.21 61.9668Z" fill="#4EDDBB"/>
<path d="M421.245 61.9668H433.224C434.326 61.9668 435.22 62.8395 435.22 63.9159V75.6108C435.22 76.6873 434.326 77.56 433.224 77.56H421.245C420.142 77.56 419.249 76.6873 419.249 75.6108V63.9159C419.249 62.8395 420.142 61.9668 421.245 61.9668Z" fill="#4EDDBB"/>
<path d="M401.28 61.9668H413.259C414.362 61.9668 415.255 62.8395 415.255 63.9159V75.6108C415.255 76.6873 414.362 77.56 413.259 77.56H401.28C400.178 77.56 399.284 76.6873 399.284 75.6108V63.9159C399.284 62.8395 400.178 61.9668 401.28 61.9668Z" fill="#4EDDBB"/>
<path d="M381.318 61.9668H393.296C394.399 61.9668 395.293 62.8395 395.293 63.9159V75.6108C395.293 76.6873 394.399 77.56 393.296 77.56H381.318C380.215 77.56 379.321 76.6873 379.321 75.6108V63.9159C379.321 62.8395 380.215 61.9668 381.318 61.9668Z" fill="#4EDDBB"/>
<path d="M361.352 61.9668H373.331C374.433 61.9668 375.327 62.8395 375.327 63.9159V75.6108C375.327 76.6873 374.433 77.56 373.331 77.56H361.352C360.25 77.56 359.356 76.6873 359.356 75.6108V63.9159C359.356 62.8395 360.25 61.9668 361.352 61.9668Z" fill="#4EDDBB"/>
<path d="M341.387 61.9668H353.366C354.469 61.9668 355.362 62.8395 355.362 63.9159V75.6108C355.362 76.6873 354.469 77.56 353.366 77.56H341.387C340.285 77.56 339.391 76.6873 339.391 75.6108V63.9159C339.391 62.8395 340.285 61.9668 341.387 61.9668Z" fill="#4EDDBB"/>
<path d="M321.423 61.9668H333.401C334.504 61.9668 335.398 62.8395 335.398 63.9159V75.6108C335.398 76.6873 334.504 77.56 333.401 77.56H321.423C320.32 77.56 319.426 76.6873 319.426 75.6108V63.9159C319.426 62.8395 320.32 61.9668 321.423 61.9668Z" fill="#4EDDBB"/>
<path d="M301.46 61.9668H313.439C314.541 61.9668 315.435 62.8395 315.435 63.9159V75.6108C315.435 76.6873 314.541 77.56 313.439 77.56H301.46C300.358 77.56 299.464 76.6873 299.464 75.6108V63.9159C299.464 62.8395 300.358 61.9668 301.46 61.9668Z" fill="#4EDDBB"/>
<path d="M281.498 61.9668H293.476C294.579 61.9668 295.472 62.8395 295.472 63.9159V75.6108C295.472 76.6873 294.579 77.56 293.476 77.56H281.498C280.395 77.56 279.501 76.6873 279.501 75.6108V63.9159C279.501 62.8395 280.395 61.9668 281.498 61.9668Z" fill="#4EDDBB"/>
<path d="M261.532 61.9668H273.51C274.613 61.9668 275.507 62.8395 275.507 63.9159V75.6108C275.507 76.6873 274.613 77.56 273.51 77.56H261.532C260.429 77.56 259.535 76.6873 259.535 75.6108V63.9159C259.535 62.8395 260.429 61.9668 261.532 61.9668Z" fill="#4EDDBB"/>
<path d="M241.567 61.9668H253.546C254.648 61.9668 255.542 62.8395 255.542 63.9159V75.6108C255.542 76.6873 254.648 77.56 253.546 77.56H241.567C240.465 77.56 239.571 76.6873 239.571 75.6108V63.9159C239.571 62.8395 240.465 61.9668 241.567 61.9668Z" fill="#4EDDBB"/>
<path d="M221.603 61.9668H233.581C234.684 61.9668 235.577 62.8395 235.577 63.9159V75.6108C235.577 76.6873 234.684 77.56 233.581 77.56H221.603C220.5 77.56 219.606 76.6873 219.606 75.6108V63.9159C219.606 62.8395 220.5 61.9668 221.603 61.9668Z" fill="#4EDDBB"/>
<path d="M201.638 61.9668H213.616C214.719 61.9668 215.613 62.8395 215.613 63.9159V75.6108C215.613 76.6873 214.719 77.56 213.616 77.56H201.638C200.535 77.56 199.641 76.6873 199.641 75.6108V63.9159C199.641 62.8395 200.535 61.9668 201.638 61.9668Z" fill="#4EDDBB"/>
<path d="M181.675 61.9668H193.654C194.756 61.9668 195.65 62.8395 195.65 63.9159V75.6108C195.65 76.6873 194.756 77.56 193.654 77.56H181.675C180.573 77.56 179.679 76.6873 179.679 75.6108V63.9159C179.679 62.8395 180.573 61.9668 181.675 61.9668Z" fill="#4EDDBB"/>
<path d="M161.71 61.9668H173.688C174.791 61.9668 175.684 62.8395 175.684 63.9159V75.6108C175.684 76.6873 174.791 77.56 173.688 77.56H161.71C160.607 77.56 159.713 76.6873 159.713 75.6108V63.9159C159.713 62.8395 160.607 61.9668 161.71 61.9668Z" fill="#4EDDBB"/>
<path d="M141.747 61.9668H153.725C154.828 61.9668 155.722 62.8395 155.722 63.9159V75.6108C155.722 76.6873 154.828 77.56 153.725 77.56H141.747C140.644 77.56 139.75 76.6873 139.75 75.6108V63.9159C139.75 62.8395 140.644 61.9668 141.747 61.9668Z" fill="#4EDDBB"/>
<path d="M121.782 61.9668H133.761C134.863 61.9668 135.757 62.8395 135.757 63.9159V75.6108C135.757 76.6873 134.863 77.56 133.761 77.56H121.782C120.68 77.56 119.786 76.6873 119.786 75.6108V63.9159C119.786 62.8395 120.68 61.9668 121.782 61.9668Z" fill="#4EDDBB"/>
<path d="M101.818 61.9668H113.796C114.899 61.9668 115.792 62.8395 115.792 63.9159V75.6108C115.792 76.6873 114.899 77.56 113.796 77.56H101.818C100.715 77.56 99.8211 76.6873 99.8211 75.6108V63.9159C99.8211 62.8395 100.715 61.9668 101.818 61.9668Z" fill="#4EDDBB"/>
<path d="M81.8525 61.9668H93.8309C94.9335 61.9668 95.8274 62.8395 95.8274 63.9159V75.6108C95.8274 76.6873 94.9335 77.56 93.8309 77.56H81.8525C80.7499 77.56 79.856 76.6873 79.856 75.6108V63.9159C79.856 62.8395 80.7499 61.9668 81.8525 61.9668Z" fill="#4EDDBB"/>
<path d="M61.8876 61.9668H73.8661C74.9687 61.9668 75.8625 62.8395 75.8625 63.9159V75.6108C75.8625 76.6873 74.9687 77.56 73.8661 77.56H61.8876C60.785 77.56 59.8912 76.6873 59.8912 75.6108V63.9159C59.8912 62.8395 60.785 61.9668 61.8876 61.9668Z" fill="#4EDDBB"/>
<path d="M41.9247 61.9668H53.9032C55.0058 61.9668 55.8997 62.8395 55.8997 63.9159V75.6108C55.8997 76.6873 55.0058 77.56 53.9032 77.56H41.9247C40.8222 77.56 39.9283 76.6873 39.9283 75.6108V63.9159C39.9283 62.8395 40.8222 61.9668 41.9247 61.9668Z" fill="#4EDDBB"/>
<path d="M21.9618 61.9668H33.9403C35.0429 61.9668 35.9367 62.8395 35.9367 63.9159V75.6108C35.9367 76.6873 35.0429 77.56 33.9403 77.56H21.9618C20.8592 77.56 19.9654 76.6873 19.9654 75.6108V63.9159C19.9654 62.8395 20.8592 61.9668 21.9618 61.9668Z" fill="#4EDDBB"/>
<path d="M1.99704 61.9668H13.9755C15.0781 61.9668 15.972 62.8395 15.972 63.9159V75.6108C15.972 76.6873 15.0781 77.56 13.9755 77.56H1.99704C0.894452 77.56 0.000626564 76.6873 0.000626564 75.6108V63.9159C0.000626564 62.8395 0.894452 61.9668 1.99704 61.9668Z" fill="#4EDDBB"/>
<path d="M501.101 81.459H513.079C514.182 81.459 515.076 82.3317 515.076 83.4081V95.103C515.076 96.1795 514.182 97.0522 513.079 97.0522H501.101C499.998 97.0522 499.104 96.1795 499.104 95.103V83.4081C499.104 82.3317 499.998 81.459 501.101 81.459Z" fill="#4EDDBB"/>
<path d="M481.138 81.459H493.117C494.219 81.459 495.113 82.3317 495.113 83.4081V95.103C495.113 96.1795 494.219 97.0522 493.117 97.0522H481.138C480.036 97.0522 479.142 96.1795 479.142 95.103V83.4081C479.142 82.3317 480.036 81.459 481.138 81.459Z" fill="#4EDDBB"/>
<path d="M461.172 81.459H473.151C474.253 81.459 475.147 82.3317 475.147 83.4081V95.103C475.147 96.1795 474.253 97.0522 473.151 97.0522H461.172C460.07 97.0522 459.176 96.1795 459.176 95.103V83.4081C459.176 82.3317 460.07 81.459 461.172 81.459Z" fill="#4EDDBB"/>
<path d="M441.21 81.459H453.188C454.291 81.459 455.185 82.3317 455.185 83.4081V95.103C455.185 96.1795 454.291 97.0522 453.188 97.0522H441.21C440.107 97.0522 439.213 96.1795 439.213 95.103V83.4081C439.213 82.3317 440.107 81.459 441.21 81.459Z" fill="#4EDDBB"/>
<path d="M421.245 81.459H433.224C434.326 81.459 435.22 82.3317 435.22 83.4081V95.103C435.22 96.1795 434.326 97.0522 433.224 97.0522H421.245C420.142 97.0522 419.249 96.1795 419.249 95.103V83.4081C419.249 82.3317 420.142 81.459 421.245 81.459Z" fill="#4EDDBB"/>
<path d="M401.28 81.459H413.259C414.362 81.459 415.255 82.3317 415.255 83.4081V95.103C415.255 96.1795 414.362 97.0522 413.259 97.0522H401.28C400.178 97.0522 399.284 96.1795 399.284 95.103V83.4081C399.284 82.3317 400.178 81.459 401.28 81.459Z" fill="#4EDDBB"/>
<path d="M381.318 81.459H393.296C394.399 81.459 395.293 82.3317 395.293 83.4081V95.103C395.293 96.1795 394.399 97.0522 393.296 97.0522H381.318C380.215 97.0522 379.321 96.1795 379.321 95.103V83.4081C379.321 82.3317 380.215 81.459 381.318 81.459Z" fill="#4EDDBB"/>
<path d="M361.352 81.459H373.331C374.433 81.459 375.327 82.3317 375.327 83.4081V95.103C375.327 96.1795 374.433 97.0522 373.331 97.0522H361.352C360.25 97.0522 359.356 96.1795 359.356 95.103V83.4081C359.356 82.3317 360.25 81.459 361.352 81.459Z" fill="#4EDDBB"/>
<path d="M341.387 81.459H353.366C354.469 81.459 355.362 82.3317 355.362 83.4081V95.103C355.362 96.1795 354.469 97.0522 353.366 97.0522H341.387C340.285 97.0522 339.391 96.1795 339.391 95.103V83.4081C339.391 82.3317 340.285 81.459 341.387 81.459Z" fill="#4EDDBB"/>
<path d="M321.423 81.459H333.401C334.504 81.459 335.398 82.3317 335.398 83.4081V95.103C335.398 96.1795 334.504 97.0522 333.401 97.0522H321.423C320.32 97.0522 319.426 96.1795 319.426 95.103V83.4081C319.426 82.3317 320.32 81.459 321.423 81.459Z" fill="#4EDDBB"/>
<path d="M301.46 81.459H313.439C314.541 81.459 315.435 82.3317 315.435 83.4081V95.103C315.435 96.1795 314.541 97.0522 313.439 97.0522H301.46C300.358 97.0522 299.464 96.1795 299.464 95.103V83.4081C299.464 82.3317 300.358 81.459 301.46 81.459Z" fill="#4EDDBB"/>
<path d="M281.498 81.459H293.476C294.579 81.459 295.472 82.3317 295.472 83.4081V95.103C295.472 96.1795 294.579 97.0522 293.476 97.0522H281.498C280.395 97.0522 279.501 96.1795 279.501 95.103V83.4081C279.501 82.3317 280.395 81.459 281.498 81.459Z" fill="#4EDDBB"/>
<path d="M261.532 81.459H273.51C274.613 81.459 275.507 82.3317 275.507 83.4081V95.103C275.507 96.1795 274.613 97.0522 273.51 97.0522H261.532C260.429 97.0522 259.535 96.1795 259.535 95.103V83.4081C259.535 82.3317 260.429 81.459 261.532 81.459Z" fill="#4EDDBB"/>
<path d="M241.567 81.459H253.546C254.648 81.459 255.542 82.3317 255.542 83.4081V95.103C255.542 96.1795 254.648 97.0522 253.546 97.0522H241.567C240.465 97.0522 239.571 96.1795 239.571 95.103V83.4081C239.571 82.3317 240.465 81.459 241.567 81.459Z" fill="#4EDDBB"/>
<path d="M221.603 81.459H233.581C234.684 81.459 235.577 82.3317 235.577 83.4081V95.103C235.577 96.1795 234.684 97.0522 233.581 97.0522H221.603C220.5 97.0522 219.606 96.1795 219.606 95.103V83.4081C219.606 82.3317 220.5 81.459 221.603 81.459Z" fill="#4EDDBB"/>
<path d="M201.638 81.459H213.616C214.719 81.459 215.613 82.3317 215.613 83.4081V95.103C215.613 96.1795 214.719 97.0522 213.616 97.0522H201.638C200.535 97.0522 199.641 96.1795 199.641 95.103V83.4081C199.641 82.3317 200.535 81.459 201.638 81.459Z" fill="#4EDDBB"/>
<path d="M181.675 81.459H193.654C194.756 81.459 195.65 82.3317 195.65 83.4081V95.103C195.65 96.1795 194.756 97.0522 193.654 97.0522H181.675C180.573 97.0522 179.679 96.1795 179.679 95.103V83.4081C179.679 82.3317 180.573 81.459 181.675 81.459Z" fill="#4EDDBB"/>
<path d="M161.71 81.459H173.688C174.791 81.459 175.684 82.3317 175.684 83.4081V95.103C175.684 96.1795 174.791 97.0522 173.688 97.0522H161.71C160.607 97.0522 159.713 96.1795 159.713 95.103V83.4081C159.713 82.3317 160.607 81.459 161.71 81.459Z" fill="#4EDDBB"/>
<path d="M141.747 81.459H153.725C154.828 81.459 155.722 82.3317 155.722 83.4081V95.103C155.722 96.1795 154.828 97.0522 153.725 97.0522H141.747C140.644 97.0522 139.75 96.1795 139.75 95.103V83.4081C139.75 82.3317 140.644 81.459 141.747 81.459Z" fill="#4EDDBB"/>
<path d="M121.782 81.459H133.761C134.863 81.459 135.757 82.3317 135.757 83.4081V95.103C135.757 96.1795 134.863 97.0522 133.761 97.0522H121.782C120.68 97.0522 119.786 96.1795 119.786 95.103V83.4081C119.786 82.3317 120.68 81.459 121.782 81.459Z" fill="#4EDDBB"/>
<path d="M101.818 81.459H113.796C114.899 81.459 115.792 82.3317 115.792 83.4081V95.103C115.792 96.1795 114.899 97.0522 113.796 97.0522H101.818C100.715 97.0522 99.8211 96.1795 99.8211 95.103V83.4081C99.8211 82.3317 100.715 81.459 101.818 81.459Z" fill="#4EDDBB"/>
<path d="M81.8525 81.459H93.8309C94.9335 81.459 95.8274 82.3317 95.8274 83.4081V95.103C95.8274 96.1795 94.9335 97.0522 93.8309 97.0522H81.8525C80.7499 97.0522 79.856 96.1795 79.856 95.103V83.4081C79.856 82.3317 80.7499 81.459 81.8525 81.459Z" fill="#4EDDBB"/>
<path d="M61.8876 81.459H73.8661C74.9687 81.459 75.8625 82.3317 75.8625 83.4081V95.103C75.8625 96.1795 74.9687 97.0522 73.8661 97.0522H61.8876C60.785 97.0522 59.8912 96.1795 59.8912 95.103V83.4081C59.8912 82.3317 60.785 81.459 61.8876 81.459Z" fill="#4EDDBB"/>
<path d="M41.9247 81.459H53.9032C55.0058 81.459 55.8997 82.3317 55.8997 83.4081V95.103C55.8997 96.1795 55.0058 97.0522 53.9032 97.0522H41.9247C40.8222 97.0522 39.9283 96.1795 39.9283 95.103V83.4081C39.9283 82.3317 40.8222 81.459 41.9247 81.459Z" fill="#4EDDBB"/>
<path d="M21.9618 81.459H33.9403C35.0429 81.459 35.9367 82.3317 35.9367 83.4081V95.103C35.9367 96.1795 35.0429 97.0522 33.9403 97.0522H21.9618C20.8592 97.0522 19.9654 96.1795 19.9654 95.103V83.4081C19.9654 82.3317 20.8592 81.459 21.9618 81.459Z" fill="#4EDDBB"/>
<path d="M1.99704 81.459H13.9755C15.0781 81.459 15.972 82.3317 15.972 83.4081V95.103C15.972 96.1795 15.0781 97.0522 13.9755 97.0522H1.99704C0.894452 97.0522 0.000626564 96.1795 0.000626564 95.103V83.4081C0.000626564 82.3317 0.894452 81.459 1.99704 81.459Z" fill="#4EDDBB"/>
<path d="M501.101 100.949H513.079C514.182 100.949 515.076 101.822 515.076 102.898V114.593C515.076 115.67 514.182 116.542 513.079 116.542H501.101C499.998 116.542 499.104 115.67 499.104 114.593V102.898C499.104 101.822 499.998 100.949 501.101 100.949Z" fill="#4EDDBB"/>
<path d="M481.138 100.949H493.117C494.219 100.949 495.113 101.822 495.113 102.898V114.593C495.113 115.67 494.219 116.542 493.117 116.542H481.138C480.036 116.542 479.142 115.67 479.142 114.593V102.898C479.142 101.822 480.036 100.949 481.138 100.949Z" fill="#4EDDBB"/>
<path d="M461.172 100.949H473.151C474.253 100.949 475.147 101.822 475.147 102.898V114.593C475.147 115.67 474.253 116.542 473.151 116.542H461.172C460.07 116.542 459.176 115.67 459.176 114.593V102.898C459.176 101.822 460.07 100.949 461.172 100.949Z" fill="#4EDDBB"/>
<path d="M441.21 100.949H453.188C454.291 100.949 455.185 101.822 455.185 102.898V114.593C455.185 115.67 454.291 116.542 453.188 116.542H441.21C440.107 116.542 439.213 115.67 439.213 114.593V102.898C439.213 101.822 440.107 100.949 441.21 100.949Z" fill="#4EDDBB"/>
<path d="M421.245 100.949H433.224C434.326 100.949 435.22 101.822 435.22 102.898V114.593C435.22 115.67 434.326 116.542 433.224 116.542H421.245C420.142 116.542 419.249 115.67 419.249 114.593V102.898C419.249 101.822 420.142 100.949 421.245 100.949Z" fill="#4EDDBB"/>
<path d="M401.28 100.949H413.259C414.362 100.949 415.255 101.822 415.255 102.898V114.593C415.255 115.67 414.362 116.542 413.259 116.542H401.28C400.178 116.542 399.284 115.67 399.284 114.593V102.898C399.284 101.822 400.178 100.949 401.28 100.949Z" fill="#4EDDBB"/>
<path d="M381.318 100.949H393.296C394.399 100.949 395.293 101.822 395.293 102.898V114.593C395.293 115.67 394.399 116.542 393.296 116.542H381.318C380.215 116.542 379.321 115.67 379.321 114.593V102.898C379.321 101.822 380.215 100.949 381.318 100.949Z" fill="#4EDDBB"/>
<path d="M361.352 100.949H373.331C374.433 100.949 375.327 101.822 375.327 102.898V114.593C375.327 115.67 374.433 116.542 373.331 116.542H361.352C360.25 116.542 359.356 115.67 359.356 114.593V102.898C359.356 101.822 360.25 100.949 361.352 100.949Z" fill="#4EDDBB"/>
<path d="M341.387 100.949H353.366C354.469 100.949 355.362 101.822 355.362 102.898V114.593C355.362 115.67 354.469 116.542 353.366 116.542H341.387C340.285 116.542 339.391 115.67 339.391 114.593V102.898C339.391 101.822 340.285 100.949 341.387 100.949Z" fill="#4EDDBB"/>
<path d="M321.423 100.949H333.401C334.504 100.949 335.398 101.822 335.398 102.898V114.593C335.398 115.67 334.504 116.542 333.401 116.542H321.423C320.32 116.542 319.426 115.67 319.426 114.593V102.898C319.426 101.822 320.32 100.949 321.423 100.949Z" fill="#4EDDBB"/>
<path d="M301.46 100.949H313.439C314.541 100.949 315.435 101.822 315.435 102.898V114.593C315.435 115.67 314.541 116.542 313.439 116.542H301.46C300.358 116.542 299.464 115.67 299.464 114.593V102.898C299.464 101.822 300.358 100.949 301.46 100.949Z" fill="#4EDDBB"/>
<path d="M281.498 100.949H293.476C294.579 100.949 295.472 101.822 295.472 102.898V114.593C295.472 115.67 294.579 116.542 293.476 116.542H281.498C280.395 116.542 279.501 115.67 279.501 114.593V102.898C279.501 101.822 280.395 100.949 281.498 100.949Z" fill="#4EDDBB"/>
<path d="M261.532 100.949H273.51C274.613 100.949 275.507 101.822 275.507 102.898V114.593C275.507 115.67 274.613 116.542 273.51 116.542H261.532C260.429 116.542 259.535 115.67 259.535 114.593V102.898C259.535 101.822 260.429 100.949 261.532 100.949Z" fill="#4EDDBB"/>
<path d="M241.567 100.949H253.546C254.648 100.949 255.542 101.822 255.542 102.898V114.593C255.542 115.67 254.648 116.542 253.546 116.542H241.567C240.465 116.542 239.571 115.67 239.571 114.593V102.898C239.571 101.822 240.465 100.949 241.567 100.949Z" fill="#4EDDBB"/>
<path d="M221.603 100.949H233.581C234.684 100.949 235.577 101.822 235.577 102.898V114.593C235.577 115.67 234.684 116.542 233.581 116.542H221.603C220.5 116.542 219.606 115.67 219.606 114.593V102.898C219.606 101.822 220.5 100.949 221.603 100.949Z" fill="#4EDDBB"/>
<path d="M201.638 100.949H213.616C214.719 100.949 215.613 101.822 215.613 102.898V114.593C215.613 115.67 214.719 116.542 213.616 116.542H201.638C200.535 116.542 199.641 115.67 199.641 114.593V102.898C199.641 101.822 200.535 100.949 201.638 100.949Z" fill="#4EDDBB"/>
<path d="M181.675 100.949H193.654C194.756 100.949 195.65 101.822 195.65 102.898V114.593C195.65 115.67 194.756 116.542 193.654 116.542H181.675C180.573 116.542 179.679 115.67 179.679 114.593V102.898C179.679 101.822 180.573 100.949 181.675 100.949Z" fill="#4EDDBB"/>
<path d="M161.71 100.949H173.688C174.791 100.949 175.684 101.822 175.684 102.898V114.593C175.684 115.67 174.791 116.542 173.688 116.542H161.71C160.607 116.542 159.713 115.67 159.713 114.593V102.898C159.713 101.822 160.607 100.949 161.71 100.949Z" fill="#4EDDBB"/>
<path d="M141.747 100.949H153.725C154.828 100.949 155.722 101.822 155.722 102.898V114.593C155.722 115.67 154.828 116.542 153.725 116.542H141.747C140.644 116.542 139.75 115.67 139.75 114.593V102.898C139.75 101.822 140.644 100.949 141.747 100.949Z" fill="#4EDDBB"/>
<path d="M121.782 100.949H133.761C134.863 100.949 135.757 101.822 135.757 102.898V114.593C135.757 115.67 134.863 116.542 133.761 116.542H121.782C120.68 116.542 119.786 115.67 119.786 114.593V102.898C119.786 101.822 120.68 100.949 121.782 100.949Z" fill="#4EDDBB"/>
<path d="M101.818 100.949H113.796C114.899 100.949 115.792 101.822 115.792 102.898V114.593C115.792 115.67 114.899 116.542 113.796 116.542H101.818C100.715 116.542 99.8211 115.67 99.8211 114.593V102.898C99.8211 101.822 100.715 100.949 101.818 100.949Z" fill="#4EDDBB"/>
<path d="M81.8525 100.949H93.8309C94.9335 100.949 95.8274 101.822 95.8274 102.898V114.593C95.8274 115.67 94.9335 116.542 93.8309 116.542H81.8525C80.7499 116.542 79.856 115.67 79.856 114.593V102.898C79.856 101.822 80.7499 100.949 81.8525 100.949Z" fill="#4EDDBB"/>
<path d="M61.8876 100.949H73.8661C74.9687 100.949 75.8625 101.822 75.8625 102.898V114.593C75.8625 115.67 74.9687 116.542 73.8661 116.542H61.8876C60.785 116.542 59.8912 115.67 59.8912 114.593V102.898C59.8912 101.822 60.785 100.949 61.8876 100.949Z" fill="#4EDDBB"/>
<path d="M41.9247 100.949H53.9032C55.0058 100.949 55.8997 101.822 55.8997 102.898V114.593C55.8997 115.67 55.0058 116.542 53.9032 116.542H41.9247C40.8222 116.542 39.9283 115.67 39.9283 114.593V102.898C39.9283 101.822 40.8222 100.949 41.9247 100.949Z" fill="#4EDDBB"/>
<path d="M21.9618 100.949H33.9403C35.0429 100.949 35.9367 101.822 35.9367 102.898V114.593C35.9367 115.67 35.0429 116.542 33.9403 116.542H21.9618C20.8592 116.542 19.9654 115.67 19.9654 114.593V102.898C19.9654 101.822 20.8592 100.949 21.9618 100.949Z" fill="#4EDDBB"/>
<path d="M1.99704 100.949H13.9755C15.0781 100.949 15.972 101.822 15.972 102.898V114.593C15.972 115.67 15.0781 116.542 13.9755 116.542H1.99704C0.894452 116.542 0.000626564 115.67 0.000626564 114.593V102.898C0.000626564 101.822 0.894452 100.949 1.99704 100.949Z" fill="#4EDDBB"/>
<path d="M501.101 120.441H513.079C514.182 120.441 515.076 121.314 515.076 122.39V134.085C515.076 135.162 514.182 136.034 513.079 136.034H501.101C499.998 136.034 499.104 135.162 499.104 134.085V122.39C499.104 121.314 499.998 120.441 501.101 120.441Z" fill="#4EDDBB"/>
<path d="M481.138 120.441H493.117C494.219 120.441 495.113 121.314 495.113 122.39V134.085C495.113 135.162 494.219 136.034 493.117 136.034H481.138C480.036 136.034 479.142 135.162 479.142 134.085V122.39C479.142 121.314 480.036 120.441 481.138 120.441Z" fill="#4EDDBB"/>
<path d="M461.172 120.441H473.151C474.253 120.441 475.147 121.314 475.147 122.39V134.085C475.147 135.162 474.253 136.034 473.151 136.034H461.172C460.07 136.034 459.176 135.162 459.176 134.085V122.39C459.176 121.314 460.07 120.441 461.172 120.441Z" fill="#4EDDBB"/>
<path d="M441.21 120.441H453.188C454.291 120.441 455.185 121.314 455.185 122.39V134.085C455.185 135.162 454.291 136.034 453.188 136.034H441.21C440.107 136.034 439.213 135.162 439.213 134.085V122.39C439.213 121.314 440.107 120.441 441.21 120.441Z" fill="#4EDDBB"/>
<path d="M421.245 120.441H433.224C434.326 120.441 435.22 121.314 435.22 122.39V134.085C435.22 135.162 434.326 136.034 433.224 136.034H421.245C420.142 136.034 419.249 135.162 419.249 134.085V122.39C419.249 121.314 420.142 120.441 421.245 120.441Z" fill="#4EDDBB"/>
<path d="M401.28 120.441H413.259C414.362 120.441 415.255 121.314 415.255 122.39V134.085C415.255 135.162 414.362 136.034 413.259 136.034H401.28C400.178 136.034 399.284 135.162 399.284 134.085V122.39C399.284 121.314 400.178 120.441 401.28 120.441Z" fill="#4EDDBB"/>
<path d="M381.318 120.441H393.296C394.399 120.441 395.293 121.314 395.293 122.39V134.085C395.293 135.162 394.399 136.034 393.296 136.034H381.318C380.215 136.034 379.321 135.162 379.321 134.085V122.39C379.321 121.314 380.215 120.441 381.318 120.441Z" fill="#4EDDBB"/>
<path d="M361.352 120.441H373.331C374.433 120.441 375.327 121.314 375.327 122.39V134.085C375.327 135.162 374.433 136.034 373.331 136.034H361.352C360.25 136.034 359.356 135.162 359.356 134.085V122.39C359.356 121.314 360.25 120.441 361.352 120.441Z" fill="#4EDDBB"/>
<path d="M341.387 120.441H353.366C354.469 120.441 355.362 121.314 355.362 122.39V134.085C355.362 135.162 354.469 136.034 353.366 136.034H341.387C340.285 136.034 339.391 135.162 339.391 134.085V122.39C339.391 121.314 340.285 120.441 341.387 120.441Z" fill="#4EDDBB"/>
<path d="M321.423 120.441H333.401C334.504 120.441 335.398 121.314 335.398 122.39V134.085C335.398 135.162 334.504 136.034 333.401 136.034H321.423C320.32 136.034 319.426 135.162 319.426 134.085V122.39C319.426 121.314 320.32 120.441 321.423 120.441Z" fill="#4EDDBB"/>
<path d="M301.46 120.441H313.439C314.541 120.441 315.435 121.314 315.435 122.39V134.085C315.435 135.162 314.541 136.034 313.439 136.034H301.46C300.358 136.034 299.464 135.162 299.464 134.085V122.39C299.464 121.314 300.358 120.441 301.46 120.441Z" fill="#4EDDBB"/>
<path d="M281.498 120.441H293.476C294.579 120.441 295.472 121.314 295.472 122.39V134.085C295.472 135.162 294.579 136.034 293.476 136.034H281.498C280.395 136.034 279.501 135.162 279.501 134.085V122.39C279.501 121.314 280.395 120.441 281.498 120.441Z" fill="#4EDDBB"/>
<path d="M261.532 120.441H273.51C274.613 120.441 275.507 121.314 275.507 122.39V134.085C275.507 135.162 274.613 136.034 273.51 136.034H261.532C260.429 136.034 259.535 135.162 259.535 134.085V122.39C259.535 121.314 260.429 120.441 261.532 120.441Z" fill="#4EDDBB"/>
<path d="M241.567 120.441H253.546C254.648 120.441 255.542 121.314 255.542 122.39V134.085C255.542 135.162 254.648 136.034 253.546 136.034H241.567C240.465 136.034 239.571 135.162 239.571 134.085V122.39C239.571 121.314 240.465 120.441 241.567 120.441Z" fill="#4EDDBB"/>
<path d="M221.603 120.441H233.581C234.684 120.441 235.577 121.314 235.577 122.39V134.085C235.577 135.162 234.684 136.034 233.581 136.034H221.603C220.5 136.034 219.606 135.162 219.606 134.085V122.39C219.606 121.314 220.5 120.441 221.603 120.441Z" fill="#4EDDBB"/>
<path d="M201.638 120.441H213.616C214.719 120.441 215.613 121.314 215.613 122.39V134.085C215.613 135.162 214.719 136.034 213.616 136.034H201.638C200.535 136.034 199.641 135.162 199.641 134.085V122.39C199.641 121.314 200.535 120.441 201.638 120.441Z" fill="#4EDDBB"/>
<path d="M181.675 120.441H193.654C194.756 120.441 195.65 121.314 195.65 122.39V134.085C195.65 135.162 194.756 136.034 193.654 136.034H181.675C180.573 136.034 179.679 135.162 179.679 134.085V122.39C179.679 121.314 180.573 120.441 181.675 120.441Z" fill="#4EDDBB"/>
<path d="M161.71 120.441H173.688C174.791 120.441 175.684 121.314 175.684 122.39V134.085C175.684 135.162 174.791 136.034 173.688 136.034H161.71C160.607 136.034 159.713 135.162 159.713 134.085V122.39C159.713 121.314 160.607 120.441 161.71 120.441Z" fill="#4EDDBB"/>
<path d="M141.747 120.441H153.725C154.828 120.441 155.722 121.314 155.722 122.39V134.085C155.722 135.162 154.828 136.034 153.725 136.034H141.747C140.644 136.034 139.75 135.162 139.75 134.085V122.39C139.75 121.314 140.644 120.441 141.747 120.441Z" fill="#4EDDBB"/>
<path d="M121.782 120.441H133.761C134.863 120.441 135.757 121.314 135.757 122.39V134.085C135.757 135.162 134.863 136.034 133.761 136.034H121.782C120.68 136.034 119.786 135.162 119.786 134.085V122.39C119.786 121.314 120.68 120.441 121.782 120.441Z" fill="#4EDDBB"/>
<path d="M101.818 120.441H113.796C114.899 120.441 115.792 121.314 115.792 122.39V134.085C115.792 135.162 114.899 136.034 113.796 136.034H101.818C100.715 136.034 99.8211 135.162 99.8211 134.085V122.39C99.8211 121.314 100.715 120.441 101.818 120.441Z" fill="#4EDDBB"/>
<path d="M501.101 139.934H513.079C514.182 139.934 515.076 140.807 515.076 141.883V153.578C515.076 154.655 514.182 155.527 513.079 155.527H501.101C499.998 155.527 499.104 154.655 499.104 153.578V141.883C499.104 140.807 499.998 139.934 501.101 139.934Z" fill="#4EDDBB"/>
<path d="M481.138 139.934H493.117C494.219 139.934 495.113 140.807 495.113 141.883V153.578C495.113 154.655 494.219 155.527 493.117 155.527H481.138C480.036 155.527 479.142 154.655 479.142 153.578V141.883C479.142 140.807 480.036 139.934 481.138 139.934Z" fill="#4EDDBB"/>
<path d="M461.172 139.934H473.151C474.253 139.934 475.147 140.807 475.147 141.883V153.578C475.147 154.655 474.253 155.527 473.151 155.527H461.172C460.07 155.527 459.176 154.655 459.176 153.578V141.883C459.176 140.807 460.07 139.934 461.172 139.934Z" fill="#4EDDBB"/>
<path d="M441.21 139.934H453.188C454.291 139.934 455.185 140.807 455.185 141.883V153.578C455.185 154.655 454.291 155.527 453.188 155.527H441.21C440.107 155.527 439.213 154.655 439.213 153.578V141.883C439.213 140.807 440.107 139.934 441.21 139.934Z" fill="#4EDDBB"/>
<path d="M421.245 139.934H433.224C434.326 139.934 435.22 140.807 435.22 141.883V153.578C435.22 154.655 434.326 155.527 433.224 155.527H421.245C420.142 155.527 419.249 154.655 419.249 153.578V141.883C419.249 140.807 420.142 139.934 421.245 139.934Z" fill="#4EDDBB"/>
<path d="M401.28 139.934H413.259C414.362 139.934 415.255 140.807 415.255 141.883V153.578C415.255 154.655 414.362 155.527 413.259 155.527H401.28C400.178 155.527 399.284 154.655 399.284 153.578V141.883C399.284 140.807 400.178 139.934 401.28 139.934Z" fill="#4EDDBB"/>
<path d="M381.318 139.934H393.296C394.399 139.934 395.293 140.807 395.293 141.883V153.578C395.293 154.655 394.399 155.527 393.296 155.527H381.318C380.215 155.527 379.321 154.655 379.321 153.578V141.883C379.321 140.807 380.215 139.934 381.318 139.934Z" fill="#4EDDBB"/>
<path d="M361.352 139.934H373.331C374.433 139.934 375.327 140.807 375.327 141.883V153.578C375.327 154.655 374.433 155.527 373.331 155.527H361.352C360.25 155.527 359.356 154.655 359.356 153.578V141.883C359.356 140.807 360.25 139.934 361.352 139.934Z" fill="#4EDDBB"/>
<path d="M341.387 139.934H353.366C354.469 139.934 355.362 140.807 355.362 141.883V153.578C355.362 154.655 354.469 155.527 353.366 155.527H341.387C340.285 155.527 339.391 154.655 339.391 153.578V141.883C339.391 140.807 340.285 139.934 341.387 139.934Z" fill="#4EDDBB"/>
<path d="M321.423 139.934H333.401C334.504 139.934 335.398 140.807 335.398 141.883V153.578C335.398 154.655 334.504 155.527 333.401 155.527H321.423C320.32 155.527 319.426 154.655 319.426 153.578V141.883C319.426 140.807 320.32 139.934 321.423 139.934Z" fill="#4EDDBB"/>
<path d="M301.46 139.934H313.439C314.541 139.934 315.435 140.807 315.435 141.883V153.578C315.435 154.655 314.541 155.527 313.439 155.527H301.46C300.358 155.527 299.464 154.655 299.464 153.578V141.883C299.464 140.807 300.358 139.934 301.46 139.934Z" fill="#4EDDBB"/>
<path d="M281.498 139.934H293.476C294.579 139.934 295.472 140.807 295.472 141.883V153.578C295.472 154.655 294.579 155.527 293.476 155.527H281.498C280.395 155.527 279.501 154.655 279.501 153.578V141.883C279.501 140.807 280.395 139.934 281.498 139.934Z" fill="#4EDDBB"/>
<path d="M261.532 139.934H273.51C274.613 139.934 275.507 140.807 275.507 141.883V153.578C275.507 154.655 274.613 155.527 273.51 155.527H261.532C260.429 155.527 259.535 154.655 259.535 153.578V141.883C259.535 140.807 260.429 139.934 261.532 139.934Z" fill="#4EDDBB"/>
<path d="M241.567 139.934H253.546C254.648 139.934 255.542 140.807 255.542 141.883V153.578C255.542 154.655 254.648 155.527 253.546 155.527H241.567C240.465 155.527 239.571 154.655 239.571 153.578V141.883C239.571 140.807 240.465 139.934 241.567 139.934Z" fill="#4EDDBB"/>
<path d="M221.603 139.934H233.581C234.684 139.934 235.577 140.807 235.577 141.883V153.578C235.577 154.655 234.684 155.527 233.581 155.527H221.603C220.5 155.527 219.606 154.655 219.606 153.578V141.883C219.606 140.807 220.5 139.934 221.603 139.934Z" fill="#4EDDBB"/>
<path d="M201.638 139.934H213.616C214.719 139.934 215.613 140.807 215.613 141.883V153.578C215.613 154.655 214.719 155.527 213.616 155.527H201.638C200.535 155.527 199.641 154.655 199.641 153.578V141.883C199.641 140.807 200.535 139.934 201.638 139.934Z" fill="#4EDDBB"/>
<path d="M181.675 139.934H193.654C194.756 139.934 195.65 140.807 195.65 141.883V153.578C195.65 154.655 194.756 155.527 193.654 155.527H181.675C180.573 155.527 179.679 154.655 179.679 153.578V141.883C179.679 140.807 180.573 139.934 181.675 139.934Z" fill="#4EDDBB"/>
<path d="M161.71 139.934H173.688C174.791 139.934 175.684 140.807 175.684 141.883V153.578C175.684 154.655 174.791 155.527 173.688 155.527H161.71C160.607 155.527 159.713 154.655 159.713 153.578V141.883C159.713 140.807 160.607 139.934 161.71 139.934Z" fill="#4EDDBB"/>
<path d="M141.747 139.934H153.725C154.828 139.934 155.722 140.807 155.722 141.883V153.578C155.722 154.655 154.828 155.527 153.725 155.527H141.747C140.644 155.527 139.75 154.655 139.75 153.578V141.883C139.75 140.807 140.644 139.934 141.747 139.934Z" fill="#4EDDBB"/>
<path d="M121.782 139.934H133.761C134.863 139.934 135.757 140.807 135.757 141.883V153.578C135.757 154.655 134.863 155.527 133.761 155.527H121.782C120.68 155.527 119.786 154.655 119.786 153.578V141.883C119.786 140.807 120.68 139.934 121.782 139.934Z" fill="#4EDDBB"/>
<path d="M101.818 139.934H113.796C114.899 139.934 115.792 140.807 115.792 141.883V153.578C115.792 154.655 114.899 155.527 113.796 155.527H101.818C100.715 155.527 99.8211 154.655 99.8211 153.578V141.883C99.8211 140.807 100.715 139.934 101.818 139.934Z" fill="#4EDDBB"/>
<path d="M81.8525 139.934H93.8309C94.9335 139.934 95.8274 140.807 95.8274 141.883V153.578C95.8274 154.655 94.9335 155.527 93.8309 155.527H81.8525C80.7499 155.527 79.856 154.655 79.856 153.578V141.883C79.856 140.807 80.7499 139.934 81.8525 139.934Z" fill="#4EDDBB"/>
<path d="M501.101 159.424H513.079C514.182 159.424 515.076 160.297 515.076 161.373V173.068C515.076 174.145 514.182 175.017 513.079 175.017H501.101C499.998 175.017 499.104 174.145 499.104 173.068V161.373C499.104 160.297 499.998 159.424 501.101 159.424Z" fill="#4EDDBB"/>
<path d="M481.138 159.424H493.117C494.219 159.424 495.113 160.297 495.113 161.373V173.068C495.113 174.145 494.219 175.017 493.117 175.017H481.138C480.036 175.017 479.142 174.145 479.142 173.068V161.373C479.142 160.297 480.036 159.424 481.138 159.424Z" fill="#4EDDBB"/>
<path d="M461.172 159.424H473.151C474.253 159.424 475.147 160.297 475.147 161.373V173.068C475.147 174.145 474.253 175.017 473.151 175.017H461.172C460.07 175.017 459.176 174.145 459.176 173.068V161.373C459.176 160.297 460.07 159.424 461.172 159.424Z" fill="#4EDDBB"/>
<path d="M441.21 159.424H453.188C454.291 159.424 455.185 160.297 455.185 161.373V173.068C455.185 174.145 454.291 175.017 453.188 175.017H441.21C440.107 175.017 439.213 174.145 439.213 173.068V161.373C439.213 160.297 440.107 159.424 441.21 159.424Z" fill="#4EDDBB"/>
<path d="M421.245 159.424H433.224C434.326 159.424 435.22 160.297 435.22 161.373V173.068C435.22 174.145 434.326 175.017 433.224 175.017H421.245C420.142 175.017 419.249 174.145 419.249 173.068V161.373C419.249 160.297 420.142 159.424 421.245 159.424Z" fill="#4EDDBB"/>
<path d="M401.28 159.424H413.259C414.362 159.424 415.255 160.297 415.255 161.373V173.068C415.255 174.145 414.362 175.017 413.259 175.017H401.28C400.178 175.017 399.284 174.145 399.284 173.068V161.373C399.284 160.297 400.178 159.424 401.28 159.424Z" fill="#4EDDBB"/>
<path d="M381.318 159.424H393.296C394.399 159.424 395.293 160.297 395.293 161.373V173.068C395.293 174.145 394.399 175.017 393.296 175.017H381.318C380.215 175.017 379.321 174.145 379.321 173.068V161.373C379.321 160.297 380.215 159.424 381.318 159.424Z" fill="#4EDDBB"/>
<path d="M361.352 159.424H373.331C374.433 159.424 375.327 160.297 375.327 161.373V173.068C375.327 174.145 374.433 175.017 373.331 175.017H361.352C360.25 175.017 359.356 174.145 359.356 173.068V161.373C359.356 160.297 360.25 159.424 361.352 159.424Z" fill="#4EDDBB"/>
<path d="M341.387 159.424H353.366C354.469 159.424 355.362 160.297 355.362 161.373V173.068C355.362 174.145 354.469 175.017 353.366 175.017H341.387C340.285 175.017 339.391 174.145 339.391 173.068V161.373C339.391 160.297 340.285 159.424 341.387 159.424Z" fill="#4EDDBB"/>
<path d="M321.423 159.424H333.401C334.504 159.424 335.398 160.297 335.398 161.373V173.068C335.398 174.145 334.504 175.017 333.401 175.017H321.423C320.32 175.017 319.426 174.145 319.426 173.068V161.373C319.426 160.297 320.32 159.424 321.423 159.424Z" fill="#4EDDBB"/>
<path d="M301.46 159.424H313.439C314.541 159.424 315.435 160.297 315.435 161.373V173.068C315.435 174.145 314.541 175.017 313.439 175.017H301.46C300.358 175.017 299.464 174.145 299.464 173.068V161.373C299.464 160.297 300.358 159.424 301.46 159.424Z" fill="#4EDDBB"/>
<path d="M281.498 159.424H293.476C294.579 159.424 295.472 160.297 295.472 161.373V173.068C295.472 174.145 294.579 175.017 293.476 175.017H281.498C280.395 175.017 279.501 174.145 279.501 173.068V161.373C279.501 160.297 280.395 159.424 281.498 159.424Z" fill="#4EDDBB"/>
<path d="M261.532 159.424H273.51C274.613 159.424 275.507 160.297 275.507 161.373V173.068C275.507 174.145 274.613 175.017 273.51 175.017H261.532C260.429 175.017 259.535 174.145 259.535 173.068V161.373C259.535 160.297 260.429 159.424 261.532 159.424Z" fill="#4EDDBB"/>
<path d="M241.567 159.424H253.546C254.648 159.424 255.542 160.297 255.542 161.373V173.068C255.542 174.145 254.648 175.017 253.546 175.017H241.567C240.465 175.017 239.571 174.145 239.571 173.068V161.373C239.571 160.297 240.465 159.424 241.567 159.424Z" fill="#4EDDBB"/>
<path d="M221.603 159.424H233.581C234.684 159.424 235.577 160.297 235.577 161.373V173.068C235.577 174.145 234.684 175.017 233.581 175.017H221.603C220.5 175.017 219.606 174.145 219.606 173.068V161.373C219.606 160.297 220.5 159.424 221.603 159.424Z" fill="#4EDDBB"/>
<path d="M201.638 159.424H213.616C214.719 159.424 215.613 160.297 215.613 161.373V173.068C215.613 174.145 214.719 175.017 213.616 175.017H201.638C200.535 175.017 199.641 174.145 199.641 173.068V161.373C199.641 160.297 200.535 159.424 201.638 159.424Z" fill="#4EDDBB"/>
<path d="M181.675 159.424H193.654C194.756 159.424 195.65 160.297 195.65 161.373V173.068C195.65 174.145 194.756 175.017 193.654 175.017H181.675C180.573 175.017 179.679 174.145 179.679 173.068V161.373C179.679 160.297 180.573 159.424 181.675 159.424Z" fill="#4EDDBB"/>
<path d="M161.71 159.424H173.688C174.791 159.424 175.684 160.297 175.684 161.373V173.068C175.684 174.145 174.791 175.017 173.688 175.017H161.71C160.607 175.017 159.713 174.145 159.713 173.068V161.373C159.713 160.297 160.607 159.424 161.71 159.424Z" fill="#4EDDBB"/>
<path d="M141.747 159.424H153.725C154.828 159.424 155.722 160.297 155.722 161.373V173.068C155.722 174.145 154.828 175.017 153.725 175.017H141.747C140.644 175.017 139.75 174.145 139.75 173.068V161.373C139.75 160.297 140.644 159.424 141.747 159.424Z" fill="#4EDDBB"/>
<path d="M501.101 178.916H513.079C514.182 178.916 515.076 179.789 515.076 180.865V192.56C515.076 193.637 514.182 194.509 513.079 194.509H501.101C499.998 194.509 499.104 193.637 499.104 192.56V180.865C499.104 179.789 499.998 178.916 501.101 178.916Z" fill="#4EDDBB"/>
<path d="M481.138 178.916H493.117C494.219 178.916 495.113 179.789 495.113 180.865V192.56C495.113 193.637 494.219 194.509 493.117 194.509H481.138C480.036 194.509 479.142 193.637 479.142 192.56V180.865C479.142 179.789 480.036 178.916 481.138 178.916Z" fill="#4EDDBB"/>
<path d="M461.172 178.916H473.151C474.253 178.916 475.147 179.789 475.147 180.865V192.56C475.147 193.637 474.253 194.509 473.151 194.509H461.172C460.07 194.509 459.176 193.637 459.176 192.56V180.865C459.176 179.789 460.07 178.916 461.172 178.916Z" fill="#4EDDBB"/>
<path d="M441.21 178.916H453.188C454.291 178.916 455.185 179.789 455.185 180.865V192.56C455.185 193.637 454.291 194.509 453.188 194.509H441.21C440.107 194.509 439.213 193.637 439.213 192.56V180.865C439.213 179.789 440.107 178.916 441.21 178.916Z" fill="#4EDDBB"/>
<path d="M421.245 178.916H433.224C434.326 178.916 435.22 179.789 435.22 180.865V192.56C435.22 193.637 434.326 194.509 433.224 194.509H421.245C420.142 194.509 419.249 193.637 419.249 192.56V180.865C419.249 179.789 420.142 178.916 421.245 178.916Z" fill="#4EDDBB"/>
<path d="M401.28 178.916H413.259C414.362 178.916 415.255 179.789 415.255 180.865V192.56C415.255 193.637 414.362 194.509 413.259 194.509H401.28C400.178 194.509 399.284 193.637 399.284 192.56V180.865C399.284 179.789 400.178 178.916 401.28 178.916Z" fill="#4EDDBB"/>
<path d="M381.318 178.916H393.296C394.399 178.916 395.293 179.789 395.293 180.865V192.56C395.293 193.637 394.399 194.509 393.296 194.509H381.318C380.215 194.509 379.321 193.637 379.321 192.56V180.865C379.321 179.789 380.215 178.916 381.318 178.916Z" fill="#4EDDBB"/>
<path d="M361.352 178.916H373.331C374.433 178.916 375.327 179.789 375.327 180.865V192.56C375.327 193.637 374.433 194.509 373.331 194.509H361.352C360.25 194.509 359.356 193.637 359.356 192.56V180.865C359.356 179.789 360.25 178.916 361.352 178.916Z" fill="#4EDDBB"/>
<path d="M341.387 178.916H353.366C354.469 178.916 355.362 179.789 355.362 180.865V192.56C355.362 193.637 354.469 194.509 353.366 194.509H341.387C340.285 194.509 339.391 193.637 339.391 192.56V180.865C339.391 179.789 340.285 178.916 341.387 178.916Z" fill="#4EDDBB"/>
<path d="M321.423 178.916H333.401C334.504 178.916 335.398 179.789 335.398 180.865V192.56C335.398 193.637 334.504 194.509 333.401 194.509H321.423C320.32 194.509 319.426 193.637 319.426 192.56V180.865C319.426 179.789 320.32 178.916 321.423 178.916Z" fill="#4EDDBB"/>
<path d="M301.46 178.916H313.439C314.541 178.916 315.435 179.789 315.435 180.865V192.56C315.435 193.637 314.541 194.509 313.439 194.509H301.46C300.358 194.509 299.464 193.637 299.464 192.56V180.865C299.464 179.789 300.358 178.916 301.46 178.916Z" fill="#4EDDBB"/>
<path d="M281.498 178.916H293.476C294.579 178.916 295.472 179.789 295.472 180.865V192.56C295.472 193.637 294.579 194.509 293.476 194.509H281.498C280.395 194.509 279.501 193.637 279.501 192.56V180.865C279.501 179.789 280.395 178.916 281.498 178.916Z" fill="#4EDDBB"/>
<path d="M261.532 178.916H273.51C274.613 178.916 275.507 179.789 275.507 180.865V192.56C275.507 193.637 274.613 194.509 273.51 194.509H261.532C260.429 194.509 259.535 193.637 259.535 192.56V180.865C259.535 179.789 260.429 178.916 261.532 178.916Z" fill="#4EDDBB"/>
<path d="M241.567 178.916H253.546C254.648 178.916 255.542 179.789 255.542 180.865V192.56C255.542 193.637 254.648 194.509 253.546 194.509H241.567C240.465 194.509 239.571 193.637 239.571 192.56V180.865C239.571 179.789 240.465 178.916 241.567 178.916Z" fill="#4EDDBB"/>
<path d="M221.603 178.916H233.581C234.684 178.916 235.577 179.789 235.577 180.865V192.56C235.577 193.637 234.684 194.509 233.581 194.509H221.603C220.5 194.509 219.606 193.637 219.606 192.56V180.865C219.606 179.789 220.5 178.916 221.603 178.916Z" fill="#4EDDBB"/>
<path d="M201.638 178.916H213.616C214.719 178.916 215.613 179.789 215.613 180.865V192.56C215.613 193.637 214.719 194.509 213.616 194.509H201.638C200.535 194.509 199.641 193.637 199.641 192.56V180.865C199.641 179.789 200.535 178.916 201.638 178.916Z" fill="#4EDDBB"/>
<path d="M181.675 178.916H193.654C194.756 178.916 195.65 179.789 195.65 180.865V192.56C195.65 193.637 194.756 194.509 193.654 194.509H181.675C180.573 194.509 179.679 193.637 179.679 192.56V180.865C179.679 179.789 180.573 178.916 181.675 178.916Z" fill="#4EDDBB"/>
<path d="M161.71 178.916H173.688C174.791 178.916 175.684 179.789 175.684 180.865V192.56C175.684 193.637 174.791 194.509 173.688 194.509H161.71C160.607 194.509 159.713 193.637 159.713 192.56V180.865C159.713 179.789 160.607 178.916 161.71 178.916Z" fill="#4EDDBB"/>
<path d="M141.747 178.916H153.725C154.828 178.916 155.722 179.789 155.722 180.865V192.56C155.722 193.637 154.828 194.509 153.725 194.509H141.747C140.644 194.509 139.75 193.637 139.75 192.56V180.865C139.75 179.789 140.644 178.916 141.747 178.916Z" fill="#4EDDBB"/>
<path d="M121.782 178.916H133.761C134.863 178.916 135.757 179.789 135.757 180.865V192.56C135.757 193.637 134.863 194.509 133.761 194.509H121.782C120.68 194.509 119.786 193.637 119.786 192.56V180.865C119.786 179.789 120.68 178.916 121.782 178.916Z" fill="#4EDDBB"/>
<path d="M101.818 178.916H113.796C114.899 178.916 115.792 179.789 115.792 180.865V192.56C115.792 193.637 114.899 194.509 113.796 194.509H101.818C100.715 194.509 99.8211 193.637 99.8211 192.56V180.865C99.8211 179.789 100.715 178.916 101.818 178.916Z" fill="#4EDDBB"/>
<path d="M81.8525 178.916H93.8309C94.9335 178.916 95.8274 179.789 95.8274 180.865V192.56C95.8274 193.637 94.9335 194.509 93.8309 194.509H81.8525C80.7499 194.509 79.856 193.637 79.856 192.56V180.865C79.856 179.789 80.7499 178.916 81.8525 178.916Z" fill="#4EDDBB"/>
<path d="M61.8876 178.916H73.8661C74.9687 178.916 75.8625 179.789 75.8625 180.865V192.56C75.8625 193.637 74.9687 194.509 73.8661 194.509H61.8876C60.785 194.509 59.8912 193.637 59.8912 192.56V180.865C59.8912 179.789 60.785 178.916 61.8876 178.916Z" fill="#4EDDBB"/>
<path d="M41.9247 178.916H53.9032C55.0058 178.916 55.8997 179.789 55.8997 180.865V192.56C55.8997 193.637 55.0058 194.509 53.9032 194.509H41.9247C40.8222 194.509 39.9283 193.637 39.9283 192.56V180.865C39.9283 179.789 40.8222 178.916 41.9247 178.916Z" fill="#4EDDBB"/>
<path d="M21.9618 178.916H33.9403C35.0429 178.916 35.9367 179.789 35.9367 180.865V192.56C35.9367 193.637 35.0429 194.509 33.9403 194.509H21.9618C20.8592 194.509 19.9654 193.637 19.9654 192.56V180.865C19.9654 179.789 20.8592 178.916 21.9618 178.916Z" fill="#4EDDBB"/>
<path d="M1.99704 178.916H13.9755C15.0781 178.916 15.972 179.789 15.972 180.865V192.56C15.972 193.637 15.0781 194.509 13.9755 194.509H1.99704C0.894452 194.509 0.000626564 193.637 0.000626564 192.56V180.865C0.000626564 179.789 0.894452 178.916 1.99704 178.916Z" fill="#4EDDBB"/>
<path d="M501.101 198.408H513.079C514.182 198.408 515.076 199.281 515.076 200.357V212.052C515.076 213.129 514.182 214.001 513.079 214.001H501.101C499.998 214.001 499.104 213.129 499.104 212.052V200.357C499.104 199.281 499.998 198.408 501.101 198.408Z" fill="#4EDDBB"/>
<path d="M481.138 198.408H493.117C494.219 198.408 495.113 199.281 495.113 200.357V212.052C495.113 213.129 494.219 214.001 493.117 214.001H481.138C480.036 214.001 479.142 213.129 479.142 212.052V200.357C479.142 199.281 480.036 198.408 481.138 198.408Z" fill="#4EDDBB"/>
<path d="M461.172 198.408H473.151C474.253 198.408 475.147 199.281 475.147 200.357V212.052C475.147 213.129 474.253 214.001 473.151 214.001H461.172C460.07 214.001 459.176 213.129 459.176 212.052V200.357C459.176 199.281 460.07 198.408 461.172 198.408Z" fill="#4EDDBB"/>
<path d="M441.21 198.408H453.188C454.291 198.408 455.185 199.281 455.185 200.357V212.052C455.185 213.129 454.291 214.001 453.188 214.001H441.21C440.107 214.001 439.213 213.129 439.213 212.052V200.357C439.213 199.281 440.107 198.408 441.21 198.408Z" fill="#4EDDBB"/>
<path d="M421.245 198.408H433.224C434.326 198.408 435.22 199.281 435.22 200.357V212.052C435.22 213.129 434.326 214.001 433.224 214.001H421.245C420.142 214.001 419.249 213.129 419.249 212.052V200.357C419.249 199.281 420.142 198.408 421.245 198.408Z" fill="#4EDDBB"/>
<path d="M401.28 198.408H413.259C414.362 198.408 415.255 199.281 415.255 200.357V212.052C415.255 213.129 414.362 214.001 413.259 214.001H401.28C400.178 214.001 399.284 213.129 399.284 212.052V200.357C399.284 199.281 400.178 198.408 401.28 198.408Z" fill="#4EDDBB"/>
<path d="M381.318 198.408H393.296C394.399 198.408 395.293 199.281 395.293 200.357V212.052C395.293 213.129 394.399 214.001 393.296 214.001H381.318C380.215 214.001 379.321 213.129 379.321 212.052V200.357C379.321 199.281 380.215 198.408 381.318 198.408Z" fill="#4EDDBB"/>
<path d="M361.352 198.408H373.331C374.433 198.408 375.327 199.281 375.327 200.357V212.052C375.327 213.129 374.433 214.001 373.331 214.001H361.352C360.25 214.001 359.356 213.129 359.356 212.052V200.357C359.356 199.281 360.25 198.408 361.352 198.408Z" fill="#4EDDBB"/>
<path d="M341.387 198.408H353.366C354.469 198.408 355.362 199.281 355.362 200.357V212.052C355.362 213.129 354.469 214.001 353.366 214.001H341.387C340.285 214.001 339.391 213.129 339.391 212.052V200.357C339.391 199.281 340.285 198.408 341.387 198.408Z" fill="#4EDDBB"/>
<path d="M321.423 198.408H333.401C334.504 198.408 335.398 199.281 335.398 200.357V212.052C335.398 213.129 334.504 214.001 333.401 214.001H321.423C320.32 214.001 319.426 213.129 319.426 212.052V200.357C319.426 199.281 320.32 198.408 321.423 198.408Z" fill="#4EDDBB"/>
<path d="M301.46 198.408H313.439C314.541 198.408 315.435 199.281 315.435 200.357V212.052C315.435 213.129 314.541 214.001 313.439 214.001H301.46C300.358 214.001 299.464 213.129 299.464 212.052V200.357C299.464 199.281 300.358 198.408 301.46 198.408Z" fill="#4EDDBB"/>
<path d="M281.498 198.408H293.476C294.579 198.408 295.472 199.281 295.472 200.357V212.052C295.472 213.129 294.579 214.001 293.476 214.001H281.498C280.395 214.001 279.501 213.129 279.501 212.052V200.357C279.501 199.281 280.395 198.408 281.498 198.408Z" fill="#4EDDBB"/>
<path d="M261.532 198.408H273.51C274.613 198.408 275.507 199.281 275.507 200.357V212.052C275.507 213.129 274.613 214.001 273.51 214.001H261.532C260.429 214.001 259.535 213.129 259.535 212.052V200.357C259.535 199.281 260.429 198.408 261.532 198.408Z" fill="#4EDDBB"/>
<path d="M241.567 198.408H253.546C254.648 198.408 255.542 199.281 255.542 200.357V212.052C255.542 213.129 254.648 214.001 253.546 214.001H241.567C240.465 214.001 239.571 213.129 239.571 212.052V200.357C239.571 199.281 240.465 198.408 241.567 198.408Z" fill="#4EDDBB"/>
<path d="M221.603 198.408H233.581C234.684 198.408 235.577 199.281 235.577 200.357V212.052C235.577 213.129 234.684 214.001 233.581 214.001H221.603C220.5 214.001 219.606 213.129 219.606 212.052V200.357C219.606 199.281 220.5 198.408 221.603 198.408Z" fill="#4EDDBB"/>
<path d="M201.638 198.408H213.616C214.719 198.408 215.613 199.281 215.613 200.357V212.052C215.613 213.129 214.719 214.001 213.616 214.001H201.638C200.535 214.001 199.641 213.129 199.641 212.052V200.357C199.641 199.281 200.535 198.408 201.638 198.408Z" fill="#4EDDBB"/>
<path d="M181.675 198.408H193.654C194.756 198.408 195.65 199.281 195.65 200.357V212.052C195.65 213.129 194.756 214.001 193.654 214.001H181.675C180.573 214.001 179.679 213.129 179.679 212.052V200.357C179.679 199.281 180.573 198.408 181.675 198.408Z" fill="#4EDDBB"/>
<path d="M161.71 198.408H173.688C174.791 198.408 175.684 199.281 175.684 200.357V212.052C175.684 213.129 174.791 214.001 173.688 214.001H161.71C160.607 214.001 159.713 213.129 159.713 212.052V200.357C159.713 199.281 160.607 198.408 161.71 198.408Z" fill="#4EDDBB"/>
<path d="M141.747 198.408H153.725C154.828 198.408 155.722 199.281 155.722 200.357V212.052C155.722 213.129 154.828 214.001 153.725 214.001H141.747C140.644 214.001 139.75 213.129 139.75 212.052V200.357C139.75 199.281 140.644 198.408 141.747 198.408Z" fill="#4EDDBB"/>
<path d="M121.782 198.408H133.761C134.863 198.408 135.757 199.281 135.757 200.357V212.052C135.757 213.129 134.863 214.001 133.761 214.001H121.782C120.68 214.001 119.786 213.129 119.786 212.052V200.357C119.786 199.281 120.68 198.408 121.782 198.408Z" fill="#4EDDBB"/>
<path d="M101.818 198.408H113.796C114.899 198.408 115.792 199.281 115.792 200.357V212.052C115.792 213.129 114.899 214.001 113.796 214.001H101.818C100.715 214.001 99.8211 213.129 99.8211 212.052V200.357C99.8211 199.281 100.715 198.408 101.818 198.408Z" fill="#4EDDBB"/>
<path d="M81.8525 198.408H93.8309C94.9335 198.408 95.8274 199.281 95.8274 200.357V212.052C95.8274 213.129 94.9335 214.001 93.8309 214.001H81.8525C80.7499 214.001 79.856 213.129 79.856 212.052V200.357C79.856 199.281 80.7499 198.408 81.8525 198.408Z" fill="#4EDDBB"/>
<path d="M61.8876 198.408H73.8661C74.9687 198.408 75.8625 199.281 75.8625 200.357V212.052C75.8625 213.129 74.9687 214.001 73.8661 214.001H61.8876C60.785 214.001 59.8912 213.129 59.8912 212.052V200.357C59.8912 199.281 60.785 198.408 61.8876 198.408Z" fill="#4EDDBB"/>
<path d="M41.9247 198.408H53.9032C55.0058 198.408 55.8997 199.281 55.8997 200.357V212.052C55.8997 213.129 55.0058 214.001 53.9032 214.001H41.9247C40.8222 214.001 39.9283 213.129 39.9283 212.052V200.357C39.9283 199.281 40.8222 198.408 41.9247 198.408Z" fill="#4EDDBB"/>
<path d="M21.9618 198.408H33.9403C35.0429 198.408 35.9367 199.281 35.9367 200.357V212.052C35.9367 213.129 35.0429 214.001 33.9403 214.001H21.9618C20.8592 214.001 19.9654 213.129 19.9654 212.052V200.357C19.9654 199.281 20.8592 198.408 21.9618 198.408Z" fill="#4EDDBB"/>
<path d="M1.99704 198.408H13.9755C15.0781 198.408 15.972 199.281 15.972 200.357V212.052C15.972 213.129 15.0781 214.001 13.9755 214.001H1.99704C0.894452 214.001 0.000626564 213.129 0.000626564 212.052V200.357C0.000626564 199.281 0.894452 198.408 1.99704 198.408Z" fill="#4EDDBB"/>
<path d="M501.101 217.898H513.079C514.182 217.898 515.076 218.771 515.076 219.847V231.542C515.076 232.619 514.182 233.491 513.079 233.491H501.101C499.998 233.491 499.104 232.619 499.104 231.542V219.847C499.104 218.771 499.998 217.898 501.101 217.898Z" fill="#4EDDBB"/>
<path d="M501.101 217.898H513.079C514.182 217.898 515.076 218.771 515.076 219.847V231.542C515.076 232.619 514.182 233.491 513.079 233.491H501.101C499.998 233.491 499.104 232.619 499.104 231.542V219.847C499.104 218.771 499.998 217.898 501.101 217.898Z" fill="#4EDDBB"/>
<path d="M481.138 217.898H493.117C494.219 217.898 495.113 218.771 495.113 219.847V231.542C495.113 232.619 494.219 233.491 493.117 233.491H481.138C480.036 233.491 479.142 232.619 479.142 231.542V219.847C479.142 218.771 480.036 217.898 481.138 217.898Z" fill="#4EDDBB"/>
<path d="M461.172 217.898H473.151C474.253 217.898 475.147 218.771 475.147 219.847V231.542C475.147 232.619 474.253 233.491 473.151 233.491H461.172C460.07 233.491 459.176 232.619 459.176 231.542V219.847C459.176 218.771 460.07 217.898 461.172 217.898Z" fill="#4EDDBB"/>
<path d="M441.21 217.898H453.188C454.291 217.898 455.185 218.771 455.185 219.847V231.542C455.185 232.619 454.291 233.491 453.188 233.491H441.21C440.107 233.491 439.213 232.619 439.213 231.542V219.847C439.213 218.771 440.107 217.898 441.21 217.898Z" fill="#4EDDBB"/>
<path d="M421.245 217.898H433.224C434.326 217.898 435.22 218.771 435.22 219.847V231.542C435.22 232.619 434.326 233.491 433.224 233.491H421.245C420.142 233.491 419.249 232.619 419.249 231.542V219.847C419.249 218.771 420.142 217.898 421.245 217.898Z" fill="#4EDDBB"/>
<path d="M401.28 217.898H413.259C414.362 217.898 415.255 218.771 415.255 219.847V231.542C415.255 232.619 414.362 233.491 413.259 233.491H401.28C400.178 233.491 399.284 232.619 399.284 231.542V219.847C399.284 218.771 400.178 217.898 401.28 217.898Z" fill="#4EDDBB"/>
<path d="M381.318 217.898H393.296C394.399 217.898 395.293 218.771 395.293 219.847V231.542C395.293 232.619 394.399 233.491 393.296 233.491H381.318C380.215 233.491 379.321 232.619 379.321 231.542V219.847C379.321 218.771 380.215 217.898 381.318 217.898Z" fill="#4EDDBB"/>
<path d="M361.352 217.898H373.331C374.433 217.898 375.327 218.771 375.327 219.847V231.542C375.327 232.619 374.433 233.491 373.331 233.491H361.352C360.25 233.491 359.356 232.619 359.356 231.542V219.847C359.356 218.771 360.25 217.898 361.352 217.898Z" fill="#4EDDBB"/>
<path d="M341.387 217.898H353.366C354.469 217.898 355.362 218.771 355.362 219.847V231.542C355.362 232.619 354.469 233.491 353.366 233.491H341.387C340.285 233.491 339.391 232.619 339.391 231.542V219.847C339.391 218.771 340.285 217.898 341.387 217.898Z" fill="#4EDDBB"/>
<path d="M321.423 217.898H333.401C334.504 217.898 335.398 218.771 335.398 219.847V231.542C335.398 232.619 334.504 233.491 333.401 233.491H321.423C320.32 233.491 319.426 232.619 319.426 231.542V219.847C319.426 218.771 320.32 217.898 321.423 217.898Z" fill="#4EDDBB"/>
<path d="M301.46 217.898H313.439C314.541 217.898 315.435 218.771 315.435 219.847V231.542C315.435 232.619 314.541 233.491 313.439 233.491H301.46C300.358 233.491 299.464 232.619 299.464 231.542V219.847C299.464 218.771 300.358 217.898 301.46 217.898Z" fill="#4EDDBB"/>
<path d="M281.498 217.898H293.476C294.579 217.898 295.472 218.771 295.472 219.847V231.542C295.472 232.619 294.579 233.491 293.476 233.491H281.498C280.395 233.491 279.501 232.619 279.501 231.542V219.847C279.501 218.771 280.395 217.898 281.498 217.898Z" fill="#4EDDBB"/>
<path d="M261.532 217.898H273.51C274.613 217.898 275.507 218.771 275.507 219.847V231.542C275.507 232.619 274.613 233.491 273.51 233.491H261.532C260.429 233.491 259.535 232.619 259.535 231.542V219.847C259.535 218.771 260.429 217.898 261.532 217.898Z" fill="#4EDDBB"/>
<path d="M241.567 217.898H253.546C254.648 217.898 255.542 218.771 255.542 219.847V231.542C255.542 232.619 254.648 233.491 253.546 233.491H241.567C240.465 233.491 239.571 232.619 239.571 231.542V219.847C239.571 218.771 240.465 217.898 241.567 217.898Z" fill="#4EDDBB"/>
<path d="M221.603 217.898H233.581C234.684 217.898 235.577 218.771 235.577 219.847V231.542C235.577 232.619 234.684 233.491 233.581 233.491H221.603C220.5 233.491 219.606 232.619 219.606 231.542V219.847C219.606 218.771 220.5 217.898 221.603 217.898Z" fill="#4EDDBB"/>
<path d="M201.638 217.898H213.616C214.719 217.898 215.613 218.771 215.613 219.847V231.542C215.613 232.619 214.719 233.491 213.616 233.491H201.638C200.535 233.491 199.641 232.619 199.641 231.542V219.847C199.641 218.771 200.535 217.898 201.638 217.898Z" fill="#4EDDBB"/>
<path d="M181.675 217.898H193.654C194.756 217.898 195.65 218.771 195.65 219.847V231.542C195.65 232.619 194.756 233.491 193.654 233.491H181.675C180.573 233.491 179.679 232.619 179.679 231.542V219.847C179.679 218.771 180.573 217.898 181.675 217.898Z" fill="#4EDDBB"/>
<path d="M161.71 217.898H173.688C174.791 217.898 175.684 218.771 175.684 219.847V231.542C175.684 232.619 174.791 233.491 173.688 233.491H161.71C160.607 233.491 159.713 232.619 159.713 231.542V219.847C159.713 218.771 160.607 217.898 161.71 217.898Z" fill="#4EDDBB"/>
<path d="M141.747 217.898H153.725C154.828 217.898 155.722 218.771 155.722 219.847V231.542C155.722 232.619 154.828 233.491 153.725 233.491H141.747C140.644 233.491 139.75 232.619 139.75 231.542V219.847C139.75 218.771 140.644 217.898 141.747 217.898Z" fill="#4EDDBB"/>
<path d="M121.782 217.898H133.761C134.863 217.898 135.757 218.771 135.757 219.847V231.542C135.757 232.619 134.863 233.491 133.761 233.491H121.782C120.68 233.491 119.786 232.619 119.786 231.542V219.847C119.786 218.771 120.68 217.898 121.782 217.898Z" fill="#4EDDBB"/>
<path d="M81.8525 217.898H93.8309C94.9335 217.898 95.8274 218.771 95.8274 219.847V231.542C95.8274 232.619 94.9335 233.491 93.8309 233.491H81.8525C80.7499 233.491 79.856 232.619 79.856 231.542V219.847C79.856 218.771 80.7499 217.898 81.8525 217.898Z" fill="#4EDDBB"/>
</g>
<path d="M501.022 178.916H512.986C514.087 178.916 514.98 179.789 514.98 180.865V192.56C514.98 193.637 514.087 194.509 512.986 194.509H501.022C499.92 194.509 499.028 193.637 499.028 192.56V180.865C499.028 179.789 499.92 178.916 501.022 178.916Z" fill="#4EDDBB"/>
<path d="M481.08 178.916H493.044C494.145 178.916 495.038 179.789 495.038 180.865V192.56C495.038 193.637 494.145 194.509 493.044 194.509H481.08C479.979 194.509 479.086 193.637 479.086 192.56V180.865C479.086 179.789 479.979 178.916 481.08 178.916Z" fill="#4EDDBB"/>
<path d="M461.141 178.916H473.105C474.207 178.916 475.099 179.789 475.099 180.865V192.56C475.099 193.637 474.207 194.509 473.105 194.509H461.141C460.04 194.509 459.147 193.637 459.147 192.56V180.865C459.147 179.789 460.04 178.916 461.141 178.916Z" fill="#4EDDBB"/>
<path d="M441.201 178.916H453.165C454.266 178.916 455.159 179.789 455.159 180.865V192.56C455.159 193.637 454.266 194.509 453.165 194.509H441.201C440.099 194.509 439.206 193.637 439.206 192.56V180.865C439.206 179.789 440.099 178.916 441.201 178.916Z" fill="#4EDDBB"/>
<path d="M421.26 178.916H433.224C434.325 178.916 435.218 179.789 435.218 180.865V192.56C435.218 193.637 434.325 194.509 433.224 194.509H421.26C420.159 194.509 419.266 193.637 419.266 192.56V180.865C419.266 179.789 420.159 178.916 421.26 178.916Z" fill="#4EDDBB"/>
<path d="M401.321 178.916H413.285C414.386 178.916 415.279 179.789 415.279 180.865V192.56C415.279 193.637 414.386 194.509 413.285 194.509H401.321C400.22 194.509 399.327 193.637 399.327 192.56V180.865C399.327 179.789 400.22 178.916 401.321 178.916Z" fill="#4EDDBB"/>
<path d="M381.379 178.916H393.343C394.445 178.916 395.337 179.789 395.337 180.865V192.56C395.337 193.637 394.445 194.509 393.343 194.509H381.379C380.278 194.509 379.385 193.637 379.385 192.56V180.865C379.385 179.789 380.278 178.916 381.379 178.916Z" fill="#4EDDBB"/>
<path d="M361.439 178.916H373.403C374.504 178.916 375.397 179.789 375.397 180.865V192.56C375.397 193.637 374.504 194.509 373.403 194.509H361.439C360.337 194.509 359.445 193.637 359.445 192.56V180.865C359.445 179.789 360.337 178.916 361.439 178.916Z" fill="#4EDDBB"/>
<path d="M341.498 178.916H353.462C354.563 178.916 355.456 179.789 355.456 180.865V192.56C355.456 193.637 354.563 194.509 353.462 194.509H341.498C340.397 194.509 339.504 193.637 339.504 192.56V180.865C339.504 179.789 340.397 178.916 341.498 178.916Z" fill="#4EDDBB"/>
<path d="M321.559 178.916H333.523C334.625 178.916 335.517 179.789 335.517 180.865V192.56C335.517 193.637 334.625 194.509 333.523 194.509H321.559C320.458 194.509 319.565 193.637 319.565 192.56V180.865C319.565 179.789 320.458 178.916 321.559 178.916Z" fill="#4EDDBB"/>
</g>
</svg>
