<svg width="32" height="32" viewBox="0 0 32 32" fill="none" xmlns="http://www.w3.org/2000/svg">
<g id="Telegram">
<g id="Symbol">
<path id="Oval" d="M16 32C24.8366 32 32 24.8366 32 16C32 7.16344 24.8366 0 16 0C7.16344 0 0 7.16344 0 16C0 24.8366 7.16344 32 16 32Z" fill="white"/>
<path id="Path-3" fill-rule="evenodd" clip-rule="evenodd" d="M7.24248 15.8309C11.9068 13.7988 15.0171 12.459 16.5733 11.8117C21.0167 9.96359 21.94 9.64255 22.5418 9.63195C22.6741 9.62962 22.9701 9.66242 23.1618 9.81797C23.3236 9.94931 23.3682 10.1267 23.3895 10.2513C23.4108 10.3758 23.4373 10.6595 23.4162 10.8811C23.1755 13.4111 22.1336 19.5507 21.6035 22.3843C21.3792 23.5833 20.9376 23.9854 20.5101 24.0247C19.5809 24.1102 18.8754 23.4107 17.9754 22.8207C16.5672 21.8976 15.7717 21.323 14.4048 20.4222C12.8251 19.3812 13.8491 18.8091 14.7494 17.874C14.985 17.6293 19.0789 13.9056 19.1581 13.5678C19.168 13.5256 19.1772 13.3681 19.0836 13.285C18.9901 13.2018 18.852 13.2303 18.7524 13.2529C18.6111 13.2849 16.3615 14.7718 12.0035 17.7136C11.3649 18.1521 10.7866 18.3658 10.2683 18.3546C9.69706 18.3422 8.59814 18.0315 7.78121 17.766C6.77921 17.4403 5.98284 17.2681 6.05218 16.7149C6.0883 16.4268 6.48507 16.1321 7.24248 15.8309Z" fill="#131313"/>
</g>
</g>
</svg>
