<svg width="21" height="20" viewBox="0 0 21 20" fill="none" xmlns="http://www.w3.org/2000/svg">
<g id="fast time">
<path id="Ellipse 1193" opacity="0.4" d="M21 10C21 15.5228 16.5228 20 11 20C5.47715 20 1 15.5228 1 10C1 4.47715 5.47715 0 11 0C16.5228 0 21 4.47715 21 10Z" fill="#4EDDBB"/>
<path id="Ellipse 456" d="M13 10C13 11.1046 12.1046 12 11 12C9.89543 12 9 11.1046 9 10C9 8.89543 9.89543 8 11 8C12.1046 8 13 8.89543 13 10Z" fill="#4EDDBB"/>
<path id="Vector 1171 (Stroke)" fill-rule="evenodd" clip-rule="evenodd" d="M11 3.25C10.5858 3.25 10.25 3.58579 10.25 4V8.5C10.25 8.91421 10.5858 9.25 11 9.25C11.4142 9.25 11.75 8.91421 11.75 8.5V4C11.75 3.58579 11.4142 3.25 11 3.25ZM11.9697 10.9697C11.6768 11.2626 11.6768 11.7374 11.9697 12.0303L13.4697 13.5303C13.7626 13.8232 14.2374 13.8232 14.5303 13.5303C14.8232 13.2374 14.8232 12.7626 14.5303 12.4697L13.0303 10.9697C12.7374 10.6768 12.2626 10.6768 11.9697 10.9697Z" fill="#4EDDBB"/>
<path id="Vector 2190 (Stroke)" fill-rule="evenodd" clip-rule="evenodd" d="M0.25 16C0.25 15.5858 0.585786 15.25 1 15.25H7C7.41421 15.25 7.75 15.5858 7.75 16C7.75 16.4142 7.41421 16.75 7 16.75H1C0.585786 16.75 0.25 16.4142 0.25 16Z" fill="#4EDDBB"/>
<path id="Vector 2192 (Stroke)" fill-rule="evenodd" clip-rule="evenodd" d="M0.25 19C0.25 18.5858 0.585786 18.25 1 18.25H9C9.41421 18.25 9.75 18.5858 9.75 19C9.75 19.4142 9.41421 19.75 9 19.75H1C0.585786 19.75 0.25 19.4142 0.25 19Z" fill="#4EDDBB"/>
<path id="Vector 2191 (Stroke)" fill-rule="evenodd" clip-rule="evenodd" d="M0.25 13C0.25 12.5858 0.585786 12.25 1 12.25H5C5.41421 12.25 5.75 12.5858 5.75 13C5.75 13.4142 5.41421 13.75 5 13.75H1C0.585786 13.75 0.25 13.4142 0.25 13Z" fill="#4EDDBB"/>
</g>
</svg>
