<svg width="32" height="32" viewBox="0 0 32 32" fill="none" xmlns="http://www.w3.org/2000/svg">
<g id="Whatsapp">
<g id="Group 1">
<path id="Vector" d="M8.864 26.9256L9.3455 27.211C11.3688 28.4117 13.6884 29.0467 16.0538 29.048H16.059C23.3233 29.048 29.2358 23.1369 29.2389 15.872C29.2399 12.3512 27.8705 9.04063 25.382 6.5503C22.8934 4.06004 19.5846 2.68775 16.0639 2.68631C8.79382 2.68631 2.88155 8.59653 2.87866 15.8612C2.87767 18.3507 3.57419 20.7752 4.89364 22.8732L5.20735 23.3715L3.87551 28.2335L8.864 26.9256ZM0.0682373 31.9997L2.31793 23.7854C0.930356 21.3813 0.200304 18.6541 0.201368 15.8602C0.204866 7.11977 7.31813 0.00878906 16.059 0.00878906C20.3007 0.0106138 24.282 1.66156 27.2761 4.65772C30.2698 7.65412 31.9178 11.637 31.9164 15.873C31.9127 24.613 24.7984 31.7253 16.059 31.7253C16.0584 31.7253 16.0594 31.7253 16.059 31.7253H16.0521C13.3984 31.7242 10.7906 31.0586 8.47456 29.7955L0.0682373 31.9997Z" fill="white"/>
<path id="Vector_2" d="M0.737505 15.8482C0.737505 18.5659 1.44783 21.191 2.8067 23.5073L0.61397 31.4443L8.73632 29.3134C10.9599 30.5487 13.4924 31.1664 16.0557 31.1664C24.4869 31.1664 31.3739 24.3103 31.3739 15.8791C31.3739 11.7716 29.768 7.94202 26.8958 5.03897C23.9928 2.16681 20.1632 0.560873 16.0557 0.560873C7.62452 0.560873 0.737505 7.417 0.737505 15.8482Z" fill="#131313"/>
<path id="Vector_3" d="M0.190405 15.8358C0.190405 18.651 0.926197 21.3702 2.3338 23.7695L0.0624409 31.9912L8.47606 29.7838C10.7794 31.0635 13.4027 31.7033 16.0579 31.7033C24.7914 31.7033 31.9254 24.6013 31.9254 15.8678C31.9254 11.613 30.2619 7.64611 27.2867 4.63896C24.2796 1.6638 20.3127 0.000272751 16.0579 0.000272751C7.32438 0.000272751 0.190405 7.10226 0.190405 15.8358ZM5.21298 23.3537L4.89307 22.8738C3.58144 20.7624 2.87764 18.3311 2.87764 15.8678C2.87764 8.57384 8.79597 2.68751 16.0579 2.68751C19.5769 2.68751 22.904 4.06312 25.3673 6.52642C27.8626 9.02172 29.2382 12.3488 29.2382 15.8678C29.2382 23.1297 23.3199 29.048 16.0579 29.048C13.6906 29.048 11.3552 28.4082 9.33981 27.1926L8.85995 26.9047L3.86936 28.2163L5.21298 23.3537Z" fill="url(#paint0_linear_352_25247)"/>
<path id="Vector_4" fill-rule="evenodd" clip-rule="evenodd" d="M12.0957 9.23977C11.7989 8.57997 11.4865 8.56674 11.2041 8.55518C10.9732 8.5453 10.7087 8.54591 10.4448 8.54591C10.1806 8.54591 9.75128 8.64513 9.38831 9.04163C9.02503 9.43813 8.00134 10.3966 8.00134 12.346C8.00134 14.2955 9.4213 16.1792 9.61921 16.4438C9.81735 16.708 12.3603 20.8362 16.3876 22.4244C19.7346 23.7443 20.4157 23.4817 21.1422 23.4157C21.8687 23.3497 23.4864 22.4574 23.8166 21.5322C24.1468 20.6071 24.1468 19.8142 24.0478 19.6485C23.9487 19.4833 23.6846 19.3842 23.2883 19.1861C22.892 18.988 20.9441 18.0293 20.5808 17.8972C20.2176 17.7652 19.9534 17.6991 19.6893 18.0957C19.425 18.492 18.6662 19.3842 18.435 19.6485C18.2038 19.9133 17.9727 19.9463 17.5764 19.7481C17.1801 19.5494 15.904 19.1314 14.3902 17.7817C13.2123 16.7315 12.4171 15.4346 12.1859 15.0379C11.9547 14.6416 12.1612 14.427 12.3599 14.2295C12.5378 14.0519 12.7562 13.767 12.9543 13.5356C13.152 13.3042 13.2181 13.1391 13.3501 12.8749C13.4822 12.6103 13.4162 12.3789 13.3171 12.1808C13.2181 11.9827 12.448 10.0232 12.0957 9.23977Z" fill="white"/>
</g>
</g>
<defs>
<linearGradient id="paint0_linear_352_25247" x1="15.9925" y1="31.9912" x2="15.9925" y2="0.000272751" gradientUnits="userSpaceOnUse">
<stop stop-color="#F9F9F9"/>
<stop offset="1" stop-color="white"/>
</linearGradient>
</defs>
</svg>
